  0
SECTION
  2
HEADER
  9
$ACADVER
  1
AC1012
  9
$DWGCODEPAGE
  3
ansi_1252
  9
$INSBASE
 10
0.0
 20
0.0
 30
0.0
  9
$EXTMIN
 10
-180.795
 20
-145.2582
 30
0.0
  9
$EXTMAX
 10
112.5227
 20
118.7875
 30
0.0
  9
$LIMMIN
 10
0.0
 20
0.0
  9
$LIMMAX
 10
12.0
 20
9.0
  9
$ORTHOMODE
 70
     0
  9
$REGENMODE
 70
     1
  9
$FILLMODE
 70
     1
  9
$QTEXTMODE
 70
     0
  9
$MIRRTEXT
 70
     1
  9
$DRAGMODE
 70
     2
  9
$LTSCALE
 40
1.0
  9
$OSMODE
 70
    37
  9
$ATTMODE
 70
     1
  9
$TEXTSIZE
 40
0.2
  9
$TRACEWID
 40
0.05
  9
$TEXTSTYLE
  7
STANDARD
  9
$CLAYER
  8
0
  9
$CELTYPE
  6
BYLAYER
  9
$CECOLOR
 62
   256
  9
$CELTSCALE
 40
1.0
  9
$DELOBJ
 70
     1
  9
$DISPSILH
 70
     0
  9
$DIMSCALE
 40
1.0
  9
$DIMASZ
 40
0.18
  9
$DIMEXO
 40
0.0625
  9
$DIMDLI
 40
0.38
  9
$DIMRND
 40
0.0
  9
$DIMDLE
 40
0.0
  9
$DIMEXE
 40
0.18
  9
$DIMTP
 40
0.0
  9
$DIMTM
 40
0.0
  9
$DIMTXT
 40
0.18
  9
$DIMCEN
 40
0.09
  9
$DIMTSZ
 40
0.0
  9
$DIMTOL
 70
     0
  9
$DIMLIM
 70
     0
  9
$DIMTIH
 70
     1
  9
$DIMTOH
 70
     1
  9
$DIMSE1
 70
     0
  9
$DIMSE2
 70
     0
  9
$DIMTAD
 70
     0
  9
$DIMZIN
 70
     0
  9
$DIMBLK
  1

  9
$DIMASO
 70
     1
  9
$DIMSHO
 70
     1
  9
$DIMPOST
  1

  9
$DIMAPOST
  1

  9
$DIMALT
 70
     0
  9
$DIMALTD
 70
     2
  9
$DIMALTF
 40
25.4
  9
$DIMLFAC
 40
1.0
  9
$DIMTOFL
 70
     0
  9
$DIMTVP
 40
0.0
  9
$DIMTIX
 70
     0
  9
$DIMSOXD
 70
     0
  9
$DIMSAH
 70
     0
  9
$DIMBLK1
  1

  9
$DIMBLK2
  1

  9
$DIMSTYLE
  2
STANDARD
  9
$DIMCLRD
 70
     0
  9
$DIMCLRE
 70
     0
  9
$DIMCLRT
 70
     0
  9
$DIMTFAC
 40
1.0
  9
$DIMGAP
 40
0.09
  9
$DIMJUST
 70
     0
  9
$DIMSD1
 70
     0
  9
$DIMSD2
 70
     0
  9
$DIMTOLJ
 70
     1
  9
$DIMTZIN
 70
     0
  9
$DIMALTZ
 70
     0
  9
$DIMALTTZ
 70
     0
  9
$DIMFIT
 70
     3
  9
$DIMUPT
 70
     0
  9
$DIMUNIT
 70
     2
  9
$DIMDEC
 70
     4
  9
$DIMTDEC
 70
     4
  9
$DIMALTU
 70
     2
  9
$DIMALTTD
 70
     2
  9
$DIMTXSTY
  7
STANDARD
  9
$DIMAUNIT
 70
     0
  9
$LUNITS
 70
     2
  9
$LUPREC
 70
     4
  9
$SKETCHINC
 40
0.1
  9
$FILLETRAD
 40
0.5
  9
$AUNITS
 70
     0
  9
$AUPREC
 70
     0
  9
$MENU
  1
.
  9
$ELEVATION
 40
0.0
  9
$PELEVATION
 40
0.0
  9
$THICKNESS
 40
0.0
  9
$LIMCHECK
 70
     0
  9
$CHAMFERA
 40
0.0
  9
$CHAMFERB
 40
0.0
  9
$CHAMFERC
 40
0.0
  9
$CHAMFERD
 40
0.0
  9
$SKPOLY
 70
     0
  9
$TDCREATE
 40
2459780.518006389
  9
$TDUPDATE
 40
2459780.51800647
  9
$TDINDWG
 40
0.0000000116
  9
$TDUSRTIMER
 40
0.0000000116
  9
$USRTIMER
 70
     1
  9
$ANGBASE
 50
0.0
  9
$ANGDIR
 70
     0
  9
$PDMODE
 70
     0
  9
$PDSIZE
 40
0.0
  9
$PLINEWID
 40
0.0
  9
$COORDS
 70
     1
  9
$SPLFRAME
 70
     0
  9
$SPLINETYPE
 70
     6
  9
$SPLINESEGS
 70
     8
  9
$ATTDIA
 70
     0
  9
$ATTREQ
 70
     1
  9
$HANDLING
 70
     1
  9
$HANDSEED
  5
F5
  9
$SURFTAB1
 70
     6
  9
$SURFTAB2
 70
     6
  9
$SURFTYPE
 70
     6
  9
$SURFU
 70
     6
  9
$SURFV
 70
     6
  9
$UCSNAME
  2

  9
$UCSORG
 10
0.0
 20
0.0
 30
0.0
  9
$UCSXDIR
 10
1.0
 20
0.0
 30
0.0
  9
$UCSYDIR
 10
0.0
 20
1.0
 30
0.0
  9
$PUCSNAME
  2

  9
$PUCSORG
 10
0.0
 20
0.0
 30
0.0
  9
$PUCSXDIR
 10
1.0
 20
0.0
 30
0.0
  9
$PUCSYDIR
 10
0.0
 20
1.0
 30
0.0
  9
$USERI1
 70
     0
  9
$USERI2
 70
     0
  9
$USERI3
 70
     0
  9
$USERI4
 70
     0
  9
$USERI5
 70
     0
  9
$USERR1
 40
0.0
  9
$USERR2
 40
0.0
  9
$USERR3
 40
0.0
  9
$USERR4
 40
0.0
  9
$USERR5
 40
0.0
  9
$WORLDVIEW
 70
     1
  9
$SHADEDGE
 70
     3
  9
$SHADEDIF
 70
    70
  9
$TILEMODE
 70
     1
  9
$MAXACTVP
 70
    64
  9
$PINSBASE
 10
0.0
 20
0.0
 30
0.0
  9
$PLIMCHECK
 70
     0
  9
$PEXTMIN
 10
1.000000000000000E+20
 20
1.000000000000000E+20
 30
1.000000000000000E+20
  9
$PEXTMAX
 10
-1.000000000000000E+20
 20
-1.000000000000000E+20
 30
-1.000000000000000E+20
  9
$PLIMMIN
 10
0.0
 20
0.0
  9
$PLIMMAX
 10
12.0
 20
9.0
  9
$UNITMODE
 70
     0
  9
$VISRETAIN
 70
     1
  9
$PLINEGEN
 70
     0
  9
$PSLTSCALE
 70
     1
  9
$TREEDEPTH
 70
  3020
  9
$PICKSTYLE
 70
     1
  9
$CMLSTYLE
  2
STANDARD
  9
$CMLJUST
 70
     0
  9
$CMLSCALE
 40
1.0
  9
$SAVEIMAGES
 70
     1
  0
ENDSEC
  0
SECTION
  2
CLASSES
  0
CLASS
  1
ACDBDICTIONARYWDFLT
  2
AcDbDictionaryWithDefault
  3
ObjectDBX Classes
 90
    32768
280
     0
281
     0
  0
CLASS
  1
VISUALSTYLE
  2
AcDbVisualStyle
  3
ObjectDBX Classes
 90
     4095
280
     0
281
     0
  0
CLASS
  1
MATERIAL
  2
AcDbMaterial
  3
ObjectDBX Classes
 90
     1153
280
     0
281
     0
  0
CLASS
  1
SCALE
  2
AcDbScale
  3
ObjectDBX Classes
 90
     1153
280
     0
281
     0
  0
CLASS
  1
TABLESTYLE
  2
AcDbTableStyle
  3
ObjectDBX Classes
 90
     4095
280
     0
281
     0
  0
CLASS
  1
MLEADERSTYLE
  2
AcDbMLeaderStyle
  3
ACDB_MLEADERSTYLE_CLASS
 90
     4095
280
     0
281
     0
  0
CLASS
  1
SUN
  2
AcDbSun
  3
SCENEOE
 90
     1153
280
     0
281
     0
  0
CLASS
  1
DICTIONARYVAR
  2
AcDbDictionaryVar
  3
ObjectDBX Classes
 90
        0
280
     0
281
     0
  0
CLASS
  1
XRECORD
  2
AcDbXrecord
  3
ObjectDBX Classes
 90
    32768
280
     0
281
     0
  0
CLASS
  1
LWPOLYLINE
  2
AcDbPolyline
  3
ObjectDBX Classes
 90
    32768
280
     0
281
     1
  0
CLASS
  1
HATCH
  2
AcDbHatch
  3
ObjectDBX Classes
 90
    32768
280
     0
281
     1
  0
CLASS
  1
ACDBPLACEHOLDER
  2
AcDbPlaceHolder
  3
ObjectDBX Classes
 90
        0
280
     0
281
     0
  0
CLASS
  1
LAYOUT
  2
AcDbLayout
  3
ObjectDBX Classes
 90
        0
280
     0
281
     0
  0
ENDSEC
  0
SECTION
  2
TABLES
  0
TABLE
  2
VPORT
  5
8
330
0
100
AcDbSymbolTable
 70
     1
  0
VPORT
  5
29
330
8
100
AcDbSymbolTableRecord
100
AcDbViewportTableRecord
  2
*ACTIVE
 70
     0
 10
0.0
 20
0.0
 11
1.0
 21
1.0
 12
10.42990654205607
 22
4.5
 13
0.0
 23
0.0
 14
0.5
 24
0.5
 15
0.5
 25
0.5
 16
0.0
 26
0.0
 36
1.0
 17
0.0
 27
0.0
 37
0.0
 40
9.0
 41
1.972972972850329
 42
50.0
 43
0.0
 44
0.0
 50
0.0
 51
0.0
 71
     0
 72
   100
 73
     1
 74
     3
 75
     0
 76
     0
 77
     0
 78
     0
  0
ENDTAB
  0
TABLE
  2
LTYPE
  5
5
330
0
100
AcDbSymbolTable
 70
     1
  0
LTYPE
  5
14
330
5
100
AcDbSymbolTableRecord
100
AcDbLinetypeTableRecord
  2
BYBLOCK
 70
     0
  3

 72
    65
 73
     0
 40
0.0
  0
LTYPE
  5
15
330
5
100
AcDbSymbolTableRecord
100
AcDbLinetypeTableRecord
  2
BYLAYER
 70
     0
  3

 72
    65
 73
     0
 40
0.0
  0
LTYPE
  5
16
330
5
100
AcDbSymbolTableRecord
100
AcDbLinetypeTableRecord
  2
CONTINUOUS
 70
     0
  3
Solid line
 72
    65
 73
     0
 40
0.0
  0
ENDTAB
  0
TABLE
  2
LAYER
  5
2
330
0
100
AcDbSymbolTable
 70
     2
  0
LAYER
  5
10
330
2
100
AcDbSymbolTableRecord
100
AcDbLayerTableRecord
  2
0
 70
     0
 62
     7
  6
CONTINUOUS
  0
LAYER
  5
6F
330
2
100
AcDbSymbolTableRecord
100
AcDbLayerTableRecord
  2
LABELS
 70
     0
 62
     7
  6
CONTINUOUS
  0
ENDTAB
  0
TABLE
  2
STYLE
  5
3
330
0
100
AcDbSymbolTable
 70
     1
  0
STYLE
  5
11
330
3
100
AcDbSymbolTableRecord
100
AcDbTextStyleTableRecord
  2
STANDARD
 70
     0
 40
0.0
 41
1.0
 50
0.0
 71
     0
 42
0.2
  3
txt
  4

  0
ENDTAB
  0
TABLE
  2
VIEW
  5
6
330
0
100
AcDbSymbolTable
 70
     0
  0
ENDTAB
  0
TABLE
  2
UCS
  5
7
330
0
100
AcDbSymbolTable
 70
     0
  0
ENDTAB
  0
TABLE
  2
APPID
  5
9
330
0
100
AcDbSymbolTable
 70
     3
  0
APPID
  5
12
330
9
100
AcDbSymbolTableRecord
100
AcDbRegAppTableRecord
  2
ACAD
 70
     0
  0
APPID
  5
6E
330
9
100
AcDbSymbolTableRecord
100
AcDbRegAppTableRecord
  2
ODA
 70
     0
  0
APPID
  5
F0
330
9
100
AcDbSymbolTableRecord
100
AcDbRegAppTableRecord
  2
ACAD_MLEADERVER
 70
     0
  0
ENDTAB
  0
TABLE
  2
DIMSTYLE
  5
A
330
0
100
AcDbSymbolTable
 70
     1
  0
DIMSTYLE
105
27
330
A
100
AcDbSymbolTableRecord
100
AcDbDimStyleTableRecord
  2
STANDARD
 70
     0
  3

  4

  5

  6

  7

 40
1.0
 41
0.18
 42
0.0625
 43
0.38
 44
0.18
 45
0.0
 46
0.0
 47
0.0
 48
0.0
140
0.18
141
0.09
142
0.0
143
25.4
144
1.0
145
0.0
146
1.0
147
0.09
 71
     0
 72
     0
 73
     1
 74
     1
 75
     0
 76
     0
 77
     0
 78
     0
170
     0
171
     2
172
     0
173
     0
174
     0
175
     0
176
     0
177
     0
178
     0
270
     2
271
     4
272
     4
273
     2
274
     2
340
11
275
     0
280
     0
281
     0
282
     0
283
     1
284
     0
285
     0
286
     0
287
     3
288
     0
  0
ENDTAB
  0
TABLE
  2
BLOCK_RECORD
  5
1
330
0
100
AcDbSymbolTable
 70
     0
  0
BLOCK_RECORD
  5
1F
330
1
100
AcDbSymbolTableRecord
100
AcDbBlockTableRecord
  2
*MODEL_SPACE
  0
BLOCK_RECORD
  5
1B
330
1
100
AcDbSymbolTableRecord
100
AcDbBlockTableRecord
  2
*PAPER_SPACE
  0
ENDTAB
  0
ENDSEC
  0
SECTION
  2
BLOCKS
  0
BLOCK
  5
20
330
1F
100
AcDbEntity
  8
0
100
AcDbBlockBegin
  2
*MODEL_SPACE
 70
     0
 10
0.0
 20
0.0
 30
0.0
  3
*MODEL_SPACE
  1

  0
ENDBLK
  5
21
330
1F
100
AcDbEntity
  8
0
100
AcDbBlockEnd
  0
BLOCK
  5
1C
330
1B
100
AcDbEntity
 67
     1
  8
0
100
AcDbBlockBegin
  2
*PAPER_SPACE
 70
     0
 10
0.0
 20
0.0
 30
0.0
  3
*PAPER_SPACE
  1

  0
ENDBLK
  5
1D
330
1B
100
AcDbEntity
 67
     1
  8
0
100
AcDbBlockEnd
  0
ENDSEC
  0
SECTION
  2
ENTITIES
  0
SPLINE
  5
70
330
1F
100
AcDbEntity
  8
LABELS
 62
   250
100
AcDbSpline
210
0.0
220
0.0
230
1.0
 70
    24
 71
     3
 72
     8
 73
     4
 74
     0
 42
0.0000000001
 43
0.0000000001
 40
0.0
 40
0.0
 40
0.0
 40
0.0
 40
1.0
 40
1.0
 40
1.0
 40
1.0
 10
4.2071
 20
-12.0617
 30
0.0
 10
4.2071
 20
-12.0617
 30
0.0
 10
4.2071
 20
-47.3141
 30
0.0
 10
4.2071
 20
-47.3141
 30
0.0
  0
SPLINE
  5
71
330
1F
100
AcDbEntity
  8
LABELS
 62
   250
100
AcDbSpline
210
0.0
220
0.0
230
1.0
 70
    24
 71
     3
 72
     8
 73
     4
 74
     0
 42
0.0000000001
 43
0.0000000001
 40
0.0
 40
0.0
 40
0.0
 40
0.0
 40
1.0
 40
1.0
 40
1.0
 40
1.0
 10
-55.9423
 20
-47.3423
 30
0.0
 10
-55.9423
 20
-47.3423
 30
0.0
 10
-55.9423
 20
-12.1117
 30
0.0
 10
-55.9423
 20
-12.1117
 30
0.0
  0
SPLINE
  5
72
330
1F
100
AcDbEntity
  8
LABELS
 62
   250
100
AcDbSpline
210
0.0
220
0.0
230
1.0
 70
    24
 71
     3
 72
     8
 73
     4
 74
     0
 42
0.0000000001
 43
0.0000000001
 40
0.0
 40
0.0
 40
0.0
 40
0.0
 40
1.0
 40
1.0
 40
1.0
 40
1.0
 10
-50.9304
 20
-52.3714
 30
0.0
 10
-50.9304
 20
-52.3714
 30
0.0
 10
-0.8348
 20
-52.3714
 30
0.0
 10
-0.8348
 20
-52.3714
 30
0.0
  0
SPLINE
  5
73
330
1F
100
AcDbEntity
  8
LABELS
 62
   250
100
AcDbSpline
210
0.0
220
0.0
230
1.0
 70
     8
 71
     3
 72
     8
 73
     4
 74
     0
 42
0.0000000001
 43
0.0000000001
 40
0.0
 40
0.0
 40
0.0
 40
0.0
 40
1.0
 40
1.0
 40
1.0
 40
1.0
 10
-50.9134
 20
-52.3704
 30
0.0
 10
-53.6552
 20
-52.4056
 30
0.0
 10
-55.9067
 20
-50.1544
 30
0.0
 10
-55.9423
 20
-47.3423
 30
0.0
  0
SPLINE
  5
74
330
1F
100
AcDbEntity
  8
LABELS
 62
   250
100
AcDbSpline
210
0.0
220
0.0
230
1.0
 70
     8
 71
     3
 72
     8
 73
     4
 74
     0
 42
0.0000000001
 43
0.0000000001
 40
0.0
 40
0.0
 40
0.0
 40
0.0
 40
1.0
 40
1.0
 40
1.0
 40
1.0
 10
4.2071
 20
-47.3141
 30
0.0
 10
4.2176
 20
-50.0964
 30
0.0
 10
1.9531
 20
-52.3607
 30
0.0
 10
-0.8508
 20
-52.3715
 30
0.0
  0
SPLINE
  5
75
330
1F
100
AcDbEntity
  8
LABELS
 62
   250
100
AcDbSpline
210
0.0
220
0.0
230
1.0
 70
     8
 71
     3
 72
     8
 73
     4
 74
     0
 42
0.0000000001
 43
0.0000000001
 40
0.0
 40
0.0
 40
0.0
 40
0.0
 40
1.0
 40
1.0
 40
1.0
 40
1.0
 10
-0.8037
 20
-7.3233
 30
0.0
 10
1.8985
 20
-7.2587
 30
0.0
 10
4.142
 20
-9.4532
 30
0.0
 10
4.2072
 20
-12.2247
 30
0.0
  0
SPLINE
  5
76
330
1F
100
AcDbEntity
  8
LABELS
 62
   250
100
AcDbSpline
210
0.0
220
0.0
230
1.0
 70
    24
 71
     3
 72
     8
 73
     4
 74
     0
 42
0.0000000001
 43
0.0000000001
 40
0.0
 40
0.0
 40
0.0
 40
0.0
 40
1.0
 40
1.0
 40
1.0
 40
1.0
 10
-17.9036
 20
-7.3233
 30
0.0
 10
-17.9036
 20
-7.3233
 30
0.0
 10
-0.8036
 20
-7.3233
 30
0.0
 10
-0.8036
 20
-7.3233
 30
0.0
  0
SPLINE
  5
77
330
1F
100
AcDbEntity
  8
LABELS
 62
   250
100
AcDbSpline
210
0.0
220
0.0
230
1.0
 70
    24
 71
     3
 72
     8
 73
     4
 74
     0
 42
0.0000000001
 43
0.0000000001
 40
0.0
 40
0.0
 40
0.0
 40
0.0
 40
1.0
 40
1.0
 40
1.0
 40
1.0
 10
-51.172
 20
-7.3602
 30
0.0
 10
-51.172
 20
-7.3602
 30
0.0
 10
-33.9667
 20
-7.3602
 30
0.0
 10
-33.9667
 20
-7.3602
 30
0.0
  0
SPLINE
  5
78
330
1F
100
AcDbEntity
  8
LABELS
 62
   250
100
AcDbSpline
210
0.0
220
0.0
230
1.0
 70
     8
 71
     3
 72
     8
 73
     4
 74
     0
 42
0.0000000001
 43
0.0000000001
 40
0.0
 40
0.0
 40
0.0
 40
0.0
 40
1.0
 40
1.0
 40
1.0
 40
1.0
 10
-51.1702
 20
-7.3603
 30
0.0
 10
-53.8057
 20
-7.3603
 30
0.0
 10
-55.9423
 20
-9.4883
 30
0.0
 10
-55.9423
 20
-12.1135
 30
0.0
  0
SPLINE
  5
79
330
1F
100
AcDbEntity
  8
LABELS
 62
   250
100
AcDbSpline
210
0.0
220
0.0
230
1.0
 70
     8
 71
     3
 72
     8
 73
     4
 74
     0
 42
0.0000000001
 43
0.0000000001
 40
0.0
 40
0.0
 40
0.0
 40
0.0
 40
1.0
 40
1.0
 40
1.0
 40
1.0
 10
-18.8755
 20
-6.2686
 30
0.0
 10
-18.8755
 20
-6.8512
 30
0.0
 10
-18.4403
 20
-7.3234
 30
0.0
 10
-17.9036
 20
-7.3234
 30
0.0
  0
SPLINE
  5
7A
330
1F
100
AcDbEntity
  8
LABELS
 62
   250
100
AcDbSpline
210
0.0
220
0.0
230
1.0
 70
     8
 71
     3
 72
     8
 73
     4
 74
     0
 42
0.0000000001
 43
0.0000000001
 40
0.0
 40
0.0
 40
0.0
 40
0.0
 40
1.0
 40
1.0
 40
1.0
 40
1.0
 10
-32.875
 20
-6.3605
 30
0.0
 10
-32.875
 20
-6.9127
 30
0.0
 10
-33.3638
 20
-7.3603
 30
0.0
 10
-33.9667
 20
-7.3603
 30
0.0
  0
SPLINE
  5
7B
330
1F
100
AcDbEntity
  8
LABELS
 62
   250
100
AcDbSpline
210
0.0
220
0.0
230
1.0
 70
    24
 71
     3
 72
     8
 73
     4
 74
     0
 42
0.0000000001
 43
0.0000000001
 40
0.0
 40
0.0
 40
0.0
 40
0.0
 40
1.0
 40
1.0
 40
1.0
 40
1.0
 10
-18.8755
 20
-6.2686
 30
0.0
 10
-18.8755
 20
-6.2686
 30
0.0
 10
-18.8755
 20
2.5342
 30
0.0
 10
-18.8755
 20
2.5342
 30
0.0
  0
SPLINE
  5
7C
330
1F
100
AcDbEntity
  8
LABELS
 62
   250
100
AcDbSpline
210
0.0
220
0.0
230
1.0
 70
    24
 71
     3
 72
     8
 73
     4
 74
     0
 42
0.0000000001
 43
0.0000000001
 40
0.0
 40
0.0
 40
0.0
 40
0.0
 40
1.0
 40
1.0
 40
1.0
 40
1.0
 10
-32.875
 20
-6.3605
 30
0.0
 10
-32.875
 20
-6.3605
 30
0.0
 10
-32.875
 20
2.5342
 30
0.0
 10
-32.875
 20
2.5342
 30
0.0
  0
SPLINE
  5
7D
330
1F
100
AcDbEntity
  8
LABELS
 62
   250
100
AcDbSpline
210
0.0
220
0.0
230
1.0
 70
    24
 71
     3
 72
     8
 73
     4
 74
     0
 42
0.0000000001
 43
0.0000000001
 40
0.0
 40
0.0
 40
0.0
 40
0.0
 40
1.0
 40
1.0
 40
1.0
 40
1.0
 10
-19.0216
 20
2.5342
 30
0.0
 10
-19.0216
 20
2.5342
 30
0.0
 10
4.1697
 20
2.5342
 30
0.0
 10
4.1697
 20
2.5342
 30
0.0
  0
SPLINE
  5
7E
330
1F
100
AcDbEntity
  8
LABELS
 62
   250
100
AcDbSpline
210
0.0
220
0.0
230
1.0
 70
    24
 71
     3
 72
     8
 73
     4
 74
     0
 42
0.0000000001
 43
0.0000000001
 40
0.0
 40
0.0
 40
0.0
 40
0.0
 40
1.0
 40
1.0
 40
1.0
 40
1.0
 10
-32.7278
 20
2.5378
 30
0.0
 10
-32.7278
 20
2.5378
 30
0.0
 10
-55.8879
 20
2.5378
 30
0.0
 10
-55.8879
 20
2.5378
 30
0.0
  0
SPLINE
  5
7F
330
1F
100
AcDbEntity
  8
LABELS
 62
   250
100
AcDbSpline
210
0.0
220
0.0
230
1.0
 70
    24
 71
     3
 72
     8
 73
     4
 74
     0
 42
0.0000000001
 43
0.0000000001
 40
0.0
 40
0.0
 40
0.0
 40
0.0
 40
1.0
 40
1.0
 40
1.0
 40
1.0
 10
14.1563
 20
-7.4982
 30
0.0
 10
14.1563
 20
-7.4982
 30
0.0
 10
14.1563
 20
-52.2792
 30
0.0
 10
14.1563
 20
-52.2792
 30
0.0
  0
SPLINE
  5
80
330
1F
100
AcDbEntity
  8
LABELS
 62
   250
100
AcDbSpline
210
0.0
220
0.0
230
1.0
 70
    24
 71
     3
 72
     8
 73
     4
 74
     0
 42
0.0000000001
 43
0.0000000001
 40
0.0
 40
0.0
 40
0.0
 40
0.0
 40
1.0
 40
1.0
 40
1.0
 40
1.0
 10
-55.888
 20
-62.241
 30
0.0
 10
-55.888
 20
-62.241
 30
0.0
 10
4.1506
 20
-62.241
 30
0.0
 10
4.1506
 20
-62.241
 30
0.0
  0
SPLINE
  5
81
330
1F
100
AcDbEntity
  8
LABELS
 62
   250
100
AcDbSpline
210
0.0
220
0.0
230
1.0
 70
    24
 71
     3
 72
     8
 73
     4
 74
     0
 42
0.0000000001
 43
0.0000000001
 40
0.0
 40
0.0
 40
0.0
 40
0.0
 40
1.0
 40
1.0
 40
1.0
 40
1.0
 10
-65.9243
 20
-7.4047
 30
0.0
 10
-65.9243
 20
-7.4047
 30
0.0
 10
-65.9243
 20
-52.2962
 30
0.0
 10
-65.9243
 20
-52.2962
 30
0.0
  0
SPLINE
  5
82
330
1F
100
AcDbEntity
  8
LABELS
 62
   250
100
AcDbSpline
210
0.0
220
0.0
230
1.0
 70
     8
 71
     3
 72
     8
 73
     4
 74
     0
 42
0.0000000001
 43
0.0000000001
 40
0.0
 40
0.0
 40
0.0
 40
0.0
 40
1.0
 40
1.0
 40
1.0
 40
1.0
 10
14.1563
 20
-7.4982
 30
0.0
 10
14.1563
 20
-1.9555
 30
0.0
 10
9.6766
 20
2.5378
 30
0.0
 10
4.1506
 20
2.5378
 30
0.0
  0
SPLINE
  5
83
330
1F
100
AcDbEntity
  8
LABELS
 62
   250
100
AcDbSpline
210
0.0
220
0.0
230
1.0
 70
     8
 71
     3
 72
     8
 73
     4
 74
     0
 42
0.0000000001
 43
0.0000000001
 40
0.0
 40
0.0
 40
0.0
 40
0.0
 40
1.0
 40
1.0
 40
1.0
 40
1.0
 10
-65.9243
 20
-7.4982
 30
0.0
 10
-65.9243
 20
-1.9555
 30
0.0
 10
-61.4309
 20
2.5378
 30
0.0
 10
-55.8879
 20
2.5378
 30
0.0
  0
SPLINE
  5
84
330
1F
100
AcDbEntity
  8
LABELS
 62
   250
100
AcDbSpline
210
0.0
220
0.0
230
1.0
 70
     8
 71
     3
 72
     8
 73
     4
 74
     0
 42
0.0000000001
 43
0.0000000001
 40
0.0
 40
0.0
 40
0.0
 40
0.0
 40
1.0
 40
1.0
 40
1.0
 40
1.0
 10
14.1563
 20
-52.2238
 30
0.0
 10
14.1563
 20
-57.7561
 30
0.0
 10
9.6766
 20
-62.241
 30
0.0
 10
4.1506
 20
-62.241
 30
0.0
  0
SPLINE
  5
85
330
1F
100
AcDbEntity
  8
LABELS
 62
   250
100
AcDbSpline
210
0.0
220
0.0
230
1.0
 70
     8
 71
     3
 72
     8
 73
     4
 74
     0
 42
0.0000000001
 43
0.0000000001
 40
0.0
 40
0.0
 40
0.0
 40
0.0
 40
1.0
 40
1.0
 40
1.0
 40
1.0
 10
-65.9243
 20
-52.2238
 30
0.0
 10
-65.9243
 20
-57.7561
 30
0.0
 10
-61.4309
 20
-62.241
 30
0.0
 10
-55.888
 20
-62.241
 30
0.0
  0
SPLINE
  5
86
330
1F
100
AcDbEntity
  8
LABELS
 62
   250
100
AcDbSpline
210
0.0
220
0.0
230
1.0
 70
    11
 71
     3
 72
    23
 73
    19
 74
     0
 42
0.0000000001
 43
0.0000000001
 40
0.0
 40
0.0
 40
0.0
 40
0.0
 40
0.1666666666666667
 40
0.1666666666666667
 40
0.1666666666666667
 40
0.3333333333333333
 40
0.3333333333333333
 40
0.3333333333333333
 40
0.5
 40
0.5
 40
0.5
 40
0.6666666666666666
 40
0.6666666666666666
 40
0.6666666666666666
 40
0.8333333333333333
 40
0.8333333333333333
 40
0.8333333333333333
 40
1.0
 40
1.0
 40
1.0
 40
1.0
 10
8.3797
 20
-3.8433
 30
0.0
 10
8.3797
 20
-3.8433
 30
0.0
 10
6.9344
 20
-3.0229
 30
0.0
 10
6.9344
 20
-3.0229
 30
0.0
 10
6.9344
 20
-3.0229
 30
0.0
 10
5.5086
 20
-3.8433
 30
0.0
 10
5.5086
 20
-3.8433
 30
0.0
 10
5.5086
 20
-3.8433
 30
0.0
 10
5.5086
 20
-5.5035
 30
0.0
 10
5.5086
 20
-5.5035
 30
0.0
 10
5.5086
 20
-5.5035
 30
0.0
 10
6.9344
 20
-6.3434
 30
0.0
 10
6.9344
 20
-6.3434
 30
0.0
 10
6.9344
 20
-6.3434
 30
0.0
 10
8.3797
 20
-5.5035
 30
0.0
 10
8.3797
 20
-5.5035
 30
0.0
 10
8.3797
 20
-5.5035
 30
0.0
 10
8.3797
 20
-3.8433
 30
0.0
 10
8.3797
 20
-3.8433
 30
0.0
  0
SPLINE
  5
87
330
1F
100
AcDbEntity
  8
LABELS
 62
   250
100
AcDbSpline
210
0.0
220
0.0
230
1.0
 70
    11
 71
     3
 72
    23
 73
    19
 74
     0
 42
0.0000000001
 43
0.0000000001
 40
0.0
 40
0.0
 40
0.0
 40
0.0
 40
0.1666666666666667
 40
0.1666666666666667
 40
0.1666666666666667
 40
0.3333333333333333
 40
0.3333333333333333
 40
0.3333333333333333
 40
0.5
 40
0.5
 40
0.5
 40
0.6666666666666666
 40
0.6666666666666666
 40
0.6666666666666666
 40
0.8333333333333333
 40
0.8333333333333333
 40
0.8333333333333333
 40
1.0
 40
1.0
 40
1.0
 40
1.0
 10
-57.3003
 20
-3.9885
 30
0.0
 10
-57.3003
 20
-3.9885
 30
0.0
 10
-58.7456
 20
-3.1682
 30
0.0
 10
-58.7456
 20
-3.1682
 30
0.0
 10
-58.7456
 20
-3.1682
 30
0.0
 10
-60.1714
 20
-3.9885
 30
0.0
 10
-60.1714
 20
-3.9885
 30
0.0
 10
-60.1714
 20
-3.9885
 30
0.0
 10
-60.1714
 20
-5.6488
 30
0.0
 10
-60.1714
 20
-5.6488
 30
0.0
 10
-60.1714
 20
-5.6488
 30
0.0
 10
-58.7456
 20
-6.4886
 30
0.0
 10
-58.7456
 20
-6.4886
 30
0.0
 10
-58.7456
 20
-6.4886
 30
0.0
 10
-57.3003
 20
-5.6488
 30
0.0
 10
-57.3003
 20
-5.6488
 30
0.0
 10
-57.3003
 20
-5.6488
 30
0.0
 10
-57.3003
 20
-3.9885
 30
0.0
 10
-57.3003
 20
-3.9885
 30
0.0
  0
SPLINE
  5
88
330
1F
100
AcDbEntity
  8
LABELS
 62
   250
100
AcDbSpline
210
0.0
220
0.0
230
1.0
 70
    11
 71
     3
 72
    23
 73
    19
 74
     0
 42
0.0000000001
 43
0.0000000001
 40
0.0
 40
0.0
 40
0.0
 40
0.0
 40
0.1666666666666667
 40
0.1666666666666667
 40
0.1666666666666667
 40
0.3333333333333333
 40
0.3333333333333333
 40
0.3333333333333333
 40
0.5
 40
0.5
 40
0.5
 40
0.6666666666666666
 40
0.6666666666666666
 40
0.6666666666666666
 40
0.8333333333333333
 40
0.8333333333333333
 40
0.8333333333333333
 40
1.0
 40
1.0
 40
1.0
 40
1.0
 10
8.2763
 20
-54.1069
 30
0.0
 10
8.2763
 20
-54.1069
 30
0.0
 10
6.831
 20
-53.2865
 30
0.0
 10
6.831
 20
-53.2865
 30
0.0
 10
6.831
 20
-53.2865
 30
0.0
 10
5.4052
 20
-54.1069
 30
0.0
 10
5.4052
 20
-54.1069
 30
0.0
 10
5.4052
 20
-54.1069
 30
0.0
 10
5.4052
 20
-55.7671
 30
0.0
 10
5.4052
 20
-55.7671
 30
0.0
 10
5.4052
 20
-55.7671
 30
0.0
 10
6.831
 20
-56.6069
 30
0.0
 10
6.831
 20
-56.6069
 30
0.0
 10
6.831
 20
-56.6069
 30
0.0
 10
8.2763
 20
-55.7671
 30
0.0
 10
8.2763
 20
-55.7671
 30
0.0
 10
8.2763
 20
-55.7671
 30
0.0
 10
8.2763
 20
-54.1069
 30
0.0
 10
8.2763
 20
-54.1069
 30
0.0
  0
SPLINE
  5
89
330
1F
100
AcDbEntity
  8
LABELS
 62
   250
100
AcDbSpline
210
0.0
220
0.0
230
1.0
 70
    11
 71
     3
 72
    23
 73
    19
 74
     0
 42
0.0000000001
 43
0.0000000001
 40
0.0
 40
0.0
 40
0.0
 40
0.0
 40
0.1666666666666667
 40
0.1666666666666667
 40
0.1666666666666667
 40
0.3333333333333333
 40
0.3333333333333333
 40
0.3333333333333333
 40
0.5
 40
0.5
 40
0.5
 40
0.6666666666666666
 40
0.6666666666666666
 40
0.6666666666666666
 40
0.8333333333333333
 40
0.8333333333333333
 40
0.8333333333333333
 40
1.0
 40
1.0
 40
1.0
 40
1.0
 10
-57.1672
 20
-54.1245
 30
0.0
 10
-57.1672
 20
-54.1245
 30
0.0
 10
-58.6125
 20
-53.3041
 30
0.0
 10
-58.6125
 20
-53.3041
 30
0.0
 10
-58.6125
 20
-53.3041
 30
0.0
 10
-60.0383
 20
-54.1245
 30
0.0
 10
-60.0383
 20
-54.1245
 30
0.0
 10
-60.0383
 20
-54.1245
 30
0.0
 10
-60.0383
 20
-55.7847
 30
0.0
 10
-60.0383
 20
-55.7847
 30
0.0
 10
-60.0383
 20
-55.7847
 30
0.0
 10
-58.6125
 20
-56.6245
 30
0.0
 10
-58.6125
 20
-56.6245
 30
0.0
 10
-58.6125
 20
-56.6245
 30
0.0
 10
-57.1672
 20
-55.7847
 30
0.0
 10
-57.1672
 20
-55.7847
 30
0.0
 10
-57.1672
 20
-55.7847
 30
0.0
 10
-57.1672
 20
-54.1245
 30
0.0
 10
-57.1672
 20
-54.1245
 30
0.0
  0
SPLINE
  5
8A
330
1F
100
AcDbEntity
  8
LABELS
 62
   250
100
AcDbSpline
210
0.0
220
0.0
230
1.0
 70
    11
 71
     3
 72
    29
 73
    25
 74
     0
 42
0.0000000001
 43
0.0000000001
 40
0.0
 40
0.0
 40
0.0
 40
0.0
 40
0.125
 40
0.125
 40
0.125
 40
0.25
 40
0.25
 40
0.25
 40
0.375
 40
0.375
 40
0.375
 40
0.5
 40
0.5
 40
0.5
 40
0.625
 40
0.625
 40
0.625
 40
0.75
 40
0.75
 40
0.75
 40
0.875
 40
0.875
 40
0.875
 40
1.0
 40
1.0
 40
1.0
 40
1.0
 10
45.2151
 20
-14.9322
 30
0.0
 10
45.2151
 20
-14.9322
 30
0.0
 10
98.6079
 20
-14.9322
 30
0.0
 10
98.6079
 20
-14.9322
 30
0.0
 10
99.6291
 20
-14.9322
 30
0.0
 10
100.4645
 20
-15.7676
 30
0.0
 10
100.4645
 20
-16.7888
 30
0.0
 10
100.4645
 20
-16.7888
 30
0.0
 10
100.4645
 20
-35.0816
 30
0.0
 10
100.4645
 20
-35.0816
 30
0.0
 10
100.4645
 20
-36.1028
 30
0.0
 10
99.6291
 20
-36.9382
 30
0.0
 10
98.6079
 20
-36.9382
 30
0.0
 10
98.6079
 20
-36.9382
 30
0.0
 10
45.2151
 20
-36.9382
 30
0.0
 10
45.2151
 20
-36.9382
 30
0.0
 10
44.1939
 20
-36.9382
 30
0.0
 10
43.3585
 20
-36.1028
 30
0.0
 10
43.3585
 20
-35.0816
 30
0.0
 10
43.3585
 20
-35.0816
 30
0.0
 10
43.3585
 20
-16.7888
 30
0.0
 10
43.3585
 20
-16.7888
 30
0.0
 10
43.3585
 20
-15.7676
 30
0.0
 10
44.1939
 20
-14.9322
 30
0.0
 10
45.2151
 20
-14.9322
 30
0.0
  0
SPLINE
  5
8B
330
1F
100
AcDbEntity
  8
LABELS
 62
   250
100
AcDbSpline
210
0.0
220
0.0
230
1.0
 70
    24
 71
     3
 72
     8
 73
     4
 74
     0
 42
0.0000000001
 43
0.0000000001
 40
0.0
 40
0.0
 40
0.0
 40
0.0
 40
1.0
 40
1.0
 40
1.0
 40
1.0
 10
111.9483
 20
-7.4982
 30
0.0
 10
111.9483
 20
-7.4982
 30
0.0
 10
111.9483
 20
-52.2792
 30
0.0
 10
111.9483
 20
-52.2792
 30
0.0
  0
SPLINE
  5
8C
330
1F
100
AcDbEntity
  8
LABELS
 62
   250
100
AcDbSpline
210
0.0
220
0.0
230
1.0
 70
    24
 71
     3
 72
     8
 73
     4
 74
     0
 42
0.0000000001
 43
0.0000000001
 40
0.0
 40
0.0
 40
0.0
 40
0.0
 40
1.0
 40
1.0
 40
1.0
 40
1.0
 10
41.904
 20
-62.241
 30
0.0
 10
41.904
 20
-62.241
 30
0.0
 10
101.9426
 20
-62.241
 30
0.0
 10
101.9426
 20
-62.241
 30
0.0
  0
SPLINE
  5
8D
330
1F
100
AcDbEntity
  8
LABELS
 62
   250
100
AcDbSpline
210
0.0
220
0.0
230
1.0
 70
    24
 71
     3
 72
     8
 73
     4
 74
     0
 42
0.0000000001
 43
0.0000000001
 40
0.0
 40
0.0
 40
0.0
 40
0.0
 40
1.0
 40
1.0
 40
1.0
 40
1.0
 10
31.8677
 20
-7.4047
 30
0.0
 10
31.8677
 20
-7.4047
 30
0.0
 10
31.8677
 20
-52.2962
 30
0.0
 10
31.8677
 20
-52.2962
 30
0.0
  0
SPLINE
  5
8E
330
1F
100
AcDbEntity
  8
LABELS
 62
   250
100
AcDbSpline
210
0.0
220
0.0
230
1.0
 70
     8
 71
     3
 72
     8
 73
     4
 74
     0
 42
0.0000000001
 43
0.0000000001
 40
0.0
 40
0.0
 40
0.0
 40
0.0
 40
1.0
 40
1.0
 40
1.0
 40
1.0
 10
111.9483
 20
-7.4982
 30
0.0
 10
111.9483
 20
-1.9555
 30
0.0
 10
107.4686
 20
2.5378
 30
0.0
 10
101.9426
 20
2.5378
 30
0.0
  0
SPLINE
  5
8F
330
1F
100
AcDbEntity
  8
LABELS
 62
   250
100
AcDbSpline
210
0.0
220
0.0
230
1.0
 70
     8
 71
     3
 72
     8
 73
     4
 74
     0
 42
0.0000000001
 43
0.0000000001
 40
0.0
 40
0.0
 40
0.0
 40
0.0
 40
1.0
 40
1.0
 40
1.0
 40
1.0
 10
31.8677
 20
-7.4982
 30
0.0
 10
31.8677
 20
-1.9555
 30
0.0
 10
36.3611
 20
2.5378
 30
0.0
 10
41.9041
 20
2.5378
 30
0.0
  0
SPLINE
  5
90
330
1F
100
AcDbEntity
  8
LABELS
 62
   250
100
AcDbSpline
210
0.0
220
0.0
230
1.0
 70
     8
 71
     3
 72
     8
 73
     4
 74
     0
 42
0.0000000001
 43
0.0000000001
 40
0.0
 40
0.0
 40
0.0
 40
0.0
 40
1.0
 40
1.0
 40
1.0
 40
1.0
 10
111.9483
 20
-52.2238
 30
0.0
 10
111.9483
 20
-57.7561
 30
0.0
 10
107.4686
 20
-62.241
 30
0.0
 10
101.9426
 20
-62.241
 30
0.0
  0
SPLINE
  5
91
330
1F
100
AcDbEntity
  8
LABELS
 62
   250
100
AcDbSpline
210
0.0
220
0.0
230
1.0
 70
     8
 71
     3
 72
     8
 73
     4
 74
     0
 42
0.0000000001
 43
0.0000000001
 40
0.0
 40
0.0
 40
0.0
 40
0.0
 40
1.0
 40
1.0
 40
1.0
 40
1.0
 10
31.8677
 20
-52.2238
 30
0.0
 10
31.8677
 20
-57.7561
 30
0.0
 10
36.3611
 20
-62.241
 30
0.0
 10
41.904
 20
-62.241
 30
0.0
  0
SPLINE
  5
92
330
1F
100
AcDbEntity
  8
LABELS
 62
   250
100
AcDbSpline
210
0.0
220
0.0
230
1.0
 70
    24
 71
     3
 72
     8
 73
     4
 74
     0
 42
0.0000000001
 43
0.0000000001
 40
0.0
 40
0.0
 40
0.0
 40
0.0
 40
1.0
 40
1.0
 40
1.0
 40
1.0
 10
41.6371
 20
2.5342
 30
0.0
 10
41.6371
 20
2.5342
 30
0.0
 10
102.4213
 20
2.5342
 30
0.0
 10
102.4213
 20
2.5342
 30
0.0
  0
SPLINE
  5
93
330
1F
100
AcDbEntity
  8
LABELS
 62
   250
100
AcDbSpline
210
0.0
220
0.0
230
1.0
 70
    11
 71
     3
 72
    23
 73
    19
 74
     0
 42
0.0000000001
 43
0.0000000001
 40
0.0
 40
0.0
 40
0.0
 40
0.0
 40
0.1666666666666667
 40
0.1666666666666667
 40
0.1666666666666667
 40
0.3333333333333333
 40
0.3333333333333333
 40
0.3333333333333333
 40
0.5
 40
0.5
 40
0.5
 40
0.6666666666666666
 40
0.6666666666666666
 40
0.6666666666666666
 40
0.8333333333333333
 40
0.8333333333333333
 40
0.8333333333333333
 40
1.0
 40
1.0
 40
1.0
 40
1.0
 10
106.1717
 20
-3.8433
 30
0.0
 10
106.1717
 20
-3.8433
 30
0.0
 10
104.7264
 20
-3.0229
 30
0.0
 10
104.7264
 20
-3.0229
 30
0.0
 10
104.7264
 20
-3.0229
 30
0.0
 10
103.3006
 20
-3.8433
 30
0.0
 10
103.3006
 20
-3.8433
 30
0.0
 10
103.3006
 20
-3.8433
 30
0.0
 10
103.3006
 20
-5.5035
 30
0.0
 10
103.3006
 20
-5.5035
 30
0.0
 10
103.3006
 20
-5.5035
 30
0.0
 10
104.7264
 20
-6.3434
 30
0.0
 10
104.7264
 20
-6.3434
 30
0.0
 10
104.7264
 20
-6.3434
 30
0.0
 10
106.1717
 20
-5.5035
 30
0.0
 10
106.1717
 20
-5.5035
 30
0.0
 10
106.1717
 20
-5.5035
 30
0.0
 10
106.1717
 20
-3.8433
 30
0.0
 10
106.1717
 20
-3.8433
 30
0.0
  0
SPLINE
  5
94
330
1F
100
AcDbEntity
  8
LABELS
 62
   250
100
AcDbSpline
210
0.0
220
0.0
230
1.0
 70
    11
 71
     3
 72
    23
 73
    19
 74
     0
 42
0.0000000001
 43
0.0000000001
 40
0.0
 40
0.0
 40
0.0
 40
0.0
 40
0.1666666666666667
 40
0.1666666666666667
 40
0.1666666666666667
 40
0.3333333333333333
 40
0.3333333333333333
 40
0.3333333333333333
 40
0.5
 40
0.5
 40
0.5
 40
0.6666666666666666
 40
0.6666666666666666
 40
0.6666666666666666
 40
0.8333333333333333
 40
0.8333333333333333
 40
0.8333333333333333
 40
1.0
 40
1.0
 40
1.0
 40
1.0
 10
40.4917
 20
-3.9885
 30
0.0
 10
40.4917
 20
-3.9885
 30
0.0
 10
39.0464
 20
-3.1682
 30
0.0
 10
39.0464
 20
-3.1682
 30
0.0
 10
39.0464
 20
-3.1682
 30
0.0
 10
37.6206
 20
-3.9885
 30
0.0
 10
37.6206
 20
-3.9885
 30
0.0
 10
37.6206
 20
-3.9885
 30
0.0
 10
37.6206
 20
-5.6488
 30
0.0
 10
37.6206
 20
-5.6488
 30
0.0
 10
37.6206
 20
-5.6488
 30
0.0
 10
39.0464
 20
-6.4886
 30
0.0
 10
39.0464
 20
-6.4886
 30
0.0
 10
39.0464
 20
-6.4886
 30
0.0
 10
40.4917
 20
-5.6488
 30
0.0
 10
40.4917
 20
-5.6488
 30
0.0
 10
40.4917
 20
-5.6488
 30
0.0
 10
40.4917
 20
-3.9885
 30
0.0
 10
40.4917
 20
-3.9885
 30
0.0
  0
SPLINE
  5
95
330
1F
100
AcDbEntity
  8
LABELS
 62
   250
100
AcDbSpline
210
0.0
220
0.0
230
1.0
 70
    11
 71
     3
 72
    23
 73
    19
 74
     0
 42
0.0000000001
 43
0.0000000001
 40
0.0
 40
0.0
 40
0.0
 40
0.0
 40
0.1666666666666667
 40
0.1666666666666667
 40
0.1666666666666667
 40
0.3333333333333333
 40
0.3333333333333333
 40
0.3333333333333333
 40
0.5
 40
0.5
 40
0.5
 40
0.6666666666666666
 40
0.6666666666666666
 40
0.6666666666666666
 40
0.8333333333333333
 40
0.8333333333333333
 40
0.8333333333333333
 40
1.0
 40
1.0
 40
1.0
 40
1.0
 10
106.0683
 20
-54.1069
 30
0.0
 10
106.0683
 20
-54.1069
 30
0.0
 10
104.623
 20
-53.2865
 30
0.0
 10
104.623
 20
-53.2865
 30
0.0
 10
104.623
 20
-53.2865
 30
0.0
 10
103.1972
 20
-54.1069
 30
0.0
 10
103.1972
 20
-54.1069
 30
0.0
 10
103.1972
 20
-54.1069
 30
0.0
 10
103.1972
 20
-55.7671
 30
0.0
 10
103.1972
 20
-55.7671
 30
0.0
 10
103.1972
 20
-55.7671
 30
0.0
 10
104.623
 20
-56.6069
 30
0.0
 10
104.623
 20
-56.6069
 30
0.0
 10
104.623
 20
-56.6069
 30
0.0
 10
106.0683
 20
-55.7671
 30
0.0
 10
106.0683
 20
-55.7671
 30
0.0
 10
106.0683
 20
-55.7671
 30
0.0
 10
106.0683
 20
-54.1069
 30
0.0
 10
106.0683
 20
-54.1069
 30
0.0
  0
SPLINE
  5
96
330
1F
100
AcDbEntity
  8
LABELS
 62
   250
100
AcDbSpline
210
0.0
220
0.0
230
1.0
 70
    11
 71
     3
 72
    23
 73
    19
 74
     0
 42
0.0000000001
 43
0.0000000001
 40
0.0
 40
0.0
 40
0.0
 40
0.0
 40
0.1666666666666667
 40
0.1666666666666667
 40
0.1666666666666667
 40
0.3333333333333333
 40
0.3333333333333333
 40
0.3333333333333333
 40
0.5
 40
0.5
 40
0.5
 40
0.6666666666666666
 40
0.6666666666666666
 40
0.6666666666666666
 40
0.8333333333333333
 40
0.8333333333333333
 40
0.8333333333333333
 40
1.0
 40
1.0
 40
1.0
 40
1.0
 10
40.6248
 20
-54.1245
 30
0.0
 10
40.6248
 20
-54.1245
 30
0.0
 10
39.1795
 20
-53.3041
 30
0.0
 10
39.1795
 20
-53.3041
 30
0.0
 10
39.1795
 20
-53.3041
 30
0.0
 10
37.7537
 20
-54.1245
 30
0.0
 10
37.7537
 20
-54.1245
 30
0.0
 10
37.7537
 20
-54.1245
 30
0.0
 10
37.7537
 20
-55.7847
 30
0.0
 10
37.7537
 20
-55.7847
 30
0.0
 10
37.7537
 20
-55.7847
 30
0.0
 10
39.1795
 20
-56.6245
 30
0.0
 10
39.1795
 20
-56.6245
 30
0.0
 10
39.1795
 20
-56.6245
 30
0.0
 10
40.6248
 20
-55.7847
 30
0.0
 10
40.6248
 20
-55.7847
 30
0.0
 10
40.6248
 20
-55.7847
 30
0.0
 10
40.6248
 20
-54.1245
 30
0.0
 10
40.6248
 20
-54.1245
 30
0.0
  0
POLYLINE
  5
97
330
1F
100
AcDbEntity
  8
LABELS
 62
   250
100
AcDb2dPolyline
 66
     1
 10
0.0
 20
0.0
 30
0.0
 70
     1
  0
VERTEX
  5
D4
330
97
100
AcDbEntity
  8
LABELS
 62
   250
100
AcDbVertex
100
AcDb2dVertex
 10
-13.8308
 20
-115.8024
 30
0.0
  0
VERTEX
  5
D5
330
97
100
AcDbEntity
  8
LABELS
 62
   250
100
AcDbVertex
100
AcDb2dVertex
 10
0.1688
 20
-115.8024
 30
0.0
  0
VERTEX
  5
D6
330
97
100
AcDbEntity
  8
LABELS
 62
   250
100
AcDbVertex
100
AcDb2dVertex
 10
0.1688
 20
-101.8024
 30
0.0
  0
VERTEX
  5
D7
330
97
100
AcDbEntity
  8
LABELS
 62
   250
100
AcDbVertex
100
AcDb2dVertex
 10
-13.8308
 20
-101.8024
 30
0.0
  0
VERTEX
  5
D8
330
97
100
AcDbEntity
  8
LABELS
 62
   250
100
AcDbVertex
100
AcDb2dVertex
 10
-13.8308
 20
-115.8024
 30
0.0
  0
SEQEND
  5
F1
330
97
100
AcDbEntity
  8
LABELS
 62
   250
  0
POLYLINE
  5
98
330
1F
100
AcDbEntity
  8
LABELS
 62
   250
100
AcDb2dPolyline
 66
     1
 10
0.0
 20
0.0
 30
0.0
 70
     1
  0
VERTEX
  5
D9
330
98
100
AcDbEntity
  8
LABELS
 62
   250
100
AcDbVertex
100
AcDb2dVertex
 10
-32.8806
 20
-115.8022
 30
0.0
  0
VERTEX
  5
DA
330
98
100
AcDbEntity
  8
LABELS
 62
   250
100
AcDbVertex
100
AcDb2dVertex
 10
-18.881
 20
-115.8022
 30
0.0
  0
VERTEX
  5
DB
330
98
100
AcDbEntity
  8
LABELS
 62
   250
100
AcDbVertex
100
AcDb2dVertex
 10
-18.881
 20
-101.8026
 30
0.0
  0
VERTEX
  5
DC
330
98
100
AcDbEntity
  8
LABELS
 62
   250
100
AcDbVertex
100
AcDb2dVertex
 10
-32.8806
 20
-101.8026
 30
0.0
  0
VERTEX
  5
DD
330
98
100
AcDbEntity
  8
LABELS
 62
   250
100
AcDbVertex
100
AcDb2dVertex
 10
-32.8806
 20
-115.8022
 30
0.0
  0
SEQEND
  5
F2
330
98
100
AcDbEntity
  8
LABELS
 62
   250
  0
POLYLINE
  5
99
330
1F
100
AcDbEntity
  8
LABELS
 62
   250
100
AcDb2dPolyline
 66
     1
 10
0.0
 20
0.0
 30
0.0
 70
     1
  0
VERTEX
  5
DE
330
99
100
AcDbEntity
  8
LABELS
 62
   250
100
AcDbVertex
100
AcDb2dVertex
 10
-51.9306
 20
-115.8022
 30
0.0
  0
VERTEX
  5
DF
330
99
100
AcDbEntity
  8
LABELS
 62
   250
100
AcDbVertex
100
AcDb2dVertex
 10
-37.931
 20
-115.8022
 30
0.0
  0
VERTEX
  5
E0
330
99
100
AcDbEntity
  8
LABELS
 62
   250
100
AcDbVertex
100
AcDb2dVertex
 10
-37.931
 20
-101.8026
 30
0.0
  0
VERTEX
  5
E1
330
99
100
AcDbEntity
  8
LABELS
 62
   250
100
AcDbVertex
100
AcDb2dVertex
 10
-51.9306
 20
-101.8026
 30
0.0
  0
VERTEX
  5
E2
330
99
100
AcDbEntity
  8
LABELS
 62
   250
100
AcDbVertex
100
AcDb2dVertex
 10
-51.9306
 20
-115.8022
 30
0.0
  0
SEQEND
  5
F3
330
99
100
AcDbEntity
  8
LABELS
 62
   250
  0
SPLINE
  5
9A
330
1F
100
AcDbEntity
  8
LABELS
 62
   250
100
AcDbSpline
210
0.0
220
0.0
230
1.0
 70
    24
 71
     3
 72
     8
 73
     4
 74
     0
 42
0.0000000001
 43
0.0000000001
 40
0.0
 40
0.0
 40
0.0
 40
0.0
 40
1.0
 40
1.0
 40
1.0
 40
1.0
 10
14.1563
 20
-90.3654
 30
0.0
 10
14.1563
 20
-90.3654
 30
0.0
 10
14.1563
 20
-135.1464
 30
0.0
 10
14.1563
 20
-135.1464
 30
0.0
  0
SPLINE
  5
9B
330
1F
100
AcDbEntity
  8
LABELS
 62
   250
100
AcDbSpline
210
0.0
220
0.0
230
1.0
 70
    24
 71
     3
 72
     8
 73
     4
 74
     0
 42
0.0000000001
 43
0.0000000001
 40
0.0
 40
0.0
 40
0.0
 40
0.0
 40
1.0
 40
1.0
 40
1.0
 40
1.0
 10
-55.888
 20
-145.1082
 30
0.0
 10
-55.888
 20
-145.1082
 30
0.0
 10
4.1506
 20
-145.1082
 30
0.0
 10
4.1506
 20
-145.1082
 30
0.0
  0
SPLINE
  5
9C
330
1F
100
AcDbEntity
  8
LABELS
 62
   250
100
AcDbSpline
210
0.0
220
0.0
230
1.0
 70
    24
 71
     3
 72
     8
 73
     4
 74
     0
 42
0.0000000001
 43
0.0000000001
 40
0.0
 40
0.0
 40
0.0
 40
0.0
 40
1.0
 40
1.0
 40
1.0
 40
1.0
 10
-65.9243
 20
-90.2719
 30
0.0
 10
-65.9243
 20
-90.2719
 30
0.0
 10
-65.9243
 20
-135.1634
 30
0.0
 10
-65.9243
 20
-135.1634
 30
0.0
  0
SPLINE
  5
9D
330
1F
100
AcDbEntity
  8
LABELS
 62
   250
100
AcDbSpline
210
0.0
220
0.0
230
1.0
 70
     8
 71
     3
 72
     8
 73
     4
 74
     0
 42
0.0000000001
 43
0.0000000001
 40
0.0
 40
0.0
 40
0.0
 40
0.0
 40
1.0
 40
1.0
 40
1.0
 40
1.0
 10
14.1563
 20
-90.3654
 30
0.0
 10
14.1563
 20
-84.8227
 30
0.0
 10
9.6766
 20
-80.3294
 30
0.0
 10
4.1506
 20
-80.3294
 30
0.0
  0
SPLINE
  5
9E
330
1F
100
AcDbEntity
  8
LABELS
 62
   250
100
AcDbSpline
210
0.0
220
0.0
230
1.0
 70
     8
 71
     3
 72
     8
 73
     4
 74
     0
 42
0.0000000001
 43
0.0000000001
 40
0.0
 40
0.0
 40
0.0
 40
0.0
 40
1.0
 40
1.0
 40
1.0
 40
1.0
 10
-65.9243
 20
-90.3654
 30
0.0
 10
-65.9243
 20
-84.8227
 30
0.0
 10
-61.4309
 20
-80.3294
 30
0.0
 10
-55.8879
 20
-80.3294
 30
0.0
  0
SPLINE
  5
9F
330
1F
100
AcDbEntity
  8
LABELS
 62
   250
100
AcDbSpline
210
0.0
220
0.0
230
1.0
 70
     8
 71
     3
 72
     8
 73
     4
 74
     0
 42
0.0000000001
 43
0.0000000001
 40
0.0
 40
0.0
 40
0.0
 40
0.0
 40
1.0
 40
1.0
 40
1.0
 40
1.0
 10
14.1563
 20
-135.091
 30
0.0
 10
14.1563
 20
-140.6233
 30
0.0
 10
9.6766
 20
-145.1082
 30
0.0
 10
4.1506
 20
-145.1082
 30
0.0
  0
SPLINE
  5
A0
330
1F
100
AcDbEntity
  8
LABELS
 62
   250
100
AcDbSpline
210
0.0
220
0.0
230
1.0
 70
     8
 71
     3
 72
     8
 73
     4
 74
     0
 42
0.0000000001
 43
0.0000000001
 40
0.0
 40
0.0
 40
0.0
 40
0.0
 40
1.0
 40
1.0
 40
1.0
 40
1.0
 10
-65.9243
 20
-135.091
 30
0.0
 10
-65.9243
 20
-140.6233
 30
0.0
 10
-61.4309
 20
-145.1082
 30
0.0
 10
-55.888
 20
-145.1082
 30
0.0
  0
SPLINE
  5
A1
330
1F
100
AcDbEntity
  8
LABELS
 62
   250
100
AcDbSpline
210
0.0
220
0.0
230
1.0
 70
    24
 71
     3
 72
     8
 73
     4
 74
     0
 42
0.0000000001
 43
0.0000000001
 40
0.0
 40
0.0
 40
0.0
 40
0.0
 40
1.0
 40
1.0
 40
1.0
 40
1.0
 10
-56.1549
 20
-80.333
 30
0.0
 10
-56.1549
 20
-80.333
 30
0.0
 10
4.6293
 20
-80.333
 30
0.0
 10
4.6293
 20
-80.333
 30
0.0
  0
SPLINE
  5
A2
330
1F
100
AcDbEntity
  8
LABELS
 62
   250
100
AcDbSpline
210
0.0
220
0.0
230
1.0
 70
    11
 71
     3
 72
    23
 73
    19
 74
     0
 42
0.0000000001
 43
0.0000000001
 40
0.0
 40
0.0
 40
0.0
 40
0.0
 40
0.1666666666666667
 40
0.1666666666666667
 40
0.1666666666666667
 40
0.3333333333333333
 40
0.3333333333333333
 40
0.3333333333333333
 40
0.5
 40
0.5
 40
0.5
 40
0.6666666666666666
 40
0.6666666666666666
 40
0.6666666666666666
 40
0.8333333333333333
 40
0.8333333333333333
 40
0.8333333333333333
 40
1.0
 40
1.0
 40
1.0
 40
1.0
 10
8.3797
 20
-86.7105
 30
0.0
 10
8.3797
 20
-86.7105
 30
0.0
 10
6.9344
 20
-85.8901
 30
0.0
 10
6.9344
 20
-85.8901
 30
0.0
 10
6.9344
 20
-85.8901
 30
0.0
 10
5.5086
 20
-86.7105
 30
0.0
 10
5.5086
 20
-86.7105
 30
0.0
 10
5.5086
 20
-86.7105
 30
0.0
 10
5.5086
 20
-88.3707
 30
0.0
 10
5.5086
 20
-88.3707
 30
0.0
 10
5.5086
 20
-88.3707
 30
0.0
 10
6.9344
 20
-89.2106
 30
0.0
 10
6.9344
 20
-89.2106
 30
0.0
 10
6.9344
 20
-89.2106
 30
0.0
 10
8.3797
 20
-88.3707
 30
0.0
 10
8.3797
 20
-88.3707
 30
0.0
 10
8.3797
 20
-88.3707
 30
0.0
 10
8.3797
 20
-86.7105
 30
0.0
 10
8.3797
 20
-86.7105
 30
0.0
  0
SPLINE
  5
A3
330
1F
100
AcDbEntity
  8
LABELS
 62
   250
100
AcDbSpline
210
0.0
220
0.0
230
1.0
 70
    11
 71
     3
 72
    23
 73
    19
 74
     0
 42
0.0000000001
 43
0.0000000001
 40
0.0
 40
0.0
 40
0.0
 40
0.0
 40
0.1666666666666667
 40
0.1666666666666667
 40
0.1666666666666667
 40
0.3333333333333333
 40
0.3333333333333333
 40
0.3333333333333333
 40
0.5
 40
0.5
 40
0.5
 40
0.6666666666666666
 40
0.6666666666666666
 40
0.6666666666666666
 40
0.8333333333333333
 40
0.8333333333333333
 40
0.8333333333333333
 40
1.0
 40
1.0
 40
1.0
 40
1.0
 10
-57.3003
 20
-86.8557
 30
0.0
 10
-57.3003
 20
-86.8557
 30
0.0
 10
-58.7456
 20
-86.0354
 30
0.0
 10
-58.7456
 20
-86.0354
 30
0.0
 10
-58.7456
 20
-86.0354
 30
0.0
 10
-60.1714
 20
-86.8557
 30
0.0
 10
-60.1714
 20
-86.8557
 30
0.0
 10
-60.1714
 20
-86.8557
 30
0.0
 10
-60.1714
 20
-88.516
 30
0.0
 10
-60.1714
 20
-88.516
 30
0.0
 10
-60.1714
 20
-88.516
 30
0.0
 10
-58.7456
 20
-89.3558
 30
0.0
 10
-58.7456
 20
-89.3558
 30
0.0
 10
-58.7456
 20
-89.3558
 30
0.0
 10
-57.3003
 20
-88.516
 30
0.0
 10
-57.3003
 20
-88.516
 30
0.0
 10
-57.3003
 20
-88.516
 30
0.0
 10
-57.3003
 20
-86.8557
 30
0.0
 10
-57.3003
 20
-86.8557
 30
0.0
  0
SPLINE
  5
A4
330
1F
100
AcDbEntity
  8
LABELS
 62
   250
100
AcDbSpline
210
0.0
220
0.0
230
1.0
 70
    11
 71
     3
 72
    23
 73
    19
 74
     0
 42
0.0000000001
 43
0.0000000001
 40
0.0
 40
0.0
 40
0.0
 40
0.0
 40
0.1666666666666667
 40
0.1666666666666667
 40
0.1666666666666667
 40
0.3333333333333333
 40
0.3333333333333333
 40
0.3333333333333333
 40
0.5
 40
0.5
 40
0.5
 40
0.6666666666666666
 40
0.6666666666666666
 40
0.6666666666666666
 40
0.8333333333333333
 40
0.8333333333333333
 40
0.8333333333333333
 40
1.0
 40
1.0
 40
1.0
 40
1.0
 10
8.2763
 20
-136.9741
 30
0.0
 10
8.2763
 20
-136.9741
 30
0.0
 10
6.831
 20
-136.1537
 30
0.0
 10
6.831
 20
-136.1537
 30
0.0
 10
6.831
 20
-136.1537
 30
0.0
 10
5.4052
 20
-136.9741
 30
0.0
 10
5.4052
 20
-136.9741
 30
0.0
 10
5.4052
 20
-136.9741
 30
0.0
 10
5.4052
 20
-138.6343
 30
0.0
 10
5.4052
 20
-138.6343
 30
0.0
 10
5.4052
 20
-138.6343
 30
0.0
 10
6.831
 20
-139.4741
 30
0.0
 10
6.831
 20
-139.4741
 30
0.0
 10
6.831
 20
-139.4741
 30
0.0
 10
8.2763
 20
-138.6343
 30
0.0
 10
8.2763
 20
-138.6343
 30
0.0
 10
8.2763
 20
-138.6343
 30
0.0
 10
8.2763
 20
-136.9741
 30
0.0
 10
8.2763
 20
-136.9741
 30
0.0
  0
SPLINE
  5
A5
330
1F
100
AcDbEntity
  8
LABELS
 62
   250
100
AcDbSpline
210
0.0
220
0.0
230
1.0
 70
    11
 71
     3
 72
    23
 73
    19
 74
     0
 42
0.0000000001
 43
0.0000000001
 40
0.0
 40
0.0
 40
0.0
 40
0.0
 40
0.1666666666666667
 40
0.1666666666666667
 40
0.1666666666666667
 40
0.3333333333333333
 40
0.3333333333333333
 40
0.3333333333333333
 40
0.5
 40
0.5
 40
0.5
 40
0.6666666666666666
 40
0.6666666666666666
 40
0.6666666666666666
 40
0.8333333333333333
 40
0.8333333333333333
 40
0.8333333333333333
 40
1.0
 40
1.0
 40
1.0
 40
1.0
 10
-57.1672
 20
-136.9917
 30
0.0
 10
-57.1672
 20
-136.9917
 30
0.0
 10
-58.6125
 20
-136.1713
 30
0.0
 10
-58.6125
 20
-136.1713
 30
0.0
 10
-58.6125
 20
-136.1713
 30
0.0
 10
-60.0383
 20
-136.9917
 30
0.0
 10
-60.0383
 20
-136.9917
 30
0.0
 10
-60.0383
 20
-136.9917
 30
0.0
 10
-60.0383
 20
-138.6519
 30
0.0
 10
-60.0383
 20
-138.6519
 30
0.0
 10
-60.0383
 20
-138.6519
 30
0.0
 10
-58.6125
 20
-139.4917
 30
0.0
 10
-58.6125
 20
-139.4917
 30
0.0
 10
-58.6125
 20
-139.4917
 30
0.0
 10
-57.1672
 20
-138.6519
 30
0.0
 10
-57.1672
 20
-138.6519
 30
0.0
 10
-57.1672
 20
-138.6519
 30
0.0
 10
-57.1672
 20
-136.9917
 30
0.0
 10
-57.1672
 20
-136.9917
 30
0.0
  0
POLYLINE
  5
A6
330
1F
100
AcDbEntity
  8
LABELS
 62
   250
100
AcDb2dPolyline
 66
     1
 10
0.0
 20
0.0
 30
0.0
 70
     1
  0
VERTEX
  5
E3
330
A6
100
AcDbEntity
  8
LABELS
 62
   250
100
AcDbVertex
100
AcDb2dVertex
 10
-50.6056
 20
65.1629
 30
0.0
  0
VERTEX
  5
E4
330
A6
100
AcDbEntity
  8
LABELS
 62
   250
100
AcDbVertex
100
AcDb2dVertex
 10
-45.606
 20
65.1629
 30
0.0
  0
VERTEX
  5
E5
330
A6
100
AcDbEntity
  8
LABELS
 62
   250
100
AcDbVertex
100
AcDb2dVertex
 10
-45.606
 20
73.4261
 30
0.0
  0
VERTEX
  5
E6
330
A6
100
AcDbEntity
  8
LABELS
 62
   250
100
AcDbVertex
100
AcDb2dVertex
 10
-50.6056
 20
73.4261
 30
0.0
  0
VERTEX
  5
E7
330
A6
100
AcDbEntity
  8
LABELS
 62
   250
100
AcDbVertex
100
AcDb2dVertex
 10
-50.6056
 20
65.1629
 30
0.0
  0
SEQEND
  5
F4
330
A6
100
AcDbEntity
  8
LABELS
 62
   250
  0
SPLINE
  5
A7
330
1F
100
AcDbEntity
  8
LABELS
 62
   250
100
AcDbSpline
210
0.0
220
0.0
230
1.0
 70
    24
 71
     3
 72
     8
 73
     4
 74
     0
 42
0.0000000001
 43
0.0000000001
 40
0.0
 40
0.0
 40
0.0
 40
0.0
 40
1.0
 40
1.0
 40
1.0
 40
1.0
 10
14.1563
 20
108.6015
 30
0.0
 10
14.1563
 20
108.6015
 30
0.0
 10
14.1563
 20
63.8205
 30
0.0
 10
14.1563
 20
63.8205
 30
0.0
  0
SPLINE
  5
A8
330
1F
100
AcDbEntity
  8
LABELS
 62
   250
100
AcDbSpline
210
0.0
220
0.0
230
1.0
 70
    24
 71
     3
 72
     8
 73
     4
 74
     0
 42
0.0000000001
 43
0.0000000001
 40
0.0
 40
0.0
 40
0.0
 40
0.0
 40
1.0
 40
1.0
 40
1.0
 40
1.0
 10
-55.888
 20
53.8587
 30
0.0
 10
-55.888
 20
53.8587
 30
0.0
 10
4.1506
 20
53.8587
 30
0.0
 10
4.1506
 20
53.8587
 30
0.0
  0
SPLINE
  5
A9
330
1F
100
AcDbEntity
  8
LABELS
 62
   250
100
AcDbSpline
210
0.0
220
0.0
230
1.0
 70
    24
 71
     3
 72
     8
 73
     4
 74
     0
 42
0.0000000001
 43
0.0000000001
 40
0.0
 40
0.0
 40
0.0
 40
0.0
 40
1.0
 40
1.0
 40
1.0
 40
1.0
 10
-65.9243
 20
108.695
 30
0.0
 10
-65.9243
 20
108.695
 30
0.0
 10
-65.9243
 20
63.8035
 30
0.0
 10
-65.9243
 20
63.8035
 30
0.0
  0
SPLINE
  5
AA
330
1F
100
AcDbEntity
  8
LABELS
 62
   250
100
AcDbSpline
210
0.0
220
0.0
230
1.0
 70
     8
 71
     3
 72
     8
 73
     4
 74
     0
 42
0.0000000001
 43
0.0000000001
 40
0.0
 40
0.0
 40
0.0
 40
0.0
 40
1.0
 40
1.0
 40
1.0
 40
1.0
 10
14.1563
 20
108.6015
 30
0.0
 10
14.1563
 20
114.1442
 30
0.0
 10
9.6766
 20
118.6375
 30
0.0
 10
4.1506
 20
118.6375
 30
0.0
  0
SPLINE
  5
AB
330
1F
100
AcDbEntity
  8
LABELS
 62
   250
100
AcDbSpline
210
0.0
220
0.0
230
1.0
 70
     8
 71
     3
 72
     8
 73
     4
 74
     0
 42
0.0000000001
 43
0.0000000001
 40
0.0
 40
0.0
 40
0.0
 40
0.0
 40
1.0
 40
1.0
 40
1.0
 40
1.0
 10
-65.9243
 20
108.6015
 30
0.0
 10
-65.9243
 20
114.1442
 30
0.0
 10
-61.4309
 20
118.6375
 30
0.0
 10
-55.8879
 20
118.6375
 30
0.0
  0
SPLINE
  5
AC
330
1F
100
AcDbEntity
  8
LABELS
 62
   250
100
AcDbSpline
210
0.0
220
0.0
230
1.0
 70
     8
 71
     3
 72
     8
 73
     4
 74
     0
 42
0.0000000001
 43
0.0000000001
 40
0.0
 40
0.0
 40
0.0
 40
0.0
 40
1.0
 40
1.0
 40
1.0
 40
1.0
 10
14.1563
 20
63.8759
 30
0.0
 10
14.1563
 20
58.3436
 30
0.0
 10
9.6766
 20
53.8587
 30
0.0
 10
4.1506
 20
53.8587
 30
0.0
  0
SPLINE
  5
AD
330
1F
100
AcDbEntity
  8
LABELS
 62
   250
100
AcDbSpline
210
0.0
220
0.0
230
1.0
 70
     8
 71
     3
 72
     8
 73
     4
 74
     0
 42
0.0000000001
 43
0.0000000001
 40
0.0
 40
0.0
 40
0.0
 40
0.0
 40
1.0
 40
1.0
 40
1.0
 40
1.0
 10
-65.9243
 20
63.8759
 30
0.0
 10
-65.9243
 20
58.3436
 30
0.0
 10
-61.4309
 20
53.8587
 30
0.0
 10
-55.888
 20
53.8587
 30
0.0
  0
SPLINE
  5
AE
330
1F
100
AcDbEntity
  8
LABELS
 62
   250
100
AcDbSpline
210
0.0
220
0.0
230
1.0
 70
    24
 71
     3
 72
     8
 73
     4
 74
     0
 42
0.0000000001
 43
0.0000000001
 40
0.0
 40
0.0
 40
0.0
 40
0.0
 40
1.0
 40
1.0
 40
1.0
 40
1.0
 10
-56.1549
 20
118.6339
 30
0.0
 10
-56.1549
 20
118.6339
 30
0.0
 10
4.6293
 20
118.6339
 30
0.0
 10
4.6293
 20
118.6339
 30
0.0
  0
SPLINE
  5
AF
330
1F
100
AcDbEntity
  8
LABELS
 62
   250
100
AcDbSpline
210
0.0
220
0.0
230
1.0
 70
    11
 71
     3
 72
    23
 73
    19
 74
     0
 42
0.0000000001
 43
0.0000000001
 40
0.0
 40
0.0
 40
0.0
 40
0.0
 40
0.1666666666666667
 40
0.1666666666666667
 40
0.1666666666666667
 40
0.3333333333333333
 40
0.3333333333333333
 40
0.3333333333333333
 40
0.5
 40
0.5
 40
0.5
 40
0.6666666666666666
 40
0.6666666666666666
 40
0.6666666666666666
 40
0.8333333333333333
 40
0.8333333333333333
 40
0.8333333333333333
 40
1.0
 40
1.0
 40
1.0
 40
1.0
 10
8.3797
 20
112.2564
 30
0.0
 10
8.3797
 20
112.2564
 30
0.0
 10
6.9344
 20
113.0768
 30
0.0
 10
6.9344
 20
113.0768
 30
0.0
 10
6.9344
 20
113.0768
 30
0.0
 10
5.5086
 20
112.2564
 30
0.0
 10
5.5086
 20
112.2564
 30
0.0
 10
5.5086
 20
112.2564
 30
0.0
 10
5.5086
 20
110.5962
 30
0.0
 10
5.5086
 20
110.5962
 30
0.0
 10
5.5086
 20
110.5962
 30
0.0
 10
6.9344
 20
109.7563
 30
0.0
 10
6.9344
 20
109.7563
 30
0.0
 10
6.9344
 20
109.7563
 30
0.0
 10
8.3797
 20
110.5962
 30
0.0
 10
8.3797
 20
110.5962
 30
0.0
 10
8.3797
 20
110.5962
 30
0.0
 10
8.3797
 20
112.2564
 30
0.0
 10
8.3797
 20
112.2564
 30
0.0
  0
SPLINE
  5
B0
330
1F
100
AcDbEntity
  8
LABELS
 62
   250
100
AcDbSpline
210
0.0
220
0.0
230
1.0
 70
    11
 71
     3
 72
    23
 73
    19
 74
     0
 42
0.0000000001
 43
0.0000000001
 40
0.0
 40
0.0
 40
0.0
 40
0.0
 40
0.1666666666666667
 40
0.1666666666666667
 40
0.1666666666666667
 40
0.3333333333333333
 40
0.3333333333333333
 40
0.3333333333333333
 40
0.5
 40
0.5
 40
0.5
 40
0.6666666666666666
 40
0.6666666666666666
 40
0.6666666666666666
 40
0.8333333333333333
 40
0.8333333333333333
 40
0.8333333333333333
 40
1.0
 40
1.0
 40
1.0
 40
1.0
 10
-57.3003
 20
112.1112
 30
0.0
 10
-57.3003
 20
112.1112
 30
0.0
 10
-58.7456
 20
112.9315
 30
0.0
 10
-58.7456
 20
112.9315
 30
0.0
 10
-58.7456
 20
112.9315
 30
0.0
 10
-60.1714
 20
112.1112
 30
0.0
 10
-60.1714
 20
112.1112
 30
0.0
 10
-60.1714
 20
112.1112
 30
0.0
 10
-60.1714
 20
110.4509
 30
0.0
 10
-60.1714
 20
110.4509
 30
0.0
 10
-60.1714
 20
110.4509
 30
0.0
 10
-58.7456
 20
109.6111
 30
0.0
 10
-58.7456
 20
109.6111
 30
0.0
 10
-58.7456
 20
109.6111
 30
0.0
 10
-57.3003
 20
110.4509
 30
0.0
 10
-57.3003
 20
110.4509
 30
0.0
 10
-57.3003
 20
110.4509
 30
0.0
 10
-57.3003
 20
112.1112
 30
0.0
 10
-57.3003
 20
112.1112
 30
0.0
  0
SPLINE
  5
B1
330
1F
100
AcDbEntity
  8
LABELS
 62
   250
100
AcDbSpline
210
0.0
220
0.0
230
1.0
 70
    11
 71
     3
 72
    23
 73
    19
 74
     0
 42
0.0000000001
 43
0.0000000001
 40
0.0
 40
0.0
 40
0.0
 40
0.0
 40
0.1666666666666667
 40
0.1666666666666667
 40
0.1666666666666667
 40
0.3333333333333333
 40
0.3333333333333333
 40
0.3333333333333333
 40
0.5
 40
0.5
 40
0.5
 40
0.6666666666666666
 40
0.6666666666666666
 40
0.6666666666666666
 40
0.8333333333333333
 40
0.8333333333333333
 40
0.8333333333333333
 40
1.0
 40
1.0
 40
1.0
 40
1.0
 10
8.2763
 20
61.9928
 30
0.0
 10
8.2763
 20
61.9928
 30
0.0
 10
6.831
 20
62.8132
 30
0.0
 10
6.831
 20
62.8132
 30
0.0
 10
6.831
 20
62.8132
 30
0.0
 10
5.4052
 20
61.9928
 30
0.0
 10
5.4052
 20
61.9928
 30
0.0
 10
5.4052
 20
61.9928
 30
0.0
 10
5.4052
 20
60.3326
 30
0.0
 10
5.4052
 20
60.3326
 30
0.0
 10
5.4052
 20
60.3326
 30
0.0
 10
6.831
 20
59.4928
 30
0.0
 10
6.831
 20
59.4928
 30
0.0
 10
6.831
 20
59.4928
 30
0.0
 10
8.2763
 20
60.3326
 30
0.0
 10
8.2763
 20
60.3326
 30
0.0
 10
8.2763
 20
60.3326
 30
0.0
 10
8.2763
 20
61.9928
 30
0.0
 10
8.2763
 20
61.9928
 30
0.0
  0
SPLINE
  5
B2
330
1F
100
AcDbEntity
  8
LABELS
 62
   250
100
AcDbSpline
210
0.0
220
0.0
230
1.0
 70
    11
 71
     3
 72
    23
 73
    19
 74
     0
 42
0.0000000001
 43
0.0000000001
 40
0.0
 40
0.0
 40
0.0
 40
0.0
 40
0.1666666666666667
 40
0.1666666666666667
 40
0.1666666666666667
 40
0.3333333333333333
 40
0.3333333333333333
 40
0.3333333333333333
 40
0.5
 40
0.5
 40
0.5
 40
0.6666666666666666
 40
0.6666666666666666
 40
0.6666666666666666
 40
0.8333333333333333
 40
0.8333333333333333
 40
0.8333333333333333
 40
1.0
 40
1.0
 40
1.0
 40
1.0
 10
-57.1672
 20
61.9752
 30
0.0
 10
-57.1672
 20
61.9752
 30
0.0
 10
-58.6125
 20
62.7956
 30
0.0
 10
-58.6125
 20
62.7956
 30
0.0
 10
-58.6125
 20
62.7956
 30
0.0
 10
-60.0383
 20
61.9752
 30
0.0
 10
-60.0383
 20
61.9752
 30
0.0
 10
-60.0383
 20
61.9752
 30
0.0
 10
-60.0383
 20
60.315
 30
0.0
 10
-60.0383
 20
60.315
 30
0.0
 10
-60.0383
 20
60.315
 30
0.0
 10
-58.6125
 20
59.4752
 30
0.0
 10
-58.6125
 20
59.4752
 30
0.0
 10
-58.6125
 20
59.4752
 30
0.0
 10
-57.1672
 20
60.315
 30
0.0
 10
-57.1672
 20
60.315
 30
0.0
 10
-57.1672
 20
60.315
 30
0.0
 10
-57.1672
 20
61.9752
 30
0.0
 10
-57.1672
 20
61.9752
 30
0.0
  0
SPLINE
  5
B3
330
1F
100
AcDbEntity
  8
LABELS
 62
   250
100
AcDbSpline
210
0.0
220
0.0
230
1.0
 70
    11
 71
     3
 72
    29
 73
    25
 74
     0
 42
0.0000000001
 43
0.0000000001
 40
0.0
 40
0.0
 40
0.0
 40
0.0
 40
0.125
 40
0.125
 40
0.125
 40
0.25
 40
0.25
 40
0.25
 40
0.375
 40
0.375
 40
0.375
 40
0.5
 40
0.5
 40
0.5
 40
0.625
 40
0.625
 40
0.625
 40
0.75
 40
0.75
 40
0.75
 40
0.875
 40
0.875
 40
0.875
 40
1.0
 40
1.0
 40
1.0
 40
1.0
 10
45.6395
 20
101.1675
 30
0.0
 10
45.6395
 20
101.1675
 30
0.0
 10
99.0323
 20
101.1675
 30
0.0
 10
99.0323
 20
101.1675
 30
0.0
 10
100.0535
 20
101.1675
 30
0.0
 10
100.8889
 20
100.3321
 30
0.0
 10
100.8889
 20
99.3109
 30
0.0
 10
100.8889
 20
99.3109
 30
0.0
 10
100.8889
 20
81.0181
 30
0.0
 10
100.8889
 20
81.0181
 30
0.0
 10
100.8889
 20
79.9969
 30
0.0
 10
100.0535
 20
79.1615
 30
0.0
 10
99.0323
 20
79.1615
 30
0.0
 10
99.0323
 20
79.1615
 30
0.0
 10
45.6395
 20
79.1615
 30
0.0
 10
45.6395
 20
79.1615
 30
0.0
 10
44.6183
 20
79.1615
 30
0.0
 10
43.7829
 20
79.9969
 30
0.0
 10
43.7829
 20
81.0181
 30
0.0
 10
43.7829
 20
81.0181
 30
0.0
 10
43.7829
 20
99.3109
 30
0.0
 10
43.7829
 20
99.3109
 30
0.0
 10
43.7829
 20
100.3321
 30
0.0
 10
44.6183
 20
101.1675
 30
0.0
 10
45.6395
 20
101.1675
 30
0.0
  0
SPLINE
  5
B4
330
1F
100
AcDbEntity
  8
LABELS
 62
   250
100
AcDbSpline
210
0.0
220
0.0
230
1.0
 70
    24
 71
     3
 72
     8
 73
     4
 74
     0
 42
0.0000000001
 43
0.0000000001
 40
0.0
 40
0.0
 40
0.0
 40
0.0
 40
1.0
 40
1.0
 40
1.0
 40
1.0
 10
112.3727
 20
108.6015
 30
0.0
 10
112.3727
 20
108.6015
 30
0.0
 10
112.3727
 20
63.8205
 30
0.0
 10
112.3727
 20
63.8205
 30
0.0
  0
SPLINE
  5
B5
330
1F
100
AcDbEntity
  8
LABELS
 62
   250
100
AcDbSpline
210
0.0
220
0.0
230
1.0
 70
    24
 71
     3
 72
     8
 73
     4
 74
     0
 42
0.0000000001
 43
0.0000000001
 40
0.0
 40
0.0
 40
0.0
 40
0.0
 40
1.0
 40
1.0
 40
1.0
 40
1.0
 10
42.3284
 20
53.8587
 30
0.0
 10
42.3284
 20
53.8587
 30
0.0
 10
102.367
 20
53.8587
 30
0.0
 10
102.367
 20
53.8587
 30
0.0
  0
SPLINE
  5
B6
330
1F
100
AcDbEntity
  8
LABELS
 62
   250
100
AcDbSpline
210
0.0
220
0.0
230
1.0
 70
    24
 71
     3
 72
     8
 73
     4
 74
     0
 42
0.0000000001
 43
0.0000000001
 40
0.0
 40
0.0
 40
0.0
 40
0.0
 40
1.0
 40
1.0
 40
1.0
 40
1.0
 10
32.2921
 20
108.695
 30
0.0
 10
32.2921
 20
108.695
 30
0.0
 10
32.2921
 20
63.8035
 30
0.0
 10
32.2921
 20
63.8035
 30
0.0
  0
SPLINE
  5
B7
330
1F
100
AcDbEntity
  8
LABELS
 62
   250
100
AcDbSpline
210
0.0
220
0.0
230
1.0
 70
     8
 71
     3
 72
     8
 73
     4
 74
     0
 42
0.0000000001
 43
0.0000000001
 40
0.0
 40
0.0
 40
0.0
 40
0.0
 40
1.0
 40
1.0
 40
1.0
 40
1.0
 10
112.3727
 20
108.6015
 30
0.0
 10
112.3727
 20
114.1442
 30
0.0
 10
107.893
 20
118.6375
 30
0.0
 10
102.367
 20
118.6375
 30
0.0
  0
SPLINE
  5
B8
330
1F
100
AcDbEntity
  8
LABELS
 62
   250
100
AcDbSpline
210
0.0
220
0.0
230
1.0
 70
     8
 71
     3
 72
     8
 73
     4
 74
     0
 42
0.0000000001
 43
0.0000000001
 40
0.0
 40
0.0
 40
0.0
 40
0.0
 40
1.0
 40
1.0
 40
1.0
 40
1.0
 10
32.2921
 20
108.6015
 30
0.0
 10
32.2921
 20
114.1442
 30
0.0
 10
36.7855
 20
118.6375
 30
0.0
 10
42.3285
 20
118.6375
 30
0.0
  0
SPLINE
  5
B9
330
1F
100
AcDbEntity
  8
LABELS
 62
   250
100
AcDbSpline
210
0.0
220
0.0
230
1.0
 70
     8
 71
     3
 72
     8
 73
     4
 74
     0
 42
0.0000000001
 43
0.0000000001
 40
0.0
 40
0.0
 40
0.0
 40
0.0
 40
1.0
 40
1.0
 40
1.0
 40
1.0
 10
112.3727
 20
63.8759
 30
0.0
 10
112.3727
 20
58.3436
 30
0.0
 10
107.893
 20
53.8587
 30
0.0
 10
102.367
 20
53.8587
 30
0.0
  0
SPLINE
  5
BA
330
1F
100
AcDbEntity
  8
LABELS
 62
   250
100
AcDbSpline
210
0.0
220
0.0
230
1.0
 70
     8
 71
     3
 72
     8
 73
     4
 74
     0
 42
0.0000000001
 43
0.0000000001
 40
0.0
 40
0.0
 40
0.0
 40
0.0
 40
1.0
 40
1.0
 40
1.0
 40
1.0
 10
32.2921
 20
63.8759
 30
0.0
 10
32.2921
 20
58.3436
 30
0.0
 10
36.7855
 20
53.8587
 30
0.0
 10
42.3284
 20
53.8587
 30
0.0
  0
SPLINE
  5
BB
330
1F
100
AcDbEntity
  8
LABELS
 62
   250
100
AcDbSpline
210
0.0
220
0.0
230
1.0
 70
    24
 71
     3
 72
     8
 73
     4
 74
     0
 42
0.0000000001
 43
0.0000000001
 40
0.0
 40
0.0
 40
0.0
 40
0.0
 40
1.0
 40
1.0
 40
1.0
 40
1.0
 10
42.0615
 20
118.6339
 30
0.0
 10
42.0615
 20
118.6339
 30
0.0
 10
102.8457
 20
118.6339
 30
0.0
 10
102.8457
 20
118.6339
 30
0.0
  0
SPLINE
  5
BC
330
1F
100
AcDbEntity
  8
LABELS
 62
   250
100
AcDbSpline
210
0.0
220
0.0
230
1.0
 70
    11
 71
     3
 72
    23
 73
    19
 74
     0
 42
0.0000000001
 43
0.0000000001
 40
0.0
 40
0.0
 40
0.0
 40
0.0
 40
0.1666666666666667
 40
0.1666666666666667
 40
0.1666666666666667
 40
0.3333333333333333
 40
0.3333333333333333
 40
0.3333333333333333
 40
0.5
 40
0.5
 40
0.5
 40
0.6666666666666666
 40
0.6666666666666666
 40
0.6666666666666666
 40
0.8333333333333333
 40
0.8333333333333333
 40
0.8333333333333333
 40
1.0
 40
1.0
 40
1.0
 40
1.0
 10
106.5961
 20
112.2564
 30
0.0
 10
106.5961
 20
112.2564
 30
0.0
 10
105.1508
 20
113.0768
 30
0.0
 10
105.1508
 20
113.0768
 30
0.0
 10
105.1508
 20
113.0768
 30
0.0
 10
103.725
 20
112.2564
 30
0.0
 10
103.725
 20
112.2564
 30
0.0
 10
103.725
 20
112.2564
 30
0.0
 10
103.725
 20
110.5962
 30
0.0
 10
103.725
 20
110.5962
 30
0.0
 10
103.725
 20
110.5962
 30
0.0
 10
105.1508
 20
109.7563
 30
0.0
 10
105.1508
 20
109.7563
 30
0.0
 10
105.1508
 20
109.7563
 30
0.0
 10
106.5961
 20
110.5962
 30
0.0
 10
106.5961
 20
110.5962
 30
0.0
 10
106.5961
 20
110.5962
 30
0.0
 10
106.5961
 20
112.2564
 30
0.0
 10
106.5961
 20
112.2564
 30
0.0
  0
SPLINE
  5
BD
330
1F
100
AcDbEntity
  8
LABELS
 62
   250
100
AcDbSpline
210
0.0
220
0.0
230
1.0
 70
    11
 71
     3
 72
    23
 73
    19
 74
     0
 42
0.0000000001
 43
0.0000000001
 40
0.0
 40
0.0
 40
0.0
 40
0.0
 40
0.1666666666666667
 40
0.1666666666666667
 40
0.1666666666666667
 40
0.3333333333333333
 40
0.3333333333333333
 40
0.3333333333333333
 40
0.5
 40
0.5
 40
0.5
 40
0.6666666666666666
 40
0.6666666666666666
 40
0.6666666666666666
 40
0.8333333333333333
 40
0.8333333333333333
 40
0.8333333333333333
 40
1.0
 40
1.0
 40
1.0
 40
1.0
 10
40.9161
 20
112.1112
 30
0.0
 10
40.9161
 20
112.1112
 30
0.0
 10
39.4708
 20
112.9315
 30
0.0
 10
39.4708
 20
112.9315
 30
0.0
 10
39.4708
 20
112.9315
 30
0.0
 10
38.045
 20
112.1112
 30
0.0
 10
38.045
 20
112.1112
 30
0.0
 10
38.045
 20
112.1112
 30
0.0
 10
38.045
 20
110.4509
 30
0.0
 10
38.045
 20
110.4509
 30
0.0
 10
38.045
 20
110.4509
 30
0.0
 10
39.4708
 20
109.6111
 30
0.0
 10
39.4708
 20
109.6111
 30
0.0
 10
39.4708
 20
109.6111
 30
0.0
 10
40.9161
 20
110.4509
 30
0.0
 10
40.9161
 20
110.4509
 30
0.0
 10
40.9161
 20
110.4509
 30
0.0
 10
40.9161
 20
112.1112
 30
0.0
 10
40.9161
 20
112.1112
 30
0.0
  0
SPLINE
  5
BE
330
1F
100
AcDbEntity
  8
LABELS
 62
   250
100
AcDbSpline
210
0.0
220
0.0
230
1.0
 70
    11
 71
     3
 72
    23
 73
    19
 74
     0
 42
0.0000000001
 43
0.0000000001
 40
0.0
 40
0.0
 40
0.0
 40
0.0
 40
0.1666666666666667
 40
0.1666666666666667
 40
0.1666666666666667
 40
0.3333333333333333
 40
0.3333333333333333
 40
0.3333333333333333
 40
0.5
 40
0.5
 40
0.5
 40
0.6666666666666666
 40
0.6666666666666666
 40
0.6666666666666666
 40
0.8333333333333333
 40
0.8333333333333333
 40
0.8333333333333333
 40
1.0
 40
1.0
 40
1.0
 40
1.0
 10
106.4927
 20
61.9928
 30
0.0
 10
106.4927
 20
61.9928
 30
0.0
 10
105.0474
 20
62.8132
 30
0.0
 10
105.0474
 20
62.8132
 30
0.0
 10
105.0474
 20
62.8132
 30
0.0
 10
103.6216
 20
61.9928
 30
0.0
 10
103.6216
 20
61.9928
 30
0.0
 10
103.6216
 20
61.9928
 30
0.0
 10
103.6216
 20
60.3326
 30
0.0
 10
103.6216
 20
60.3326
 30
0.0
 10
103.6216
 20
60.3326
 30
0.0
 10
105.0474
 20
59.4928
 30
0.0
 10
105.0474
 20
59.4928
 30
0.0
 10
105.0474
 20
59.4928
 30
0.0
 10
106.4927
 20
60.3326
 30
0.0
 10
106.4927
 20
60.3326
 30
0.0
 10
106.4927
 20
60.3326
 30
0.0
 10
106.4927
 20
61.9928
 30
0.0
 10
106.4927
 20
61.9928
 30
0.0
  0
SPLINE
  5
BF
330
1F
100
AcDbEntity
  8
LABELS
 62
   250
100
AcDbSpline
210
0.0
220
0.0
230
1.0
 70
    11
 71
     3
 72
    23
 73
    19
 74
     0
 42
0.0000000001
 43
0.0000000001
 40
0.0
 40
0.0
 40
0.0
 40
0.0
 40
0.1666666666666667
 40
0.1666666666666667
 40
0.1666666666666667
 40
0.3333333333333333
 40
0.3333333333333333
 40
0.3333333333333333
 40
0.5
 40
0.5
 40
0.5
 40
0.6666666666666666
 40
0.6666666666666666
 40
0.6666666666666666
 40
0.8333333333333333
 40
0.8333333333333333
 40
0.8333333333333333
 40
1.0
 40
1.0
 40
1.0
 40
1.0
 10
41.0492
 20
61.9752
 30
0.0
 10
41.0492
 20
61.9752
 30
0.0
 10
39.6039
 20
62.7956
 30
0.0
 10
39.6039
 20
62.7956
 30
0.0
 10
39.6039
 20
62.7956
 30
0.0
 10
38.1781
 20
61.9752
 30
0.0
 10
38.1781
 20
61.9752
 30
0.0
 10
38.1781
 20
61.9752
 30
0.0
 10
38.1781
 20
60.315
 30
0.0
 10
38.1781
 20
60.315
 30
0.0
 10
38.1781
 20
60.315
 30
0.0
 10
39.6039
 20
59.4752
 30
0.0
 10
39.6039
 20
59.4752
 30
0.0
 10
39.6039
 20
59.4752
 30
0.0
 10
41.0492
 20
60.315
 30
0.0
 10
41.0492
 20
60.315
 30
0.0
 10
41.0492
 20
60.315
 30
0.0
 10
41.0492
 20
61.9752
 30
0.0
 10
41.0492
 20
61.9752
 30
0.0
  0
SPLINE
  5
C0
330
1F
100
AcDbEntity
  8
LABELS
 62
   250
100
AcDbSpline
210
0.0
220
0.0
230
1.0
 70
    11
 71
     3
 72
    95
 73
    91
 74
     0
 42
0.0000000001
 43
0.0000000001
 40
0.0
 40
0.0
 40
0.0
 40
0.0
 40
0.0333333333333333
 40
0.0333333333333333
 40
0.0333333333333333
 40
0.0666666666666667
 40
0.0666666666666667
 40
0.0666666666666667
 40
0.1
 40
0.1
 40
0.1
 40
0.1333333333333333
 40
0.1333333333333333
 40
0.1333333333333333
 40
0.1666666666666667
 40
0.1666666666666667
 40
0.1666666666666667
 40
0.2
 40
0.2
 40
0.2
 40
0.2333333333333333
 40
0.2333333333333333
 40
0.2333333333333333
 40
0.2666666666666667
 40
0.2666666666666667
 40
0.2666666666666667
 40
0.3
 40
0.3
 40
0.3
 40
0.3333333333333333
 40
0.3333333333333333
 40
0.3333333333333333
 40
0.3666666666666666
 40
0.3666666666666666
 40
0.3666666666666666
 40
0.4
 40
0.4
 40
0.4
 40
0.4333333333333333
 40
0.4333333333333333
 40
0.4333333333333333
 40
0.4666666666666667
 40
0.4666666666666667
 40
0.4666666666666667
 40
0.5
 40
0.5
 40
0.5
 40
0.5333333333333333
 40
0.5333333333333333
 40
0.5333333333333333
 40
0.5666666666666667
 40
0.5666666666666667
 40
0.5666666666666667
 40
0.6
 40
0.6
 40
0.6
 40
0.6333333333333333
 40
0.6333333333333333
 40
0.6333333333333333
 40
0.6666666666666666
 40
0.6666666666666666
 40
0.6666666666666666
 40
0.7
 40
0.7
 40
0.7
 40
0.7333333333333333
 40
0.7333333333333333
 40
0.7333333333333333
 40
0.7666666666666666
 40
0.7666666666666666
 40
0.7666666666666666
 40
0.8
 40
0.8
 40
0.8
 40
0.8333333333333334
 40
0.8333333333333334
 40
0.8333333333333334
 40
0.8666666666666667
 40
0.8666666666666667
 40
0.8666666666666667
 40
0.9
 40
0.9
 40
0.9
 40
0.9333333333333333
 40
0.9333333333333333
 40
0.9333333333333333
 40
0.9666666666666667
 40
0.9666666666666667
 40
0.9666666666666667
 40
1.0
 40
1.0
 40
1.0
 40
1.0
 10
-178.1605
 20
81.701
 30
0.0
 10
-178.1605
 20
81.701
 30
0.0
 10
-174.3603
 20
82.2193
 30
0.0
 10
-174.3603
 20
82.2193
 30
0.0
 10
-173.9212
 20
80.06
 30
0.0
 10
-173.1871
 20
78.5053
 30
0.0
 10
-172.1434
 20
77.5553
 30
0.0
 10
-171.0998
 20
76.6052
 30
0.0
 10
-169.8187
 20
76.1302
 30
0.0
 10
-168.3
 20
76.1302
 30
0.0
 10
-166.5006
 20
76.1302
 30
0.0
 10
-164.9819
 20
76.7492
 30
0.0
 10
-163.7584
 20
77.9871
 30
0.0
 10
-162.5348
 20
79.2251
 30
0.0
 10
-161.923
 20
80.7582
 30
0.0
 10
-161.923
 20
82.5863
 30
0.0
 10
-161.923
 20
84.3281
 30
0.0
 10
-162.4916
 20
85.7676
 30
0.0
 10
-163.636
 20
86.9048
 30
0.0
 10
-164.7732
 20
88.0348
 30
0.0
 10
-166.2199
 20
88.6034
 30
0.0
 10
-167.9833
 20
88.6034
 30
0.0
 10
-168.703
 20
88.6034
 30
0.0
 10
-169.5955
 20
88.4595
 30
0.0
 10
-170.668
 20
88.1788
 30
0.0
 10
-170.668
 20
88.1788
 30
0.0
 10
-170.2433
 20
91.504
 30
0.0
 10
-170.2433
 20
91.504
 30
0.0
 10
-169.9914
 20
91.4752
 30
0.0
 10
-169.7827
 20
91.4608
 30
0.0
 10
-169.6315
 20
91.4608
 30
0.0
 10
-168.0049
 20
91.4608
 30
0.0
 10
-166.551
 20
91.8855
 30
0.0
 10
-165.2482
 20
92.7276
 30
0.0
 10
-163.9527
 20
93.5697
 30
0.0
 10
-163.3049
 20
94.8652
 30
0.0
 10
-163.3049
 20
96.6142
 30
0.0
 10
-163.3049
 20
98.0033
 30
0.0
 10
-163.78
 20
99.1549
 30
0.0
 10
-164.7228
 20
100.069
 30
0.0
 10
-165.6657
 20
100.9831
 30
0.0
 10
-166.8821
 20
101.4365
 30
0.0
 10
-168.372
 20
101.4365
 30
0.0
 10
-169.8546
 20
101.4365
 30
0.0
 10
-171.0854
 20
100.9687
 30
0.0
 10
-172.0715
 20
100.033
 30
0.0
 10
-173.0575
 20
99.0973
 30
0.0
 10
-173.6909
 20
97.6938
 30
0.0
 10
-173.9716
 20
95.8225
 30
0.0
 10
-173.9716
 20
95.8225
 30
0.0
 10
-177.7719
 20
96.5135
 30
0.0
 10
-177.7719
 20
96.5135
 30
0.0
 10
-177.304
 20
99.0614
 30
0.0
 10
-176.2532
 20
101.0407
 30
0.0
 10
-174.605
 20
102.4442
 30
0.0
 10
-172.964
 20
103.8477
 30
0.0
 10
-170.9127
 20
104.5458
 30
0.0
 10
-168.4655
 20
104.5458
 30
0.0
 10
-166.7813
 20
104.5458
 30
0.0
 10
-165.2267
 20
104.186
 30
0.0
 10
-163.8088
 20
103.459
 30
0.0
 10
-162.3837
 20
102.7393
 30
0.0
 10
-161.2968
 20
101.7532
 30
0.0
 10
-160.5483
 20
100.5081
 30
0.0
 10
-159.7926
 20
99.2557
 30
0.0
 10
-159.4183
 20
97.9314
 30
0.0
 10
-159.4183
 20
96.5278
 30
0.0
 10
-159.4183
 20
95.1963
 30
0.0
 10
-159.7782
 20
93.9871
 30
0.0
 10
-160.4907
 20
92.8931
 30
0.0
 10
-161.2105
 20
91.7991
 30
0.0
 10
-162.2757
 20
90.9282
 30
0.0
 10
-163.6792
 20
90.2804
 30
0.0
 10
-161.851
 20
89.863
 30
0.0
 10
-160.4331
 20
88.9849
 30
0.0
 10
-159.4183
 20
87.6534
 30
0.0
 10
-158.4106
 20
86.329
 30
0.0
 10
-157.9068
 20
84.6592
 30
0.0
 10
-157.9068
 20
82.6655
 30
0.0
 10
-157.9068
 20
79.9664
 30
0.0
 10
-158.8929
 20
77.6704
 30
0.0
 10
-160.8578
 20
75.7919
 30
0.0
 10
-162.8299
 20
73.9134
 30
0.0
 10
-165.3202
 20
72.9777
 30
0.0
 10
-168.3288
 20
72.9777
 30
0.0
 10
-171.0422
 20
72.9777
 30
0.0
 10
-173.295
 20
73.791
 30
0.0
 10
-175.0872
 20
75.4104
 30
0.0
 10
-176.8866
 20
77.0299
 30
0.0
 10
-177.9086
 20
79.1243
 30
0.0
 10
-178.1605
 20
81.701
 30
0.0
  0
SPLINE
  5
C1
330
1F
100
AcDbEntity
  8
LABELS
 62
   250
100
AcDbSpline
210
0.0
220
0.0
230
1.0
 70
    11
 71
     3
 72
    89
 73
    85
 74
     0
 42
0.0000000001
 43
0.0000000001
 40
0.0
 40
0.0
 40
0.0
 40
0.0
 40
0.0357142857142857
 40
0.0357142857142857
 40
0.0357142857142857
 40
0.0714285714285714
 40
0.0714285714285714
 40
0.0714285714285714
 40
0.1071428571428571
 40
0.1071428571428571
 40
0.1071428571428571
 40
0.1428571428571428
 40
0.1428571428571428
 40
0.1428571428571428
 40
0.1785714285714285
 40
0.1785714285714285
 40
0.1785714285714285
 40
0.2142857142857143
 40
0.2142857142857143
 40
0.2142857142857143
 40
0.25
 40
0.25
 40
0.25
 40
0.2857142857142857
 40
0.2857142857142857
 40
0.2857142857142857
 40
0.3214285714285714
 40
0.3214285714285714
 40
0.3214285714285714
 40
0.3571428571428571
 40
0.3571428571428571
 40
0.3571428571428571
 40
0.3928571428571428
 40
0.3928571428571428
 40
0.3928571428571428
 40
0.4285714285714285
 40
0.4285714285714285
 40
0.4285714285714285
 40
0.4642857142857142
 40
0.4642857142857142
 40
0.4642857142857142
 40
0.5
 40
0.5
 40
0.5
 40
0.5357142857142857
 40
0.5357142857142857
 40
0.5357142857142857
 40
0.5714285714285714
 40
0.5714285714285714
 40
0.5714285714285714
 40
0.6071428571428571
 40
0.6071428571428571
 40
0.6071428571428571
 40
0.6428571428571428
 40
0.6428571428571428
 40
0.6428571428571428
 40
0.6785714285714285
 40
0.6785714285714285
 40
0.6785714285714285
 40
0.7142857142857142
 40
0.7142857142857142
 40
0.7142857142857142
 40
0.75
 40
0.75
 40
0.75
 40
0.7857142857142857
 40
0.7857142857142857
 40
0.7857142857142857
 40
0.8214285714285714
 40
0.8214285714285714
 40
0.8214285714285714
 40
0.8571428571428571
 40
0.8571428571428571
 40
0.8571428571428571
 40
0.8928571428571428
 40
0.8928571428571428
 40
0.8928571428571428
 40
0.9285714285714285
 40
0.9285714285714285
 40
0.9285714285714285
 40
0.9642857142857142
 40
0.9642857142857142
 40
0.9642857142857142
 40
1.0
 40
1.0
 40
1.0
 40
1.0
 10
-153.1061
 20
73.4959
 30
0.0
 10
-153.1061
 20
73.4959
 30
0.0
 10
-153.1061
 20
95.9089
 30
0.0
 10
-153.1061
 20
95.9089
 30
0.0
 10
-153.1061
 20
95.9089
 30
0.0
 10
-149.6945
 20
95.9089
 30
0.0
 10
-149.6945
 20
95.9089
 30
0.0
 10
-149.6945
 20
95.9089
 30
0.0
 10
-149.6945
 20
92.742
 30
0.0
 10
-149.6945
 20
92.742
 30
0.0
 10
-148.9963
 20
93.836
 30
0.0
 10
-148.0607
 20
94.7213
 30
0.0
 10
-146.8947
 20
95.3834
 30
0.0
 10
-145.7287
 20
96.0528
 30
0.0
 10
-144.4043
 20
96.3839
 30
0.0
 10
-142.9145
 20
96.3839
 30
0.0
 10
-141.259
 20
96.3839
 30
0.0
 10
-139.8987
 20
96.0384
 30
0.0
 10
-138.8407
 20
95.3547
 30
0.0
 10
-137.7827
 20
94.6637
 30
0.0
 10
-137.0341
 20
93.7064
 30
0.0
 10
-136.6023
 20
92.4685
 30
0.0
 10
-134.8173
 20
95.0812
 30
0.0
 10
-132.5069
 20
96.3839
 30
0.0
 10
-129.6567
 20
96.3839
 30
0.0
 10
-127.4255
 20
96.3839
 30
0.0
 10
-125.7053
 20
95.7721
 30
0.0
 10
-124.5105
 20
94.5413
 30
0.0
 10
-123.3085
 20
93.3106
 30
0.0
 10
-122.7039
 20
91.4176
 30
0.0
 10
-122.7039
 20
88.8625
 30
0.0
 10
-122.7039
 20
88.8625
 30
0.0
 10
-122.7039
 20
73.4959
 30
0.0
 10
-122.7039
 20
73.4959
 30
0.0
 10
-122.7039
 20
73.4959
 30
0.0
 10
-126.5042
 20
73.4959
 30
0.0
 10
-126.5042
 20
73.4959
 30
0.0
 10
-126.5042
 20
73.4959
 30
0.0
 10
-126.5042
 20
87.603
 30
0.0
 10
-126.5042
 20
87.603
 30
0.0
 10
-126.5042
 20
89.1144
 30
0.0
 10
-126.6338
 20
90.2085
 30
0.0
 10
-126.8785
 20
90.8778
 30
0.0
 10
-127.1232
 20
91.5472
 30
0.0
 10
-127.5694
 20
92.0798
 30
0.0
 10
-128.2244
 20
92.4901
 30
0.0
 10
-128.8722
 20
92.9003
 30
0.0
 10
-129.6351
 20
93.1018
 30
0.0
 10
-130.506
 20
93.1018
 30
0.0
 10
-132.0894
 20
93.1018
 30
0.0
 10
-133.3994
 20
92.5764
 30
0.0
 10
-134.443
 20
91.5328
 30
0.0
 10
-135.4867
 20
90.482
 30
0.0
 10
-136.0049
 20
88.8049
 30
0.0
 10
-136.0049
 20
86.5018
 30
0.0
 10
-136.0049
 20
86.5018
 30
0.0
 10
-136.0049
 20
73.4959
 30
0.0
 10
-136.0049
 20
73.4959
 30
0.0
 10
-136.0049
 20
73.4959
 30
0.0
 10
-139.8051
 20
73.4959
 30
0.0
 10
-139.8051
 20
73.4959
 30
0.0
 10
-139.8051
 20
73.4959
 30
0.0
 10
-139.8051
 20
88.042
 30
0.0
 10
-139.8051
 20
88.042
 30
0.0
 10
-139.8051
 20
89.7262
 30
0.0
 10
-140.1146
 20
90.993
 30
0.0
 10
-140.7336
 20
91.8351
 30
0.0
 10
-141.3526
 20
92.6772
 30
0.0
 10
-142.3675
 20
93.1018
 30
0.0
 10
-143.771
 20
93.1018
 30
0.0
 10
-144.8362
 20
93.1018
 30
0.0
 10
-145.8222
 20
92.8211
 30
0.0
 10
-146.7291
 20
92.2597
 30
0.0
 10
-147.636
 20
91.6983
 30
0.0
 10
-148.291
 20
90.8778
 30
0.0
 10
-148.7012
 20
89.791
 30
0.0
 10
-149.1043
 20
88.7114
 30
0.0
 10
-149.3058
 20
87.1495
 30
0.0
 10
-149.3058
 20
85.1126
 30
0.0
 10
-149.3058
 20
85.1126
 30
0.0
 10
-149.3058
 20
73.4959
 30
0.0
 10
-149.3058
 20
73.4959
 30
0.0
 10
-149.3058
 20
73.4959
 30
0.0
 10
-153.1061
 20
73.4959
 30
0.0
 10
-153.1061
 20
73.4959
 30
0.0
  0
SPLINE
  5
C2
330
1F
100
AcDbEntity
  8
LABELS
 62
   250
100
AcDbSpline
210
0.0
220
0.0
230
1.0
 70
    11
 71
     3
 72
    89
 73
    85
 74
     0
 42
0.0000000001
 43
0.0000000001
 40
0.0
 40
0.0
 40
0.0
 40
0.0
 40
0.0357142857142857
 40
0.0357142857142857
 40
0.0357142857142857
 40
0.0714285714285714
 40
0.0714285714285714
 40
0.0714285714285714
 40
0.1071428571428571
 40
0.1071428571428571
 40
0.1071428571428571
 40
0.1428571428571428
 40
0.1428571428571428
 40
0.1428571428571428
 40
0.1785714285714285
 40
0.1785714285714285
 40
0.1785714285714285
 40
0.2142857142857143
 40
0.2142857142857143
 40
0.2142857142857143
 40
0.25
 40
0.25
 40
0.25
 40
0.2857142857142857
 40
0.2857142857142857
 40
0.2857142857142857
 40
0.3214285714285714
 40
0.3214285714285714
 40
0.3214285714285714
 40
0.3571428571428571
 40
0.3571428571428571
 40
0.3571428571428571
 40
0.3928571428571428
 40
0.3928571428571428
 40
0.3928571428571428
 40
0.4285714285714285
 40
0.4285714285714285
 40
0.4285714285714285
 40
0.4642857142857142
 40
0.4642857142857142
 40
0.4642857142857142
 40
0.5
 40
0.5
 40
0.5
 40
0.5357142857142857
 40
0.5357142857142857
 40
0.5357142857142857
 40
0.5714285714285714
 40
0.5714285714285714
 40
0.5714285714285714
 40
0.6071428571428571
 40
0.6071428571428571
 40
0.6071428571428571
 40
0.6428571428571428
 40
0.6428571428571428
 40
0.6428571428571428
 40
0.6785714285714285
 40
0.6785714285714285
 40
0.6785714285714285
 40
0.7142857142857142
 40
0.7142857142857142
 40
0.7142857142857142
 40
0.75
 40
0.75
 40
0.75
 40
0.7857142857142857
 40
0.7857142857142857
 40
0.7857142857142857
 40
0.8214285714285714
 40
0.8214285714285714
 40
0.8214285714285714
 40
0.8571428571428571
 40
0.8571428571428571
 40
0.8571428571428571
 40
0.8928571428571428
 40
0.8928571428571428
 40
0.8928571428571428
 40
0.9285714285714285
 40
0.9285714285714285
 40
0.9285714285714285
 40
0.9642857142857142
 40
0.9642857142857142
 40
0.9642857142857142
 40
1.0
 40
1.0
 40
1.0
 40
1.0
 10
-117.1331
 20
73.4959
 30
0.0
 10
-117.1331
 20
73.4959
 30
0.0
 10
-117.1331
 20
95.9089
 30
0.0
 10
-117.1331
 20
95.9089
 30
0.0
 10
-117.1331
 20
95.9089
 30
0.0
 10
-113.7215
 20
95.9089
 30
0.0
 10
-113.7215
 20
95.9089
 30
0.0
 10
-113.7215
 20
95.9089
 30
0.0
 10
-113.7215
 20
92.742
 30
0.0
 10
-113.7215
 20
92.742
 30
0.0
 10
-113.0233
 20
93.836
 30
0.0
 10
-112.0877
 20
94.7213
 30
0.0
 10
-110.9217
 20
95.3834
 30
0.0
 10
-109.7557
 20
96.0528
 30
0.0
 10
-108.4313
 20
96.3839
 30
0.0
 10
-106.9415
 20
96.3839
 30
0.0
 10
-105.286
 20
96.3839
 30
0.0
 10
-103.9257
 20
96.0384
 30
0.0
 10
-102.8677
 20
95.3547
 30
0.0
 10
-101.8097
 20
94.6637
 30
0.0
 10
-101.0611
 20
93.7064
 30
0.0
 10
-100.6293
 20
92.4685
 30
0.0
 10
-98.8443
 20
95.0812
 30
0.0
 10
-96.5339
 20
96.3839
 30
0.0
 10
-93.6837
 20
96.3839
 30
0.0
 10
-91.4525
 20
96.3839
 30
0.0
 10
-89.7323
 20
95.7721
 30
0.0
 10
-88.5375
 20
94.5413
 30
0.0
 10
-87.3355
 20
93.3106
 30
0.0
 10
-86.7309
 20
91.4176
 30
0.0
 10
-86.7309
 20
88.8625
 30
0.0
 10
-86.7309
 20
88.8625
 30
0.0
 10
-86.7309
 20
73.4959
 30
0.0
 10
-86.7309
 20
73.4959
 30
0.0
 10
-86.7309
 20
73.4959
 30
0.0
 10
-90.5312
 20
73.4959
 30
0.0
 10
-90.5312
 20
73.4959
 30
0.0
 10
-90.5312
 20
73.4959
 30
0.0
 10
-90.5312
 20
87.603
 30
0.0
 10
-90.5312
 20
87.603
 30
0.0
 10
-90.5312
 20
89.1144
 30
0.0
 10
-90.6608
 20
90.2085
 30
0.0
 10
-90.9055
 20
90.8778
 30
0.0
 10
-91.1502
 20
91.5472
 30
0.0
 10
-91.5964
 20
92.0798
 30
0.0
 10
-92.2514
 20
92.4901
 30
0.0
 10
-92.8992
 20
92.9003
 30
0.0
 10
-93.6621
 20
93.1018
 30
0.0
 10
-94.533
 20
93.1018
 30
0.0
 10
-96.1164
 20
93.1018
 30
0.0
 10
-97.4264
 20
92.5764
 30
0.0
 10
-98.47
 20
91.5328
 30
0.0
 10
-99.5137
 20
90.482
 30
0.0
 10
-100.0319
 20
88.8049
 30
0.0
 10
-100.0319
 20
86.5018
 30
0.0
 10
-100.0319
 20
86.5018
 30
0.0
 10
-100.0319
 20
73.4959
 30
0.0
 10
-100.0319
 20
73.4959
 30
0.0
 10
-100.0319
 20
73.4959
 30
0.0
 10
-103.8321
 20
73.4959
 30
0.0
 10
-103.8321
 20
73.4959
 30
0.0
 10
-103.8321
 20
73.4959
 30
0.0
 10
-103.8321
 20
88.042
 30
0.0
 10
-103.8321
 20
88.042
 30
0.0
 10
-103.8321
 20
89.7262
 30
0.0
 10
-104.1416
 20
90.993
 30
0.0
 10
-104.7606
 20
91.8351
 30
0.0
 10
-105.3796
 20
92.6772
 30
0.0
 10
-106.3945
 20
93.1018
 30
0.0
 10
-107.798
 20
93.1018
 30
0.0
 10
-108.8632
 20
93.1018
 30
0.0
 10
-109.8492
 20
92.8211
 30
0.0
 10
-110.7561
 20
92.2597
 30
0.0
 10
-111.663
 20
91.6983
 30
0.0
 10
-112.318
 20
90.8778
 30
0.0
 10
-112.7282
 20
89.791
 30
0.0
 10
-113.1313
 20
88.7114
 30
0.0
 10
-113.3328
 20
87.1495
 30
0.0
 10
-113.3328
 20
85.1126
 30
0.0
 10
-113.3328
 20
85.1126
 30
0.0
 10
-113.3328
 20
73.4959
 30
0.0
 10
-113.3328
 20
73.4959
 30
0.0
 10
-113.3328
 20
73.4959
 30
0.0
 10
-117.1331
 20
73.4959
 30
0.0
 10
-117.1331
 20
73.4959
 30
0.0
  0
SPLINE
  5
C3
330
1F
100
AcDbEntity
  8
LABELS
 62
   250
100
AcDbSpline
210
0.0
220
0.0
230
1.0
 70
    11
 71
     3
 72
    95
 73
    91
 74
     0
 42
0.0000000001
 43
0.0000000001
 40
0.0
 40
0.0
 40
0.0
 40
0.0
 40
0.0333333333333333
 40
0.0333333333333333
 40
0.0333333333333333
 40
0.0666666666666667
 40
0.0666666666666667
 40
0.0666666666666667
 40
0.1
 40
0.1
 40
0.1
 40
0.1333333333333333
 40
0.1333333333333333
 40
0.1333333333333333
 40
0.1666666666666667
 40
0.1666666666666667
 40
0.1666666666666667
 40
0.2
 40
0.2
 40
0.2
 40
0.2333333333333333
 40
0.2333333333333333
 40
0.2333333333333333
 40
0.2666666666666667
 40
0.2666666666666667
 40
0.2666666666666667
 40
0.3
 40
0.3
 40
0.3
 40
0.3333333333333333
 40
0.3333333333333333
 40
0.3333333333333333
 40
0.3666666666666666
 40
0.3666666666666666
 40
0.3666666666666666
 40
0.4
 40
0.4
 40
0.4
 40
0.4333333333333333
 40
0.4333333333333333
 40
0.4333333333333333
 40
0.4666666666666667
 40
0.4666666666666667
 40
0.4666666666666667
 40
0.5
 40
0.5
 40
0.5
 40
0.5333333333333333
 40
0.5333333333333333
 40
0.5333333333333333
 40
0.5666666666666667
 40
0.5666666666666667
 40
0.5666666666666667
 40
0.6
 40
0.6
 40
0.6
 40
0.6333333333333333
 40
0.6333333333333333
 40
0.6333333333333333
 40
0.6666666666666666
 40
0.6666666666666666
 40
0.6666666666666666
 40
0.7
 40
0.7
 40
0.7
 40
0.7333333333333333
 40
0.7333333333333333
 40
0.7333333333333333
 40
0.7666666666666666
 40
0.7666666666666666
 40
0.7666666666666666
 40
0.8
 40
0.8
 40
0.8
 40
0.8333333333333334
 40
0.8333333333333334
 40
0.8333333333333334
 40
0.8666666666666667
 40
0.8666666666666667
 40
0.8666666666666667
 40
0.9
 40
0.9
 40
0.9
 40
0.9333333333333333
 40
0.9333333333333333
 40
0.9333333333333333
 40
0.9666666666666667
 40
0.9666666666666667
 40
0.9666666666666667
 40
1.0
 40
1.0
 40
1.0
 40
1.0
 10
-178.1605
 20
81.701
 30
0.0
 10
-178.1605
 20
81.701
 30
0.0
 10
-174.3603
 20
82.2193
 30
0.0
 10
-174.3603
 20
82.2193
 30
0.0
 10
-173.9212
 20
80.06
 30
0.0
 10
-173.1871
 20
78.5053
 30
0.0
 10
-172.1434
 20
77.5553
 30
0.0
 10
-171.0998
 20
76.6052
 30
0.0
 10
-169.8187
 20
76.1302
 30
0.0
 10
-168.3
 20
76.1302
 30
0.0
 10
-166.5006
 20
76.1302
 30
0.0
 10
-164.9819
 20
76.7492
 30
0.0
 10
-163.7584
 20
77.9871
 30
0.0
 10
-162.5348
 20
79.2251
 30
0.0
 10
-161.923
 20
80.7582
 30
0.0
 10
-161.923
 20
82.5863
 30
0.0
 10
-161.923
 20
84.3281
 30
0.0
 10
-162.4916
 20
85.7676
 30
0.0
 10
-163.636
 20
86.9048
 30
0.0
 10
-164.7732
 20
88.0348
 30
0.0
 10
-166.2199
 20
88.6034
 30
0.0
 10
-167.9833
 20
88.6034
 30
0.0
 10
-168.703
 20
88.6034
 30
0.0
 10
-169.5955
 20
88.4595
 30
0.0
 10
-170.668
 20
88.1788
 30
0.0
 10
-170.668
 20
88.1788
 30
0.0
 10
-170.2433
 20
91.504
 30
0.0
 10
-170.2433
 20
91.504
 30
0.0
 10
-169.9914
 20
91.4752
 30
0.0
 10
-169.7827
 20
91.4608
 30
0.0
 10
-169.6315
 20
91.4608
 30
0.0
 10
-168.0049
 20
91.4608
 30
0.0
 10
-166.551
 20
91.8855
 30
0.0
 10
-165.2482
 20
92.7276
 30
0.0
 10
-163.9527
 20
93.5697
 30
0.0
 10
-163.3049
 20
94.8652
 30
0.0
 10
-163.3049
 20
96.6142
 30
0.0
 10
-163.3049
 20
98.0033
 30
0.0
 10
-163.78
 20
99.1549
 30
0.0
 10
-164.7228
 20
100.069
 30
0.0
 10
-165.6657
 20
100.9831
 30
0.0
 10
-166.8821
 20
101.4365
 30
0.0
 10
-168.372
 20
101.4365
 30
0.0
 10
-169.8546
 20
101.4365
 30
0.0
 10
-171.0854
 20
100.9687
 30
0.0
 10
-172.0715
 20
100.033
 30
0.0
 10
-173.0575
 20
99.0973
 30
0.0
 10
-173.6909
 20
97.6938
 30
0.0
 10
-173.9716
 20
95.8225
 30
0.0
 10
-173.9716
 20
95.8225
 30
0.0
 10
-177.7719
 20
96.5135
 30
0.0
 10
-177.7719
 20
96.5135
 30
0.0
 10
-177.304
 20
99.0614
 30
0.0
 10
-176.2532
 20
101.0407
 30
0.0
 10
-174.605
 20
102.4442
 30
0.0
 10
-172.964
 20
103.8477
 30
0.0
 10
-170.9127
 20
104.5458
 30
0.0
 10
-168.4655
 20
104.5458
 30
0.0
 10
-166.7813
 20
104.5458
 30
0.0
 10
-165.2267
 20
104.186
 30
0.0
 10
-163.8088
 20
103.459
 30
0.0
 10
-162.3837
 20
102.7393
 30
0.0
 10
-161.2968
 20
101.7532
 30
0.0
 10
-160.5483
 20
100.5081
 30
0.0
 10
-159.7926
 20
99.2557
 30
0.0
 10
-159.4183
 20
97.9314
 30
0.0
 10
-159.4183
 20
96.5278
 30
0.0
 10
-159.4183
 20
95.1963
 30
0.0
 10
-159.7782
 20
93.9871
 30
0.0
 10
-160.4907
 20
92.8931
 30
0.0
 10
-161.2105
 20
91.7991
 30
0.0
 10
-162.2757
 20
90.9282
 30
0.0
 10
-163.6792
 20
90.2804
 30
0.0
 10
-161.851
 20
89.863
 30
0.0
 10
-160.4331
 20
88.9849
 30
0.0
 10
-159.4183
 20
87.6534
 30
0.0
 10
-158.4106
 20
86.329
 30
0.0
 10
-157.9068
 20
84.6592
 30
0.0
 10
-157.9068
 20
82.6655
 30
0.0
 10
-157.9068
 20
79.9664
 30
0.0
 10
-158.8929
 20
77.6704
 30
0.0
 10
-160.8578
 20
75.7919
 30
0.0
 10
-162.8299
 20
73.9134
 30
0.0
 10
-165.3202
 20
72.9777
 30
0.0
 10
-168.3288
 20
72.9777
 30
0.0
 10
-171.0422
 20
72.9777
 30
0.0
 10
-173.295
 20
73.791
 30
0.0
 10
-175.0872
 20
75.4104
 30
0.0
 10
-176.8866
 20
77.0299
 30
0.0
 10
-177.9086
 20
79.1243
 30
0.0
 10
-178.1605
 20
81.701
 30
0.0
  0
SPLINE
  5
C4
330
1F
100
AcDbEntity
  8
LABELS
 62
   250
100
AcDbSpline
210
0.0
220
0.0
230
1.0
 70
    11
 71
     3
 72
    89
 73
    85
 74
     0
 42
0.0000000001
 43
0.0000000001
 40
0.0
 40
0.0
 40
0.0
 40
0.0
 40
0.0357142857142857
 40
0.0357142857142857
 40
0.0357142857142857
 40
0.0714285714285714
 40
0.0714285714285714
 40
0.0714285714285714
 40
0.1071428571428571
 40
0.1071428571428571
 40
0.1071428571428571
 40
0.1428571428571428
 40
0.1428571428571428
 40
0.1428571428571428
 40
0.1785714285714285
 40
0.1785714285714285
 40
0.1785714285714285
 40
0.2142857142857143
 40
0.2142857142857143
 40
0.2142857142857143
 40
0.25
 40
0.25
 40
0.25
 40
0.2857142857142857
 40
0.2857142857142857
 40
0.2857142857142857
 40
0.3214285714285714
 40
0.3214285714285714
 40
0.3214285714285714
 40
0.3571428571428571
 40
0.3571428571428571
 40
0.3571428571428571
 40
0.3928571428571428
 40
0.3928571428571428
 40
0.3928571428571428
 40
0.4285714285714285
 40
0.4285714285714285
 40
0.4285714285714285
 40
0.4642857142857142
 40
0.4642857142857142
 40
0.4642857142857142
 40
0.5
 40
0.5
 40
0.5
 40
0.5357142857142857
 40
0.5357142857142857
 40
0.5357142857142857
 40
0.5714285714285714
 40
0.5714285714285714
 40
0.5714285714285714
 40
0.6071428571428571
 40
0.6071428571428571
 40
0.6071428571428571
 40
0.6428571428571428
 40
0.6428571428571428
 40
0.6428571428571428
 40
0.6785714285714285
 40
0.6785714285714285
 40
0.6785714285714285
 40
0.7142857142857142
 40
0.7142857142857142
 40
0.7142857142857142
 40
0.75
 40
0.75
 40
0.75
 40
0.7857142857142857
 40
0.7857142857142857
 40
0.7857142857142857
 40
0.8214285714285714
 40
0.8214285714285714
 40
0.8214285714285714
 40
0.8571428571428571
 40
0.8571428571428571
 40
0.8571428571428571
 40
0.8928571428571428
 40
0.8928571428571428
 40
0.8928571428571428
 40
0.9285714285714285
 40
0.9285714285714285
 40
0.9285714285714285
 40
0.9642857142857142
 40
0.9642857142857142
 40
0.9642857142857142
 40
1.0
 40
1.0
 40
1.0
 40
1.0
 10
-153.1061
 20
73.4959
 30
0.0
 10
-153.1061
 20
73.4959
 30
0.0
 10
-153.1061
 20
95.9089
 30
0.0
 10
-153.1061
 20
95.9089
 30
0.0
 10
-153.1061
 20
95.9089
 30
0.0
 10
-149.6945
 20
95.9089
 30
0.0
 10
-149.6945
 20
95.9089
 30
0.0
 10
-149.6945
 20
95.9089
 30
0.0
 10
-149.6945
 20
92.742
 30
0.0
 10
-149.6945
 20
92.742
 30
0.0
 10
-148.9963
 20
93.836
 30
0.0
 10
-148.0607
 20
94.7213
 30
0.0
 10
-146.8947
 20
95.3834
 30
0.0
 10
-145.7287
 20
96.0528
 30
0.0
 10
-144.4043
 20
96.3839
 30
0.0
 10
-142.9145
 20
96.3839
 30
0.0
 10
-141.259
 20
96.3839
 30
0.0
 10
-139.8987
 20
96.0384
 30
0.0
 10
-138.8407
 20
95.3547
 30
0.0
 10
-137.7827
 20
94.6637
 30
0.0
 10
-137.0341
 20
93.7064
 30
0.0
 10
-136.6023
 20
92.4685
 30
0.0
 10
-134.8173
 20
95.0812
 30
0.0
 10
-132.5069
 20
96.3839
 30
0.0
 10
-129.6567
 20
96.3839
 30
0.0
 10
-127.4255
 20
96.3839
 30
0.0
 10
-125.7053
 20
95.7721
 30
0.0
 10
-124.5105
 20
94.5413
 30
0.0
 10
-123.3085
 20
93.3106
 30
0.0
 10
-122.7039
 20
91.4176
 30
0.0
 10
-122.7039
 20
88.8625
 30
0.0
 10
-122.7039
 20
88.8625
 30
0.0
 10
-122.7039
 20
73.4959
 30
0.0
 10
-122.7039
 20
73.4959
 30
0.0
 10
-122.7039
 20
73.4959
 30
0.0
 10
-126.5042
 20
73.4959
 30
0.0
 10
-126.5042
 20
73.4959
 30
0.0
 10
-126.5042
 20
73.4959
 30
0.0
 10
-126.5042
 20
87.603
 30
0.0
 10
-126.5042
 20
87.603
 30
0.0
 10
-126.5042
 20
89.1144
 30
0.0
 10
-126.6338
 20
90.2085
 30
0.0
 10
-126.8785
 20
90.8778
 30
0.0
 10
-127.1232
 20
91.5472
 30
0.0
 10
-127.5694
 20
92.0798
 30
0.0
 10
-128.2244
 20
92.4901
 30
0.0
 10
-128.8722
 20
92.9003
 30
0.0
 10
-129.6351
 20
93.1018
 30
0.0
 10
-130.506
 20
93.1018
 30
0.0
 10
-132.0894
 20
93.1018
 30
0.0
 10
-133.3994
 20
92.5764
 30
0.0
 10
-134.443
 20
91.5328
 30
0.0
 10
-135.4867
 20
90.482
 30
0.0
 10
-136.0049
 20
88.8049
 30
0.0
 10
-136.0049
 20
86.5018
 30
0.0
 10
-136.0049
 20
86.5018
 30
0.0
 10
-136.0049
 20
73.4959
 30
0.0
 10
-136.0049
 20
73.4959
 30
0.0
 10
-136.0049
 20
73.4959
 30
0.0
 10
-139.8051
 20
73.4959
 30
0.0
 10
-139.8051
 20
73.4959
 30
0.0
 10
-139.8051
 20
73.4959
 30
0.0
 10
-139.8051
 20
88.042
 30
0.0
 10
-139.8051
 20
88.042
 30
0.0
 10
-139.8051
 20
89.7262
 30
0.0
 10
-140.1146
 20
90.993
 30
0.0
 10
-140.7336
 20
91.8351
 30
0.0
 10
-141.3526
 20
92.6772
 30
0.0
 10
-142.3675
 20
93.1018
 30
0.0
 10
-143.771
 20
93.1018
 30
0.0
 10
-144.8362
 20
93.1018
 30
0.0
 10
-145.8222
 20
92.8211
 30
0.0
 10
-146.7291
 20
92.2597
 30
0.0
 10
-147.636
 20
91.6983
 30
0.0
 10
-148.291
 20
90.8778
 30
0.0
 10
-148.7012
 20
89.791
 30
0.0
 10
-149.1043
 20
88.7114
 30
0.0
 10
-149.3058
 20
87.1495
 30
0.0
 10
-149.3058
 20
85.1126
 30
0.0
 10
-149.3058
 20
85.1126
 30
0.0
 10
-149.3058
 20
73.4959
 30
0.0
 10
-149.3058
 20
73.4959
 30
0.0
 10
-149.3058
 20
73.4959
 30
0.0
 10
-153.1061
 20
73.4959
 30
0.0
 10
-153.1061
 20
73.4959
 30
0.0
  0
SPLINE
  5
C5
330
1F
100
AcDbEntity
  8
LABELS
 62
   250
100
AcDbSpline
210
0.0
220
0.0
230
1.0
 70
    11
 71
     3
 72
    89
 73
    85
 74
     0
 42
0.0000000001
 43
0.0000000001
 40
0.0
 40
0.0
 40
0.0
 40
0.0
 40
0.0357142857142857
 40
0.0357142857142857
 40
0.0357142857142857
 40
0.0714285714285714
 40
0.0714285714285714
 40
0.0714285714285714
 40
0.1071428571428571
 40
0.1071428571428571
 40
0.1071428571428571
 40
0.1428571428571428
 40
0.1428571428571428
 40
0.1428571428571428
 40
0.1785714285714285
 40
0.1785714285714285
 40
0.1785714285714285
 40
0.2142857142857143
 40
0.2142857142857143
 40
0.2142857142857143
 40
0.25
 40
0.25
 40
0.25
 40
0.2857142857142857
 40
0.2857142857142857
 40
0.2857142857142857
 40
0.3214285714285714
 40
0.3214285714285714
 40
0.3214285714285714
 40
0.3571428571428571
 40
0.3571428571428571
 40
0.3571428571428571
 40
0.3928571428571428
 40
0.3928571428571428
 40
0.3928571428571428
 40
0.4285714285714285
 40
0.4285714285714285
 40
0.4285714285714285
 40
0.4642857142857142
 40
0.4642857142857142
 40
0.4642857142857142
 40
0.5
 40
0.5
 40
0.5
 40
0.5357142857142857
 40
0.5357142857142857
 40
0.5357142857142857
 40
0.5714285714285714
 40
0.5714285714285714
 40
0.5714285714285714
 40
0.6071428571428571
 40
0.6071428571428571
 40
0.6071428571428571
 40
0.6428571428571428
 40
0.6428571428571428
 40
0.6428571428571428
 40
0.6785714285714285
 40
0.6785714285714285
 40
0.6785714285714285
 40
0.7142857142857142
 40
0.7142857142857142
 40
0.7142857142857142
 40
0.75
 40
0.75
 40
0.75
 40
0.7857142857142857
 40
0.7857142857142857
 40
0.7857142857142857
 40
0.8214285714285714
 40
0.8214285714285714
 40
0.8214285714285714
 40
0.8571428571428571
 40
0.8571428571428571
 40
0.8571428571428571
 40
0.8928571428571428
 40
0.8928571428571428
 40
0.8928571428571428
 40
0.9285714285714285
 40
0.9285714285714285
 40
0.9285714285714285
 40
0.9642857142857142
 40
0.9642857142857142
 40
0.9642857142857142
 40
1.0
 40
1.0
 40
1.0
 40
1.0
 10
-117.1331
 20
73.4959
 30
0.0
 10
-117.1331
 20
73.4959
 30
0.0
 10
-117.1331
 20
95.9089
 30
0.0
 10
-117.1331
 20
95.9089
 30
0.0
 10
-117.1331
 20
95.9089
 30
0.0
 10
-113.7215
 20
95.9089
 30
0.0
 10
-113.7215
 20
95.9089
 30
0.0
 10
-113.7215
 20
95.9089
 30
0.0
 10
-113.7215
 20
92.742
 30
0.0
 10
-113.7215
 20
92.742
 30
0.0
 10
-113.0233
 20
93.836
 30
0.0
 10
-112.0877
 20
94.7213
 30
0.0
 10
-110.9217
 20
95.3834
 30
0.0
 10
-109.7557
 20
96.0528
 30
0.0
 10
-108.4313
 20
96.3839
 30
0.0
 10
-106.9415
 20
96.3839
 30
0.0
 10
-105.286
 20
96.3839
 30
0.0
 10
-103.9257
 20
96.0384
 30
0.0
 10
-102.8677
 20
95.3547
 30
0.0
 10
-101.8097
 20
94.6637
 30
0.0
 10
-101.0611
 20
93.7064
 30
0.0
 10
-100.6293
 20
92.4685
 30
0.0
 10
-98.8443
 20
95.0812
 30
0.0
 10
-96.5339
 20
96.3839
 30
0.0
 10
-93.6837
 20
96.3839
 30
0.0
 10
-91.4525
 20
96.3839
 30
0.0
 10
-89.7323
 20
95.7721
 30
0.0
 10
-88.5375
 20
94.5413
 30
0.0
 10
-87.3355
 20
93.3106
 30
0.0
 10
-86.7309
 20
91.4176
 30
0.0
 10
-86.7309
 20
88.8625
 30
0.0
 10
-86.7309
 20
88.8625
 30
0.0
 10
-86.7309
 20
73.4959
 30
0.0
 10
-86.7309
 20
73.4959
 30
0.0
 10
-86.7309
 20
73.4959
 30
0.0
 10
-90.5312
 20
73.4959
 30
0.0
 10
-90.5312
 20
73.4959
 30
0.0
 10
-90.5312
 20
73.4959
 30
0.0
 10
-90.5312
 20
87.603
 30
0.0
 10
-90.5312
 20
87.603
 30
0.0
 10
-90.5312
 20
89.1144
 30
0.0
 10
-90.6608
 20
90.2085
 30
0.0
 10
-90.9055
 20
90.8778
 30
0.0
 10
-91.1502
 20
91.5472
 30
0.0
 10
-91.5964
 20
92.0798
 30
0.0
 10
-92.2514
 20
92.4901
 30
0.0
 10
-92.8992
 20
92.9003
 30
0.0
 10
-93.6621
 20
93.1018
 30
0.0
 10
-94.533
 20
93.1018
 30
0.0
 10
-96.1164
 20
93.1018
 30
0.0
 10
-97.4264
 20
92.5764
 30
0.0
 10
-98.47
 20
91.5328
 30
0.0
 10
-99.5137
 20
90.482
 30
0.0
 10
-100.0319
 20
88.8049
 30
0.0
 10
-100.0319
 20
86.5018
 30
0.0
 10
-100.0319
 20
86.5018
 30
0.0
 10
-100.0319
 20
73.4959
 30
0.0
 10
-100.0319
 20
73.4959
 30
0.0
 10
-100.0319
 20
73.4959
 30
0.0
 10
-103.8321
 20
73.4959
 30
0.0
 10
-103.8321
 20
73.4959
 30
0.0
 10
-103.8321
 20
73.4959
 30
0.0
 10
-103.8321
 20
88.042
 30
0.0
 10
-103.8321
 20
88.042
 30
0.0
 10
-103.8321
 20
89.7262
 30
0.0
 10
-104.1416
 20
90.993
 30
0.0
 10
-104.7606
 20
91.8351
 30
0.0
 10
-105.3796
 20
92.6772
 30
0.0
 10
-106.3945
 20
93.1018
 30
0.0
 10
-107.798
 20
93.1018
 30
0.0
 10
-108.8632
 20
93.1018
 30
0.0
 10
-109.8492
 20
92.8211
 30
0.0
 10
-110.7561
 20
92.2597
 30
0.0
 10
-111.663
 20
91.6983
 30
0.0
 10
-112.318
 20
90.8778
 30
0.0
 10
-112.7282
 20
89.791
 30
0.0
 10
-113.1313
 20
88.7114
 30
0.0
 10
-113.3328
 20
87.1495
 30
0.0
 10
-113.3328
 20
85.1126
 30
0.0
 10
-113.3328
 20
85.1126
 30
0.0
 10
-113.3328
 20
73.4959
 30
0.0
 10
-113.3328
 20
73.4959
 30
0.0
 10
-113.3328
 20
73.4959
 30
0.0
 10
-117.1331
 20
73.4959
 30
0.0
 10
-117.1331
 20
73.4959
 30
0.0
  0
SPLINE
  5
C6
330
1F
100
AcDbEntity
  8
LABELS
 62
   250
100
AcDbSpline
210
0.0
220
0.0
230
1.0
 70
    11
 71
     3
 72
    71
 73
    67
 74
     0
 42
0.0000000001
 43
0.0000000001
 40
0.0
 40
0.0
 40
0.0
 40
0.0
 40
0.0454545454545455
 40
0.0454545454545455
 40
0.0454545454545455
 40
0.0909090909090909
 40
0.0909090909090909
 40
0.0909090909090909
 40
0.1363636363636364
 40
0.1363636363636364
 40
0.1363636363636364
 40
0.1818181818181818
 40
0.1818181818181818
 40
0.1818181818181818
 40
0.2272727272727273
 40
0.2272727272727273
 40
0.2272727272727273
 40
0.2727272727272727
 40
0.2727272727272727
 40
0.2727272727272727
 40
0.3181818181818182
 40
0.3181818181818182
 40
0.3181818181818182
 40
0.3636363636363636
 40
0.3636363636363636
 40
0.3636363636363636
 40
0.4090909090909091
 40
0.4090909090909091
 40
0.4090909090909091
 40
0.4545454545454546
 40
0.4545454545454546
 40
0.4545454545454546
 40
0.5
 40
0.5
 40
0.5
 40
0.5454545454545454
 40
0.5454545454545454
 40
0.5454545454545454
 40
0.5909090909090909
 40
0.5909090909090909
 40
0.5909090909090909
 40
0.6363636363636364
 40
0.6363636363636364
 40
0.6363636363636364
 40
0.6818181818181819
 40
0.6818181818181819
 40
0.6818181818181819
 40
0.7272727272727273
 40
0.7272727272727273
 40
0.7272727272727273
 40
0.7727272727272727
 40
0.7727272727272727
 40
0.7727272727272727
 40
0.8181818181818182
 40
0.8181818181818182
 40
0.8181818181818182
 40
0.8636363636363636
 40
0.8636363636363636
 40
0.8636363636363636
 40
0.9090909090909092
 40
0.9090909090909092
 40
0.9090909090909092
 40
0.9545454545454546
 40
0.9545454545454546
 40
0.9545454545454546
 40
1.0
 40
1.0
 40
1.0
 40
1.0
 10
-180.7534
 20
-29.3993
 30
0.0
 10
-180.7534
 20
-29.3993
 30
0.0
 10
-176.7804
 20
-29.097
 30
0.0
 10
-176.7804
 20
-29.097
 30
0.0
 10
-176.4853
 20
-31.0332
 30
0.0
 10
-175.8016
 20
-32.4871
 30
0.0
 10
-174.7363
 20
-33.4659
 30
0.0
 10
-173.6711
 20
-34.4376
 30
0.0
 10
-172.3684
 20
-34.927
 30
0.0
 10
-170.8353
 20
-34.927
 30
0.0
 10
-168.9855
 20
-34.927
 30
0.0
 10
-167.4381
 20
-34.236
 30
0.0
 10
-166.1785
 20
-32.8613
 30
0.0
 10
-164.9262
 20
-31.4794
 30
0.0
 10
-164.3
 20
-29.6513
 30
0.0
 10
-164.3
 20
-27.3768
 30
0.0
 10
-164.3
 20
-25.2104
 30
0.0
 10
-164.8974
 20
-23.5046
 30
0.0
 10
-166.0994
 20
-22.2522
 30
0.0
 10
-167.3013
 20
-20.9999
 30
0.0
 10
-168.892
 20
-20.3737
 30
0.0
 10
-170.8713
 20
-20.3737
 30
0.0
 10
-172.1021
 20
-20.3737
 30
0.0
 10
-173.2033
 20
-20.6544
 30
0.0
 10
-174.1821
 20
-21.2158
 30
0.0
 10
-175.1538
 20
-21.7772
 30
0.0
 10
-175.9167
 20
-22.5041
 30
0.0
 10
-176.4781
 20
-23.3966
 30
0.0
 10
-176.4781
 20
-23.3966
 30
0.0
 10
-180.0625
 20
-22.8784
 30
0.0
 10
-180.0625
 20
-22.8784
 30
0.0
 10
-180.0625
 20
-22.8784
 30
0.0
 10
-177.0827
 20
-6.9864
 30
0.0
 10
-177.0827
 20
-6.9864
 30
0.0
 10
-177.0827
 20
-6.9864
 30
0.0
 10
-161.7521
 20
-6.9864
 30
0.0
 10
-161.7521
 20
-6.9864
 30
0.0
 10
-161.7521
 20
-6.9864
 30
0.0
 10
-161.7521
 20
-10.6139
 30
0.0
 10
-161.7521
 20
-10.6139
 30
0.0
 10
-161.7521
 20
-10.6139
 30
0.0
 10
-174.0526
 20
-10.6139
 30
0.0
 10
-174.0526
 20
-10.6139
 30
0.0
 10
-174.0526
 20
-10.6139
 30
0.0
 10
-175.7008
 20
-18.9558
 30
0.0
 10
-175.7008
 20
-18.9558
 30
0.0
 10
-173.851
 20
-17.653
 30
0.0
 10
-171.9077
 20
-17.0053
 30
0.0
 10
-169.878
 20
-17.0053
 30
0.0
 10
-167.1862
 20
-17.0053
 30
0.0
 10
-164.9118
 20
-17.9409
 30
0.0
 10
-163.062
 20
-19.8123
 30
0.0
 10
-161.2123
 20
-21.6836
 30
0.0
 10
-160.2838
 20
-24.0876
 30
0.0
 10
-160.2838
 20
-27.0242
 30
0.0
 10
-160.2838
 20
-29.824
 30
0.0
 10
-161.0971
 20
-32.2423
 30
0.0
 10
-162.7237
 20
-34.2792
 30
0.0
 10
-164.703
 20
-36.784
 30
0.0
 10
-167.4093
 20
-38.0363
 30
0.0
 10
-170.8353
 20
-38.0363
 30
0.0
 10
-173.6423
 20
-38.0363
 30
0.0
 10
-175.9311
 20
-37.2446
 30
0.0
 10
-177.7089
 20
-35.6683
 30
0.0
 10
-179.4867
 20
-34.0921
 30
0.0
 10
-180.5015
 20
-32.0048
 30
0.0
 10
-180.7534
 20
-29.3993
 30
0.0
  0
SPLINE
  5
C7
330
1F
100
AcDbEntity
  8
LABELS
 62
   250
100
AcDbSpline
210
0.0
220
0.0
230
1.0
 70
    11
 71
     3
 72
    89
 73
    85
 74
     0
 42
0.0000000001
 43
0.0000000001
 40
0.0
 40
0.0
 40
0.0
 40
0.0
 40
0.0357142857142857
 40
0.0357142857142857
 40
0.0357142857142857
 40
0.0714285714285714
 40
0.0714285714285714
 40
0.0714285714285714
 40
0.1071428571428571
 40
0.1071428571428571
 40
0.1071428571428571
 40
0.1428571428571428
 40
0.1428571428571428
 40
0.1428571428571428
 40
0.1785714285714285
 40
0.1785714285714285
 40
0.1785714285714285
 40
0.2142857142857143
 40
0.2142857142857143
 40
0.2142857142857143
 40
0.25
 40
0.25
 40
0.25
 40
0.2857142857142857
 40
0.2857142857142857
 40
0.2857142857142857
 40
0.3214285714285714
 40
0.3214285714285714
 40
0.3214285714285714
 40
0.3571428571428571
 40
0.3571428571428571
 40
0.3571428571428571
 40
0.3928571428571428
 40
0.3928571428571428
 40
0.3928571428571428
 40
0.4285714285714285
 40
0.4285714285714285
 40
0.4285714285714285
 40
0.4642857142857142
 40
0.4642857142857142
 40
0.4642857142857142
 40
0.5
 40
0.5
 40
0.5
 40
0.5357142857142857
 40
0.5357142857142857
 40
0.5357142857142857
 40
0.5714285714285714
 40
0.5714285714285714
 40
0.5714285714285714
 40
0.6071428571428571
 40
0.6071428571428571
 40
0.6071428571428571
 40
0.6428571428571428
 40
0.6428571428571428
 40
0.6428571428571428
 40
0.6785714285714285
 40
0.6785714285714285
 40
0.6785714285714285
 40
0.7142857142857142
 40
0.7142857142857142
 40
0.7142857142857142
 40
0.75
 40
0.75
 40
0.75
 40
0.7857142857142857
 40
0.7857142857142857
 40
0.7857142857142857
 40
0.8214285714285714
 40
0.8214285714285714
 40
0.8214285714285714
 40
0.8571428571428571
 40
0.8571428571428571
 40
0.8571428571428571
 40
0.8928571428571428
 40
0.8928571428571428
 40
0.8928571428571428
 40
0.9285714285714285
 40
0.9285714285714285
 40
0.9285714285714285
 40
0.9642857142857142
 40
0.9642857142857142
 40
0.9642857142857142
 40
1.0
 40
1.0
 40
1.0
 40
1.0
 10
-155.699
 20
-37.5181
 30
0.0
 10
-155.699
 20
-37.5181
 30
0.0
 10
-155.699
 20
-15.1051
 30
0.0
 10
-155.699
 20
-15.1051
 30
0.0
 10
-155.699
 20
-15.1051
 30
0.0
 10
-152.2874
 20
-15.1051
 30
0.0
 10
-152.2874
 20
-15.1051
 30
0.0
 10
-152.2874
 20
-15.1051
 30
0.0
 10
-152.2874
 20
-18.272
 30
0.0
 10
-152.2874
 20
-18.272
 30
0.0
 10
-151.5892
 20
-17.178
 30
0.0
 10
-150.6536
 20
-16.2927
 30
0.0
 10
-149.4876
 20
-15.6306
 30
0.0
 10
-148.3216
 20
-14.9612
 30
0.0
 10
-146.9972
 20
-14.6301
 30
0.0
 10
-145.5074
 20
-14.6301
 30
0.0
 10
-143.8519
 20
-14.6301
 30
0.0
 10
-142.4916
 20
-14.9756
 30
0.0
 10
-141.4336
 20
-15.6593
 30
0.0
 10
-140.3756
 20
-16.3503
 30
0.0
 10
-139.627
 20
-17.3076
 30
0.0
 10
-139.1952
 20
-18.5455
 30
0.0
 10
-137.4102
 20
-15.9328
 30
0.0
 10
-135.0998
 20
-14.6301
 30
0.0
 10
-132.2496
 20
-14.6301
 30
0.0
 10
-130.0184
 20
-14.6301
 30
0.0
 10
-128.2982
 20
-15.2419
 30
0.0
 10
-127.1034
 20
-16.4727
 30
0.0
 10
-125.9014
 20
-17.7034
 30
0.0
 10
-125.2968
 20
-19.5964
 30
0.0
 10
-125.2968
 20
-22.1515
 30
0.0
 10
-125.2968
 20
-22.1515
 30
0.0
 10
-125.2968
 20
-37.5181
 30
0.0
 10
-125.2968
 20
-37.5181
 30
0.0
 10
-125.2968
 20
-37.5181
 30
0.0
 10
-129.0971
 20
-37.5181
 30
0.0
 10
-129.0971
 20
-37.5181
 30
0.0
 10
-129.0971
 20
-37.5181
 30
0.0
 10
-129.0971
 20
-23.411
 30
0.0
 10
-129.0971
 20
-23.411
 30
0.0
 10
-129.0971
 20
-21.8996
 30
0.0
 10
-129.2267
 20
-20.8055
 30
0.0
 10
-129.4714
 20
-20.1362
 30
0.0
 10
-129.7161
 20
-19.4668
 30
0.0
 10
-130.1623
 20
-18.9342
 30
0.0
 10
-130.8173
 20
-18.5239
 30
0.0
 10
-131.4651
 20
-18.1137
 30
0.0
 10
-132.228
 20
-17.9122
 30
0.0
 10
-133.0989
 20
-17.9122
 30
0.0
 10
-134.6823
 20
-17.9122
 30
0.0
 10
-135.9923
 20
-18.4376
 30
0.0
 10
-137.0359
 20
-19.4812
 30
0.0
 10
-138.0796
 20
-20.532
 30
0.0
 10
-138.5978
 20
-22.2091
 30
0.0
 10
-138.5978
 20
-24.5122
 30
0.0
 10
-138.5978
 20
-24.5122
 30
0.0
 10
-138.5978
 20
-37.5181
 30
0.0
 10
-138.5978
 20
-37.5181
 30
0.0
 10
-138.5978
 20
-37.5181
 30
0.0
 10
-142.398
 20
-37.5181
 30
0.0
 10
-142.398
 20
-37.5181
 30
0.0
 10
-142.398
 20
-37.5181
 30
0.0
 10
-142.398
 20
-22.972
 30
0.0
 10
-142.398
 20
-22.972
 30
0.0
 10
-142.398
 20
-21.2878
 30
0.0
 10
-142.7075
 20
-20.021
 30
0.0
 10
-143.3265
 20
-19.1789
 30
0.0
 10
-143.9455
 20
-18.3368
 30
0.0
 10
-144.9604
 20
-17.9122
 30
0.0
 10
-146.3639
 20
-17.9122
 30
0.0
 10
-147.4291
 20
-17.9122
 30
0.0
 10
-148.4151
 20
-18.1929
 30
0.0
 10
-149.322
 20
-18.7543
 30
0.0
 10
-150.2289
 20
-19.3157
 30
0.0
 10
-150.8839
 20
-20.1362
 30
0.0
 10
-151.2941
 20
-21.223
 30
0.0
 10
-151.6972
 20
-22.3026
 30
0.0
 10
-151.8987
 20
-23.8645
 30
0.0
 10
-151.8987
 20
-25.9014
 30
0.0
 10
-151.8987
 20
-25.9014
 30
0.0
 10
-151.8987
 20
-37.5181
 30
0.0
 10
-151.8987
 20
-37.5181
 30
0.0
 10
-151.8987
 20
-37.5181
 30
0.0
 10
-155.699
 20
-37.5181
 30
0.0
 10
-155.699
 20
-37.5181
 30
0.0
  0
SPLINE
  5
C8
330
1F
100
AcDbEntity
  8
LABELS
 62
   250
100
AcDbSpline
210
0.0
220
0.0
230
1.0
 70
    11
 71
     3
 72
    89
 73
    85
 74
     0
 42
0.0000000001
 43
0.0000000001
 40
0.0
 40
0.0
 40
0.0
 40
0.0
 40
0.0357142857142857
 40
0.0357142857142857
 40
0.0357142857142857
 40
0.0714285714285714
 40
0.0714285714285714
 40
0.0714285714285714
 40
0.1071428571428571
 40
0.1071428571428571
 40
0.1071428571428571
 40
0.1428571428571428
 40
0.1428571428571428
 40
0.1428571428571428
 40
0.1785714285714285
 40
0.1785714285714285
 40
0.1785714285714285
 40
0.2142857142857143
 40
0.2142857142857143
 40
0.2142857142857143
 40
0.25
 40
0.25
 40
0.25
 40
0.2857142857142857
 40
0.2857142857142857
 40
0.2857142857142857
 40
0.3214285714285714
 40
0.3214285714285714
 40
0.3214285714285714
 40
0.3571428571428571
 40
0.3571428571428571
 40
0.3571428571428571
 40
0.3928571428571428
 40
0.3928571428571428
 40
0.3928571428571428
 40
0.4285714285714285
 40
0.4285714285714285
 40
0.4285714285714285
 40
0.4642857142857142
 40
0.4642857142857142
 40
0.4642857142857142
 40
0.5
 40
0.5
 40
0.5
 40
0.5357142857142857
 40
0.5357142857142857
 40
0.5357142857142857
 40
0.5714285714285714
 40
0.5714285714285714
 40
0.5714285714285714
 40
0.6071428571428571
 40
0.6071428571428571
 40
0.6071428571428571
 40
0.6428571428571428
 40
0.6428571428571428
 40
0.6428571428571428
 40
0.6785714285714285
 40
0.6785714285714285
 40
0.6785714285714285
 40
0.7142857142857142
 40
0.7142857142857142
 40
0.7142857142857142
 40
0.75
 40
0.75
 40
0.75
 40
0.7857142857142857
 40
0.7857142857142857
 40
0.7857142857142857
 40
0.8214285714285714
 40
0.8214285714285714
 40
0.8214285714285714
 40
0.8571428571428571
 40
0.8571428571428571
 40
0.8571428571428571
 40
0.8928571428571428
 40
0.8928571428571428
 40
0.8928571428571428
 40
0.9285714285714285
 40
0.9285714285714285
 40
0.9285714285714285
 40
0.9642857142857142
 40
0.9642857142857142
 40
0.9642857142857142
 40
1.0
 40
1.0
 40
1.0
 40
1.0
 10
-119.726
 20
-37.5181
 30
0.0
 10
-119.726
 20
-37.5181
 30
0.0
 10
-119.726
 20
-15.1051
 30
0.0
 10
-119.726
 20
-15.1051
 30
0.0
 10
-119.726
 20
-15.1051
 30
0.0
 10
-116.3144
 20
-15.1051
 30
0.0
 10
-116.3144
 20
-15.1051
 30
0.0
 10
-116.3144
 20
-15.1051
 30
0.0
 10
-116.3144
 20
-18.272
 30
0.0
 10
-116.3144
 20
-18.272
 30
0.0
 10
-115.6162
 20
-17.178
 30
0.0
 10
-114.6806
 20
-16.2927
 30
0.0
 10
-113.5146
 20
-15.6306
 30
0.0
 10
-112.3486
 20
-14.9612
 30
0.0
 10
-111.0242
 20
-14.6301
 30
0.0
 10
-109.5344
 20
-14.6301
 30
0.0
 10
-107.8789
 20
-14.6301
 30
0.0
 10
-106.5186
 20
-14.9756
 30
0.0
 10
-105.4606
 20
-15.6593
 30
0.0
 10
-104.4026
 20
-16.3503
 30
0.0
 10
-103.654
 20
-17.3076
 30
0.0
 10
-103.2222
 20
-18.5455
 30
0.0
 10
-101.4372
 20
-15.9328
 30
0.0
 10
-99.1268
 20
-14.6301
 30
0.0
 10
-96.2766
 20
-14.6301
 30
0.0
 10
-94.0454
 20
-14.6301
 30
0.0
 10
-92.3252
 20
-15.2419
 30
0.0
 10
-91.1304
 20
-16.4727
 30
0.0
 10
-89.9284
 20
-17.7034
 30
0.0
 10
-89.3238
 20
-19.5964
 30
0.0
 10
-89.3238
 20
-22.1515
 30
0.0
 10
-89.3238
 20
-22.1515
 30
0.0
 10
-89.3238
 20
-37.5181
 30
0.0
 10
-89.3238
 20
-37.5181
 30
0.0
 10
-89.3238
 20
-37.5181
 30
0.0
 10
-93.1241
 20
-37.5181
 30
0.0
 10
-93.1241
 20
-37.5181
 30
0.0
 10
-93.1241
 20
-37.5181
 30
0.0
 10
-93.1241
 20
-23.411
 30
0.0
 10
-93.1241
 20
-23.411
 30
0.0
 10
-93.1241
 20
-21.8996
 30
0.0
 10
-93.2537
 20
-20.8055
 30
0.0
 10
-93.4984
 20
-20.1362
 30
0.0
 10
-93.7431
 20
-19.4668
 30
0.0
 10
-94.1893
 20
-18.9342
 30
0.0
 10
-94.8443
 20
-18.5239
 30
0.0
 10
-95.4921
 20
-18.1137
 30
0.0
 10
-96.255
 20
-17.9122
 30
0.0
 10
-97.1259
 20
-17.9122
 30
0.0
 10
-98.7093
 20
-17.9122
 30
0.0
 10
-100.0193
 20
-18.4376
 30
0.0
 10
-101.0629
 20
-19.4812
 30
0.0
 10
-102.1066
 20
-20.532
 30
0.0
 10
-102.6248
 20
-22.2091
 30
0.0
 10
-102.6248
 20
-24.5122
 30
0.0
 10
-102.6248
 20
-24.5122
 30
0.0
 10
-102.6248
 20
-37.5181
 30
0.0
 10
-102.6248
 20
-37.5181
 30
0.0
 10
-102.6248
 20
-37.5181
 30
0.0
 10
-106.425
 20
-37.5181
 30
0.0
 10
-106.425
 20
-37.5181
 30
0.0
 10
-106.425
 20
-37.5181
 30
0.0
 10
-106.425
 20
-22.972
 30
0.0
 10
-106.425
 20
-22.972
 30
0.0
 10
-106.425
 20
-21.2878
 30
0.0
 10
-106.7345
 20
-20.021
 30
0.0
 10
-107.3535
 20
-19.1789
 30
0.0
 10
-107.9725
 20
-18.3368
 30
0.0
 10
-108.9874
 20
-17.9122
 30
0.0
 10
-110.3909
 20
-17.9122
 30
0.0
 10
-111.4561
 20
-17.9122
 30
0.0
 10
-112.4421
 20
-18.1929
 30
0.0
 10
-113.349
 20
-18.7543
 30
0.0
 10
-114.2559
 20
-19.3157
 30
0.0
 10
-114.9109
 20
-20.1362
 30
0.0
 10
-115.3211
 20
-21.223
 30
0.0
 10
-115.7242
 20
-22.3026
 30
0.0
 10
-115.9257
 20
-23.8645
 30
0.0
 10
-115.9257
 20
-25.9014
 30
0.0
 10
-115.9257
 20
-25.9014
 30
0.0
 10
-115.9257
 20
-37.5181
 30
0.0
 10
-115.9257
 20
-37.5181
 30
0.0
 10
-115.9257
 20
-37.5181
 30
0.0
 10
-119.726
 20
-37.5181
 30
0.0
 10
-119.726
 20
-37.5181
 30
0.0
  0
SPLINE
  5
C9
330
1F
100
AcDbEntity
  8
LABELS
 62
   250
100
AcDbSpline
210
0.0
220
0.0
230
1.0
 70
    11
 71
     3
 72
    71
 73
    67
 74
     0
 42
0.0000000001
 43
0.0000000001
 40
0.0
 40
0.0
 40
0.0
 40
0.0
 40
0.0454545454545455
 40
0.0454545454545455
 40
0.0454545454545455
 40
0.0909090909090909
 40
0.0909090909090909
 40
0.0909090909090909
 40
0.1363636363636364
 40
0.1363636363636364
 40
0.1363636363636364
 40
0.1818181818181818
 40
0.1818181818181818
 40
0.1818181818181818
 40
0.2272727272727273
 40
0.2272727272727273
 40
0.2272727272727273
 40
0.2727272727272727
 40
0.2727272727272727
 40
0.2727272727272727
 40
0.3181818181818182
 40
0.3181818181818182
 40
0.3181818181818182
 40
0.3636363636363636
 40
0.3636363636363636
 40
0.3636363636363636
 40
0.4090909090909091
 40
0.4090909090909091
 40
0.4090909090909091
 40
0.4545454545454546
 40
0.4545454545454546
 40
0.4545454545454546
 40
0.5
 40
0.5
 40
0.5
 40
0.5454545454545454
 40
0.5454545454545454
 40
0.5454545454545454
 40
0.5909090909090909
 40
0.5909090909090909
 40
0.5909090909090909
 40
0.6363636363636364
 40
0.6363636363636364
 40
0.6363636363636364
 40
0.6818181818181819
 40
0.6818181818181819
 40
0.6818181818181819
 40
0.7272727272727273
 40
0.7272727272727273
 40
0.7272727272727273
 40
0.7727272727272727
 40
0.7727272727272727
 40
0.7727272727272727
 40
0.8181818181818182
 40
0.8181818181818182
 40
0.8181818181818182
 40
0.8636363636363636
 40
0.8636363636363636
 40
0.8636363636363636
 40
0.9090909090909092
 40
0.9090909090909092
 40
0.9090909090909092
 40
0.9545454545454546
 40
0.9545454545454546
 40
0.9545454545454546
 40
1.0
 40
1.0
 40
1.0
 40
1.0
 10
-180.7534
 20
-29.3993
 30
0.0
 10
-180.7534
 20
-29.3993
 30
0.0
 10
-176.7804
 20
-29.097
 30
0.0
 10
-176.7804
 20
-29.097
 30
0.0
 10
-176.4853
 20
-31.0332
 30
0.0
 10
-175.8016
 20
-32.4871
 30
0.0
 10
-174.7363
 20
-33.4659
 30
0.0
 10
-173.6711
 20
-34.4376
 30
0.0
 10
-172.3684
 20
-34.927
 30
0.0
 10
-170.8353
 20
-34.927
 30
0.0
 10
-168.9855
 20
-34.927
 30
0.0
 10
-167.4381
 20
-34.236
 30
0.0
 10
-166.1785
 20
-32.8613
 30
0.0
 10
-164.9262
 20
-31.4794
 30
0.0
 10
-164.3
 20
-29.6513
 30
0.0
 10
-164.3
 20
-27.3768
 30
0.0
 10
-164.3
 20
-25.2104
 30
0.0
 10
-164.8974
 20
-23.5046
 30
0.0
 10
-166.0994
 20
-22.2522
 30
0.0
 10
-167.3013
 20
-20.9999
 30
0.0
 10
-168.892
 20
-20.3737
 30
0.0
 10
-170.8713
 20
-20.3737
 30
0.0
 10
-172.1021
 20
-20.3737
 30
0.0
 10
-173.2033
 20
-20.6544
 30
0.0
 10
-174.1821
 20
-21.2158
 30
0.0
 10
-175.1538
 20
-21.7772
 30
0.0
 10
-175.9167
 20
-22.5041
 30
0.0
 10
-176.4781
 20
-23.3966
 30
0.0
 10
-176.4781
 20
-23.3966
 30
0.0
 10
-180.0625
 20
-22.8784
 30
0.0
 10
-180.0625
 20
-22.8784
 30
0.0
 10
-180.0625
 20
-22.8784
 30
0.0
 10
-177.0827
 20
-6.9864
 30
0.0
 10
-177.0827
 20
-6.9864
 30
0.0
 10
-177.0827
 20
-6.9864
 30
0.0
 10
-161.7521
 20
-6.9864
 30
0.0
 10
-161.7521
 20
-6.9864
 30
0.0
 10
-161.7521
 20
-6.9864
 30
0.0
 10
-161.7521
 20
-10.6139
 30
0.0
 10
-161.7521
 20
-10.6139
 30
0.0
 10
-161.7521
 20
-10.6139
 30
0.0
 10
-174.0526
 20
-10.6139
 30
0.0
 10
-174.0526
 20
-10.6139
 30
0.0
 10
-174.0526
 20
-10.6139
 30
0.0
 10
-175.7008
 20
-18.9558
 30
0.0
 10
-175.7008
 20
-18.9558
 30
0.0
 10
-173.851
 20
-17.653
 30
0.0
 10
-171.9077
 20
-17.0053
 30
0.0
 10
-169.878
 20
-17.0053
 30
0.0
 10
-167.1862
 20
-17.0053
 30
0.0
 10
-164.9118
 20
-17.9409
 30
0.0
 10
-163.062
 20
-19.8123
 30
0.0
 10
-161.2123
 20
-21.6836
 30
0.0
 10
-160.2838
 20
-24.0876
 30
0.0
 10
-160.2838
 20
-27.0242
 30
0.0
 10
-160.2838
 20
-29.824
 30
0.0
 10
-161.0971
 20
-32.2423
 30
0.0
 10
-162.7237
 20
-34.2792
 30
0.0
 10
-164.703
 20
-36.784
 30
0.0
 10
-167.4093
 20
-38.0363
 30
0.0
 10
-170.8353
 20
-38.0363
 30
0.0
 10
-173.6423
 20
-38.0363
 30
0.0
 10
-175.9311
 20
-37.2446
 30
0.0
 10
-177.7089
 20
-35.6683
 30
0.0
 10
-179.4867
 20
-34.0921
 30
0.0
 10
-180.5015
 20
-32.0048
 30
0.0
 10
-180.7534
 20
-29.3993
 30
0.0
  0
SPLINE
  5
CA
330
1F
100
AcDbEntity
  8
LABELS
 62
   250
100
AcDbSpline
210
0.0
220
0.0
230
1.0
 70
    11
 71
     3
 72
    89
 73
    85
 74
     0
 42
0.0000000001
 43
0.0000000001
 40
0.0
 40
0.0
 40
0.0
 40
0.0
 40
0.0357142857142857
 40
0.0357142857142857
 40
0.0357142857142857
 40
0.0714285714285714
 40
0.0714285714285714
 40
0.0714285714285714
 40
0.1071428571428571
 40
0.1071428571428571
 40
0.1071428571428571
 40
0.1428571428571428
 40
0.1428571428571428
 40
0.1428571428571428
 40
0.1785714285714285
 40
0.1785714285714285
 40
0.1785714285714285
 40
0.2142857142857143
 40
0.2142857142857143
 40
0.2142857142857143
 40
0.25
 40
0.25
 40
0.25
 40
0.2857142857142857
 40
0.2857142857142857
 40
0.2857142857142857
 40
0.3214285714285714
 40
0.3214285714285714
 40
0.3214285714285714
 40
0.3571428571428571
 40
0.3571428571428571
 40
0.3571428571428571
 40
0.3928571428571428
 40
0.3928571428571428
 40
0.3928571428571428
 40
0.4285714285714285
 40
0.4285714285714285
 40
0.4285714285714285
 40
0.4642857142857142
 40
0.4642857142857142
 40
0.4642857142857142
 40
0.5
 40
0.5
 40
0.5
 40
0.5357142857142857
 40
0.5357142857142857
 40
0.5357142857142857
 40
0.5714285714285714
 40
0.5714285714285714
 40
0.5714285714285714
 40
0.6071428571428571
 40
0.6071428571428571
 40
0.6071428571428571
 40
0.6428571428571428
 40
0.6428571428571428
 40
0.6428571428571428
 40
0.6785714285714285
 40
0.6785714285714285
 40
0.6785714285714285
 40
0.7142857142857142
 40
0.7142857142857142
 40
0.7142857142857142
 40
0.75
 40
0.75
 40
0.75
 40
0.7857142857142857
 40
0.7857142857142857
 40
0.7857142857142857
 40
0.8214285714285714
 40
0.8214285714285714
 40
0.8214285714285714
 40
0.8571428571428571
 40
0.8571428571428571
 40
0.8571428571428571
 40
0.8928571428571428
 40
0.8928571428571428
 40
0.8928571428571428
 40
0.9285714285714285
 40
0.9285714285714285
 40
0.9285714285714285
 40
0.9642857142857142
 40
0.9642857142857142
 40
0.9642857142857142
 40
1.0
 40
1.0
 40
1.0
 40
1.0
 10
-155.699
 20
-37.5181
 30
0.0
 10
-155.699
 20
-37.5181
 30
0.0
 10
-155.699
 20
-15.1051
 30
0.0
 10
-155.699
 20
-15.1051
 30
0.0
 10
-155.699
 20
-15.1051
 30
0.0
 10
-152.2874
 20
-15.1051
 30
0.0
 10
-152.2874
 20
-15.1051
 30
0.0
 10
-152.2874
 20
-15.1051
 30
0.0
 10
-152.2874
 20
-18.272
 30
0.0
 10
-152.2874
 20
-18.272
 30
0.0
 10
-151.5892
 20
-17.178
 30
0.0
 10
-150.6536
 20
-16.2927
 30
0.0
 10
-149.4876
 20
-15.6306
 30
0.0
 10
-148.3216
 20
-14.9612
 30
0.0
 10
-146.9972
 20
-14.6301
 30
0.0
 10
-145.5074
 20
-14.6301
 30
0.0
 10
-143.8519
 20
-14.6301
 30
0.0
 10
-142.4916
 20
-14.9756
 30
0.0
 10
-141.4336
 20
-15.6593
 30
0.0
 10
-140.3756
 20
-16.3503
 30
0.0
 10
-139.627
 20
-17.3076
 30
0.0
 10
-139.1952
 20
-18.5455
 30
0.0
 10
-137.4102
 20
-15.9328
 30
0.0
 10
-135.0998
 20
-14.6301
 30
0.0
 10
-132.2496
 20
-14.6301
 30
0.0
 10
-130.0184
 20
-14.6301
 30
0.0
 10
-128.2982
 20
-15.2419
 30
0.0
 10
-127.1034
 20
-16.4727
 30
0.0
 10
-125.9014
 20
-17.7034
 30
0.0
 10
-125.2968
 20
-19.5964
 30
0.0
 10
-125.2968
 20
-22.1515
 30
0.0
 10
-125.2968
 20
-22.1515
 30
0.0
 10
-125.2968
 20
-37.5181
 30
0.0
 10
-125.2968
 20
-37.5181
 30
0.0
 10
-125.2968
 20
-37.5181
 30
0.0
 10
-129.0971
 20
-37.5181
 30
0.0
 10
-129.0971
 20
-37.5181
 30
0.0
 10
-129.0971
 20
-37.5181
 30
0.0
 10
-129.0971
 20
-23.411
 30
0.0
 10
-129.0971
 20
-23.411
 30
0.0
 10
-129.0971
 20
-21.8996
 30
0.0
 10
-129.2267
 20
-20.8055
 30
0.0
 10
-129.4714
 20
-20.1362
 30
0.0
 10
-129.7161
 20
-19.4668
 30
0.0
 10
-130.1623
 20
-18.9342
 30
0.0
 10
-130.8173
 20
-18.5239
 30
0.0
 10
-131.4651
 20
-18.1137
 30
0.0
 10
-132.228
 20
-17.9122
 30
0.0
 10
-133.0989
 20
-17.9122
 30
0.0
 10
-134.6823
 20
-17.9122
 30
0.0
 10
-135.9923
 20
-18.4376
 30
0.0
 10
-137.0359
 20
-19.4812
 30
0.0
 10
-138.0796
 20
-20.532
 30
0.0
 10
-138.5978
 20
-22.2091
 30
0.0
 10
-138.5978
 20
-24.5122
 30
0.0
 10
-138.5978
 20
-24.5122
 30
0.0
 10
-138.5978
 20
-37.5181
 30
0.0
 10
-138.5978
 20
-37.5181
 30
0.0
 10
-138.5978
 20
-37.5181
 30
0.0
 10
-142.398
 20
-37.5181
 30
0.0
 10
-142.398
 20
-37.5181
 30
0.0
 10
-142.398
 20
-37.5181
 30
0.0
 10
-142.398
 20
-22.972
 30
0.0
 10
-142.398
 20
-22.972
 30
0.0
 10
-142.398
 20
-21.2878
 30
0.0
 10
-142.7075
 20
-20.021
 30
0.0
 10
-143.3265
 20
-19.1789
 30
0.0
 10
-143.9455
 20
-18.3368
 30
0.0
 10
-144.9604
 20
-17.9122
 30
0.0
 10
-146.3639
 20
-17.9122
 30
0.0
 10
-147.4291
 20
-17.9122
 30
0.0
 10
-148.4151
 20
-18.1929
 30
0.0
 10
-149.322
 20
-18.7543
 30
0.0
 10
-150.2289
 20
-19.3157
 30
0.0
 10
-150.8839
 20
-20.1362
 30
0.0
 10
-151.2941
 20
-21.223
 30
0.0
 10
-151.6972
 20
-22.3026
 30
0.0
 10
-151.8987
 20
-23.8645
 30
0.0
 10
-151.8987
 20
-25.9014
 30
0.0
 10
-151.8987
 20
-25.9014
 30
0.0
 10
-151.8987
 20
-37.5181
 30
0.0
 10
-151.8987
 20
-37.5181
 30
0.0
 10
-151.8987
 20
-37.5181
 30
0.0
 10
-155.699
 20
-37.5181
 30
0.0
 10
-155.699
 20
-37.5181
 30
0.0
  0
SPLINE
  5
CB
330
1F
100
AcDbEntity
  8
LABELS
 62
   250
100
AcDbSpline
210
0.0
220
0.0
230
1.0
 70
    11
 71
     3
 72
    89
 73
    85
 74
     0
 42
0.0000000001
 43
0.0000000001
 40
0.0
 40
0.0
 40
0.0
 40
0.0
 40
0.0357142857142857
 40
0.0357142857142857
 40
0.0357142857142857
 40
0.0714285714285714
 40
0.0714285714285714
 40
0.0714285714285714
 40
0.1071428571428571
 40
0.1071428571428571
 40
0.1071428571428571
 40
0.1428571428571428
 40
0.1428571428571428
 40
0.1428571428571428
 40
0.1785714285714285
 40
0.1785714285714285
 40
0.1785714285714285
 40
0.2142857142857143
 40
0.2142857142857143
 40
0.2142857142857143
 40
0.25
 40
0.25
 40
0.25
 40
0.2857142857142857
 40
0.2857142857142857
 40
0.2857142857142857
 40
0.3214285714285714
 40
0.3214285714285714
 40
0.3214285714285714
 40
0.3571428571428571
 40
0.3571428571428571
 40
0.3571428571428571
 40
0.3928571428571428
 40
0.3928571428571428
 40
0.3928571428571428
 40
0.4285714285714285
 40
0.4285714285714285
 40
0.4285714285714285
 40
0.4642857142857142
 40
0.4642857142857142
 40
0.4642857142857142
 40
0.5
 40
0.5
 40
0.5
 40
0.5357142857142857
 40
0.5357142857142857
 40
0.5357142857142857
 40
0.5714285714285714
 40
0.5714285714285714
 40
0.5714285714285714
 40
0.6071428571428571
 40
0.6071428571428571
 40
0.6071428571428571
 40
0.6428571428571428
 40
0.6428571428571428
 40
0.6428571428571428
 40
0.6785714285714285
 40
0.6785714285714285
 40
0.6785714285714285
 40
0.7142857142857142
 40
0.7142857142857142
 40
0.7142857142857142
 40
0.75
 40
0.75
 40
0.75
 40
0.7857142857142857
 40
0.7857142857142857
 40
0.7857142857142857
 40
0.8214285714285714
 40
0.8214285714285714
 40
0.8214285714285714
 40
0.8571428571428571
 40
0.8571428571428571
 40
0.8571428571428571
 40
0.8928571428571428
 40
0.8928571428571428
 40
0.8928571428571428
 40
0.9285714285714285
 40
0.9285714285714285
 40
0.9285714285714285
 40
0.9642857142857142
 40
0.9642857142857142
 40
0.9642857142857142
 40
1.0
 40
1.0
 40
1.0
 40
1.0
 10
-119.726
 20
-37.5181
 30
0.0
 10
-119.726
 20
-37.5181
 30
0.0
 10
-119.726
 20
-15.1051
 30
0.0
 10
-119.726
 20
-15.1051
 30
0.0
 10
-119.726
 20
-15.1051
 30
0.0
 10
-116.3144
 20
-15.1051
 30
0.0
 10
-116.3144
 20
-15.1051
 30
0.0
 10
-116.3144
 20
-15.1051
 30
0.0
 10
-116.3144
 20
-18.272
 30
0.0
 10
-116.3144
 20
-18.272
 30
0.0
 10
-115.6162
 20
-17.178
 30
0.0
 10
-114.6806
 20
-16.2927
 30
0.0
 10
-113.5146
 20
-15.6306
 30
0.0
 10
-112.3486
 20
-14.9612
 30
0.0
 10
-111.0242
 20
-14.6301
 30
0.0
 10
-109.5344
 20
-14.6301
 30
0.0
 10
-107.8789
 20
-14.6301
 30
0.0
 10
-106.5186
 20
-14.9756
 30
0.0
 10
-105.4606
 20
-15.6593
 30
0.0
 10
-104.4026
 20
-16.3503
 30
0.0
 10
-103.654
 20
-17.3076
 30
0.0
 10
-103.2222
 20
-18.5455
 30
0.0
 10
-101.4372
 20
-15.9328
 30
0.0
 10
-99.1268
 20
-14.6301
 30
0.0
 10
-96.2766
 20
-14.6301
 30
0.0
 10
-94.0454
 20
-14.6301
 30
0.0
 10
-92.3252
 20
-15.2419
 30
0.0
 10
-91.1304
 20
-16.4727
 30
0.0
 10
-89.9284
 20
-17.7034
 30
0.0
 10
-89.3238
 20
-19.5964
 30
0.0
 10
-89.3238
 20
-22.1515
 30
0.0
 10
-89.3238
 20
-22.1515
 30
0.0
 10
-89.3238
 20
-37.5181
 30
0.0
 10
-89.3238
 20
-37.5181
 30
0.0
 10
-89.3238
 20
-37.5181
 30
0.0
 10
-93.1241
 20
-37.5181
 30
0.0
 10
-93.1241
 20
-37.5181
 30
0.0
 10
-93.1241
 20
-37.5181
 30
0.0
 10
-93.1241
 20
-23.411
 30
0.0
 10
-93.1241
 20
-23.411
 30
0.0
 10
-93.1241
 20
-21.8996
 30
0.0
 10
-93.2537
 20
-20.8055
 30
0.0
 10
-93.4984
 20
-20.1362
 30
0.0
 10
-93.7431
 20
-19.4668
 30
0.0
 10
-94.1893
 20
-18.9342
 30
0.0
 10
-94.8443
 20
-18.5239
 30
0.0
 10
-95.4921
 20
-18.1137
 30
0.0
 10
-96.255
 20
-17.9122
 30
0.0
 10
-97.1259
 20
-17.9122
 30
0.0
 10
-98.7093
 20
-17.9122
 30
0.0
 10
-100.0193
 20
-18.4376
 30
0.0
 10
-101.0629
 20
-19.4812
 30
0.0
 10
-102.1066
 20
-20.532
 30
0.0
 10
-102.6248
 20
-22.2091
 30
0.0
 10
-102.6248
 20
-24.5122
 30
0.0
 10
-102.6248
 20
-24.5122
 30
0.0
 10
-102.6248
 20
-37.5181
 30
0.0
 10
-102.6248
 20
-37.5181
 30
0.0
 10
-102.6248
 20
-37.5181
 30
0.0
 10
-106.425
 20
-37.5181
 30
0.0
 10
-106.425
 20
-37.5181
 30
0.0
 10
-106.425
 20
-37.5181
 30
0.0
 10
-106.425
 20
-22.972
 30
0.0
 10
-106.425
 20
-22.972
 30
0.0
 10
-106.425
 20
-21.2878
 30
0.0
 10
-106.7345
 20
-20.021
 30
0.0
 10
-107.3535
 20
-19.1789
 30
0.0
 10
-107.9725
 20
-18.3368
 30
0.0
 10
-108.9874
 20
-17.9122
 30
0.0
 10
-110.3909
 20
-17.9122
 30
0.0
 10
-111.4561
 20
-17.9122
 30
0.0
 10
-112.4421
 20
-18.1929
 30
0.0
 10
-113.349
 20
-18.7543
 30
0.0
 10
-114.2559
 20
-19.3157
 30
0.0
 10
-114.9109
 20
-20.1362
 30
0.0
 10
-115.3211
 20
-21.223
 30
0.0
 10
-115.7242
 20
-22.3026
 30
0.0
 10
-115.9257
 20
-23.8645
 30
0.0
 10
-115.9257
 20
-25.9014
 30
0.0
 10
-115.9257
 20
-25.9014
 30
0.0
 10
-115.9257
 20
-37.5181
 30
0.0
 10
-115.9257
 20
-37.5181
 30
0.0
 10
-115.9257
 20
-37.5181
 30
0.0
 10
-119.726
 20
-37.5181
 30
0.0
 10
-119.726
 20
-37.5181
 30
0.0
  0
ENDSEC
  0
SECTION
  2
OBJECTS
  0
DICTIONARY
  5
C
330
0
100
AcDbDictionary
  3
ACAD_GROUP
350
D
  3
ACAD_LAYOUT
350
1A
  3
ACAD_MATERIAL
350
43
  3
ACAD_MLEADERSTYLE
350
6B
  3
ACAD_MLINESTYLE
350
17
  3
ACAD_PLOTSETTINGS
350
19
  3
ACAD_SCALELIST
350
47
  3
ACAD_VISUALSTYLE
350
2A
  3
ACDBVARIABLEDICTIONARY
350
CC
  3
DWGPROPS
350
D3
1001
ACAD
1000
TREAT_AS_HARD
1070
     0
  0
DICTIONARY
  5
D
102
{ACAD_REACTORS
330
C
102
}
330
C
100
AcDbDictionary
1001
ACAD
1000
TREAT_AS_HARD
1070
     0
  0
DICTIONARY
  5
1A
102
{ACAD_REACTORS
330
C
102
}
330
C
100
AcDbDictionary
1001
ACAD
1000
TREAT_AS_HARD
1070
     0
  0
DICTIONARY
  5
43
102
{ACAD_REACTORS
330
C
102
}
330
C
100
AcDbDictionary
  3
BYBLOCK
350
45
  3
BYLAYER
350
44
  3
GLOBAL
350
46
1001
ACAD
1000
TREAT_AS_HARD
1070
     0
  0
DICTIONARY
  5
6B
102
{ACAD_REACTORS
330
C
102
}
330
C
100
AcDbDictionary
  3
STANDARD
350
6C
1001
ACAD
1000
TREAT_AS_HARD
1070
     0
  0
DICTIONARY
  5
17
102
{ACAD_REACTORS
330
C
102
}
330
C
100
AcDbDictionary
  3
STANDARD
350
18
1001
ACAD
1000
TREAT_AS_HARD
1070
     0
  0
DICTIONARY
  5
19
102
{ACAD_REACTORS
330
C
102
}
330
C
100
AcDbDictionary
1001
ACAD
1000
TREAT_AS_HARD
1070
     0
  0
DICTIONARY
  5
47
102
{ACAD_REACTORS
330
C
102
}
330
C
100
AcDbDictionary
  3
A0
350
48
  3
A1
350
49
  3
A2
350
4A
  3
A3
350
4B
  3
A4
350
4C
  3
A5
350
4D
  3
A6
350
4E
  3
A7
350
4F
  3
A8
350
50
  3
A9
350
51
  3
B0
350
52
  3
B1
350
53
  3
B2
350
54
  3
B3
350
55
  3
B4
350
56
  3
B5
350
57
  3
B6
350
58
  3
B7
350
59
  3
B8
350
5A
  3
B9
350
5B
  3
C0
350
5C
  3
C1
350
5D
  3
C2
350
5E
  3
C3
350
5F
  3
C4
350
60
  3
C5
350
61
  3
C6
350
62
  3
C7
350
63
  3
C8
350
64
  3
C9
350
65
  3
D0
350
66
  3
D1
350
67
  3
D2
350
68
1001
ACAD
1000
TREAT_AS_HARD
1070
     0
  0
DICTIONARY
  5
2A
102
{ACAD_REACTORS
330
C
102
}
330
C
100
AcDbDictionary
  3
2DWIREFRAME
350
2F
  3
BASIC
350
32
  3
BRIGHTEN
350
36
  3
COLORCHANGE
350
3A
  3
CONCEPTUAL
350
34
  3
DIM
350
35
  3
EDGECOLOROFF
350
3D
  3
FACEPATTERN
350
39
  3
FLAT
350
2B
  3
FLATWITHEDGES
350
2C
  3
GOURAUD
350
2D
  3
GOURAUDWITHEDGES
350
2E
  3
HIDDEN
350
31
  3
JITTEROFF
350
3B
  3
LINEPATTERN
350
38
  3
OVERHANGOFF
350
3C
  3
REALISTIC
350
33
  3
SHADED
350
42
  3
SHADED_WITH_EDGES
350
41
  3
SHADES_OF_GRAY
350
3E
  3
SKETCHY
350
3F
  3
THICKEN
350
37
  3
WIREFRAME
350
30
  3
X-RAY
350
40
1001
ACAD
1000
TREAT_AS_HARD
1070
     0
  0
DICTIONARY
  5
CC
102
{ACAD_REACTORS
330
C
102
}
330
C
100
AcDbDictionary
  3
CANNOSCALE
350
E8
  3
CMLEADERSTYLE
350
CE
  3
CTABLESTYLE
350
CD
  3
DIMASSOC
350
D1
  3
HIDETEXT
350
D2
  3
MSLTSCALE
350
E9
1001
ACAD
1000
TREAT_AS_HARD
1070
     0
  0
XRECORD
  5
D3
102
{ACAD_REACTORS
330
C
102
}
330
C
100
AcDbXrecord
  1
DWGPROPS COOKIE
  2

  3

  4

  6

  7

  8
Admin
  9

300
=
301
=
302
=
303
=
304
=
305
=
306
=
307
=
308
=
309
=
 40
0.0
 41
2459780.184673056
 42
2459780.184673137
  1

 90
        0
  0
MATERIAL
  5
45
102
{ACAD_REACTORS
330
43
102
}
102
{ACAD_XDICTIONARY
360
EC
102
}
330
43
100
AcDbMaterial
  1
BYBLOCK
  0
MATERIAL
  5
44
102
{ACAD_REACTORS
330
43
102
}
102
{ACAD_XDICTIONARY
360
EA
102
}
330
43
100
AcDbMaterial
  1
BYLAYER
  0
MATERIAL
  5
46
102
{ACAD_REACTORS
330
43
102
}
102
{ACAD_XDICTIONARY
360
EE
102
}
330
43
100
AcDbMaterial
  1
GLOBAL
  0
ACAD_PROXY_OBJECT
  5
6C
102
{ACAD_REACTORS
330
6B
102
}
330
6B
100
AcDbZombieObject
 90
      499
 91
      505
 93
      610
310
40901902A4063FBFFFFFE056BD1B81E855B9FC0AD7A3703D0AD73F4214DD185B99185C9900AD7A3703D0AC73F90141901A02B5E8DC0F42B1CFC02B5E8DC0F42B1CFE5764000000000000300FC0
340
14
340
0
340
11
340
0
 94
        0
1001
ACAD_MLEADERVER
1070
     2
  0
MLINESTYLE
  5
18
102
{ACAD_REACTORS
330
17
102
}
330
17
100
AcDbMlineStyle
  2
Standard
 70
     0
  3

 62
   256
 51
90.0
 52
90.0
 71
     2
 49
0.5
 62
   256
  6
BYLAYER
 49
-0.5
 62
   256
  6
BYLAYER
  0
ACAD_PROXY_OBJECT
  5
48
102
{ACAD_REACTORS
330
47
102
}
330
47
100
AcDbZombieObject
 90
      499
 91
      503
 93
       41
310
903313A31580
  0
ACAD_PROXY_OBJECT
  5
49
102
{ACAD_REACTORS
330
47
102
}
330
47
100
AcDbZombieObject
 90
      499
 91
      503
 93
      105
310
903313A324000000000000004000
  0
ACAD_PROXY_OBJECT
  5
4A
102
{ACAD_REACTORS
330
47
102
}
330
47
100
AcDbZombieObject
 90
      499
 91
      503
 93
      105
310
903313A344000000000000104000
  0
ACAD_PROXY_OBJECT
  5
4B
102
{ACAD_REACTORS
330
47
102
}
330
47
100
AcDbZombieObject
 90
      499
 91
      503
 93
      105
310
903313A354000000000000144000
  0
ACAD_PROXY_OBJECT
  5
4C
102
{ACAD_REACTORS
330
47
102
}
330
47
100
AcDbZombieObject
 90
      499
 91
      503
 93
      105
310
903313A384000000000000204000
  0
ACAD_PROXY_OBJECT
  5
4D
102
{ACAD_REACTORS
330
47
102
}
330
47
100
AcDbZombieObject
 90
      499
 91
      503
 93
      113
310
904313A31304000000000000244000
  0
ACAD_PROXY_OBJECT
  5
4E
102
{ACAD_REACTORS
330
47
102
}
330
47
100
AcDbZombieObject
 90
      499
 91
      503
 93
      113
310
904313A31364000000000000304000
  0
ACAD_PROXY_OBJECT
  5
4F
102
{ACAD_REACTORS
330
47
102
}
330
47
100
AcDbZombieObject
 90
      499
 91
      503
 93
      113
310
904313A32304000000000000344000
  0
ACAD_PROXY_OBJECT
  5
50
102
{ACAD_REACTORS
330
47
102
}
330
47
100
AcDbZombieObject
 90
      499
 91
      503
 93
      113
310
904313A333040000000000003E4000
  0
ACAD_PROXY_OBJECT
  5
51
102
{ACAD_REACTORS
330
47
102
}
330
47
100
AcDbZombieObject
 90
      499
 91
      503
 93
      113
310
904313A34304000000000000444000
  0
ACAD_PROXY_OBJECT
  5
52
102
{ACAD_REACTORS
330
47
102
}
330
47
100
AcDbZombieObject
 90
      499
 91
      503
 93
      113
310
904313A35304000000000000494000
  0
ACAD_PROXY_OBJECT
  5
53
102
{ACAD_REACTORS
330
47
102
}
330
47
100
AcDbZombieObject
 90
      499
 91
      503
 93
      121
310
905313A3130304000000000000594000
  0
ACAD_PROXY_OBJECT
  5
54
102
{ACAD_REACTORS
330
47
102
}
330
47
100
AcDbZombieObject
 90
      499
 91
      503
 93
      105
310
903323A310000000000000010100
  0
ACAD_PROXY_OBJECT
  5
55
102
{ACAD_REACTORS
330
47
102
}
330
47
100
AcDbZombieObject
 90
      499
 91
      503
 93
      105
310
903343A310000000000000410100
  0
ACAD_PROXY_OBJECT
  5
56
102
{ACAD_REACTORS
330
47
102
}
330
47
100
AcDbZombieObject
 90
      499
 91
      503
 93
      105
310
903383A310000000000000810100
  0
ACAD_PROXY_OBJECT
  5
57
102
{ACAD_REACTORS
330
47
102
}
330
47
100
AcDbZombieObject
 90
      499
 91
      503
 93
      113
310
90431303A310000000000000910100
  0
ACAD_PROXY_OBJECT
  5
58
102
{ACAD_REACTORS
330
47
102
}
330
47
100
AcDbZombieObject
 90
      499
 91
      503
 93
      121
310
9053130303A310000000000001650100
  0
ACAD_PROXY_OBJECT
  5
59
102
{ACAD_REACTORS
330
47
102
}
330
47
100
AcDbZombieObject
 90
      499
 91
      503
 93
      257
310
90E312F31323822203D2031272D3022000000000000200FC000000000000284000
  0
ACAD_PROXY_OBJECT
  5
5A
102
{ACAD_REACTORS
330
47
102
}
330
47
100
AcDbZombieObject
 90
      499
 91
      503
 93
      249
310
90D312F363422203D2031272D3022000000000000240FC000000000000284000
  0
ACAD_PROXY_OBJECT
  5
5B
102
{ACAD_REACTORS
330
47
102
}
330
47
100
AcDbZombieObject
 90
      499
 91
      503
 93
      249
310
90D312F333222203D2031272D3022000000000000280FC000000000000284000
  0
ACAD_PROXY_OBJECT
  5
5C
102
{ACAD_REACTORS
330
47
102
}
330
47
100
AcDbZombieObject
 90
      499
 91
      503
 93
      249
310
90D312F313622203D2031272D30220000000000002C0FC000000000000284000
  0
ACAD_PROXY_OBJECT
  5
5D
102
{ACAD_REACTORS
330
47
102
}
330
47
100
AcDbZombieObject
 90
      499
 91
      503
 93
      249
310
90D332F333222203D2031272D30220000000000002E0FC000000000000284000
  0
ACAD_PROXY_OBJECT
  5
5E
102
{ACAD_REACTORS
330
47
102
}
330
47
100
AcDbZombieObject
 90
      499
 91
      503
 93
      241
310
90C312F3822203D2031272D3022000000000000300FC000000000000284000
  0
ACAD_PROXY_OBJECT
  5
5F
102
{ACAD_REACTORS
330
47
102
}
330
47
100
AcDbZombieObject
 90
      499
 91
      503
 93
      249
310
90D332F313622203D2031272D3022000000000000320FC000000000000284000
  0
ACAD_PROXY_OBJECT
  5
60
102
{ACAD_REACTORS
330
47
102
}
330
47
100
AcDbZombieObject
 90
      499
 91
      503
 93
      241
310
90C312F3422203D2031272D3022000000000000340FC000000000000284000
  0
ACAD_PROXY_OBJECT
  5
61
102
{ACAD_REACTORS
330
47
102
}
330
47
100
AcDbZombieObject
 90
      499
 91
      503
 93
      241
310
90C332F3822203D2031272D3022000000000000360FC000000000000284000
  0
ACAD_PROXY_OBJECT
  5
62
102
{ACAD_REACTORS
330
47
102
}
330
47
100
AcDbZombieObject
 90
      499
 91
      503
 93
      241
310
90C312F3222203D2031272D3022000000000000380FC000000000000284000
  0
ACAD_PROXY_OBJECT
  5
63
102
{ACAD_REACTORS
330
47
102
}
330
47
100
AcDbZombieObject
 90
      499
 91
      503
 93
      241
310
90C332F3422203D2031272D30220000000000003A0FC000000000000284000
  0
ACAD_PROXY_OBJECT
  5
64
102
{ACAD_REACTORS
330
47
102
}
330
47
100
AcDbZombieObject
 90
      499
 91
      503
 93
      161
310
90A3122203D2031272D30224000000000000284000
  0
ACAD_PROXY_OBJECT
  5
65
102
{ACAD_REACTORS
330
47
102
}
330
47
100
AcDbZombieObject
 90
      499
 91
      503
 93
      257
310
90E312D312F3222203D2031272D30220000000000003E0FC000000000000284000
  0
ACAD_PROXY_OBJECT
  5
66
102
{ACAD_REACTORS
330
47
102
}
330
47
100
AcDbZombieObject
 90
      499
 91
      503
 93
      225
310
90A3322203D2031272D302200000000000002100000000000000284000
  0
ACAD_PROXY_OBJECT
  5
67
102
{ACAD_REACTORS
330
47
102
}
330
47
100
AcDbZombieObject
 90
      499
 91
      503
 93
      225
310
90A3622203D2031272D302200000000000006100000000000000284000
  0
ACAD_PROXY_OBJECT
  5
68
102
{ACAD_REACTORS
330
47
102
}
330
47
100
AcDbZombieObject
 90
      499
 91
      503
 93
      249
310
90D31272D3022203D2031272D30220000000000000A100000000000000284000
  0
ACAD_PROXY_OBJECT
  5
2F
102
{ACAD_REACTORS
330
2A
102
}
330
2A
100
AcDbZombieObject
 90
      499
 91
      501
 93
      436
310
42CC9915DA5C99599C985B595049028333333333333E33F0000000000000F90107901411070040501600405405064090741402480A0340
1001
ACAD
1000
AcDbSavedByObjectVersion
1070
     0
  0
ACAD_PROXY_OBJECT
  5
32
102
{ACAD_REACTORS
330
2A
102
}
330
2A
100
AcDbZombieObject
 90
      499
 91
      501
 93
      388
310
4150985CDA58D07406404333333333333E33F0000000000000F90107A41107004050150841D405064090741402480A0350
1001
ACAD
1000
AcDbSavedByObjectVersion
1070
     0
  0
ACAD_PROXY_OBJECT
  5
36
102
{ACAD_REACTORS
330
2A
102
}
330
2A
100
AcDbZombieObject
 90
      499
 91
      501
 93
      428
310
42109C9A59DA1D195B90C409028333333333333E33F0000000000000F9010790141107004050150841D405064090741402480A029950
1001
ACAD
1000
AcDbSavedByObjectVersion
1070
     0
  0
ACAD_PROXY_OBJECT
  5
3A
102
{ACAD_REACTORS
330
2A
102
}
330
2A
100
AcDbZombieObject
 90
      499
 91
      501
 93
      452
310
42D0DBDB1BDC90DA185B99D95104090240C333333333333E33F0000000000000F90108901411070040501508421405064090741402480A0350
1001
ACAD
1000
AcDbSavedByObjectVersion
1070
     0
  0
ACAD_PROXY_OBJECT
  5
34
102
{ACAD_REACTORS
330
2A
102
}
330
2A
100
AcDbZombieObject
 90
      499
 91
      501
 93
      500
310
4290DBDB98D95C1D1D585B10940D028333333333333E33F0000000000000F90107902409070040501000000000018199010841D405064090740C02480A0340
1001
ACAD
1000
AcDbSavedByObjectVersion
1070
     0
  0
ACAD_PROXY_OBJECT
  5
35
102
{ACAD_REACTORS
330
2A
102
}
330
2A
100
AcDbZombieObject
 90
      499
 91
      501
 93
      412
310
40D11A5B50B409028333333333333E33F0000000000000F9010790141107004050150841D405064090741402480A02677FFFFFD0
1001
ACAD
1000
AcDbSavedByObjectVersion
1070
     0
  0
ACAD_PROXY_OBJECT
  5
3D
102
{ACAD_REACTORS
330
2A
102
}
330
2A
100
AcDbZombieObject
 90
      499
 91
      501
 93
      452
310
43115919D950DBDB1BDC93D999916409028333333333333E33F0000000000000F9010790141107004050150841D405064090741402480A0350
1001
ACAD
1000
AcDbSavedByObjectVersion
1070
     0
  0
ACAD_PROXY_OBJECT
  5
39
102
{ACAD_REACTORS
330
2A
102
}
330
2A
100
AcDbZombieObject
 90
      499
 91
      501
 93
      444
310
42D19858D95C185D1D195C9B90F409028333333333333E33F0000000000000F9010790141107004050150841D405064090741402480A0350
1001
ACAD
1000
AcDbSavedByObjectVersion
1070
     0
  0
ACAD_PROXY_OBJECT
  5
2B
102
{ACAD_REACTORS
330
2A
102
}
330
2A
100
AcDbZombieObject
 90
      499
 91
      501
 93
      380
310
41119B185D240901404333333333333E33F0000000000000F9010740A907004050150841D405064090741402480A1B50
1001
ACAD
1000
AcDbSavedByObjectVersion
1070
     0
  0
ACAD_PROXY_OBJECT
  5
2C
102
{ACAD_REACTORS
330
2A
102
}
330
2A
100
AcDbZombieObject
 90
      499
 91
      501
 93
      468
310
43519B185D15DA5D1A115919D95CD0140901404333333333333E33F0000000000000F90107409019070040501600405405064090741402480A1B50
1001
ACAD
1000
AcDbSavedByObjectVersion
1070
     0
  0
ACAD_PROXY_OBJECT
  5
2D
102
{ACAD_REACTORS
330
2A
102
}
330
2A
100
AcDbZombieObject
 90
      499
 91
      501
 93
      404
310
41D1DBDD5C985D5910240902404333333333333E33F0000000000000F9010740A9070040501641D405064090741402480A1B50
1001
ACAD
1000
AcDbSavedByObjectVersion
1070
     0
  0
ACAD_PROXY_OBJECT
  5
2E
102
{ACAD_REACTORS
330
2A
102
}
330
2A
100
AcDbZombieObject
 90
      499
 91
      501
 93
      492
310
4411DBDD5C985D5915DA5D1A115919D95CD0340902404333333333333E33F0000000000000F90107409019070040501600405405064090741402480A1B50
1001
ACAD
1000
AcDbSavedByObjectVersion
1070
     0
  0
ACAD_PROXY_OBJECT
  5
31
102
{ACAD_REACTORS
330
2A
102
}
330
2A
100
AcDbZombieObject
 90
      499
 91
      501
 93
      476
310
41921A5919195B90640502408333333333333E33F0000000000000F901079024090700405020000000000001110200405405064090740C02480A0340
1001
ACAD
1000
AcDbSavedByObjectVersion
1070
     0
  0
ACAD_PROXY_OBJECT
  5
3B
102
{ACAD_REACTORS
330
2A
102
}
330
2A
100
AcDbZombieObject
 90
      499
 91
      501
 93
      428
310
42529A5D1D195C93D999914409028333333333333E33F0000000000000F9010790141107004050150A41D405064090741402480A0350
1001
ACAD
1000
AcDbSavedByObjectVersion
1070
     0
  0
ACAD_PROXY_OBJECT
  5
38
102
{ACAD_REACTORS
330
2A
102
}
330
2A
100
AcDbZombieObject
 90
      499
 91
      501
 93
      444
310
42D31A5B995C185D1D195C9B90E409028333333333333E33F0000000000000F9010790141107004050750841D405064090741402483A0350
1001
ACAD
1000
AcDbSavedByObjectVersion
1070
     0
  0
ACAD_PROXY_OBJECT
  5
3C
102
{ACAD_REACTORS
330
2A
102
}
330
2A
100
AcDbZombieObject
 90
      499
 91
      501
 93
      444
310
42D3DD995C9A185B99D3D999915409028333333333333E33F0000000000000F9010790141107004050150941D405064090741402480A0350
1001
ACAD
1000
AcDbSavedByObjectVersion
1070
     0
  0
ACAD_PROXY_OBJECT
  5
33
102
{ACAD_REACTORS
330
2A
102
}
330
2A
100
AcDbZombieObject
 90
      499
 91
      501
 93
      428
310
425499585B1A5CDD1A58D08409038333333333333E33F0000000000000F9010740A907004050150800405405064090740C02480A1B40
1001
ACAD
1000
AcDbSavedByObjectVersion
1070
     0
  0
ACAD_PROXY_OBJECT
  5
42
102
{ACAD_REACTORS
330
2A
102
}
330
2A
100
AcDbZombieObject
 90
      499
 91
      501
 93
      420
310
4194DA1859195911B40902404333333333333E33F0000000000000F9010740A41107004050150800405405064090840C02480A0B40
1001
ACAD
1000
AcDbSavedByObjectVersion
1070
     0
  0
ACAD_PROXY_OBJECT
  5
41
102
{ACAD_REACTORS
330
2A
102
}
330
2A
100
AcDbZombieObject
 90
      499
 91
      501
 93
      516
310
4454DA18591959081DDA5D1A08195919D95CD1A40902404333333333333E33F0000000000000F901074090142907004050250800405405064090740C02480A0B40
1001
ACAD
1000
AcDbSavedByObjectVersion
1070
     0
  0
ACAD_PROXY_OBJECT
  5
3E
102
{ACAD_REACTORS
330
2A
102
}
330
2A
100
AcDbZombieObject
 90
      499
 91
      501
 93
      532
310
4394DA1859195CC81BD98811DC985E5174090240C333333333333E33F0000000000000F901079024090741D01000000000000111010841D405064090740C02480A0340
1001
ACAD
1000
AcDbSavedByObjectVersion
1070
     0
  0
ACAD_PROXY_OBJECT
  5
3F
102
{ACAD_REACTORS
330
2A
102
}
330
2A
100
AcDbZombieObject
 90
      499
 91
      501
 93
      476
310
41D4DAD95D18DA1E51840502408333333333333E33F0000000000000F901079024090741D01000000000000111010B41D405064090741802480A0340
1001
ACAD
1000
AcDbSavedByObjectVersion
1070
     0
  0
ACAD_PROXY_OBJECT
  5
37
102
{ACAD_REACTORS
330
2A
102
}
330
2A
100
AcDbZombieObject
 90
      499
 91
      501
 93
      412
310
41D51A1A58DAD95B90D409028333333333333E33F0000000000000F9010790141107004050150C41D405064090741402480A0350
1001
ACAD
1000
AcDbSavedByObjectVersion
1070
     0
  0
ACAD_PROXY_OBJECT
  5
30
102
{ACAD_REACTORS
330
2A
102
}
330
2A
100
AcDbZombieObject
 90
      499
 91
      501
 93
      420
310
4255DA5C99599C985B595059028333333333333E33F0000000000000F90107901411070040501600405405064090740C02480A0340
1001
ACAD
1000
AcDbSavedByObjectVersion
1070
     0
  0
ACAD_PROXY_OBJECT
  5
40
102
{ACAD_REACTORS
330
2A
102
}
330
2A
100
AcDbZombieObject
 90
      499
 91
      501
 93
      404
310
41560B54985E51940902404000000000000E03F0000000000000F9010740501907004050150841D405064090740C02480A1B40
1001
ACAD
1000
AcDbSavedByObjectVersion
1070
     0
  0
DICTIONARYVAR
  5
E8
102
{ACAD_REACTORS
330
CC
102
}
330
CC
100
DictionaryVariables
280
     0
  1
1:1
  0
DICTIONARYVAR
  5
CE
102
{ACAD_REACTORS
330
CC
102
}
330
CC
100
DictionaryVariables
280
     0
  1
Standard
  0
DICTIONARYVAR
  5
CD
102
{ACAD_REACTORS
330
CC
102
}
330
CC
100
DictionaryVariables
280
     0
  1
Standard
  0
DICTIONARYVAR
  5
D1
102
{ACAD_REACTORS
330
CC
102
}
330
CC
100
DictionaryVariables
280
     0
  1
2
  0
DICTIONARYVAR
  5
D2
102
{ACAD_REACTORS
330
CC
102
}
330
CC
100
DictionaryVariables
280
     0
  1
1
  0
DICTIONARYVAR
  5
E9
102
{ACAD_REACTORS
330
CC
102
}
330
CC
100
DictionaryVariables
280
     0
  1
1
  0
DICTIONARY
  5
EC
330
45
100
AcDbDictionary
  3
ACAD_XREC_ROUNDTRIP
360
ED
1001
ACAD
1000
TREAT_AS_HARD
1070
     1
  0
DICTIONARY
  5
EA
330
44
100
AcDbDictionary
  3
ACAD_XREC_ROUNDTRIP
360
EB
1001
ACAD
1000
TREAT_AS_HARD
1070
     1
  0
DICTIONARY
  5
EE
330
46
100
AcDbDictionary
  3
ACAD_XREC_ROUNDTRIP
360
EF
1001
ACAD
1000
TREAT_AS_HARD
1070
     1
  0
XRECORD
  5
ED
102
{ACAD_REACTORS
330
EC
102
}
330
EC
100
AcDbXrecord
102
MATERIAL
148
0.0
149
0.0
149
0.0
 93
        0
 94
      127
282
     0
 72
     1
 77
     1
171
     1
175
     1
179
     1
273
     0
  0
XRECORD
  5
EB
102
{ACAD_REACTORS
330
EA
102
}
330
EA
100
AcDbXrecord
102
MATERIAL
148
0.0
149
0.0
149
0.0
 93
        0
 94
      127
282
     0
 72
     1
 77
     1
171
     1
175
     1
179
     1
273
     0
  0
XRECORD
  5
EF
102
{ACAD_REACTORS
330
EE
102
}
330
EE
100
AcDbXrecord
102
MATERIAL
148
0.0
149
0.0
149
0.0
 93
        0
 94
      127
282
     0
 72
     1
 77
     1
171
     1
175
     1
179
     1
273
     0
  0
ENDSEC
  0
EOF
