%TF.GenerationSoftware,KiCad,Pcbnew,(6.0.5)*%
%TF.CreationDate,2022-05-27T15:03:32+08:00*%
%TF.ProjectId,RP2040-3k,52503230-3430-42d3-936b-2e6b69636164,rev?*%
%TF.SameCoordinates,Original*%
%TF.FileFunction,Copper,L1,Top*%
%TF.FilePolarity,Positive*%
%FSLAX46Y46*%
G04 Gerber Fmt 4.6, Leading zero omitted, Abs format (unit mm)*
G04 Created by KiCad (PCBNEW (6.0.5)) date 2022-05-27 15:03:32*
%MOMM*%
%LPD*%
G01*
G04 APERTURE LIST*
G04 Aperture macros list*
%AMRoundRect*
0 Rectangle with rounded corners*
0 $1 Rounding radius*
0 $2 $3 $4 $5 $6 $7 $8 $9 X,Y pos of 4 corners*
0 Add a 4 corners polygon primitive as box body*
4,1,4,$2,$3,$4,$5,$6,$7,$8,$9,$2,$3,0*
0 Add four circle primitives for the rounded corners*
1,1,$1+$1,$2,$3*
1,1,$1+$1,$4,$5*
1,1,$1+$1,$6,$7*
1,1,$1+$1,$8,$9*
0 Add four rect primitives between the rounded corners*
20,1,$1+$1,$2,$3,$4,$5,0*
20,1,$1+$1,$4,$5,$6,$7,0*
20,1,$1+$1,$6,$7,$8,$9,0*
20,1,$1+$1,$8,$9,$2,$3,0*%
%AMFreePoly0*
4,1,18,-0.410000,0.265000,0.000000,0.675000,0.328000,0.675000,0.359380,0.668758,0.385983,0.650983,0.403758,0.624380,0.410000,0.593000,0.410000,-0.593000,0.403758,-0.624380,0.385983,-0.650983,0.359380,-0.668758,0.328000,-0.675000,-0.328000,-0.675000,-0.359380,-0.668758,-0.385983,-0.650983,-0.403758,-0.624380,-0.410000,-0.593000,-0.410000,0.265000,-0.410000,0.265000,$1*%
G04 Aperture macros list end*
%TA.AperFunction,SMDPad,CuDef*%
%ADD10RoundRect,0.082000X-0.593000X0.328000X-0.593000X-0.328000X0.593000X-0.328000X0.593000X0.328000X0*%
%TD*%
%TA.AperFunction,SMDPad,CuDef*%
%ADD11FreePoly0,270.000000*%
%TD*%
%TA.AperFunction,SMDPad,CuDef*%
%ADD12RoundRect,0.140000X0.140000X0.170000X-0.140000X0.170000X-0.140000X-0.170000X0.140000X-0.170000X0*%
%TD*%
%TA.AperFunction,SMDPad,CuDef*%
%ADD13RoundRect,0.135000X-0.135000X-0.185000X0.135000X-0.185000X0.135000X0.185000X-0.135000X0.185000X0*%
%TD*%
%TA.AperFunction,SMDPad,CuDef*%
%ADD14RoundRect,0.135000X-0.185000X0.135000X-0.185000X-0.135000X0.185000X-0.135000X0.185000X0.135000X0*%
%TD*%
%TA.AperFunction,ComponentPad*%
%ADD15C,0.600000*%
%TD*%
%TA.AperFunction,SMDPad,CuDef*%
%ADD16RoundRect,0.144000X1.456000X-1.456000X1.456000X1.456000X-1.456000X1.456000X-1.456000X-1.456000X0*%
%TD*%
%TA.AperFunction,SMDPad,CuDef*%
%ADD17RoundRect,0.050000X0.387500X-0.050000X0.387500X0.050000X-0.387500X0.050000X-0.387500X-0.050000X0*%
%TD*%
%TA.AperFunction,SMDPad,CuDef*%
%ADD18RoundRect,0.050000X0.050000X-0.387500X0.050000X0.387500X-0.050000X0.387500X-0.050000X-0.387500X0*%
%TD*%
%TA.AperFunction,SMDPad,CuDef*%
%ADD19RoundRect,0.150000X-0.650000X-0.150000X0.650000X-0.150000X0.650000X0.150000X-0.650000X0.150000X0*%
%TD*%
%TA.AperFunction,SMDPad,CuDef*%
%ADD20RoundRect,0.140000X-0.140000X-0.170000X0.140000X-0.170000X0.140000X0.170000X-0.140000X0.170000X0*%
%TD*%
%TA.AperFunction,SMDPad,CuDef*%
%ADD21RoundRect,0.140000X0.170000X-0.140000X0.170000X0.140000X-0.170000X0.140000X-0.170000X-0.140000X0*%
%TD*%
%TA.AperFunction,SMDPad,CuDef*%
%ADD22R,1.200000X1.400000*%
%TD*%
%TA.AperFunction,SMDPad,CuDef*%
%ADD23RoundRect,0.140000X-0.170000X0.140000X-0.170000X-0.140000X0.170000X-0.140000X0.170000X0.140000X0*%
%TD*%
%TA.AperFunction,SMDPad,CuDef*%
%ADD24R,1.500000X1.000000*%
%TD*%
%TA.AperFunction,SMDPad,CuDef*%
%ADD25RoundRect,0.135000X0.135000X0.185000X-0.135000X0.185000X-0.135000X-0.185000X0.135000X-0.185000X0*%
%TD*%
%TA.AperFunction,SMDPad,CuDef*%
%ADD26RoundRect,0.147500X-0.172500X0.147500X-0.172500X-0.147500X0.172500X-0.147500X0.172500X0.147500X0*%
%TD*%
%TA.AperFunction,ComponentPad*%
%ADD27O,1.700000X1.700000*%
%TD*%
%TA.AperFunction,ComponentPad*%
%ADD28R,1.700000X1.700000*%
%TD*%
%TA.AperFunction,SMDPad,CuDef*%
%ADD29RoundRect,0.150000X-0.475000X-0.150000X0.475000X-0.150000X0.475000X0.150000X-0.475000X0.150000X0*%
%TD*%
%TA.AperFunction,ComponentPad*%
%ADD30C,3.300000*%
%TD*%
%TA.AperFunction,SMDPad,CuDef*%
%ADD31RoundRect,0.250000X-1.025000X-1.000000X1.025000X-1.000000X1.025000X1.000000X-1.025000X1.000000X0*%
%TD*%
%TA.AperFunction,SMDPad,CuDef*%
%ADD32R,1.650000X2.500000*%
%TD*%
%TA.AperFunction,SMDPad,CuDef*%
%ADD33RoundRect,0.150000X0.587500X0.150000X-0.587500X0.150000X-0.587500X-0.150000X0.587500X-0.150000X0*%
%TD*%
%TA.AperFunction,SMDPad,CuDef*%
%ADD34RoundRect,0.135000X0.185000X-0.135000X0.185000X0.135000X-0.185000X0.135000X-0.185000X-0.135000X0*%
%TD*%
%TA.AperFunction,SMDPad,CuDef*%
%ADD35R,0.600000X1.450000*%
%TD*%
%TA.AperFunction,SMDPad,CuDef*%
%ADD36R,0.300000X1.450000*%
%TD*%
%TA.AperFunction,ComponentPad*%
%ADD37O,1.000000X1.600000*%
%TD*%
%TA.AperFunction,ComponentPad*%
%ADD38O,1.000000X2.100000*%
%TD*%
%TA.AperFunction,ViaPad*%
%ADD39C,0.600000*%
%TD*%
%TA.AperFunction,ViaPad*%
%ADD40C,0.800000*%
%TD*%
%TA.AperFunction,Conductor*%
%ADD41C,0.200000*%
%TD*%
%TA.AperFunction,Conductor*%
%ADD42C,0.300000*%
%TD*%
%TA.AperFunction,Conductor*%
%ADD43C,0.250000*%
%TD*%
%TA.AperFunction,Conductor*%
%ADD44C,0.381000*%
%TD*%
%TA.AperFunction,Conductor*%
%ADD45C,0.500000*%
%TD*%
G04 APERTURE END LIST*
D10*
%TO.P,LED3,1,VDD*%
%TO.N,+5V*%
X61525375Y-65040000D03*
%TO.P,LED3,2,DOUT*%
%TO.N,unconnected-(LED3-Pad2)*%
X61525375Y-63540000D03*
%TO.P,LED3,3,DIN*%
%TO.N,Net-(LED2-Pad2)*%
X66975375Y-65040000D03*
D11*
%TO.P,LED3,4,VSS*%
%TO.N,GND*%
X66975375Y-63540000D03*
%TD*%
D12*
%TO.P,C16,1*%
%TO.N,+3V3*%
X75675000Y-70628200D03*
%TO.P,C16,2*%
%TO.N,GND*%
X74715000Y-70628200D03*
%TD*%
D13*
%TO.P,R8,1*%
%TO.N,SWITCHLED*%
X104604625Y-67084000D03*
%TO.P,R8,2*%
%TO.N,Net-(LED1-Pad3)*%
X105624625Y-67084000D03*
%TD*%
D14*
%TO.P,R1,1*%
%TO.N,+3V3*%
X89046250Y-73695000D03*
%TO.P,R1,2*%
%TO.N,~{RESET}*%
X89046250Y-74715000D03*
%TD*%
D15*
%TO.P,U1,57,GND*%
%TO.N,GND*%
X82005000Y-75233750D03*
X84555000Y-76508750D03*
X82005000Y-76508750D03*
X84555000Y-77783750D03*
X83280000Y-77783750D03*
X84555000Y-75233750D03*
X83280000Y-75233750D03*
D16*
X83280000Y-76508750D03*
D15*
X83280000Y-76508750D03*
X82005000Y-77783750D03*
D17*
%TO.P,U1,56,QSPI_SS*%
%TO.N,QSPI_SS*%
X79842500Y-79108750D03*
%TO.P,U1,55,QSPI_SD1*%
%TO.N,SD1*%
X79842500Y-78708750D03*
%TO.P,U1,54,QSPI_SD2*%
%TO.N,SD2*%
X79842500Y-78308750D03*
%TO.P,U1,53,QSPI_SD0*%
%TO.N,SD0*%
X79842500Y-77908750D03*
%TO.P,U1,52,QSPI_SCLK*%
%TO.N,QSPI_SCLK*%
X79842500Y-77508750D03*
%TO.P,U1,51,QSPI_SD3*%
%TO.N,SD3*%
X79842500Y-77108750D03*
%TO.P,U1,50,DVDD*%
%TO.N,+1V1*%
X79842500Y-76708750D03*
%TO.P,U1,49,IOVDD*%
%TO.N,+3V3*%
X79842500Y-76308750D03*
%TO.P,U1,48,USB_VDD*%
X79842500Y-75908750D03*
%TO.P,U1,47,USB_DP*%
%TO.N,Net-(R4-Pad1)*%
X79842500Y-75508750D03*
%TO.P,U1,46,USB_DM*%
%TO.N,Net-(R5-Pad1)*%
X79842500Y-75108750D03*
%TO.P,U1,45,VREG_VOUT*%
%TO.N,+1V1*%
X79842500Y-74708750D03*
%TO.P,U1,44,VREG_IN*%
%TO.N,+3V3*%
X79842500Y-74308750D03*
%TO.P,U1,43,ADC_AVDD*%
X79842500Y-73908750D03*
D18*
%TO.P,U1,42,IOVDD*%
X80680000Y-73071250D03*
%TO.P,U1,41,GPIO29_ADC3*%
%TO.N,COL0*%
X81080000Y-73071250D03*
%TO.P,U1,40,GPIO28_ADC2*%
%TO.N,COL1*%
X81480000Y-73071250D03*
%TO.P,U1,39,GPIO27_ADC1*%
%TO.N,COL2*%
X81880000Y-73071250D03*
%TO.P,U1,38,GPIO26_ADC0*%
%TO.N,SWITCHLED*%
X82280000Y-73071250D03*
%TO.P,U1,37,GPIO25*%
%TO.N,UNDERGLOW*%
X82680000Y-73071250D03*
%TO.P,U1,36,GPIO24*%
%TO.N,unconnected-(U1-Pad36)*%
X83080000Y-73071250D03*
%TO.P,U1,35,GPIO23*%
%TO.N,unconnected-(U1-Pad35)*%
X83480000Y-73071250D03*
%TO.P,U1,34,GPIO22*%
%TO.N,unconnected-(U1-Pad34)*%
X83880000Y-73071250D03*
%TO.P,U1,33,IOVDD*%
%TO.N,+3V3*%
X84280000Y-73071250D03*
%TO.P,U1,32,GPIO21*%
%TO.N,unconnected-(U1-Pad32)*%
X84680000Y-73071250D03*
%TO.P,U1,31,GPIO20*%
%TO.N,unconnected-(U1-Pad31)*%
X85080000Y-73071250D03*
%TO.P,U1,30,GPIO19*%
%TO.N,unconnected-(U1-Pad30)*%
X85480000Y-73071250D03*
%TO.P,U1,29,GPIO18*%
%TO.N,unconnected-(U1-Pad29)*%
X85880000Y-73071250D03*
D17*
%TO.P,U1,28,GPIO17*%
%TO.N,unconnected-(U1-Pad28)*%
X86717500Y-73908750D03*
%TO.P,U1,27,GPIO16*%
%TO.N,unconnected-(U1-Pad27)*%
X86717500Y-74308750D03*
%TO.P,U1,26,RUN*%
%TO.N,~{RESET}*%
X86717500Y-74708750D03*
%TO.P,U1,25,SWD*%
%TO.N,SWD*%
X86717500Y-75108750D03*
%TO.P,U1,24,SWCLK*%
%TO.N,SWCLK*%
X86717500Y-75508750D03*
%TO.P,U1,23,DVDD*%
%TO.N,+1V1*%
X86717500Y-75908750D03*
%TO.P,U1,22,IOVDD*%
%TO.N,+3V3*%
X86717500Y-76308750D03*
%TO.P,U1,21,XOUT*%
%TO.N,XOUT*%
X86717500Y-76708750D03*
%TO.P,U1,20,XIN*%
%TO.N,XIN*%
X86717500Y-77108750D03*
%TO.P,U1,19,TESTEN*%
%TO.N,GND*%
X86717500Y-77508750D03*
%TO.P,U1,18,GPIO15*%
%TO.N,unconnected-(U1-Pad18)*%
X86717500Y-77908750D03*
%TO.P,U1,17,GPIO14*%
%TO.N,unconnected-(U1-Pad17)*%
X86717500Y-78308750D03*
%TO.P,U1,16,GPIO13*%
%TO.N,unconnected-(U1-Pad16)*%
X86717500Y-78708750D03*
%TO.P,U1,15,GPIO12*%
%TO.N,unconnected-(U1-Pad15)*%
X86717500Y-79108750D03*
D18*
%TO.P,U1,14,GPIO11*%
%TO.N,unconnected-(U1-Pad14)*%
X85880000Y-79946250D03*
%TO.P,U1,13,GPIO10*%
%TO.N,unconnected-(U1-Pad13)*%
X85480000Y-79946250D03*
%TO.P,U1,12,GPIO9*%
%TO.N,unconnected-(U1-Pad12)*%
X85080000Y-79946250D03*
%TO.P,U1,11,GPIO8*%
%TO.N,unconnected-(U1-Pad11)*%
X84680000Y-79946250D03*
%TO.P,U1,10,IOVDD*%
%TO.N,+3V3*%
X84280000Y-79946250D03*
%TO.P,U1,9,GPIO7*%
%TO.N,unconnected-(U1-Pad9)*%
X83880000Y-79946250D03*
%TO.P,U1,8,GPIO6*%
%TO.N,unconnected-(U1-Pad8)*%
X83480000Y-79946250D03*
%TO.P,U1,7,GPIO5*%
%TO.N,unconnected-(U1-Pad7)*%
X83080000Y-79946250D03*
%TO.P,U1,6,GPIO4*%
%TO.N,unconnected-(U1-Pad6)*%
X82680000Y-79946250D03*
%TO.P,U1,5,GPIO3*%
%TO.N,unconnected-(U1-Pad5)*%
X82280000Y-79946250D03*
%TO.P,U1,4,GPIO2*%
%TO.N,unconnected-(U1-Pad4)*%
X81880000Y-79946250D03*
%TO.P,U1,3,GPIO1*%
%TO.N,unconnected-(U1-Pad3)*%
X81480000Y-79946250D03*
%TO.P,U1,2,GPIO0*%
%TO.N,unconnected-(U1-Pad2)*%
X81080000Y-79946250D03*
%TO.P,U1,1,IOVDD*%
%TO.N,+3V3*%
X80680000Y-79946250D03*
%TD*%
D14*
%TO.P,R2,1*%
%TO.N,/CC1*%
X86106000Y-45972000D03*
%TO.P,R2,2*%
%TO.N,GND*%
X86106000Y-46992000D03*
%TD*%
D19*
%TO.P,U4,1,~{CS}*%
%TO.N,QSPI_SS*%
X67780000Y-78635000D03*
%TO.P,U4,2,DO(IO1)*%
%TO.N,SD1*%
X67780000Y-79905000D03*
%TO.P,U4,3,IO2*%
%TO.N,SD2*%
X67780000Y-81175000D03*
%TO.P,U4,4,GND*%
%TO.N,GND*%
X67780000Y-82445000D03*
%TO.P,U4,5,DI(IO0)*%
%TO.N,SD0*%
X74980000Y-82445000D03*
%TO.P,U4,6,CLK*%
%TO.N,QSPI_SCLK*%
X74980000Y-81175000D03*
%TO.P,U4,7,IO3*%
%TO.N,SD3*%
X74980000Y-79905000D03*
%TO.P,U4,8,VCC*%
%TO.N,+3V3*%
X74980000Y-78635000D03*
%TD*%
D20*
%TO.P,C6,1*%
%TO.N,+1V1*%
X92186250Y-73425000D03*
%TO.P,C6,2*%
%TO.N,GND*%
X93146250Y-73425000D03*
%TD*%
D21*
%TO.P,C11,1*%
%TO.N,+3V3*%
X84264250Y-71770000D03*
%TO.P,C11,2*%
%TO.N,GND*%
X84264250Y-70810000D03*
%TD*%
D22*
%TO.P,Y1,1,1*%
%TO.N,XOUT*%
X91106250Y-77615000D03*
%TO.P,Y1,2,2*%
%TO.N,GND*%
X91106250Y-79815000D03*
%TO.P,Y1,3,3*%
%TO.N,XIN*%
X92806250Y-79815000D03*
%TO.P,Y1,4,4*%
%TO.N,GND*%
X92806250Y-77615000D03*
%TD*%
D21*
%TO.P,C8,1*%
%TO.N,+3V3*%
X79946250Y-71599000D03*
%TO.P,C8,2*%
%TO.N,GND*%
X79946250Y-70639000D03*
%TD*%
D12*
%TO.P,C20,1*%
%TO.N,+5V*%
X108065375Y-75212000D03*
%TO.P,C20,2*%
%TO.N,GND*%
X107105375Y-75212000D03*
%TD*%
D21*
%TO.P,C4,2*%
%TO.N,GND*%
X63743750Y-78621250D03*
%TO.P,C4,1*%
%TO.N,+3V3*%
X63743750Y-79581250D03*
%TD*%
D12*
%TO.P,C7,1*%
%TO.N,+1V1*%
X75675000Y-71695000D03*
%TO.P,C7,2*%
%TO.N,GND*%
X74715000Y-71695000D03*
%TD*%
D23*
%TO.P,C15,1*%
%TO.N,+3V3*%
X80693375Y-81368750D03*
%TO.P,C15,2*%
%TO.N,GND*%
X80693375Y-82328750D03*
%TD*%
D12*
%TO.P,C5,2*%
%TO.N,GND*%
X74715000Y-76955000D03*
%TO.P,C5,1*%
%TO.N,+1V1*%
X75675000Y-76955000D03*
%TD*%
D20*
%TO.P,C1,1*%
%TO.N,+5V*%
X90407700Y-50254600D03*
%TO.P,C1,2*%
%TO.N,GND*%
X91367700Y-50254600D03*
%TD*%
D24*
%TO.P,D1,1,VDD*%
%TO.N,+5V*%
X107975375Y-73192500D03*
%TO.P,D1,2,DOUT*%
%TO.N,Net-(D1-Pad2)*%
X107975375Y-69992500D03*
%TO.P,D1,3,VSS*%
%TO.N,GND*%
X103075375Y-69992500D03*
%TO.P,D1,4,DIN*%
%TO.N,Net-(D1-Pad4)*%
X103075375Y-73192500D03*
%TD*%
D25*
%TO.P,R5,2*%
%TO.N,D-*%
X74692500Y-73262850D03*
%TO.P,R5,1*%
%TO.N,Net-(R5-Pad1)*%
X75712500Y-73262850D03*
%TD*%
D12*
%TO.P,C21,2*%
%TO.N,GND*%
X62182875Y-75212000D03*
%TO.P,C21,1*%
%TO.N,+5V*%
X63142875Y-75212000D03*
%TD*%
D14*
%TO.P,R6,2*%
%TO.N,QSPI_SS*%
X63770000Y-81810000D03*
%TO.P,R6,1*%
%TO.N,/~{USB_BOOT}*%
X63770000Y-80790000D03*
%TD*%
D20*
%TO.P,C17,1*%
%TO.N,+5V*%
X99580625Y-67084000D03*
%TO.P,C17,2*%
%TO.N,GND*%
X100540625Y-67084000D03*
%TD*%
%TO.P,C10,1*%
%TO.N,+3V3*%
X92186250Y-74545000D03*
%TO.P,C10,2*%
%TO.N,GND*%
X93146250Y-74545000D03*
%TD*%
D26*
%TO.P,F1,1*%
%TO.N,VBUS*%
X88519000Y-46732000D03*
%TO.P,F1,2*%
%TO.N,+5V*%
X88519000Y-47702000D03*
%TD*%
D27*
%TO.P,J2,2,Pin_2*%
%TO.N,/~{USB_BOOT}*%
X61090000Y-81360000D03*
D28*
%TO.P,J2,1,Pin_1*%
%TO.N,GND*%
X61090000Y-78820000D03*
%TD*%
D21*
%TO.P,C12,1*%
%TO.N,+3V3*%
X78676250Y-71599000D03*
%TO.P,C12,2*%
%TO.N,GND*%
X78676250Y-70639000D03*
%TD*%
D25*
%TO.P,R4,2*%
%TO.N,D+*%
X74692500Y-74431250D03*
%TO.P,R4,1*%
%TO.N,Net-(R4-Pad1)*%
X75712500Y-74431250D03*
%TD*%
D13*
%TO.P,R9,1*%
%TO.N,UNDERGLOW*%
X101965375Y-75212000D03*
%TO.P,R9,2*%
%TO.N,Net-(D1-Pad4)*%
X102985375Y-75212000D03*
%TD*%
D12*
%TO.P,C2,1*%
%TO.N,GND*%
X93146250Y-75845000D03*
%TO.P,C2,2*%
%TO.N,XOUT*%
X92186250Y-75845000D03*
%TD*%
D24*
%TO.P,D2,1,VDD*%
%TO.N,+5V*%
X63116375Y-73192500D03*
%TO.P,D2,2,DOUT*%
%TO.N,unconnected-(D2-Pad2)*%
X63116375Y-69992500D03*
%TO.P,D2,3,VSS*%
%TO.N,GND*%
X58216375Y-69992500D03*
%TO.P,D2,4,DIN*%
%TO.N,Net-(D1-Pad2)*%
X58216375Y-73192500D03*
%TD*%
D14*
%TO.P,R3,1*%
%TO.N,/CC2*%
X80645000Y-45974000D03*
%TO.P,R3,2*%
%TO.N,GND*%
X80645000Y-46994000D03*
%TD*%
D20*
%TO.P,C18,1*%
%TO.N,+5V*%
X80530625Y-67084000D03*
%TO.P,C18,2*%
%TO.N,GND*%
X81490625Y-67084000D03*
%TD*%
D10*
%TO.P,LED2,1,VDD*%
%TO.N,+5V*%
X80575375Y-65040000D03*
%TO.P,LED2,2,DOUT*%
%TO.N,Net-(LED2-Pad2)*%
X80575375Y-63540000D03*
%TO.P,LED2,3,DIN*%
%TO.N,Net-(LED1-Pad2)*%
X86025375Y-65040000D03*
D11*
%TO.P,LED2,4,VSS*%
%TO.N,GND*%
X86025375Y-63540000D03*
%TD*%
D29*
%TO.P,U2,1,IO1*%
%TO.N,unconnected-(U2-Pad1)*%
X82168750Y-47183000D03*
%TO.P,U2,2,VN*%
%TO.N,GND*%
X82168750Y-48133000D03*
%TO.P,U2,3,IO2*%
%TO.N,D+*%
X82093750Y-49083000D03*
%TO.P,U2,4,IO3*%
%TO.N,D-*%
X84518750Y-49083000D03*
%TO.P,U2,5,VP*%
%TO.N,+5V*%
X84518750Y-48133000D03*
%TO.P,U2,6,IO4*%
%TO.N,unconnected-(U2-Pad6)*%
X84518750Y-47183000D03*
%TD*%
D20*
%TO.P,C3,1*%
%TO.N,GND*%
X92176250Y-81690000D03*
%TO.P,C3,2*%
%TO.N,XIN*%
X93136250Y-81690000D03*
%TD*%
D30*
%TO.P,SW1,1,1*%
%TO.N,COL0*%
X68060375Y-56670000D03*
D31*
X71610375Y-56670000D03*
D32*
X69885375Y-56670000D03*
D30*
%TO.P,SW1,2,2*%
%TO.N,GND*%
X61710375Y-54130000D03*
D32*
X59910375Y-54130000D03*
D31*
X58160375Y-54130000D03*
%TD*%
%TO.P,SW2,1,1*%
%TO.N,COL1*%
X90660375Y-56670000D03*
D32*
X88935375Y-56670000D03*
D30*
X87110375Y-56670000D03*
D31*
%TO.P,SW2,2,2*%
%TO.N,GND*%
X77210375Y-54130000D03*
D30*
X80760375Y-54130000D03*
D32*
X78960375Y-54130000D03*
%TD*%
D33*
%TO.P,U3,1,GND*%
%TO.N,GND*%
X92277500Y-48690000D03*
%TO.P,U3,2,VO*%
%TO.N,+3V3*%
X92277500Y-46790000D03*
%TO.P,U3,3,VI*%
%TO.N,+5V*%
X90402500Y-47740000D03*
%TD*%
D21*
%TO.P,C9,1*%
%TO.N,+3V3*%
X65218750Y-79581250D03*
%TO.P,C9,2*%
%TO.N,GND*%
X65218750Y-78621250D03*
%TD*%
D10*
%TO.P,LED1,1,VDD*%
%TO.N,+5V*%
X99625375Y-65040000D03*
%TO.P,LED1,2,DOUT*%
%TO.N,Net-(LED1-Pad2)*%
X99625375Y-63540000D03*
%TO.P,LED1,3,DIN*%
%TO.N,Net-(LED1-Pad3)*%
X105075375Y-65040000D03*
D11*
%TO.P,LED1,4,VSS*%
%TO.N,GND*%
X105075375Y-63540000D03*
%TD*%
D20*
%TO.P,C19,1*%
%TO.N,+5V*%
X61480625Y-67084000D03*
%TO.P,C19,2*%
%TO.N,GND*%
X62440625Y-67084000D03*
%TD*%
D12*
%TO.P,C13,2*%
%TO.N,GND*%
X74715000Y-75939000D03*
%TO.P,C13,1*%
%TO.N,+3V3*%
X75675000Y-75939000D03*
%TD*%
D31*
%TO.P,SW3,1,1*%
%TO.N,COL2*%
X109710375Y-56670000D03*
D32*
X107985375Y-56670000D03*
D30*
X106160375Y-56670000D03*
%TO.P,SW3,2,2*%
%TO.N,GND*%
X99810375Y-54130000D03*
D32*
X98010375Y-54130000D03*
D31*
X96260375Y-54130000D03*
%TD*%
D34*
%TO.P,R7,2*%
%TO.N,+3V3*%
X65041625Y-80786250D03*
%TO.P,R7,1*%
%TO.N,QSPI_SS*%
X65041625Y-81806250D03*
%TD*%
D23*
%TO.P,C14,1*%
%TO.N,+3V3*%
X84249375Y-81340750D03*
%TO.P,C14,2*%
%TO.N,GND*%
X84249375Y-82300750D03*
%TD*%
D35*
%TO.P,J1,A1,GND*%
%TO.N,GND*%
X86593750Y-43732500D03*
%TO.P,J1,A4,VBUS*%
%TO.N,VBUS*%
X85793750Y-43732500D03*
D36*
%TO.P,J1,A5,CC1*%
%TO.N,/CC1*%
X84593750Y-43732500D03*
%TO.P,J1,A6,D+*%
%TO.N,D+*%
X83593750Y-43732500D03*
%TO.P,J1,A7,D-*%
%TO.N,D-*%
X83093750Y-43732500D03*
%TO.P,J1,A8,SBU1*%
%TO.N,unconnected-(J1-PadA8)*%
X82093750Y-43732500D03*
D35*
%TO.P,J1,A9,VBUS*%
%TO.N,VBUS*%
X80893750Y-43732500D03*
%TO.P,J1,A12,GND*%
%TO.N,GND*%
X80093750Y-43732500D03*
%TO.P,J1,B1,GND*%
X80093750Y-43732500D03*
%TO.P,J1,B4,VBUS*%
%TO.N,VBUS*%
X80893750Y-43732500D03*
D36*
%TO.P,J1,B5,CC2*%
%TO.N,/CC2*%
X81593750Y-43732500D03*
%TO.P,J1,B6,D+*%
%TO.N,D+*%
X82593750Y-43732500D03*
%TO.P,J1,B7,D-*%
%TO.N,D-*%
X84093750Y-43732500D03*
%TO.P,J1,B8,SBU2*%
%TO.N,unconnected-(J1-PadB8)*%
X85093750Y-43732500D03*
D35*
%TO.P,J1,B9,VBUS*%
%TO.N,VBUS*%
X85793750Y-43732500D03*
%TO.P,J1,B12,GND*%
%TO.N,GND*%
X86593750Y-43732500D03*
D37*
%TO.P,J1,S1,SHIELD*%
X79023750Y-38637500D03*
X87663750Y-38637500D03*
D38*
X79023750Y-42817500D03*
X87663750Y-42817500D03*
%TD*%
D39*
%TO.N,+1V1*%
X85096710Y-78497649D03*
X81090000Y-77720000D03*
X78330000Y-73710000D03*
%TO.N,COL0*%
X80120000Y-69520000D03*
%TO.N,+1V1*%
X89547089Y-75696339D03*
%TO.N,GND*%
X69510000Y-82430000D03*
D40*
%TO.N,+5V*%
X111331625Y-73155000D03*
X56429114Y-74082511D03*
%TO.N,GND*%
X87884000Y-45212000D03*
D39*
X56081625Y-54155000D03*
X94206625Y-54130000D03*
X73750000Y-76980000D03*
X106406625Y-63530000D03*
X101481625Y-67080000D03*
X87531625Y-63555000D03*
X84253375Y-83198750D03*
X88111250Y-77865000D03*
X103056625Y-68930000D03*
X77618875Y-70713750D03*
X63456625Y-67080000D03*
X58231625Y-68905000D03*
X65223750Y-77546250D03*
X73538750Y-70648750D03*
X61156625Y-75205000D03*
X82456625Y-67094020D03*
D40*
X87122000Y-47244000D03*
D39*
X68331625Y-63580000D03*
X74931625Y-54155000D03*
X94186250Y-73415000D03*
X106156625Y-75230000D03*
X85260000Y-70810000D03*
%TO.N,SWITCHLED*%
X82976625Y-69510000D03*
X103266625Y-67070000D03*
%TO.N,COL0*%
X71996625Y-59170000D03*
%TO.N,COL1*%
X90596625Y-59550000D03*
X80996625Y-69520000D03*
%TO.N,COL2*%
X109816625Y-59460000D03*
X81876625Y-69490000D03*
%TD*%
D41*
%TO.N,+3V3*%
X80680000Y-79946250D02*
X80680000Y-79130000D01*
X84280000Y-79946250D02*
X84280000Y-79180000D01*
%TO.N,+1V1*%
X79842500Y-76708750D02*
X81088750Y-76708750D01*
X78330000Y-73728045D02*
X79310705Y-74708750D01*
X78330000Y-73710000D02*
X78330000Y-73728045D01*
X76315000Y-71695000D02*
X78330000Y-73710000D01*
X75675000Y-71695000D02*
X76315000Y-71695000D01*
X79842020Y-76708270D02*
X79842500Y-76708750D01*
X75921730Y-76708270D02*
X79842020Y-76708270D01*
X75675000Y-76955000D02*
X75921730Y-76708270D01*
D42*
%TO.N,D+*%
X83130000Y-49940000D02*
X82273000Y-49083000D01*
X83130000Y-50593572D02*
X83130000Y-49940000D01*
X82393092Y-51330480D02*
X83130000Y-50593572D01*
X56323093Y-51330480D02*
X82393092Y-51330480D01*
X54932595Y-52720978D02*
X56323093Y-51330480D01*
X54932595Y-74832595D02*
X54932595Y-52720978D01*
X56529519Y-76429519D02*
X54932595Y-74832595D01*
X69570001Y-76429519D02*
X56529519Y-76429519D01*
X71960000Y-74039520D02*
X69570001Y-76429519D01*
X73427020Y-74039520D02*
X71960000Y-74039520D01*
X73818750Y-74431250D02*
X73427020Y-74039520D01*
X74692500Y-74431250D02*
X73818750Y-74431250D01*
%TO.N,D-*%
X73550000Y-73540000D02*
X71750000Y-73540000D01*
X71750000Y-73540000D02*
X69360000Y-75930000D01*
X69360000Y-75930000D02*
X56750000Y-75930000D01*
X73827150Y-73262850D02*
X73550000Y-73540000D01*
X83630000Y-49971750D02*
X84518750Y-49083000D01*
X83630000Y-50800000D02*
X83630000Y-49971750D01*
X82600000Y-51830000D02*
X83630000Y-50800000D01*
X55432114Y-52927886D02*
X56530000Y-51830000D01*
X56530000Y-51830000D02*
X82600000Y-51830000D01*
X56750000Y-75930000D02*
X55432114Y-74612114D01*
X55432114Y-74612114D02*
X55432114Y-52927886D01*
X74692500Y-73262850D02*
X73827150Y-73262850D01*
D41*
%TO.N,D+*%
X82273000Y-49083000D02*
X82093750Y-49083000D01*
%TO.N,+1V1*%
X86717500Y-75908750D02*
X89334678Y-75908750D01*
X89334678Y-75908750D02*
X89547089Y-75696339D01*
%TO.N,GND*%
X93146250Y-77275000D02*
X92806250Y-77615000D01*
X93146250Y-75845000D02*
X93146250Y-77275000D01*
%TO.N,COL0*%
X81080000Y-70480000D02*
X80120000Y-69520000D01*
X81080000Y-73071250D02*
X81080000Y-70480000D01*
%TO.N,GND*%
X94011250Y-78820000D02*
X92806250Y-77615000D01*
X92806250Y-77813750D02*
X91106250Y-79513750D01*
X91106250Y-79513750D02*
X91106250Y-79815000D01*
X94011250Y-82015000D02*
X94011250Y-78820000D01*
D43*
X80000480Y-46349480D02*
X80645000Y-46994000D01*
X80000480Y-43825770D02*
X80000480Y-46349480D01*
X80093750Y-43732500D02*
X80000480Y-43825770D01*
D41*
%TO.N,SD0*%
X78471250Y-77908750D02*
X79842500Y-77908750D01*
%TO.N,+1V1*%
X91818428Y-73425000D02*
X89547089Y-75696339D01*
X92186250Y-73425000D02*
X91818428Y-73425000D01*
%TO.N,XOUT*%
X91106250Y-77615000D02*
X91106250Y-76925000D01*
X91106250Y-76925000D02*
X92186250Y-75845000D01*
%TO.N,+3V3*%
X84280000Y-81310125D02*
X84280000Y-79946250D01*
X84249375Y-81340750D02*
X84280000Y-81310125D01*
%TO.N,QSPI_SS*%
X65140528Y-81806250D02*
X66147139Y-82812861D01*
X66147139Y-82812861D02*
X66060480Y-82726203D01*
X65041625Y-81806250D02*
X65140528Y-81806250D01*
X67284514Y-83950237D02*
X66147139Y-82812861D01*
%TO.N,/~{USB_BOOT}*%
X63490000Y-80790000D02*
X63770000Y-80790000D01*
X62920000Y-81360000D02*
X63490000Y-80790000D01*
%TO.N,GND*%
X63545000Y-78820000D02*
X63743750Y-78621250D01*
X61090000Y-78820000D02*
X63545000Y-78820000D01*
%TO.N,QSPI_SS*%
X67605000Y-78635000D02*
X67780000Y-78635000D01*
X66060480Y-82726203D02*
X66060480Y-80179520D01*
X66060480Y-80179520D02*
X67605000Y-78635000D01*
X76109763Y-83950237D02*
X67284514Y-83950237D01*
X77843439Y-82216561D02*
X76109763Y-83950237D01*
X79076256Y-79108750D02*
X77843439Y-80341567D01*
X77843439Y-80341567D02*
X77843439Y-82216561D01*
X79842500Y-79108750D02*
X79076256Y-79108750D01*
%TO.N,SD1*%
X75917121Y-83550717D02*
X75360717Y-83550717D01*
X77443919Y-82023919D02*
X75917121Y-83550717D01*
X78911250Y-78708750D02*
X77443919Y-80176081D01*
X79842500Y-78708750D02*
X78911250Y-78708750D01*
X77443919Y-80176081D02*
X77443919Y-82023919D01*
X67450000Y-83550717D02*
X75360717Y-83550717D01*
%TO.N,SD2*%
X72185000Y-81175000D02*
X67780000Y-81175000D01*
X75816197Y-83044520D02*
X74054520Y-83044520D01*
X77044399Y-79900607D02*
X77044399Y-81816318D01*
X77044399Y-81816318D02*
X75816197Y-83044520D01*
X74054520Y-83044520D02*
X72185000Y-81175000D01*
X79842500Y-78308750D02*
X78636256Y-78308750D01*
X78636256Y-78308750D02*
X77044399Y-79900607D01*
%TO.N,SD0*%
X75394758Y-82445000D02*
X74980000Y-82445000D01*
X76644879Y-81194879D02*
X75394758Y-82445000D01*
X76644879Y-79735121D02*
X76644879Y-81194879D01*
X78471250Y-77908750D02*
X76644879Y-79735121D01*
%TO.N,QSPI_SCLK*%
X75145717Y-81175000D02*
X74980000Y-81175000D01*
X76245359Y-80075359D02*
X75145717Y-81175000D01*
X78306256Y-77508750D02*
X76245359Y-79569647D01*
X79842500Y-77508750D02*
X78306256Y-77508750D01*
X76245359Y-79569647D02*
X76245359Y-80075359D01*
%TO.N,SD3*%
X75345000Y-79905000D02*
X74980000Y-79905000D01*
X78141730Y-77108270D02*
X75345000Y-79905000D01*
X79842020Y-77108270D02*
X78141730Y-77108270D01*
X79842500Y-77108750D02*
X79842020Y-77108270D01*
%TO.N,GND*%
X65218750Y-78621250D02*
X65218750Y-77551250D01*
%TO.N,/~{USB_BOOT}*%
X62920000Y-81360000D02*
X61090000Y-81360000D01*
%TO.N,Net-(R5-Pad1)*%
X78699230Y-75109230D02*
X79842020Y-75109230D01*
X77275480Y-73685480D02*
X78699230Y-75109230D01*
X76719230Y-73685480D02*
X77275480Y-73685480D01*
%TO.N,Net-(R4-Pad1)*%
X78528750Y-75508750D02*
X77105000Y-74085000D01*
X76718750Y-74085000D02*
X77105000Y-74085000D01*
%TO.N,+3V3*%
X77888750Y-75908750D02*
X78288750Y-76308750D01*
X78288750Y-76308750D02*
X79842500Y-76308750D01*
X77888750Y-75908750D02*
X75705250Y-75908750D01*
X79842500Y-75908750D02*
X77888750Y-75908750D01*
X75705250Y-75908750D02*
X75675000Y-75939000D01*
%TO.N,SD1*%
X66460000Y-82560717D02*
X67450000Y-83550717D01*
X66460000Y-80490000D02*
X66460000Y-82560717D01*
X67780000Y-79905000D02*
X67045000Y-79905000D01*
X67045000Y-79905000D02*
X66460000Y-80490000D01*
%TO.N,GND*%
X67780000Y-82445000D02*
X69495000Y-82445000D01*
%TO.N,Net-(R5-Pad1)*%
X75712500Y-73262850D02*
X76296600Y-73262850D01*
X76296600Y-73262850D02*
X76719230Y-73685480D01*
%TO.N,Net-(R4-Pad1)*%
X78558750Y-75508750D02*
X79842500Y-75508750D01*
X76372500Y-74431250D02*
X76718750Y-74085000D01*
X75712500Y-74431250D02*
X76372500Y-74431250D01*
%TO.N,+1V1*%
X79310705Y-74708750D02*
X79842500Y-74708750D01*
%TO.N,+3V3*%
X84264250Y-71770000D02*
X84280000Y-71785750D01*
X84280000Y-71785750D02*
X84280000Y-73071250D01*
%TO.N,COL2*%
X81880000Y-73071250D02*
X81880000Y-69493375D01*
X81880000Y-69493375D02*
X81876625Y-69490000D01*
D43*
%TO.N,GND*%
X79178750Y-42817500D02*
X80093750Y-43732500D01*
X79023750Y-42817500D02*
X79178750Y-42817500D01*
D44*
%TO.N,+5V*%
X99625375Y-67039250D02*
X99580625Y-67084000D01*
X61525375Y-65040000D02*
X61525375Y-67039250D01*
X90364500Y-47702000D02*
X90402500Y-47740000D01*
X56429114Y-68507511D02*
X57852625Y-67084000D01*
X98880605Y-67784020D02*
X99580625Y-67084000D01*
X90407700Y-50254600D02*
X90407700Y-47745200D01*
X63116375Y-73192500D02*
X63116375Y-75185500D01*
X88519000Y-47702000D02*
X90364500Y-47702000D01*
X99625375Y-65040000D02*
X99625375Y-67039250D01*
X84518750Y-48133000D02*
X88088000Y-48133000D01*
X61480625Y-67084000D02*
X61480625Y-67183561D01*
X56429114Y-74082511D02*
X56429114Y-68507511D01*
X61480625Y-67183561D02*
X62081084Y-67784020D01*
X61525375Y-67039250D02*
X61480625Y-67084000D01*
X80575375Y-67039250D02*
X80530625Y-67084000D01*
X90407700Y-47745200D02*
X90402500Y-47740000D01*
X111294125Y-73192500D02*
X111331625Y-73155000D01*
X90985000Y-51305000D02*
X109381625Y-51305000D01*
X88088000Y-48133000D02*
X88519000Y-47702000D01*
X80530625Y-67183561D02*
X81131084Y-67784020D01*
X90407700Y-50727700D02*
X90985000Y-51305000D01*
X109381625Y-51305000D02*
X111375395Y-53298770D01*
X79830605Y-67784020D02*
X80530625Y-67084000D01*
X107975375Y-73192500D02*
X107975375Y-75122000D01*
X62081084Y-67784020D02*
X79830605Y-67784020D01*
X111375395Y-53298770D02*
X111375395Y-73111230D01*
X80530625Y-67084000D02*
X80530625Y-67183561D01*
X111375395Y-73111230D02*
X111331625Y-73155000D01*
X81131084Y-67784020D02*
X98880605Y-67784020D01*
X56429114Y-74082511D02*
X62226364Y-74082511D01*
X107975375Y-73192500D02*
X111294125Y-73192500D01*
X90407700Y-50254600D02*
X90407700Y-50727700D01*
X107975375Y-75122000D02*
X108065375Y-75212000D01*
X80575375Y-65040000D02*
X80575375Y-67039250D01*
X62226364Y-74082511D02*
X63116375Y-73192500D01*
X57852625Y-67084000D02*
X61480625Y-67084000D01*
X63116375Y-75185500D02*
X63142875Y-75212000D01*
D41*
%TO.N,GND*%
X74715000Y-75939000D02*
X74715000Y-76955000D01*
X62440625Y-67084000D02*
X63452625Y-67084000D01*
X92176250Y-81690000D02*
X92176250Y-82321625D01*
X77210375Y-54130000D02*
X74956625Y-54130000D01*
X78682875Y-70648750D02*
X77683875Y-70648750D01*
X84264250Y-70810000D02*
X85260000Y-70810000D01*
X103075375Y-68948750D02*
X103056625Y-68930000D01*
D44*
X86106000Y-46992000D02*
X86870000Y-46992000D01*
D41*
X58160375Y-54130000D02*
X56106625Y-54130000D01*
X73775000Y-76955000D02*
X73750000Y-76980000D01*
X74956625Y-54130000D02*
X74931625Y-54155000D01*
X74715000Y-76955000D02*
X73775000Y-76955000D01*
X58216375Y-68920250D02*
X58231625Y-68905000D01*
X84221375Y-82328750D02*
X84249375Y-82300750D01*
X96260375Y-54130000D02*
X94206625Y-54130000D01*
D43*
X81784000Y-48133000D02*
X80645000Y-46994000D01*
D41*
X62182875Y-75212000D02*
X61163625Y-75212000D01*
X63743750Y-78621250D02*
X65218750Y-78621250D01*
X92277500Y-48241783D02*
X92277500Y-48690000D01*
X93547500Y-82478750D02*
X94011250Y-82015000D01*
D44*
X92277500Y-49344800D02*
X91367700Y-50254600D01*
D41*
X93146250Y-73425000D02*
X93146250Y-75845000D01*
X103075375Y-69992500D02*
X103075375Y-68948750D01*
X93146250Y-73425000D02*
X94176250Y-73425000D01*
X68291625Y-63540000D02*
X68331625Y-63580000D01*
X81490625Y-67084000D02*
X82446605Y-67084000D01*
X107105375Y-75212000D02*
X106174625Y-75212000D01*
X74715000Y-70628200D02*
X73541800Y-70628200D01*
D44*
X87884000Y-45022750D02*
X86593750Y-43732500D01*
D41*
X84249375Y-82300750D02*
X84249375Y-83222750D01*
D43*
X82168750Y-48133000D02*
X81784000Y-48133000D01*
D41*
X105075375Y-63540000D02*
X106396625Y-63540000D01*
X63452625Y-67084000D02*
X63456625Y-67080000D01*
D43*
X87663750Y-38637500D02*
X79023750Y-38637500D01*
D41*
X80693375Y-82328750D02*
X84221375Y-82328750D01*
X92277500Y-48241783D02*
X89247717Y-45212000D01*
X78676250Y-70639000D02*
X79946250Y-70639000D01*
D44*
X92277500Y-48690000D02*
X92277500Y-49344800D01*
X87884000Y-45212000D02*
X87884000Y-45022750D01*
D41*
X101477625Y-67084000D02*
X101481625Y-67080000D01*
X106174625Y-75212000D02*
X106156625Y-75230000D01*
X86717500Y-77508750D02*
X87755000Y-77508750D01*
X56106625Y-54130000D02*
X56081625Y-54155000D01*
X89247717Y-45212000D02*
X87884000Y-45212000D01*
X82446605Y-67084000D02*
X82456625Y-67094020D01*
D44*
X86870000Y-46992000D02*
X87122000Y-47244000D01*
D41*
X87755000Y-77508750D02*
X88111250Y-77865000D01*
X87516625Y-63540000D02*
X87531625Y-63555000D01*
X106396625Y-63540000D02*
X106406625Y-63530000D01*
D43*
X79023750Y-38637500D02*
X79023750Y-42817500D01*
D41*
X86025375Y-63540000D02*
X87516625Y-63540000D01*
X100540625Y-67084000D02*
X101477625Y-67084000D01*
X94176250Y-73425000D02*
X94186250Y-73415000D01*
X74715000Y-70628200D02*
X74715000Y-71695000D01*
X58216375Y-69992500D02*
X58216375Y-68920250D01*
D43*
X86593750Y-43732500D02*
X86748750Y-43732500D01*
D41*
X66975375Y-63540000D02*
X68291625Y-63540000D01*
X61163625Y-75212000D02*
X61156625Y-75205000D01*
X92333375Y-82478750D02*
X93547500Y-82478750D01*
X92176250Y-82321625D02*
X92333375Y-82478750D01*
D43*
X86748750Y-43732500D02*
X87663750Y-42817500D01*
X87663750Y-42817500D02*
X87663750Y-38637500D01*
D41*
%TO.N,XOUT*%
X91106250Y-77615000D02*
X90200000Y-76708750D01*
X90200000Y-76708750D02*
X86717500Y-76708750D01*
%TO.N,XIN*%
X91776250Y-80935000D02*
X92806250Y-79905000D01*
X93136250Y-81690000D02*
X92806250Y-81360000D01*
X89986250Y-77382500D02*
X89986250Y-80475000D01*
X92846250Y-79855000D02*
X92806250Y-79815000D01*
X92806250Y-81360000D02*
X92806250Y-79815000D01*
X90446250Y-80935000D02*
X91776250Y-80935000D01*
X86717500Y-77108750D02*
X89712500Y-77108750D01*
X92806250Y-79905000D02*
X92806250Y-79815000D01*
X89986250Y-80475000D02*
X90446250Y-80935000D01*
X89712500Y-77108750D02*
X89986250Y-77382500D01*
%TO.N,+3V3*%
X80680000Y-73071250D02*
X80680000Y-73858750D01*
X79842500Y-74308750D02*
X80230000Y-74308750D01*
X80680000Y-79946250D02*
X80680000Y-81330750D01*
D45*
X109840000Y-78200000D02*
X95770000Y-78200000D01*
X112330000Y-75710000D02*
X109840000Y-78200000D01*
D41*
X86717500Y-76308750D02*
X85867500Y-76308750D01*
X91546250Y-74545000D02*
X92186250Y-74545000D01*
D45*
X109870000Y-50340000D02*
X112330000Y-52800000D01*
D41*
X86717500Y-76308750D02*
X89782500Y-76308750D01*
D45*
X95930000Y-50340000D02*
X109870000Y-50340000D01*
D41*
X79842500Y-71702750D02*
X79946250Y-71599000D01*
D45*
X95930000Y-50340000D02*
X92380000Y-46790000D01*
D41*
X89782500Y-76308750D02*
X91546250Y-74545000D01*
X63743750Y-79581250D02*
X65218750Y-79581250D01*
X85867500Y-76308750D02*
X85761250Y-76415000D01*
D45*
X112330000Y-52800000D02*
X112330000Y-75710000D01*
D41*
X80680000Y-81330750D02*
X80708250Y-81359000D01*
X79842500Y-73908750D02*
X79842500Y-71702750D01*
X80230000Y-74308750D02*
X80680000Y-73858750D01*
X80680000Y-73858750D02*
X80630000Y-73908750D01*
X65323750Y-79686250D02*
X65218750Y-79581250D01*
X79842500Y-74308750D02*
X79842500Y-73908750D01*
D45*
X92380000Y-46790000D02*
X92277500Y-46790000D01*
D41*
X80630000Y-73908750D02*
X79842500Y-73908750D01*
%TO.N,Net-(D1-Pad4)*%
X103075375Y-75122000D02*
X102985375Y-75212000D01*
X103075375Y-73192500D02*
X103075375Y-75122000D01*
D44*
%TO.N,VBUS*%
X81895173Y-41927981D02*
X80893750Y-42929404D01*
X85793750Y-42929404D02*
X84792327Y-41927981D01*
X87928490Y-46732000D02*
X88519000Y-46732000D01*
X85793750Y-43732500D02*
X85793750Y-42929404D01*
X80893750Y-42929404D02*
X80893750Y-43732500D01*
X85793750Y-43732500D02*
X85793750Y-44597260D01*
X85793750Y-44597260D02*
X87928490Y-46732000D01*
X84792327Y-41927981D02*
X81895173Y-41927981D01*
D43*
%TO.N,/CC1*%
X85809228Y-45972000D02*
X86106000Y-45972000D01*
X84593750Y-43732500D02*
X84593750Y-44756522D01*
X84593750Y-44756522D02*
X85809228Y-45972000D01*
D41*
%TO.N,D+*%
X82093750Y-49083000D02*
X82503921Y-49083000D01*
X83093270Y-45206042D02*
X83093270Y-48469197D01*
X83058000Y-45170772D02*
X83593750Y-44635022D01*
X83058000Y-45170772D02*
X83093270Y-45206042D01*
X82479467Y-49083000D02*
X82093750Y-49083000D01*
X82593750Y-44706522D02*
X83058000Y-45170772D01*
X82593750Y-43732500D02*
X82593750Y-44706522D01*
X83093270Y-48469197D02*
X82479467Y-49083000D01*
X83593750Y-44635022D02*
X83593750Y-43732500D01*
%TO.N,D-*%
X84093750Y-43732500D02*
X84093750Y-44938250D01*
X84093750Y-42758478D02*
X84093750Y-43732500D01*
X84208033Y-49083000D02*
X84518750Y-49083000D01*
X83753272Y-42418000D02*
X84093750Y-42758478D01*
X83594230Y-45437770D02*
X83594230Y-48469197D01*
X83093750Y-43732500D02*
X83093750Y-42758478D01*
X83093750Y-42758478D02*
X83434228Y-42418000D01*
X83434228Y-42418000D02*
X83753272Y-42418000D01*
X84093750Y-44938250D02*
X83594230Y-45437770D01*
X83594230Y-48469197D02*
X84208033Y-49083000D01*
D43*
%TO.N,/CC2*%
X80645000Y-45656250D02*
X80645000Y-45974000D01*
X81593750Y-43732500D02*
X81593750Y-44707500D01*
X81593750Y-44707500D02*
X80645000Y-45656250D01*
D41*
%TO.N,Net-(LED1-Pad2)*%
X86025375Y-65040000D02*
X98125375Y-65040000D01*
X98125375Y-65040000D02*
X99625375Y-63540000D01*
%TO.N,Net-(LED1-Pad3)*%
X105075375Y-65040000D02*
X105075375Y-66534750D01*
X105075375Y-66534750D02*
X105624625Y-67084000D01*
%TO.N,Net-(LED2-Pad2)*%
X79075375Y-65040000D02*
X80575375Y-63540000D01*
X66975375Y-65040000D02*
X79075375Y-65040000D01*
%TO.N,~{RESET}*%
X86717500Y-74708750D02*
X89040000Y-74708750D01*
X89040000Y-74708750D02*
X89046250Y-74715000D01*
%TO.N,QSPI_SS*%
X63773750Y-81806250D02*
X65041625Y-81806250D01*
X63773750Y-81806250D02*
X63770000Y-81810000D01*
%TO.N,SWITCHLED*%
X103266625Y-67070000D02*
X104590625Y-67070000D01*
X104590625Y-67070000D02*
X104604625Y-67084000D01*
X82790000Y-69510000D02*
X82976625Y-69510000D01*
X82280000Y-70020000D02*
X82790000Y-69510000D01*
X82280000Y-73071250D02*
X82280000Y-70020000D01*
%TO.N,UNDERGLOW*%
X96793375Y-70040000D02*
X101965375Y-75212000D01*
X83440000Y-70040000D02*
X96793375Y-70040000D01*
X82680000Y-73071250D02*
X82680000Y-70800000D01*
X82680000Y-70800000D02*
X83440000Y-70040000D01*
%TO.N,COL0*%
X71996625Y-59170000D02*
X71996625Y-57056250D01*
X71996625Y-57056250D02*
X71610375Y-56670000D01*
%TO.N,COL1*%
X90596625Y-59550000D02*
X90596625Y-56733750D01*
X81480000Y-73071250D02*
X81480000Y-70003375D01*
X81480000Y-70003375D02*
X80996625Y-69520000D01*
X90596625Y-56733750D02*
X90660375Y-56670000D01*
%TO.N,COL2*%
X109816625Y-56776250D02*
X109710375Y-56670000D01*
X109816625Y-59460000D02*
X109816625Y-56776250D01*
%TO.N,Net-(D1-Pad2)*%
X106256915Y-68274040D02*
X107975375Y-69992500D01*
X63134835Y-68274040D02*
X106256915Y-68274040D01*
X58216375Y-73192500D02*
X63134835Y-68274040D01*
%TD*%
%TA.AperFunction,Conductor*%
%TO.N,+1V1*%
G36*
X81453067Y-76607313D02*
G01*
X81478377Y-76651150D01*
X81479501Y-76663995D01*
X81479501Y-78005112D01*
X81479818Y-78007521D01*
X81479842Y-78007885D01*
X81480000Y-78012725D01*
X81480000Y-78320000D01*
X84740000Y-78320000D01*
X84749438Y-78313217D01*
X84750691Y-78312813D01*
X84771531Y-78309539D01*
X84771522Y-78309407D01*
X84772981Y-78309311D01*
X84773378Y-78309249D01*
X84776362Y-78309249D01*
X84778769Y-78308932D01*
X84778771Y-78308932D01*
X84820927Y-78303383D01*
X84820929Y-78303383D01*
X84826539Y-78302644D01*
X84936645Y-78251301D01*
X85022551Y-78165395D01*
X85025285Y-78159532D01*
X85025287Y-78159529D01*
X85037785Y-78132726D01*
X85073579Y-78096933D01*
X85104852Y-78090000D01*
X85386000Y-78090000D01*
X85433566Y-78107313D01*
X85458876Y-78151150D01*
X85460000Y-78164000D01*
X85460000Y-78726000D01*
X85442687Y-78773566D01*
X85398850Y-78798876D01*
X85386000Y-78800000D01*
X81074000Y-78800000D01*
X81026434Y-78782687D01*
X81001124Y-78738850D01*
X81000000Y-78726000D01*
X81000000Y-78120000D01*
X80602426Y-78111541D01*
X80555239Y-78093221D01*
X80530867Y-78048855D01*
X80530000Y-78037558D01*
X80530000Y-76664000D01*
X80547313Y-76616434D01*
X80591150Y-76591124D01*
X80604000Y-76590000D01*
X81405501Y-76590000D01*
X81453067Y-76607313D01*
G37*
%TD.AperFunction*%
%TD*%
%TA.AperFunction,Conductor*%
%TO.N,+3V3*%
G36*
X102498811Y-68704796D02*
G01*
X102546351Y-68722175D01*
X102571599Y-68766048D01*
X102571824Y-68790179D01*
X102551016Y-68923823D01*
X102551699Y-68929046D01*
X102551699Y-68929049D01*
X102552198Y-68932862D01*
X102569605Y-69065979D01*
X102595544Y-69124930D01*
X102623382Y-69188197D01*
X102626693Y-69238707D01*
X102596761Y-69279529D01*
X102555649Y-69292000D01*
X102305627Y-69292000D01*
X102302058Y-69292710D01*
X102302057Y-69292710D01*
X102291670Y-69294776D01*
X102247144Y-69303633D01*
X102180823Y-69347948D01*
X102176773Y-69354009D01*
X102155660Y-69385607D01*
X102136508Y-69414269D01*
X102124875Y-69472752D01*
X102124875Y-70512248D01*
X102136508Y-70570731D01*
X102180823Y-70637052D01*
X102186884Y-70641102D01*
X102235067Y-70673297D01*
X102247144Y-70681367D01*
X102291670Y-70690224D01*
X102302057Y-70692290D01*
X102302058Y-70692290D01*
X102305627Y-70693000D01*
X103845123Y-70693000D01*
X103848692Y-70692290D01*
X103848693Y-70692290D01*
X103859080Y-70690224D01*
X103903606Y-70681367D01*
X103915684Y-70673297D01*
X103963866Y-70641102D01*
X103969927Y-70637052D01*
X104014242Y-70570731D01*
X104025875Y-70512248D01*
X104025875Y-69472752D01*
X104014242Y-69414269D01*
X103995091Y-69385607D01*
X103973977Y-69354009D01*
X103969927Y-69347948D01*
X103903606Y-69303633D01*
X103859080Y-69294776D01*
X103848693Y-69292710D01*
X103848692Y-69292710D01*
X103845123Y-69292000D01*
X103555511Y-69292000D01*
X103507945Y-69274687D01*
X103482635Y-69230850D01*
X103488915Y-69185737D01*
X103538335Y-69083733D01*
X103562121Y-68942354D01*
X103562272Y-68930000D01*
X103557807Y-68898823D01*
X103542346Y-68790859D01*
X103552741Y-68741319D01*
X103592548Y-68710051D01*
X103615700Y-68706369D01*
X106237420Y-68710063D01*
X106284961Y-68727443D01*
X106289641Y-68731737D01*
X107003201Y-69445297D01*
X107024593Y-69491173D01*
X107024875Y-69497623D01*
X107024875Y-70512248D01*
X107036508Y-70570731D01*
X107080823Y-70637052D01*
X107086884Y-70641102D01*
X107135067Y-70673297D01*
X107147144Y-70681367D01*
X107191670Y-70690224D01*
X107202057Y-70692290D01*
X107202058Y-70692290D01*
X107205627Y-70693000D01*
X108745123Y-70693000D01*
X108748692Y-70692290D01*
X108748693Y-70692290D01*
X108759080Y-70690224D01*
X108803606Y-70681367D01*
X108815684Y-70673297D01*
X108863866Y-70641102D01*
X108869927Y-70637052D01*
X108914242Y-70570731D01*
X108925875Y-70512248D01*
X108925875Y-69472752D01*
X108914242Y-69414269D01*
X108895091Y-69385607D01*
X108873977Y-69354009D01*
X108869927Y-69347948D01*
X108803606Y-69303633D01*
X108759080Y-69294776D01*
X108748693Y-69292710D01*
X108748692Y-69292710D01*
X108745123Y-69292000D01*
X107730498Y-69292000D01*
X107682932Y-69274687D01*
X107678172Y-69270326D01*
X107245730Y-68837884D01*
X107224338Y-68792008D01*
X107237439Y-68743113D01*
X107278903Y-68714079D01*
X107298160Y-68711558D01*
X110910499Y-68716648D01*
X110958041Y-68734028D01*
X110983289Y-68777901D01*
X110984395Y-68790648D01*
X110984395Y-72628033D01*
X110967082Y-72675599D01*
X110955451Y-72686735D01*
X110903343Y-72726718D01*
X110868175Y-72772550D01*
X110825486Y-72799746D01*
X110809469Y-72801500D01*
X108999875Y-72801500D01*
X108952309Y-72784187D01*
X108926999Y-72740350D01*
X108925875Y-72727500D01*
X108925875Y-72672752D01*
X108914242Y-72614269D01*
X108869927Y-72547948D01*
X108803606Y-72503633D01*
X108759080Y-72494776D01*
X108748693Y-72492710D01*
X108748692Y-72492710D01*
X108745123Y-72492000D01*
X107205627Y-72492000D01*
X107202058Y-72492710D01*
X107202057Y-72492710D01*
X107191670Y-72494776D01*
X107147144Y-72503633D01*
X107080823Y-72547948D01*
X107036508Y-72614269D01*
X107024875Y-72672752D01*
X107024875Y-73712248D01*
X107036508Y-73770731D01*
X107040559Y-73776793D01*
X107040559Y-73776794D01*
X107062405Y-73809488D01*
X107080823Y-73837052D01*
X107086884Y-73841102D01*
X107132213Y-73871390D01*
X107147144Y-73881367D01*
X107181310Y-73888163D01*
X107202057Y-73892290D01*
X107202058Y-73892290D01*
X107205627Y-73893000D01*
X107510375Y-73893000D01*
X107557941Y-73910313D01*
X107583251Y-73954150D01*
X107584375Y-73967000D01*
X107584375Y-74720808D01*
X107567062Y-74768374D01*
X107523225Y-74793684D01*
X107473375Y-74784894D01*
X107458049Y-74773134D01*
X107443691Y-74758776D01*
X107334862Y-74708028D01*
X107285276Y-74701500D01*
X107105450Y-74701500D01*
X106925475Y-74701501D01*
X106923068Y-74701818D01*
X106923065Y-74701818D01*
X106881500Y-74707289D01*
X106881498Y-74707290D01*
X106875888Y-74708028D01*
X106870761Y-74710419D01*
X106870760Y-74710419D01*
X106848481Y-74720808D01*
X106767059Y-74758776D01*
X106682151Y-74843684D01*
X106679416Y-74849549D01*
X106679412Y-74849555D01*
X106670450Y-74868774D01*
X106634657Y-74904567D01*
X106603384Y-74911500D01*
X106576830Y-74911500D01*
X106529264Y-74894187D01*
X106520770Y-74885804D01*
X106492466Y-74852956D01*
X106492465Y-74852955D01*
X106489025Y-74848963D01*
X106484606Y-74846099D01*
X106484604Y-74846097D01*
X106431464Y-74811654D01*
X106368720Y-74770985D01*
X106260355Y-74738577D01*
X106236417Y-74731418D01*
X106236416Y-74731418D01*
X106231364Y-74729907D01*
X106157728Y-74729457D01*
X106093271Y-74729063D01*
X106093270Y-74729063D01*
X106088001Y-74729031D01*
X105950154Y-74768428D01*
X105828905Y-74844930D01*
X105814086Y-74861710D01*
X105742025Y-74943304D01*
X105734002Y-74952388D01*
X105673072Y-75082163D01*
X105672262Y-75087368D01*
X105672261Y-75087370D01*
X105665344Y-75131800D01*
X105651016Y-75223823D01*
X105669605Y-75365979D01*
X105701040Y-75437421D01*
X105724305Y-75490293D01*
X105727345Y-75497203D01*
X105740417Y-75512754D01*
X105816205Y-75602916D01*
X105816208Y-75602919D01*
X105819595Y-75606948D01*
X105831894Y-75615135D01*
X105934549Y-75683469D01*
X105934552Y-75683470D01*
X105938938Y-75686390D01*
X106075782Y-75729142D01*
X106081050Y-75729239D01*
X106081053Y-75729239D01*
X106141358Y-75730344D01*
X106219124Y-75731770D01*
X106224207Y-75730384D01*
X106224209Y-75730384D01*
X106352352Y-75695448D01*
X106352354Y-75695447D01*
X106357442Y-75694060D01*
X106453468Y-75635100D01*
X106475123Y-75621804D01*
X106475124Y-75621803D01*
X106479616Y-75619045D01*
X106550392Y-75540852D01*
X106595148Y-75517205D01*
X106644633Y-75527858D01*
X106672322Y-75559238D01*
X106679414Y-75574448D01*
X106679416Y-75574451D01*
X106682151Y-75580316D01*
X106767059Y-75665224D01*
X106875888Y-75715972D01*
X106925474Y-75722500D01*
X107105300Y-75722500D01*
X107285275Y-75722499D01*
X107287682Y-75722182D01*
X107287685Y-75722182D01*
X107329250Y-75716711D01*
X107329252Y-75716710D01*
X107334862Y-75715972D01*
X107339989Y-75713581D01*
X107339990Y-75713581D01*
X107394929Y-75687962D01*
X107443691Y-75665224D01*
X107528599Y-75580316D01*
X107529091Y-75580808D01*
X107566224Y-75554808D01*
X107616650Y-75559221D01*
X107641986Y-75580481D01*
X107642151Y-75580316D01*
X107727059Y-75665224D01*
X107835888Y-75715972D01*
X107885474Y-75722500D01*
X108065300Y-75722500D01*
X108245275Y-75722499D01*
X108247682Y-75722182D01*
X108247685Y-75722182D01*
X108289250Y-75716711D01*
X108289252Y-75716710D01*
X108294862Y-75715972D01*
X108299989Y-75713581D01*
X108299990Y-75713581D01*
X108354929Y-75687962D01*
X108403691Y-75665224D01*
X108488599Y-75580316D01*
X108539347Y-75471487D01*
X108545875Y-75421901D01*
X108545874Y-75002100D01*
X108545557Y-74999690D01*
X108540086Y-74958125D01*
X108540085Y-74958123D01*
X108539347Y-74952513D01*
X108535583Y-74944440D01*
X108506472Y-74882012D01*
X108488599Y-74843684D01*
X108403691Y-74758776D01*
X108397903Y-74756077D01*
X108368896Y-74714649D01*
X108366375Y-74695497D01*
X108366375Y-73967000D01*
X108383688Y-73919434D01*
X108427525Y-73894124D01*
X108440375Y-73893000D01*
X108745123Y-73893000D01*
X108748692Y-73892290D01*
X108748693Y-73892290D01*
X108769440Y-73888163D01*
X108803606Y-73881367D01*
X108818538Y-73871390D01*
X108863866Y-73841102D01*
X108869927Y-73837052D01*
X108888345Y-73809488D01*
X108910191Y-73776794D01*
X108910191Y-73776793D01*
X108914242Y-73770731D01*
X108925875Y-73712248D01*
X108925875Y-73657500D01*
X108943188Y-73609934D01*
X108987025Y-73584624D01*
X108999875Y-73583500D01*
X110878508Y-73583500D01*
X110923556Y-73598792D01*
X111024936Y-73676584D01*
X111024939Y-73676586D01*
X111028784Y-73679536D01*
X111174863Y-73740044D01*
X111179665Y-73740676D01*
X111179668Y-73740677D01*
X111326817Y-73760049D01*
X111331625Y-73760682D01*
X111336433Y-73760049D01*
X111483582Y-73740677D01*
X111483585Y-73740676D01*
X111488387Y-73740044D01*
X111634466Y-73679536D01*
X111638310Y-73676586D01*
X111638314Y-73676584D01*
X111756056Y-73586237D01*
X111759907Y-73583282D01*
X111771570Y-73568082D01*
X111853209Y-73461689D01*
X111853211Y-73461685D01*
X111856161Y-73457841D01*
X111916669Y-73311762D01*
X111918554Y-73297448D01*
X111936674Y-73159808D01*
X111937307Y-73155000D01*
X111930977Y-73106917D01*
X111917302Y-73003043D01*
X111917301Y-73003040D01*
X111916669Y-72998238D01*
X111856161Y-72852159D01*
X111853211Y-72848314D01*
X111853209Y-72848311D01*
X111781687Y-72755102D01*
X111766395Y-72710054D01*
X111766395Y-68791957D01*
X111783708Y-68744391D01*
X111827545Y-68719081D01*
X111840491Y-68717958D01*
X113016796Y-68719615D01*
X113064338Y-68736995D01*
X113089586Y-68780868D01*
X113090691Y-68793697D01*
X113081094Y-76473405D01*
X113076076Y-80488783D01*
X113074199Y-80505252D01*
X113073180Y-80509691D01*
X113070881Y-80519704D01*
X113072722Y-80527829D01*
X113072722Y-80527833D01*
X113073033Y-80529205D01*
X113074793Y-80548758D01*
X113066811Y-80733020D01*
X113059422Y-80903593D01*
X113058073Y-80934726D01*
X113057514Y-80941147D01*
X113004001Y-81348873D01*
X113003921Y-81349479D01*
X113002804Y-81355825D01*
X112915920Y-81748586D01*
X112913854Y-81757925D01*
X112912189Y-81764154D01*
X112798100Y-82126653D01*
X112788548Y-82157003D01*
X112786345Y-82163063D01*
X112739331Y-82276750D01*
X112628974Y-82543612D01*
X112626252Y-82549461D01*
X112436320Y-82914886D01*
X112433098Y-82920475D01*
X112212064Y-83267962D01*
X112208367Y-83273249D01*
X111957915Y-83600158D01*
X111953772Y-83605103D01*
X111675804Y-83908949D01*
X111671247Y-83913514D01*
X111367850Y-84192018D01*
X111362914Y-84196167D01*
X111289764Y-84252406D01*
X111036427Y-84447175D01*
X111031146Y-84450880D01*
X110684050Y-84672492D01*
X110678467Y-84675724D01*
X110313358Y-84866278D01*
X110307514Y-84869010D01*
X109927227Y-85027028D01*
X109921167Y-85029242D01*
X109712793Y-85095212D01*
X109660976Y-85111617D01*
X109528544Y-85153544D01*
X109522318Y-85155220D01*
X109170786Y-85233609D01*
X109120360Y-85244854D01*
X109114008Y-85245982D01*
X108705783Y-85300264D01*
X108699357Y-85300835D01*
X108635744Y-85303699D01*
X108313900Y-85318189D01*
X108294089Y-85316404D01*
X108285074Y-85314344D01*
X108270542Y-85317653D01*
X108254113Y-85319500D01*
X58325361Y-85319500D01*
X58309205Y-85317715D01*
X58302272Y-85316164D01*
X58302271Y-85316164D01*
X58294141Y-85314345D01*
X58284667Y-85316548D01*
X58265112Y-85318417D01*
X58128007Y-85313230D01*
X57879323Y-85303821D01*
X57872893Y-85303296D01*
X57634961Y-85273327D01*
X57464563Y-85251864D01*
X57458184Y-85250775D01*
X57055924Y-85163868D01*
X57049665Y-85162226D01*
X56656548Y-85040511D01*
X56650455Y-85038329D01*
X56459952Y-84960526D01*
X56269441Y-84882720D01*
X56263581Y-84880021D01*
X56085940Y-84788617D01*
X55897649Y-84691733D01*
X55892030Y-84688524D01*
X55543932Y-84468976D01*
X55538614Y-84465287D01*
X55211035Y-84216171D01*
X55206060Y-84212033D01*
X55202325Y-84208638D01*
X54901495Y-83935245D01*
X54896904Y-83930690D01*
X54881042Y-83913514D01*
X54617695Y-83628362D01*
X54613516Y-83623420D01*
X54573500Y-83571666D01*
X54361778Y-83297840D01*
X54358066Y-83292580D01*
X54135723Y-82946232D01*
X54132475Y-82940649D01*
X53941261Y-82576236D01*
X53938508Y-82570380D01*
X53779856Y-82190637D01*
X53777624Y-82184562D01*
X53771423Y-82165086D01*
X53652761Y-81792426D01*
X53651069Y-81786180D01*
X53629896Y-81691847D01*
X53560939Y-81384611D01*
X53559802Y-81378250D01*
X53559553Y-81376389D01*
X53534390Y-81188752D01*
X53505105Y-80970370D01*
X53504526Y-80963925D01*
X53488666Y-80618112D01*
X53486857Y-80578664D01*
X53488626Y-80558844D01*
X53488806Y-80558054D01*
X53490656Y-80549930D01*
X53488800Y-80541806D01*
X53487399Y-80535674D01*
X53485540Y-80519096D01*
X53486612Y-79689748D01*
X60039500Y-79689748D01*
X60051133Y-79748231D01*
X60095448Y-79814552D01*
X60161769Y-79858867D01*
X60206295Y-79867724D01*
X60216682Y-79869790D01*
X60216683Y-79869790D01*
X60220252Y-79870500D01*
X61959748Y-79870500D01*
X61963317Y-79869790D01*
X61963318Y-79869790D01*
X61973705Y-79867724D01*
X62018231Y-79858867D01*
X62084552Y-79814552D01*
X62128867Y-79748231D01*
X62140500Y-79689748D01*
X62140500Y-79194500D01*
X62157813Y-79146934D01*
X62201650Y-79121624D01*
X62214500Y-79120500D01*
X63490433Y-79120500D01*
X63495906Y-79120902D01*
X63500342Y-79122425D01*
X63507166Y-79122169D01*
X63507167Y-79122169D01*
X63550241Y-79120552D01*
X63553017Y-79120500D01*
X63572948Y-79120500D01*
X63576300Y-79119876D01*
X63579691Y-79119563D01*
X63579709Y-79119753D01*
X63583755Y-79119294D01*
X63612208Y-79118226D01*
X63618485Y-79115529D01*
X63618490Y-79115528D01*
X63625343Y-79112584D01*
X63641002Y-79107826D01*
X63654376Y-79105335D01*
X63655052Y-79105209D01*
X63655076Y-79105335D01*
X63674324Y-79101750D01*
X63909399Y-79101749D01*
X63953650Y-79101749D01*
X63956057Y-79101432D01*
X63956060Y-79101432D01*
X63997625Y-79095961D01*
X63997627Y-79095960D01*
X64003237Y-79095222D01*
X64008364Y-79092831D01*
X64008365Y-79092831D01*
X64058179Y-79069602D01*
X64112066Y-79044474D01*
X64196974Y-78959566D01*
X64199709Y-78953700D01*
X64199986Y-78953305D01*
X64241451Y-78924271D01*
X64260603Y-78921750D01*
X64701897Y-78921750D01*
X64749463Y-78939063D01*
X64762514Y-78953305D01*
X64762791Y-78953700D01*
X64765526Y-78959566D01*
X64850434Y-79044474D01*
X64959263Y-79095222D01*
X65008849Y-79101750D01*
X65218663Y-79101750D01*
X65428650Y-79101749D01*
X65431057Y-79101432D01*
X65431060Y-79101432D01*
X65472625Y-79095961D01*
X65472627Y-79095960D01*
X65478237Y-79095222D01*
X65483364Y-79092831D01*
X65483365Y-79092831D01*
X65533179Y-79069602D01*
X65587066Y-79044474D01*
X65671974Y-78959566D01*
X65722722Y-78850737D01*
X65729250Y-78801151D01*
X65729249Y-78441350D01*
X65722722Y-78391763D01*
X65720330Y-78386632D01*
X65684245Y-78309249D01*
X65671974Y-78282934D01*
X65587066Y-78198026D01*
X65581201Y-78195291D01*
X65581195Y-78195287D01*
X65561976Y-78186325D01*
X65526183Y-78150532D01*
X65519250Y-78119259D01*
X65519250Y-77991890D01*
X65536563Y-77944324D01*
X65543863Y-77937062D01*
X65546741Y-77935295D01*
X65642950Y-77829004D01*
X65705460Y-77699983D01*
X65729246Y-77558604D01*
X65729397Y-77546250D01*
X65719800Y-77479239D01*
X65709820Y-77409547D01*
X65709820Y-77409546D01*
X65709073Y-77404332D01*
X65694284Y-77371804D01*
X65651916Y-77278621D01*
X65649734Y-77273822D01*
X65571842Y-77183424D01*
X65559590Y-77169205D01*
X65559589Y-77169204D01*
X65556150Y-77165213D01*
X65551731Y-77162349D01*
X65551729Y-77162347D01*
X65472127Y-77110752D01*
X65435845Y-77087235D01*
X65331918Y-77056154D01*
X65303542Y-77047668D01*
X65303541Y-77047668D01*
X65298489Y-77046157D01*
X65224853Y-77045707D01*
X65160396Y-77045313D01*
X65160395Y-77045313D01*
X65155126Y-77045281D01*
X65017279Y-77084678D01*
X64896030Y-77161180D01*
X64850762Y-77212437D01*
X64806324Y-77262754D01*
X64801127Y-77268638D01*
X64740197Y-77398413D01*
X64739387Y-77403618D01*
X64739386Y-77403620D01*
X64734739Y-77433469D01*
X64718141Y-77540073D01*
X64718824Y-77545296D01*
X64718824Y-77545299D01*
X64719323Y-77549112D01*
X64736730Y-77682229D01*
X64794470Y-77813453D01*
X64886720Y-77923198D01*
X64891108Y-77926119D01*
X64893574Y-77928324D01*
X64917494Y-77972935D01*
X64918250Y-77983489D01*
X64918250Y-78119259D01*
X64900937Y-78166825D01*
X64875524Y-78186325D01*
X64856305Y-78195287D01*
X64856299Y-78195291D01*
X64850434Y-78198026D01*
X64765526Y-78282934D01*
X64762791Y-78288800D01*
X64762514Y-78289195D01*
X64721049Y-78318229D01*
X64701897Y-78320750D01*
X64260603Y-78320750D01*
X64213037Y-78303437D01*
X64199986Y-78289195D01*
X64199709Y-78288800D01*
X64196974Y-78282934D01*
X64112066Y-78198026D01*
X64003237Y-78147278D01*
X63953651Y-78140750D01*
X63743837Y-78140750D01*
X63533850Y-78140751D01*
X63531443Y-78141068D01*
X63531440Y-78141068D01*
X63489875Y-78146539D01*
X63489873Y-78146540D01*
X63484263Y-78147278D01*
X63479136Y-78149669D01*
X63479135Y-78149669D01*
X63454815Y-78161010D01*
X63375434Y-78198026D01*
X63290526Y-78282934D01*
X63239778Y-78391763D01*
X63233250Y-78441349D01*
X63233250Y-78445500D01*
X63233112Y-78445878D01*
X63233092Y-78446188D01*
X63233002Y-78446182D01*
X63215937Y-78493066D01*
X63172100Y-78518376D01*
X63159250Y-78519500D01*
X62214500Y-78519500D01*
X62166934Y-78502187D01*
X62141624Y-78458350D01*
X62140500Y-78445500D01*
X62140500Y-77950252D01*
X62128867Y-77891769D01*
X62121122Y-77880177D01*
X62088602Y-77831509D01*
X62084552Y-77825448D01*
X62066601Y-77813453D01*
X62024294Y-77785184D01*
X62024293Y-77785184D01*
X62018231Y-77781133D01*
X61973705Y-77772276D01*
X61963318Y-77770210D01*
X61963317Y-77770210D01*
X61959748Y-77769500D01*
X60220252Y-77769500D01*
X60216683Y-77770210D01*
X60216682Y-77770210D01*
X60206295Y-77772276D01*
X60161769Y-77781133D01*
X60155707Y-77785184D01*
X60155706Y-77785184D01*
X60113399Y-77813453D01*
X60095448Y-77825448D01*
X60091398Y-77831509D01*
X60058879Y-77880177D01*
X60051133Y-77891769D01*
X60039500Y-77950252D01*
X60039500Y-79689748D01*
X53486612Y-79689748D01*
X53500740Y-68764399D01*
X53518114Y-68716855D01*
X53561984Y-68691603D01*
X53574883Y-68690495D01*
X54508239Y-68692308D01*
X54555771Y-68709713D01*
X54580996Y-68753600D01*
X54582095Y-68766308D01*
X54582095Y-74787308D01*
X54580437Y-74802883D01*
X54577644Y-74815856D01*
X54578363Y-74821931D01*
X54578363Y-74821932D01*
X54581582Y-74849128D01*
X54582095Y-74857826D01*
X54582095Y-74861710D01*
X54582597Y-74864724D01*
X54582597Y-74864728D01*
X54585188Y-74880296D01*
X54585679Y-74883746D01*
X54588156Y-74904673D01*
X54591359Y-74931733D01*
X54594006Y-74937245D01*
X54594336Y-74938382D01*
X54594520Y-74939190D01*
X54594705Y-74939775D01*
X54595013Y-74940527D01*
X54595403Y-74941666D01*
X54596407Y-74947698D01*
X54599312Y-74953081D01*
X54619361Y-74990240D01*
X54620943Y-74993346D01*
X54639850Y-75032720D01*
X54639857Y-75032730D01*
X54641869Y-75036921D01*
X54645187Y-75040869D01*
X54646140Y-75041822D01*
X54649063Y-75045285D01*
X54651817Y-75050389D01*
X54656312Y-75054544D01*
X54688972Y-75084735D01*
X54691067Y-75086749D01*
X56249653Y-76645335D01*
X56259494Y-76657521D01*
X56263374Y-76663530D01*
X56263376Y-76663532D01*
X56266694Y-76668671D01*
X56271499Y-76672459D01*
X56293005Y-76689413D01*
X56299518Y-76695200D01*
X56302266Y-76697948D01*
X56304744Y-76699719D01*
X56304749Y-76699723D01*
X56317600Y-76708906D01*
X56320383Y-76710995D01*
X56358330Y-76740911D01*
X56364104Y-76742939D01*
X56365148Y-76743513D01*
X56365846Y-76743952D01*
X56366386Y-76744233D01*
X56367141Y-76744549D01*
X56368213Y-76745074D01*
X56373189Y-76748630D01*
X56379046Y-76750382D01*
X56379049Y-76750383D01*
X56419493Y-76762478D01*
X56422809Y-76763555D01*
X56468425Y-76779574D01*
X56473563Y-76780019D01*
X56474900Y-76780019D01*
X56479431Y-76780403D01*
X56484983Y-76782063D01*
X56491093Y-76781823D01*
X56491094Y-76781823D01*
X56535556Y-76780076D01*
X56538461Y-76780019D01*
X69524714Y-76780019D01*
X69540289Y-76781677D01*
X69553262Y-76784470D01*
X69559337Y-76783751D01*
X69559338Y-76783751D01*
X69586534Y-76780532D01*
X69595232Y-76780019D01*
X69599116Y-76780019D01*
X69602130Y-76779517D01*
X69602134Y-76779517D01*
X69617702Y-76776926D01*
X69621152Y-76776435D01*
X69663066Y-76771474D01*
X69663067Y-76771474D01*
X69669139Y-76770755D01*
X69674651Y-76768108D01*
X69675788Y-76767778D01*
X69676596Y-76767594D01*
X69677181Y-76767409D01*
X69677933Y-76767101D01*
X69679072Y-76766711D01*
X69685104Y-76765707D01*
X69713504Y-76750383D01*
X69727646Y-76742753D01*
X69730752Y-76741171D01*
X69770126Y-76722264D01*
X69770136Y-76722257D01*
X69774327Y-76720245D01*
X69778275Y-76716927D01*
X69779228Y-76715974D01*
X69782691Y-76713051D01*
X69787795Y-76710297D01*
X69822141Y-76673142D01*
X69824155Y-76671047D01*
X72083508Y-74411694D01*
X72129384Y-74390302D01*
X72135834Y-74390020D01*
X73251186Y-74390020D01*
X73298752Y-74407333D01*
X73303512Y-74411694D01*
X73538883Y-74647065D01*
X73548722Y-74659248D01*
X73552607Y-74665265D01*
X73552610Y-74665268D01*
X73555925Y-74670402D01*
X73560726Y-74674187D01*
X73560728Y-74674189D01*
X73582245Y-74691152D01*
X73588758Y-74696939D01*
X73591497Y-74699678D01*
X73593977Y-74701450D01*
X73593979Y-74701452D01*
X73606818Y-74710627D01*
X73609580Y-74712700D01*
X73647561Y-74742642D01*
X73653331Y-74744668D01*
X73654367Y-74745238D01*
X73655070Y-74745680D01*
X73655610Y-74745961D01*
X73656367Y-74746278D01*
X73657443Y-74746805D01*
X73662419Y-74750361D01*
X73668281Y-74752114D01*
X73708727Y-74764210D01*
X73712043Y-74765287D01*
X73757656Y-74781305D01*
X73762794Y-74781750D01*
X73764131Y-74781750D01*
X73768662Y-74782134D01*
X73774214Y-74783794D01*
X73780324Y-74783554D01*
X73780325Y-74783554D01*
X73824787Y-74781807D01*
X73827692Y-74781750D01*
X74220346Y-74781750D01*
X74267912Y-74799063D01*
X74277383Y-74809399D01*
X74278435Y-74811654D01*
X74362096Y-74895315D01*
X74469327Y-74945318D01*
X74518184Y-74951750D01*
X74866816Y-74951750D01*
X74915673Y-74945318D01*
X75022904Y-74895315D01*
X75106565Y-74811654D01*
X75135433Y-74749747D01*
X75171227Y-74713954D01*
X75221653Y-74709543D01*
X75263117Y-74738577D01*
X75269567Y-74749747D01*
X75298435Y-74811654D01*
X75382096Y-74895315D01*
X75489327Y-74945318D01*
X75538184Y-74951750D01*
X75886816Y-74951750D01*
X75935673Y-74945318D01*
X76042904Y-74895315D01*
X76126565Y-74811654D01*
X76129300Y-74805789D01*
X76129302Y-74805786D01*
X76143901Y-74774477D01*
X76179694Y-74738683D01*
X76210968Y-74731750D01*
X76317933Y-74731750D01*
X76323406Y-74732152D01*
X76327842Y-74733675D01*
X76334666Y-74733419D01*
X76334667Y-74733419D01*
X76377741Y-74731802D01*
X76380517Y-74731750D01*
X76400448Y-74731750D01*
X76403800Y-74731126D01*
X76407191Y-74730813D01*
X76407209Y-74731003D01*
X76411255Y-74730544D01*
X76439708Y-74729476D01*
X76445985Y-74726779D01*
X76445990Y-74726778D01*
X76452843Y-74723834D01*
X76468502Y-74719076D01*
X76475836Y-74717710D01*
X76482553Y-74716459D01*
X76488368Y-74712874D01*
X76488372Y-74712873D01*
X76506790Y-74701520D01*
X76516407Y-74696524D01*
X76537762Y-74687349D01*
X76537764Y-74687348D01*
X76542563Y-74685286D01*
X76547449Y-74681272D01*
X76553880Y-74674841D01*
X76567376Y-74664173D01*
X76572032Y-74661303D01*
X76577848Y-74657718D01*
X76596539Y-74633138D01*
X76603117Y-74625604D01*
X76821547Y-74407174D01*
X76867423Y-74385782D01*
X76873873Y-74385500D01*
X76949877Y-74385500D01*
X76997443Y-74402813D01*
X77002203Y-74407174D01*
X78336027Y-75740998D01*
X78369555Y-75763999D01*
X78399257Y-75784375D01*
X78399259Y-75784376D01*
X78404896Y-75788243D01*
X78411548Y-75789822D01*
X78411549Y-75789822D01*
X78507164Y-75812512D01*
X78507167Y-75812512D01*
X78513816Y-75814090D01*
X78544413Y-75809926D01*
X78554392Y-75809250D01*
X78894483Y-75809250D01*
X78942049Y-75826563D01*
X78967359Y-75870400D01*
X78968483Y-75883077D01*
X78969523Y-76333601D01*
X78952321Y-76381205D01*
X78908542Y-76406616D01*
X78895524Y-76407770D01*
X75976297Y-76407770D01*
X75970824Y-76407368D01*
X75966388Y-76405845D01*
X75959564Y-76406101D01*
X75959563Y-76406101D01*
X75916489Y-76407718D01*
X75913713Y-76407770D01*
X75893782Y-76407770D01*
X75890430Y-76408394D01*
X75887039Y-76408707D01*
X75887021Y-76408517D01*
X75882975Y-76408976D01*
X75854522Y-76410044D01*
X75848245Y-76412741D01*
X75848240Y-76412742D01*
X75841387Y-76415686D01*
X75825728Y-76420444D01*
X75811677Y-76423061D01*
X75805863Y-76426645D01*
X75805857Y-76426647D01*
X75794750Y-76433494D01*
X75755921Y-76444500D01*
X75527671Y-76444501D01*
X75495100Y-76444501D01*
X75492693Y-76444818D01*
X75492690Y-76444818D01*
X75451125Y-76450289D01*
X75451123Y-76450290D01*
X75445513Y-76451028D01*
X75440386Y-76453419D01*
X75440385Y-76453419D01*
X75413077Y-76466153D01*
X75336684Y-76501776D01*
X75251776Y-76586684D01*
X75251284Y-76586192D01*
X75214151Y-76612192D01*
X75163725Y-76607779D01*
X75138389Y-76586519D01*
X75138224Y-76586684D01*
X75053316Y-76501776D01*
X75054665Y-76500427D01*
X75030665Y-76466153D01*
X75035076Y-76415727D01*
X75054122Y-76393030D01*
X75053316Y-76392224D01*
X75138224Y-76307316D01*
X75188972Y-76198487D01*
X75195500Y-76148901D01*
X75195499Y-75729100D01*
X75194589Y-75722183D01*
X75189711Y-75685125D01*
X75189710Y-75685123D01*
X75188972Y-75679513D01*
X75186580Y-75674382D01*
X75151705Y-75599595D01*
X75138224Y-75570684D01*
X75053316Y-75485776D01*
X74944487Y-75435028D01*
X74894901Y-75428500D01*
X74715075Y-75428500D01*
X74535100Y-75428501D01*
X74532693Y-75428818D01*
X74532690Y-75428818D01*
X74491125Y-75434289D01*
X74491123Y-75434290D01*
X74485513Y-75435028D01*
X74480386Y-75437419D01*
X74480385Y-75437419D01*
X74480381Y-75437421D01*
X74376684Y-75485776D01*
X74291776Y-75570684D01*
X74241028Y-75679513D01*
X74234500Y-75729099D01*
X74234501Y-76148900D01*
X74234818Y-76151307D01*
X74234818Y-76151310D01*
X74239978Y-76190508D01*
X74241028Y-76198487D01*
X74243419Y-76203614D01*
X74243419Y-76203615D01*
X74250077Y-76217892D01*
X74291776Y-76307316D01*
X74376684Y-76392224D01*
X74375335Y-76393573D01*
X74399335Y-76427847D01*
X74394924Y-76478273D01*
X74375878Y-76500970D01*
X74376684Y-76501776D01*
X74291776Y-76586684D01*
X74289041Y-76592549D01*
X74289037Y-76592555D01*
X74280075Y-76611774D01*
X74244282Y-76647567D01*
X74213009Y-76654500D01*
X74164173Y-76654500D01*
X74116607Y-76637187D01*
X74108114Y-76628805D01*
X74093799Y-76612192D01*
X74082400Y-76598963D01*
X74077981Y-76596099D01*
X74077979Y-76596097D01*
X73983484Y-76534849D01*
X73962095Y-76520985D01*
X73838900Y-76484142D01*
X73829792Y-76481418D01*
X73829791Y-76481418D01*
X73824739Y-76479907D01*
X73751103Y-76479457D01*
X73686646Y-76479063D01*
X73686645Y-76479063D01*
X73681376Y-76479031D01*
X73543529Y-76518428D01*
X73422280Y-76594930D01*
X73377764Y-76645335D01*
X73333449Y-76695513D01*
X73327377Y-76702388D01*
X73266447Y-76832163D01*
X73265637Y-76837368D01*
X73265636Y-76837370D01*
X73255419Y-76902993D01*
X73244391Y-76973823D01*
X73245074Y-76979046D01*
X73245074Y-76979049D01*
X73249108Y-77009894D01*
X73262980Y-77115979D01*
X73320720Y-77247203D01*
X73328277Y-77256193D01*
X73409580Y-77352916D01*
X73409583Y-77352919D01*
X73412970Y-77356948D01*
X73425269Y-77365135D01*
X73527924Y-77433469D01*
X73527927Y-77433470D01*
X73532313Y-77436390D01*
X73669157Y-77479142D01*
X73674425Y-77479239D01*
X73674428Y-77479239D01*
X73734733Y-77480344D01*
X73812499Y-77481770D01*
X73817582Y-77480384D01*
X73817584Y-77480384D01*
X73945727Y-77445448D01*
X73945729Y-77445447D01*
X73950817Y-77444060D01*
X74023333Y-77399535D01*
X74068498Y-77371804D01*
X74068499Y-77371803D01*
X74072991Y-77369045D01*
X74114233Y-77323481D01*
X74153734Y-77279841D01*
X74198490Y-77256193D01*
X74208597Y-77255500D01*
X74213009Y-77255500D01*
X74260575Y-77272813D01*
X74280075Y-77298226D01*
X74289037Y-77317445D01*
X74289041Y-77317450D01*
X74291776Y-77323316D01*
X74376684Y-77408224D01*
X74485513Y-77458972D01*
X74535099Y-77465500D01*
X74714925Y-77465500D01*
X74894900Y-77465499D01*
X74897307Y-77465182D01*
X74897310Y-77465182D01*
X74938875Y-77459711D01*
X74938877Y-77459710D01*
X74944487Y-77458972D01*
X74949614Y-77456581D01*
X74949615Y-77456581D01*
X75013988Y-77426563D01*
X75053316Y-77408224D01*
X75138224Y-77323316D01*
X75138716Y-77323808D01*
X75175849Y-77297808D01*
X75226275Y-77302221D01*
X75251611Y-77323481D01*
X75251776Y-77323316D01*
X75336684Y-77408224D01*
X75445513Y-77458972D01*
X75495099Y-77465500D01*
X75674925Y-77465500D01*
X75854900Y-77465499D01*
X75857307Y-77465182D01*
X75857310Y-77465182D01*
X75898875Y-77459711D01*
X75898877Y-77459710D01*
X75904487Y-77458972D01*
X75909614Y-77456581D01*
X75909615Y-77456581D01*
X75973988Y-77426563D01*
X76013316Y-77408224D01*
X76098224Y-77323316D01*
X76148972Y-77214487D01*
X76155500Y-77164901D01*
X76155500Y-77082770D01*
X76172813Y-77035204D01*
X76216650Y-77009894D01*
X76229500Y-77008770D01*
X77637607Y-77008770D01*
X77685173Y-77026083D01*
X77710483Y-77069920D01*
X77701693Y-77119770D01*
X77689933Y-77135096D01*
X75442203Y-79382826D01*
X75396327Y-79404218D01*
X75389877Y-79404500D01*
X74296782Y-79404500D01*
X74294099Y-79404895D01*
X74233577Y-79413804D01*
X74233574Y-79413805D01*
X74227888Y-79414642D01*
X74222728Y-79417175D01*
X74222726Y-79417176D01*
X74176883Y-79439684D01*
X74123145Y-79466068D01*
X74118824Y-79470397D01*
X74118822Y-79470398D01*
X74045028Y-79544321D01*
X74040707Y-79548650D01*
X74038020Y-79554147D01*
X73992278Y-79647726D01*
X73989464Y-79653482D01*
X73979500Y-79721782D01*
X73979500Y-80088218D01*
X73979895Y-80090901D01*
X73988804Y-80151423D01*
X73988805Y-80151426D01*
X73989642Y-80157112D01*
X73992175Y-80162272D01*
X73992176Y-80162274D01*
X74013233Y-80205162D01*
X74041068Y-80261855D01*
X74045397Y-80266176D01*
X74045398Y-80266178D01*
X74119321Y-80339972D01*
X74123650Y-80344293D01*
X74129147Y-80346980D01*
X74222934Y-80392824D01*
X74228482Y-80395536D01*
X74296782Y-80405500D01*
X75311594Y-80405500D01*
X75359160Y-80422813D01*
X75384470Y-80466650D01*
X75375680Y-80516500D01*
X75363920Y-80531826D01*
X75242920Y-80652826D01*
X75197044Y-80674218D01*
X75190594Y-80674500D01*
X74296782Y-80674500D01*
X74294099Y-80674895D01*
X74233577Y-80683804D01*
X74233574Y-80683805D01*
X74227888Y-80684642D01*
X74222728Y-80687175D01*
X74222726Y-80687176D01*
X74196982Y-80699816D01*
X74123145Y-80736068D01*
X74118824Y-80740397D01*
X74118822Y-80740398D01*
X74045028Y-80814321D01*
X74040707Y-80818650D01*
X74038020Y-80824147D01*
X73992278Y-80917726D01*
X73989464Y-80923482D01*
X73979500Y-80991782D01*
X73979500Y-81358218D01*
X73979895Y-81360901D01*
X73988804Y-81421423D01*
X73988805Y-81421426D01*
X73989642Y-81427112D01*
X73992175Y-81432272D01*
X73992176Y-81432274D01*
X74006382Y-81461208D01*
X74041068Y-81531855D01*
X74045397Y-81536176D01*
X74045398Y-81536178D01*
X74119318Y-81609969D01*
X74123650Y-81614293D01*
X74129147Y-81616980D01*
X74222934Y-81662824D01*
X74228482Y-81665536D01*
X74296782Y-81675500D01*
X75560635Y-81675500D01*
X75608201Y-81692813D01*
X75633511Y-81736650D01*
X75624721Y-81786500D01*
X75612961Y-81801826D01*
X75491961Y-81922826D01*
X75446085Y-81944218D01*
X75439635Y-81944500D01*
X74296782Y-81944500D01*
X74294099Y-81944895D01*
X74233577Y-81953804D01*
X74233574Y-81953805D01*
X74227888Y-81954642D01*
X74222728Y-81957175D01*
X74222726Y-81957176D01*
X74176883Y-81979684D01*
X74123145Y-82006068D01*
X74118824Y-82010397D01*
X74118822Y-82010398D01*
X74045028Y-82084321D01*
X74040707Y-82088650D01*
X74038020Y-82094147D01*
X73996910Y-82178250D01*
X73989464Y-82193482D01*
X73979500Y-82261782D01*
X73979500Y-82365877D01*
X73962187Y-82413443D01*
X73918350Y-82438753D01*
X73868500Y-82429963D01*
X73853174Y-82418203D01*
X72436070Y-81001099D01*
X72432485Y-80996946D01*
X72430425Y-80992731D01*
X72393818Y-80958773D01*
X72391819Y-80956848D01*
X72377723Y-80942752D01*
X72374912Y-80940824D01*
X72372293Y-80938647D01*
X72372403Y-80938515D01*
X72369227Y-80935961D01*
X72353364Y-80921246D01*
X72353363Y-80921245D01*
X72348354Y-80916599D01*
X72342012Y-80914069D01*
X72342006Y-80914065D01*
X72335077Y-80911301D01*
X72320641Y-80903593D01*
X72314493Y-80899376D01*
X72314492Y-80899375D01*
X72308854Y-80895508D01*
X72302204Y-80893930D01*
X72302202Y-80893929D01*
X72281160Y-80888936D01*
X72270824Y-80885668D01*
X72268932Y-80884913D01*
X72244378Y-80875117D01*
X72238085Y-80874500D01*
X72228988Y-80874500D01*
X72211901Y-80872500D01*
X72206585Y-80871238D01*
X72206583Y-80871238D01*
X72199934Y-80869660D01*
X72179066Y-80872500D01*
X72169337Y-80873824D01*
X72159358Y-80874500D01*
X68792707Y-80874500D01*
X68745141Y-80857187D01*
X68726281Y-80833114D01*
X68718932Y-80818145D01*
X68714603Y-80813824D01*
X68714602Y-80813822D01*
X68640679Y-80740028D01*
X68640677Y-80740027D01*
X68636350Y-80735707D01*
X68604471Y-80720124D01*
X68536682Y-80686988D01*
X68536681Y-80686988D01*
X68531518Y-80684464D01*
X68463218Y-80674500D01*
X67096782Y-80674500D01*
X67094099Y-80674895D01*
X67033577Y-80683804D01*
X67033574Y-80683805D01*
X67027888Y-80684642D01*
X67022728Y-80687175D01*
X67022726Y-80687176D01*
X66996982Y-80699816D01*
X66923145Y-80736068D01*
X66918823Y-80740398D01*
X66918819Y-80740401D01*
X66886871Y-80772404D01*
X66841013Y-80793837D01*
X66792108Y-80780778D01*
X66763038Y-80739339D01*
X66760500Y-80720124D01*
X66760500Y-80645123D01*
X66777813Y-80597557D01*
X66782174Y-80592797D01*
X66960174Y-80414797D01*
X67006050Y-80393405D01*
X67028444Y-80395793D01*
X67028482Y-80395536D01*
X67096782Y-80405500D01*
X68463218Y-80405500D01*
X68469363Y-80404595D01*
X68526423Y-80396196D01*
X68526426Y-80396195D01*
X68532112Y-80395358D01*
X68537272Y-80392825D01*
X68537274Y-80392824D01*
X68623418Y-80350529D01*
X68636855Y-80343932D01*
X68641176Y-80339603D01*
X68641178Y-80339602D01*
X68714972Y-80265679D01*
X68714973Y-80265677D01*
X68719293Y-80261350D01*
X68766592Y-80164586D01*
X68768012Y-80161682D01*
X68768012Y-80161681D01*
X68770536Y-80156518D01*
X68780500Y-80088218D01*
X68780500Y-79721782D01*
X68775784Y-79689748D01*
X68771196Y-79658577D01*
X68771195Y-79658574D01*
X68770358Y-79652888D01*
X68718932Y-79548145D01*
X68714603Y-79543824D01*
X68714602Y-79543822D01*
X68640679Y-79470028D01*
X68640677Y-79470027D01*
X68636350Y-79465707D01*
X68626741Y-79461010D01*
X68536682Y-79416988D01*
X68536681Y-79416988D01*
X68531518Y-79414464D01*
X68463218Y-79404500D01*
X67439123Y-79404500D01*
X67391557Y-79387187D01*
X67366247Y-79343350D01*
X67375037Y-79293500D01*
X67386797Y-79278174D01*
X67507797Y-79157174D01*
X67553673Y-79135782D01*
X67560123Y-79135500D01*
X68463218Y-79135500D01*
X68469363Y-79134595D01*
X68526423Y-79126196D01*
X68526426Y-79126195D01*
X68532112Y-79125358D01*
X68537272Y-79122825D01*
X68537274Y-79122824D01*
X68598366Y-79092829D01*
X68636855Y-79073932D01*
X68641176Y-79069603D01*
X68641178Y-79069602D01*
X68714972Y-78995679D01*
X68714973Y-78995677D01*
X68719293Y-78991350D01*
X68734829Y-78959566D01*
X68768012Y-78891682D01*
X68768012Y-78891681D01*
X68770536Y-78886518D01*
X68780500Y-78818218D01*
X68780500Y-78451782D01*
X68771665Y-78391763D01*
X68771196Y-78388577D01*
X68771195Y-78388574D01*
X68770358Y-78382888D01*
X68762445Y-78366770D01*
X68734203Y-78309249D01*
X68718932Y-78278145D01*
X68714603Y-78273824D01*
X68714602Y-78273822D01*
X68640679Y-78200028D01*
X68640677Y-78200027D01*
X68636350Y-78195707D01*
X68623200Y-78189279D01*
X68536682Y-78146988D01*
X68536681Y-78146988D01*
X68531518Y-78144464D01*
X68463218Y-78134500D01*
X67096782Y-78134500D01*
X67094099Y-78134895D01*
X67033577Y-78143804D01*
X67033574Y-78143805D01*
X67027888Y-78144642D01*
X67022728Y-78147175D01*
X67022726Y-78147176D01*
X66985619Y-78165395D01*
X66923145Y-78196068D01*
X66918824Y-78200397D01*
X66918822Y-78200398D01*
X66845028Y-78274321D01*
X66840707Y-78278650D01*
X66838020Y-78284147D01*
X66792278Y-78377726D01*
X66789464Y-78383482D01*
X66779500Y-78451782D01*
X66779500Y-78818218D01*
X66789642Y-78887112D01*
X66792175Y-78892272D01*
X66792176Y-78892274D01*
X66811848Y-78932342D01*
X66817270Y-78982670D01*
X66797748Y-79017281D01*
X65886579Y-79928450D01*
X65882426Y-79932035D01*
X65878211Y-79934095D01*
X65844254Y-79970701D01*
X65842328Y-79972701D01*
X65828232Y-79986797D01*
X65826304Y-79989608D01*
X65824127Y-79992227D01*
X65823995Y-79992117D01*
X65821441Y-79995293D01*
X65802079Y-80016166D01*
X65799549Y-80022508D01*
X65799545Y-80022514D01*
X65796781Y-80029443D01*
X65789073Y-80043879D01*
X65784856Y-80050027D01*
X65780988Y-80055666D01*
X65779410Y-80062316D01*
X65779409Y-80062318D01*
X65774416Y-80083360D01*
X65771148Y-80093696D01*
X65760597Y-80120142D01*
X65759980Y-80126435D01*
X65759980Y-80135532D01*
X65757980Y-80152619D01*
X65756914Y-80157112D01*
X65755140Y-80164586D01*
X65756062Y-80171359D01*
X65759304Y-80195183D01*
X65759980Y-80205162D01*
X65759980Y-81822079D01*
X65742667Y-81869645D01*
X65698830Y-81894955D01*
X65648980Y-81886165D01*
X65633654Y-81874405D01*
X65583799Y-81824550D01*
X65562407Y-81778674D01*
X65562125Y-81772224D01*
X65562125Y-81631934D01*
X65555693Y-81583077D01*
X65505690Y-81475846D01*
X65422029Y-81392185D01*
X65314798Y-81342182D01*
X65265941Y-81335750D01*
X64817309Y-81335750D01*
X64768452Y-81342182D01*
X64661221Y-81392185D01*
X64577560Y-81475846D01*
X64577477Y-81476023D01*
X64538622Y-81503229D01*
X64519471Y-81505750D01*
X64289528Y-81505750D01*
X64241962Y-81488437D01*
X64234277Y-81480051D01*
X64234065Y-81479596D01*
X64150404Y-81395935D01*
X64088497Y-81367067D01*
X64052704Y-81331273D01*
X64048293Y-81280847D01*
X64077327Y-81239383D01*
X64088497Y-81232933D01*
X64106937Y-81224334D01*
X64150404Y-81204065D01*
X64234065Y-81120404D01*
X64284068Y-81013173D01*
X64290500Y-80964316D01*
X64290500Y-80615684D01*
X64284068Y-80566827D01*
X64234065Y-80459596D01*
X64150404Y-80375935D01*
X64043173Y-80325932D01*
X63994316Y-80319500D01*
X63545684Y-80319500D01*
X63496827Y-80325932D01*
X63389596Y-80375935D01*
X63305935Y-80459596D01*
X63278073Y-80519345D01*
X63258325Y-80561696D01*
X63255932Y-80566827D01*
X63255193Y-80572439D01*
X63255193Y-80572440D01*
X63254319Y-80579081D01*
X63233278Y-80621750D01*
X62817203Y-81037826D01*
X62771327Y-81059218D01*
X62764877Y-81059500D01*
X62151614Y-81059500D01*
X62104048Y-81042187D01*
X62080773Y-81006889D01*
X62066983Y-80961217D01*
X62066980Y-80961209D01*
X62065935Y-80957749D01*
X61993281Y-80821106D01*
X61970917Y-80779044D01*
X61970916Y-80779042D01*
X61969218Y-80775849D01*
X61839011Y-80616200D01*
X61740553Y-80534748D01*
X61683070Y-80487194D01*
X61683069Y-80487193D01*
X61680275Y-80484882D01*
X61669384Y-80478993D01*
X61502238Y-80388618D01*
X61499055Y-80386897D01*
X61495605Y-80385829D01*
X61495600Y-80385827D01*
X61368967Y-80346628D01*
X61302254Y-80325977D01*
X61097369Y-80304443D01*
X61093765Y-80304771D01*
X61093764Y-80304771D01*
X61093215Y-80304821D01*
X60892203Y-80323114D01*
X60874498Y-80328325D01*
X60698043Y-80380258D01*
X60698039Y-80380260D01*
X60694572Y-80381280D01*
X60619680Y-80420433D01*
X60515209Y-80475049D01*
X60515206Y-80475051D01*
X60512002Y-80476726D01*
X60509184Y-80478992D01*
X60509182Y-80478993D01*
X60354266Y-80603548D01*
X60354263Y-80603551D01*
X60351447Y-80605815D01*
X60349121Y-80608587D01*
X60349119Y-80608589D01*
X60221351Y-80760856D01*
X60221348Y-80760860D01*
X60219024Y-80763630D01*
X60119776Y-80944162D01*
X60118682Y-80947611D01*
X60059906Y-81132898D01*
X60057484Y-81140532D01*
X60034520Y-81345262D01*
X60034823Y-81348871D01*
X60034823Y-81348873D01*
X60046047Y-81482527D01*
X60051759Y-81550553D01*
X60108544Y-81748586D01*
X60110196Y-81751800D01*
X60110197Y-81751803D01*
X60186308Y-81899900D01*
X60202712Y-81931818D01*
X60330677Y-82093270D01*
X60333430Y-82095613D01*
X60333433Y-82095616D01*
X60367283Y-82124424D01*
X60487564Y-82226791D01*
X60532473Y-82251890D01*
X60664239Y-82325532D01*
X60664243Y-82325534D01*
X60667398Y-82327297D01*
X60670834Y-82328414D01*
X60670840Y-82328416D01*
X60769226Y-82360383D01*
X60863329Y-82390959D01*
X60898184Y-82395115D01*
X61064294Y-82414922D01*
X61064297Y-82414922D01*
X61067894Y-82415351D01*
X61146742Y-82409284D01*
X61269689Y-82399824D01*
X61269691Y-82399824D01*
X61273300Y-82399546D01*
X61452284Y-82349573D01*
X61468244Y-82345117D01*
X61468245Y-82345117D01*
X61471725Y-82344145D01*
X61503190Y-82328251D01*
X61652376Y-82252892D01*
X61652379Y-82252890D01*
X61655610Y-82251258D01*
X61817951Y-82124424D01*
X61852567Y-82084321D01*
X61950201Y-81971210D01*
X61950203Y-81971208D01*
X61952564Y-81968472D01*
X61954347Y-81965333D01*
X61954350Y-81965329D01*
X62020679Y-81848568D01*
X62054323Y-81789344D01*
X62080338Y-81711141D01*
X62111781Y-81671472D01*
X62150555Y-81660500D01*
X62865433Y-81660500D01*
X62870906Y-81660902D01*
X62875342Y-81662425D01*
X62882166Y-81662169D01*
X62882167Y-81662169D01*
X62925241Y-81660552D01*
X62928017Y-81660500D01*
X62947948Y-81660500D01*
X62951300Y-81659876D01*
X62954691Y-81659563D01*
X62954709Y-81659753D01*
X62958755Y-81659294D01*
X62987208Y-81658226D01*
X62993485Y-81655529D01*
X62993490Y-81655528D01*
X63000343Y-81652584D01*
X63016002Y-81647826D01*
X63023336Y-81646460D01*
X63030053Y-81645209D01*
X63035868Y-81641624D01*
X63035872Y-81641623D01*
X63054290Y-81630270D01*
X63063907Y-81625274D01*
X63085262Y-81616099D01*
X63085264Y-81616098D01*
X63090063Y-81614036D01*
X63094949Y-81610022D01*
X63101380Y-81603591D01*
X63114876Y-81592923D01*
X63119532Y-81590053D01*
X63125348Y-81586468D01*
X63127454Y-81583698D01*
X63172660Y-81565251D01*
X63220856Y-81580725D01*
X63247829Y-81623559D01*
X63249500Y-81639196D01*
X63249500Y-81984316D01*
X63255932Y-82033173D01*
X63305935Y-82140404D01*
X63389596Y-82224065D01*
X63496827Y-82274068D01*
X63545684Y-82280500D01*
X63994316Y-82280500D01*
X64043173Y-82274068D01*
X64150404Y-82224065D01*
X64234065Y-82140404D01*
X64235471Y-82137389D01*
X64275629Y-82109271D01*
X64294780Y-82106750D01*
X64519471Y-82106750D01*
X64567037Y-82124063D01*
X64576508Y-82134399D01*
X64577560Y-82136654D01*
X64661221Y-82220315D01*
X64768452Y-82270318D01*
X64774065Y-82271057D01*
X64786323Y-82272671D01*
X64817309Y-82276750D01*
X65155405Y-82276750D01*
X65202971Y-82294063D01*
X65207731Y-82298424D01*
X65810454Y-82901147D01*
X65810459Y-82901153D01*
X65816889Y-82907583D01*
X65827556Y-82921078D01*
X65834012Y-82931551D01*
X65839451Y-82935687D01*
X65858594Y-82950244D01*
X65866127Y-82956821D01*
X65897116Y-82987809D01*
X65897117Y-82987810D01*
X67033444Y-84124138D01*
X67037029Y-84128291D01*
X67039089Y-84132506D01*
X67075695Y-84166463D01*
X67077695Y-84168389D01*
X67091791Y-84182485D01*
X67094602Y-84184413D01*
X67097221Y-84186590D01*
X67097111Y-84186722D01*
X67100287Y-84189276D01*
X67110751Y-84198982D01*
X67121160Y-84208638D01*
X67127502Y-84211168D01*
X67127508Y-84211172D01*
X67134437Y-84213936D01*
X67148873Y-84221644D01*
X67155021Y-84225861D01*
X67160660Y-84229729D01*
X67167310Y-84231307D01*
X67167312Y-84231308D01*
X67188354Y-84236301D01*
X67198690Y-84239569D01*
X67225136Y-84250120D01*
X67231429Y-84250737D01*
X67240526Y-84250737D01*
X67257613Y-84252737D01*
X67262929Y-84253999D01*
X67262931Y-84253999D01*
X67269580Y-84255577D01*
X67300177Y-84251413D01*
X67310156Y-84250737D01*
X76055196Y-84250737D01*
X76060669Y-84251139D01*
X76065105Y-84252662D01*
X76071929Y-84252406D01*
X76071930Y-84252406D01*
X76115004Y-84250789D01*
X76117780Y-84250737D01*
X76137711Y-84250737D01*
X76141063Y-84250113D01*
X76144454Y-84249800D01*
X76144472Y-84249990D01*
X76148518Y-84249531D01*
X76176971Y-84248463D01*
X76183248Y-84245766D01*
X76183253Y-84245765D01*
X76190106Y-84242821D01*
X76205765Y-84238063D01*
X76213099Y-84236697D01*
X76219816Y-84235446D01*
X76225631Y-84231861D01*
X76225635Y-84231860D01*
X76244053Y-84220507D01*
X76253670Y-84215511D01*
X76275025Y-84206336D01*
X76275027Y-84206335D01*
X76279826Y-84204273D01*
X76284712Y-84200259D01*
X76291143Y-84193828D01*
X76304639Y-84183160D01*
X76309295Y-84180290D01*
X76315111Y-84176705D01*
X76333802Y-84152125D01*
X76340380Y-84144591D01*
X78017340Y-82467631D01*
X78021493Y-82464046D01*
X78025708Y-82461986D01*
X78059666Y-82425379D01*
X78061591Y-82423380D01*
X78075687Y-82409284D01*
X78077615Y-82406473D01*
X78079792Y-82403854D01*
X78079924Y-82403964D01*
X78082478Y-82400788D01*
X78097193Y-82384925D01*
X78097194Y-82384924D01*
X78101840Y-82379915D01*
X78104370Y-82373573D01*
X78104374Y-82373567D01*
X78107138Y-82366638D01*
X78114846Y-82352202D01*
X78119063Y-82346054D01*
X78119064Y-82346053D01*
X78122931Y-82340415D01*
X78125488Y-82329642D01*
X78129503Y-82312721D01*
X78132771Y-82302385D01*
X78138477Y-82288082D01*
X78143322Y-82275939D01*
X78143939Y-82269646D01*
X78143939Y-82260549D01*
X78145939Y-82243462D01*
X78147201Y-82238146D01*
X78147201Y-82238144D01*
X78148779Y-82231495D01*
X78144615Y-82200898D01*
X78143939Y-82190919D01*
X78143939Y-82148849D01*
X80182875Y-82148849D01*
X80182876Y-82508650D01*
X80183193Y-82511057D01*
X80183193Y-82511060D01*
X80187749Y-82545668D01*
X80189403Y-82558237D01*
X80240151Y-82667066D01*
X80325059Y-82751974D01*
X80433888Y-82802722D01*
X80483474Y-82809250D01*
X80693288Y-82809250D01*
X80903275Y-82809249D01*
X80905682Y-82808932D01*
X80905685Y-82808932D01*
X80947250Y-82803461D01*
X80947252Y-82803460D01*
X80952862Y-82802722D01*
X80957989Y-82800331D01*
X80957990Y-82800331D01*
X80998909Y-82781250D01*
X81061691Y-82751974D01*
X81146599Y-82667066D01*
X81149334Y-82661200D01*
X81149611Y-82660805D01*
X81191076Y-82631771D01*
X81210228Y-82629250D01*
X83755683Y-82629250D01*
X83803249Y-82646563D01*
X83808009Y-82650924D01*
X83881059Y-82723974D01*
X83886922Y-82726708D01*
X83890461Y-82729186D01*
X83919494Y-82770651D01*
X83915081Y-82821077D01*
X83903481Y-82838787D01*
X83834241Y-82917187D01*
X83830752Y-82921138D01*
X83769822Y-83050913D01*
X83747766Y-83192573D01*
X83748449Y-83197796D01*
X83748449Y-83197799D01*
X83753040Y-83232904D01*
X83766355Y-83334729D01*
X83824095Y-83465953D01*
X83827487Y-83469988D01*
X83912955Y-83571666D01*
X83912958Y-83571669D01*
X83916345Y-83575698D01*
X83920732Y-83578618D01*
X84031299Y-83652219D01*
X84031302Y-83652220D01*
X84035688Y-83655140D01*
X84172532Y-83697892D01*
X84177800Y-83697989D01*
X84177803Y-83697989D01*
X84238108Y-83699094D01*
X84315874Y-83700520D01*
X84320957Y-83699134D01*
X84320959Y-83699134D01*
X84449102Y-83664198D01*
X84449104Y-83664197D01*
X84454192Y-83662810D01*
X84576366Y-83587795D01*
X84672575Y-83481504D01*
X84735085Y-83352483D01*
X84758871Y-83211104D01*
X84759022Y-83198750D01*
X84754871Y-83169767D01*
X84739445Y-83062047D01*
X84739445Y-83062046D01*
X84738698Y-83056832D01*
X84688417Y-82946243D01*
X84681541Y-82931121D01*
X84679359Y-82926322D01*
X84674893Y-82921138D01*
X84639102Y-82879602D01*
X84600084Y-82834319D01*
X84582149Y-82786984D01*
X84598838Y-82739195D01*
X84612748Y-82726279D01*
X84617691Y-82723974D01*
X84702599Y-82639066D01*
X84753347Y-82530237D01*
X84759875Y-82480651D01*
X84759874Y-82120850D01*
X84759557Y-82118440D01*
X84754086Y-82076875D01*
X84754085Y-82076873D01*
X84753347Y-82071263D01*
X84702599Y-81962434D01*
X84617691Y-81877526D01*
X84508862Y-81826778D01*
X84459276Y-81820250D01*
X84249462Y-81820250D01*
X84039475Y-81820251D01*
X84037068Y-81820568D01*
X84037065Y-81820568D01*
X83995500Y-81826039D01*
X83995498Y-81826040D01*
X83989888Y-81826778D01*
X83984761Y-81829169D01*
X83984760Y-81829169D01*
X83984756Y-81829171D01*
X83881059Y-81877526D01*
X83796151Y-81962434D01*
X83785947Y-81984316D01*
X83785384Y-81985524D01*
X83749591Y-82021317D01*
X83718317Y-82028250D01*
X81210228Y-82028250D01*
X81162662Y-82010937D01*
X81149611Y-81996695D01*
X81149334Y-81996300D01*
X81146599Y-81990434D01*
X81061691Y-81905526D01*
X80952862Y-81854778D01*
X80903276Y-81848250D01*
X80693462Y-81848250D01*
X80483475Y-81848251D01*
X80481068Y-81848568D01*
X80481065Y-81848568D01*
X80439500Y-81854039D01*
X80439498Y-81854040D01*
X80433888Y-81854778D01*
X80428761Y-81857169D01*
X80428760Y-81857169D01*
X80428756Y-81857171D01*
X80325059Y-81905526D01*
X80240151Y-81990434D01*
X80189403Y-82099263D01*
X80182875Y-82148849D01*
X78143939Y-82148849D01*
X78143939Y-80496690D01*
X78161252Y-80449124D01*
X78165613Y-80444364D01*
X78851228Y-79758749D01*
X78897104Y-79737357D01*
X78945999Y-79750458D01*
X78975033Y-79791922D01*
X78977554Y-79810904D01*
X78977842Y-79935532D01*
X78980000Y-80870000D01*
X87550000Y-80870000D01*
X87543043Y-78859438D01*
X87540633Y-78162898D01*
X87557781Y-78115272D01*
X87601531Y-78089811D01*
X87651411Y-78098428D01*
X87677458Y-78123540D01*
X87679847Y-78127379D01*
X87681970Y-78132203D01*
X87685360Y-78136236D01*
X87770830Y-78237916D01*
X87770833Y-78237919D01*
X87774220Y-78241948D01*
X87778607Y-78244868D01*
X87889174Y-78318469D01*
X87889177Y-78318470D01*
X87893563Y-78321390D01*
X88030407Y-78364142D01*
X88035675Y-78364239D01*
X88035678Y-78364239D01*
X88095983Y-78365344D01*
X88173749Y-78366770D01*
X88178832Y-78365384D01*
X88178834Y-78365384D01*
X88306977Y-78330448D01*
X88306979Y-78330447D01*
X88312067Y-78329060D01*
X88394990Y-78278145D01*
X88429748Y-78256804D01*
X88429749Y-78256803D01*
X88434241Y-78254045D01*
X88530450Y-78147754D01*
X88592960Y-78018733D01*
X88616746Y-77877354D01*
X88616897Y-77865000D01*
X88605467Y-77785184D01*
X88597320Y-77728297D01*
X88597320Y-77728296D01*
X88596573Y-77723082D01*
X88537234Y-77592572D01*
X88484657Y-77531553D01*
X88466723Y-77484219D01*
X88483412Y-77436430D01*
X88526914Y-77410549D01*
X88540717Y-77409250D01*
X89557377Y-77409250D01*
X89604943Y-77426563D01*
X89609703Y-77430924D01*
X89664076Y-77485297D01*
X89685468Y-77531173D01*
X89685750Y-77537623D01*
X89685750Y-80420433D01*
X89685348Y-80425906D01*
X89683825Y-80430342D01*
X89684081Y-80437166D01*
X89684081Y-80437167D01*
X89685698Y-80480241D01*
X89685750Y-80483017D01*
X89685750Y-80502948D01*
X89686374Y-80506300D01*
X89686687Y-80509691D01*
X89686497Y-80509709D01*
X89686956Y-80513755D01*
X89688024Y-80542208D01*
X89690721Y-80548485D01*
X89690722Y-80548490D01*
X89693666Y-80555343D01*
X89698424Y-80571002D01*
X89701041Y-80585053D01*
X89704626Y-80590868D01*
X89704627Y-80590872D01*
X89715980Y-80609290D01*
X89720976Y-80618907D01*
X89722198Y-80621750D01*
X89732214Y-80645063D01*
X89736228Y-80649949D01*
X89742659Y-80656380D01*
X89753326Y-80669875D01*
X89759782Y-80680348D01*
X89765221Y-80684484D01*
X89784362Y-80699039D01*
X89791896Y-80705617D01*
X90195183Y-81108905D01*
X90198765Y-81113054D01*
X90200825Y-81117269D01*
X90205837Y-81121918D01*
X90237418Y-81151214D01*
X90239418Y-81153140D01*
X90253526Y-81167248D01*
X90256334Y-81169174D01*
X90258960Y-81171356D01*
X90258844Y-81171495D01*
X90262026Y-81174042D01*
X90277884Y-81188752D01*
X90282896Y-81193401D01*
X90296173Y-81198698D01*
X90310609Y-81206406D01*
X90322396Y-81214492D01*
X90329046Y-81216070D01*
X90329048Y-81216071D01*
X90350090Y-81221064D01*
X90360426Y-81224332D01*
X90386872Y-81234883D01*
X90393165Y-81235500D01*
X90402262Y-81235500D01*
X90419349Y-81237500D01*
X90424665Y-81238762D01*
X90424667Y-81238762D01*
X90431316Y-81240340D01*
X90461913Y-81236176D01*
X90471892Y-81235500D01*
X91677057Y-81235500D01*
X91724623Y-81252813D01*
X91749933Y-81296650D01*
X91744124Y-81340774D01*
X91740065Y-81349479D01*
X91702278Y-81430513D01*
X91695750Y-81480099D01*
X91695751Y-81899900D01*
X91696068Y-81902307D01*
X91696068Y-81902310D01*
X91699900Y-81931418D01*
X91702278Y-81949487D01*
X91704669Y-81954614D01*
X91704669Y-81954615D01*
X91720870Y-81989358D01*
X91753026Y-82058316D01*
X91837934Y-82143224D01*
X91843800Y-82145959D01*
X91844195Y-82146236D01*
X91873229Y-82187701D01*
X91875750Y-82206853D01*
X91875750Y-82267058D01*
X91875348Y-82272531D01*
X91873825Y-82276967D01*
X91874081Y-82283791D01*
X91874081Y-82283792D01*
X91875698Y-82326866D01*
X91875750Y-82329642D01*
X91875750Y-82349573D01*
X91876374Y-82352925D01*
X91876687Y-82356316D01*
X91876497Y-82356334D01*
X91876956Y-82360380D01*
X91878024Y-82388833D01*
X91880721Y-82395110D01*
X91880722Y-82395115D01*
X91883666Y-82401968D01*
X91888424Y-82417627D01*
X91891041Y-82431678D01*
X91894626Y-82437493D01*
X91894627Y-82437497D01*
X91905980Y-82455915D01*
X91910976Y-82465532D01*
X91922214Y-82491688D01*
X91926228Y-82496574D01*
X91932659Y-82503005D01*
X91943326Y-82516500D01*
X91949782Y-82526973D01*
X91955218Y-82531107D01*
X91955222Y-82531111D01*
X91974365Y-82545668D01*
X91981898Y-82552245D01*
X92082308Y-82652655D01*
X92085890Y-82656804D01*
X92087950Y-82661019D01*
X92124543Y-82694964D01*
X92126543Y-82696890D01*
X92140651Y-82710998D01*
X92143459Y-82712924D01*
X92146085Y-82715106D01*
X92145969Y-82715245D01*
X92149151Y-82717792D01*
X92161843Y-82729565D01*
X92170021Y-82737151D01*
X92183298Y-82742448D01*
X92197734Y-82750156D01*
X92209521Y-82758242D01*
X92216171Y-82759820D01*
X92216173Y-82759821D01*
X92237215Y-82764814D01*
X92247551Y-82768082D01*
X92273997Y-82778633D01*
X92280290Y-82779250D01*
X92289387Y-82779250D01*
X92306474Y-82781250D01*
X92311790Y-82782512D01*
X92311792Y-82782512D01*
X92318441Y-82784090D01*
X92349038Y-82779926D01*
X92359017Y-82779250D01*
X93492933Y-82779250D01*
X93498406Y-82779652D01*
X93502842Y-82781175D01*
X93509666Y-82780919D01*
X93509667Y-82780919D01*
X93552741Y-82779302D01*
X93555517Y-82779250D01*
X93575448Y-82779250D01*
X93578800Y-82778626D01*
X93582191Y-82778313D01*
X93582209Y-82778503D01*
X93586255Y-82778044D01*
X93614708Y-82776976D01*
X93620985Y-82774279D01*
X93620990Y-82774278D01*
X93627843Y-82771334D01*
X93643502Y-82766576D01*
X93650836Y-82765210D01*
X93657553Y-82763959D01*
X93663368Y-82760374D01*
X93663372Y-82760373D01*
X93681790Y-82749020D01*
X93691407Y-82744024D01*
X93712762Y-82734849D01*
X93712764Y-82734848D01*
X93717563Y-82732786D01*
X93722449Y-82728772D01*
X93728880Y-82722341D01*
X93742376Y-82711673D01*
X93747032Y-82708803D01*
X93752848Y-82705218D01*
X93771539Y-82680638D01*
X93778117Y-82673104D01*
X94185151Y-82266070D01*
X94189304Y-82262485D01*
X94193519Y-82260425D01*
X94227477Y-82223818D01*
X94229402Y-82221819D01*
X94243498Y-82207723D01*
X94245426Y-82204912D01*
X94247603Y-82202293D01*
X94247735Y-82202403D01*
X94250289Y-82199227D01*
X94265004Y-82183364D01*
X94265005Y-82183363D01*
X94269651Y-82178354D01*
X94274946Y-82165081D01*
X94282655Y-82150644D01*
X94283887Y-82148849D01*
X94290743Y-82138854D01*
X94297317Y-82111152D01*
X94300585Y-82100819D01*
X94309197Y-82079231D01*
X94309197Y-82079230D01*
X94311133Y-82074378D01*
X94311750Y-82068085D01*
X94311750Y-82058992D01*
X94313750Y-82041906D01*
X94315012Y-82036586D01*
X94315012Y-82036583D01*
X94316590Y-82029934D01*
X94315418Y-82021317D01*
X94312426Y-81999337D01*
X94311750Y-81989358D01*
X94311750Y-78874567D01*
X94312152Y-78869094D01*
X94313675Y-78864658D01*
X94313369Y-78856490D01*
X94311802Y-78814758D01*
X94311750Y-78811982D01*
X94311750Y-78792052D01*
X94311126Y-78788700D01*
X94310813Y-78785309D01*
X94311003Y-78785291D01*
X94310544Y-78781242D01*
X94309476Y-78752791D01*
X94306780Y-78746516D01*
X94306779Y-78746512D01*
X94303834Y-78739658D01*
X94299075Y-78723995D01*
X94297710Y-78716664D01*
X94297710Y-78716663D01*
X94296459Y-78709947D01*
X94292874Y-78704132D01*
X94292873Y-78704128D01*
X94281520Y-78685710D01*
X94276524Y-78676093D01*
X94267349Y-78654738D01*
X94267348Y-78654736D01*
X94265286Y-78649937D01*
X94261272Y-78645051D01*
X94254841Y-78638620D01*
X94244173Y-78625124D01*
X94241303Y-78620468D01*
X94237718Y-78614652D01*
X94213138Y-78595961D01*
X94205604Y-78589383D01*
X93628424Y-78012203D01*
X93607032Y-77966327D01*
X93606750Y-77959877D01*
X93606750Y-76895252D01*
X93595117Y-76836769D01*
X93588854Y-76827395D01*
X93554852Y-76776509D01*
X93550802Y-76770448D01*
X93506598Y-76740911D01*
X93484481Y-76726133D01*
X93485498Y-76724611D01*
X93455114Y-76696774D01*
X93446750Y-76662599D01*
X93446750Y-76361853D01*
X93464063Y-76314287D01*
X93478305Y-76301236D01*
X93478700Y-76300959D01*
X93484566Y-76298224D01*
X93569474Y-76213316D01*
X93620222Y-76104487D01*
X93626750Y-76054901D01*
X93626749Y-75635100D01*
X93626432Y-75632690D01*
X93620961Y-75591125D01*
X93620960Y-75591123D01*
X93620222Y-75585513D01*
X93617830Y-75580382D01*
X93596437Y-75534506D01*
X93569474Y-75476684D01*
X93484566Y-75391776D01*
X93478700Y-75389041D01*
X93478305Y-75388764D01*
X93449271Y-75347299D01*
X93446750Y-75328147D01*
X93446750Y-75061853D01*
X93464063Y-75014287D01*
X93478305Y-75001236D01*
X93478700Y-75000959D01*
X93484566Y-74998224D01*
X93569474Y-74913316D01*
X93620222Y-74804487D01*
X93626750Y-74754901D01*
X93626749Y-74335100D01*
X93624130Y-74315200D01*
X93620961Y-74291125D01*
X93620960Y-74291123D01*
X93620222Y-74285513D01*
X93617830Y-74280382D01*
X93572209Y-74182550D01*
X93569474Y-74176684D01*
X93484566Y-74091776D01*
X93478700Y-74089041D01*
X93478305Y-74088764D01*
X93449271Y-74047299D01*
X93446750Y-74028147D01*
X93446750Y-73941853D01*
X93464063Y-73894287D01*
X93478305Y-73881236D01*
X93478700Y-73880959D01*
X93484566Y-73878224D01*
X93569474Y-73793316D01*
X93572209Y-73787451D01*
X93572213Y-73787445D01*
X93581175Y-73768226D01*
X93616968Y-73732433D01*
X93648241Y-73725500D01*
X93758897Y-73725500D01*
X93806463Y-73742813D01*
X93815543Y-73751885D01*
X93845827Y-73787913D01*
X93845832Y-73787918D01*
X93849220Y-73791948D01*
X93858151Y-73797893D01*
X93964174Y-73868469D01*
X93964177Y-73868470D01*
X93968563Y-73871390D01*
X94105407Y-73914142D01*
X94110675Y-73914239D01*
X94110678Y-73914239D01*
X94170983Y-73915344D01*
X94248749Y-73916770D01*
X94253832Y-73915384D01*
X94253834Y-73915384D01*
X94381977Y-73880448D01*
X94381979Y-73880447D01*
X94387067Y-73879060D01*
X94474616Y-73825305D01*
X94504748Y-73806804D01*
X94504749Y-73806803D01*
X94509241Y-73804045D01*
X94605450Y-73697754D01*
X94667960Y-73568733D01*
X94691746Y-73427354D01*
X94691897Y-73415000D01*
X94687686Y-73385597D01*
X94672320Y-73278297D01*
X94672320Y-73278296D01*
X94671573Y-73273082D01*
X94664397Y-73257298D01*
X94614416Y-73147371D01*
X94612234Y-73142572D01*
X94535825Y-73053895D01*
X94522090Y-73037955D01*
X94522089Y-73037954D01*
X94518650Y-73033963D01*
X94514231Y-73031099D01*
X94514229Y-73031097D01*
X94460236Y-72996101D01*
X94398345Y-72955985D01*
X94283416Y-72921614D01*
X94266042Y-72916418D01*
X94266041Y-72916418D01*
X94260989Y-72914907D01*
X94187353Y-72914457D01*
X94122896Y-72914063D01*
X94122895Y-72914063D01*
X94117626Y-72914031D01*
X93979779Y-72953428D01*
X93975319Y-72956242D01*
X93961595Y-72964901D01*
X93858530Y-73029930D01*
X93855043Y-73033878D01*
X93855041Y-73033880D01*
X93797100Y-73099486D01*
X93752637Y-73123678D01*
X93741635Y-73124500D01*
X93648241Y-73124500D01*
X93600675Y-73107187D01*
X93581175Y-73081774D01*
X93572213Y-73062555D01*
X93572209Y-73062549D01*
X93569474Y-73056684D01*
X93484566Y-72971776D01*
X93375737Y-72921028D01*
X93326151Y-72914500D01*
X93146325Y-72914500D01*
X92966350Y-72914501D01*
X92963943Y-72914818D01*
X92963940Y-72914818D01*
X92922375Y-72920289D01*
X92922373Y-72920290D01*
X92916763Y-72921028D01*
X92911636Y-72923419D01*
X92911635Y-72923419D01*
X92898453Y-72929566D01*
X92807934Y-72971776D01*
X92723026Y-73056684D01*
X92722534Y-73056192D01*
X92685401Y-73082192D01*
X92634975Y-73077779D01*
X92609639Y-73056519D01*
X92609474Y-73056684D01*
X92524566Y-72971776D01*
X92415737Y-72921028D01*
X92366151Y-72914500D01*
X92186325Y-72914500D01*
X92006350Y-72914501D01*
X92003943Y-72914818D01*
X92003940Y-72914818D01*
X91962375Y-72920289D01*
X91962373Y-72920290D01*
X91956763Y-72921028D01*
X91951636Y-72923419D01*
X91951635Y-72923419D01*
X91938453Y-72929566D01*
X91847934Y-72971776D01*
X91763026Y-73056684D01*
X91760291Y-73062549D01*
X91760289Y-73062552D01*
X91739602Y-73106917D01*
X91706923Y-73137437D01*
X91708374Y-73139791D01*
X91684138Y-73154730D01*
X91674521Y-73159726D01*
X91653166Y-73168901D01*
X91653164Y-73168902D01*
X91648365Y-73170964D01*
X91643479Y-73174978D01*
X91637048Y-73181409D01*
X91623553Y-73192076D01*
X91613080Y-73198532D01*
X91608944Y-73203971D01*
X91594389Y-73223112D01*
X91587811Y-73230646D01*
X89644071Y-75174386D01*
X89598195Y-75195778D01*
X89591294Y-75196059D01*
X89547883Y-75195794D01*
X89538184Y-75195735D01*
X89490724Y-75178132D01*
X89465682Y-75134141D01*
X89474776Y-75084346D01*
X89486309Y-75069410D01*
X89510315Y-75045404D01*
X89560318Y-74938173D01*
X89566750Y-74889316D01*
X89566750Y-74540684D01*
X89560318Y-74491827D01*
X89510315Y-74384596D01*
X89426654Y-74300935D01*
X89319423Y-74250932D01*
X89270566Y-74244500D01*
X88821934Y-74244500D01*
X88773077Y-74250932D01*
X88665846Y-74300935D01*
X88582185Y-74384596D01*
X88580380Y-74382791D01*
X88547636Y-74405726D01*
X88528473Y-74408250D01*
X87601386Y-74408250D01*
X87553820Y-74390937D01*
X87528510Y-74347100D01*
X87527386Y-74334506D01*
X87522682Y-72974965D01*
X87520000Y-72200000D01*
X87510986Y-72199980D01*
X83054337Y-72190185D01*
X83006809Y-72172768D01*
X82981596Y-72128875D01*
X82980500Y-72116185D01*
X82980500Y-70955123D01*
X82997813Y-70907557D01*
X83002174Y-70902797D01*
X83542798Y-70362174D01*
X83588675Y-70340782D01*
X83595124Y-70340500D01*
X83763558Y-70340500D01*
X83811124Y-70357813D01*
X83836434Y-70401650D01*
X83827644Y-70451500D01*
X83815884Y-70466826D01*
X83811026Y-70471684D01*
X83760278Y-70580513D01*
X83753750Y-70630099D01*
X83753751Y-70989900D01*
X83760278Y-71039487D01*
X83811026Y-71148316D01*
X83895934Y-71233224D01*
X84004763Y-71283972D01*
X84054349Y-71290500D01*
X84264163Y-71290500D01*
X84474150Y-71290499D01*
X84476557Y-71290182D01*
X84476560Y-71290182D01*
X84518125Y-71284711D01*
X84518127Y-71284710D01*
X84523737Y-71283972D01*
X84528864Y-71281581D01*
X84528865Y-71281581D01*
X84567706Y-71263469D01*
X84632566Y-71233224D01*
X84717474Y-71148316D01*
X84720209Y-71142450D01*
X84720486Y-71142055D01*
X84761951Y-71113021D01*
X84781103Y-71110500D01*
X84824241Y-71110500D01*
X84871807Y-71127813D01*
X84880887Y-71136884D01*
X84919580Y-71182916D01*
X84919583Y-71182919D01*
X84922970Y-71186948D01*
X84932691Y-71193419D01*
X85037924Y-71263469D01*
X85037927Y-71263470D01*
X85042313Y-71266390D01*
X85179157Y-71309142D01*
X85184425Y-71309239D01*
X85184428Y-71309239D01*
X85244733Y-71310344D01*
X85322499Y-71311770D01*
X85327582Y-71310384D01*
X85327584Y-71310384D01*
X85455727Y-71275448D01*
X85455729Y-71275447D01*
X85460817Y-71274060D01*
X85539558Y-71225713D01*
X85578498Y-71201804D01*
X85578499Y-71201803D01*
X85582991Y-71199045D01*
X85679200Y-71092754D01*
X85741710Y-70963733D01*
X85765496Y-70822354D01*
X85765647Y-70810000D01*
X85751727Y-70712799D01*
X85746070Y-70673297D01*
X85746070Y-70673296D01*
X85745323Y-70668082D01*
X85685984Y-70537572D01*
X85621558Y-70462802D01*
X85603625Y-70415469D01*
X85620314Y-70367680D01*
X85663816Y-70341799D01*
X85677619Y-70340500D01*
X96638252Y-70340500D01*
X96685818Y-70357813D01*
X96690578Y-70362174D01*
X101473201Y-75144797D01*
X101494593Y-75190673D01*
X101494875Y-75197123D01*
X101494875Y-75436316D01*
X101495192Y-75438723D01*
X101499600Y-75472203D01*
X101501307Y-75485173D01*
X101551310Y-75592404D01*
X101634971Y-75676065D01*
X101742202Y-75726068D01*
X101791059Y-75732500D01*
X102139691Y-75732500D01*
X102188548Y-75726068D01*
X102295779Y-75676065D01*
X102379440Y-75592404D01*
X102403678Y-75540425D01*
X102408308Y-75530497D01*
X102444102Y-75494704D01*
X102494528Y-75490293D01*
X102535992Y-75519327D01*
X102542442Y-75530497D01*
X102547072Y-75540425D01*
X102571310Y-75592404D01*
X102654971Y-75676065D01*
X102762202Y-75726068D01*
X102811059Y-75732500D01*
X103159691Y-75732500D01*
X103208548Y-75726068D01*
X103315779Y-75676065D01*
X103399440Y-75592404D01*
X103449443Y-75485173D01*
X103451151Y-75472203D01*
X103455558Y-75438723D01*
X103455875Y-75436316D01*
X103455875Y-74987684D01*
X103449443Y-74938827D01*
X103399440Y-74831596D01*
X103394862Y-74827018D01*
X103391149Y-74821715D01*
X103393165Y-74820303D01*
X103376157Y-74783829D01*
X103375875Y-74777379D01*
X103375875Y-73967000D01*
X103393188Y-73919434D01*
X103437025Y-73894124D01*
X103449875Y-73893000D01*
X103845123Y-73893000D01*
X103848692Y-73892290D01*
X103848693Y-73892290D01*
X103869440Y-73888163D01*
X103903606Y-73881367D01*
X103918538Y-73871390D01*
X103963866Y-73841102D01*
X103969927Y-73837052D01*
X103988345Y-73809488D01*
X104010191Y-73776794D01*
X104010191Y-73776793D01*
X104014242Y-73770731D01*
X104025875Y-73712248D01*
X104025875Y-72672752D01*
X104014242Y-72614269D01*
X103969927Y-72547948D01*
X103903606Y-72503633D01*
X103859080Y-72494776D01*
X103848693Y-72492710D01*
X103848692Y-72492710D01*
X103845123Y-72492000D01*
X102305627Y-72492000D01*
X102302058Y-72492710D01*
X102302057Y-72492710D01*
X102291670Y-72494776D01*
X102247144Y-72503633D01*
X102180823Y-72547948D01*
X102136508Y-72614269D01*
X102124875Y-72672752D01*
X102124875Y-73712248D01*
X102136508Y-73770731D01*
X102140559Y-73776793D01*
X102140559Y-73776794D01*
X102162405Y-73809488D01*
X102180823Y-73837052D01*
X102186884Y-73841102D01*
X102232213Y-73871390D01*
X102247144Y-73881367D01*
X102281310Y-73888163D01*
X102302057Y-73892290D01*
X102302058Y-73892290D01*
X102305627Y-73893000D01*
X102700875Y-73893000D01*
X102748441Y-73910313D01*
X102773751Y-73954150D01*
X102774875Y-73967000D01*
X102774875Y-74644879D01*
X102757562Y-74692445D01*
X102732149Y-74711946D01*
X102654971Y-74747935D01*
X102571310Y-74831596D01*
X102548601Y-74880296D01*
X102542442Y-74893503D01*
X102506648Y-74929296D01*
X102456222Y-74933707D01*
X102414758Y-74904673D01*
X102408308Y-74893503D01*
X102402149Y-74880296D01*
X102379440Y-74831596D01*
X102295779Y-74747935D01*
X102188548Y-74697932D01*
X102181006Y-74696939D01*
X102157549Y-74693851D01*
X102139691Y-74691500D01*
X101900499Y-74691500D01*
X101852933Y-74674187D01*
X101848173Y-74669826D01*
X97044445Y-69866099D01*
X97040860Y-69861946D01*
X97038800Y-69857731D01*
X97002193Y-69823773D01*
X97000194Y-69821848D01*
X96986098Y-69807752D01*
X96983287Y-69805824D01*
X96980668Y-69803647D01*
X96980778Y-69803515D01*
X96977602Y-69800961D01*
X96961739Y-69786246D01*
X96961738Y-69786245D01*
X96956729Y-69781599D01*
X96950387Y-69779069D01*
X96950381Y-69779065D01*
X96943452Y-69776301D01*
X96929016Y-69768593D01*
X96922868Y-69764376D01*
X96922867Y-69764375D01*
X96917229Y-69760508D01*
X96910579Y-69758930D01*
X96910577Y-69758929D01*
X96889535Y-69753936D01*
X96879199Y-69750668D01*
X96877307Y-69749913D01*
X96852753Y-69740117D01*
X96846460Y-69739500D01*
X96837363Y-69739500D01*
X96820276Y-69737500D01*
X96814960Y-69736238D01*
X96814958Y-69736238D01*
X96808309Y-69734660D01*
X96787441Y-69737500D01*
X96777712Y-69738824D01*
X96767733Y-69739500D01*
X84082327Y-69739500D01*
X84034761Y-69722187D01*
X84009451Y-69678350D01*
X84018241Y-69628500D01*
X84028203Y-69615036D01*
X84157470Y-69476392D01*
X84878015Y-68703580D01*
X84923113Y-68680597D01*
X84932234Y-68680045D01*
X102498811Y-68704796D01*
G37*
%TD.AperFunction*%
%TA.AperFunction,Conductor*%
G36*
X92697525Y-73772221D02*
G01*
X92722861Y-73793481D01*
X92723026Y-73793316D01*
X92807934Y-73878224D01*
X92813800Y-73880959D01*
X92814195Y-73881236D01*
X92843229Y-73922701D01*
X92845750Y-73941853D01*
X92845750Y-74028147D01*
X92828437Y-74075713D01*
X92814195Y-74088764D01*
X92813800Y-74089041D01*
X92807934Y-74091776D01*
X92723026Y-74176684D01*
X92672278Y-74285513D01*
X92665750Y-74335099D01*
X92665751Y-74754900D01*
X92666068Y-74757307D01*
X92666068Y-74757310D01*
X92670017Y-74787308D01*
X92672278Y-74804487D01*
X92674669Y-74809614D01*
X92674669Y-74809615D01*
X92687887Y-74837960D01*
X92723026Y-74913316D01*
X92807934Y-74998224D01*
X92813800Y-75000959D01*
X92814195Y-75001236D01*
X92843229Y-75042701D01*
X92845750Y-75061853D01*
X92845750Y-75328147D01*
X92828437Y-75375713D01*
X92814195Y-75388764D01*
X92813800Y-75389041D01*
X92807934Y-75391776D01*
X92723026Y-75476684D01*
X92722534Y-75476192D01*
X92685401Y-75502192D01*
X92634975Y-75497779D01*
X92609639Y-75476519D01*
X92609474Y-75476684D01*
X92524566Y-75391776D01*
X92415737Y-75341028D01*
X92366151Y-75334500D01*
X92186325Y-75334500D01*
X92006350Y-75334501D01*
X92003943Y-75334818D01*
X92003940Y-75334818D01*
X91962375Y-75340289D01*
X91962373Y-75340290D01*
X91956763Y-75341028D01*
X91951636Y-75343419D01*
X91951635Y-75343419D01*
X91914465Y-75360752D01*
X91847934Y-75391776D01*
X91763026Y-75476684D01*
X91712278Y-75585513D01*
X91705750Y-75635099D01*
X91705751Y-75761010D01*
X91705751Y-75869876D01*
X91688438Y-75917442D01*
X91684077Y-75922202D01*
X90932349Y-76673930D01*
X90928196Y-76677515D01*
X90923981Y-76679575D01*
X90913542Y-76690828D01*
X90868502Y-76713925D01*
X90859292Y-76714500D01*
X90661373Y-76714500D01*
X90613807Y-76697187D01*
X90609047Y-76692826D01*
X90451070Y-76534849D01*
X90447485Y-76530696D01*
X90445425Y-76526481D01*
X90408818Y-76492523D01*
X90406819Y-76490598D01*
X90392723Y-76476502D01*
X90389912Y-76474574D01*
X90387293Y-76472397D01*
X90387403Y-76472265D01*
X90384227Y-76469711D01*
X90368364Y-76454996D01*
X90368363Y-76454995D01*
X90363354Y-76450349D01*
X90357012Y-76447819D01*
X90357006Y-76447815D01*
X90350077Y-76445051D01*
X90335641Y-76437343D01*
X90329493Y-76433126D01*
X90329492Y-76433125D01*
X90323854Y-76429258D01*
X90317204Y-76427680D01*
X90317202Y-76427679D01*
X90296160Y-76422686D01*
X90285824Y-76419418D01*
X90283932Y-76418663D01*
X90259378Y-76408867D01*
X90253085Y-76408250D01*
X90243988Y-76408250D01*
X90226901Y-76406250D01*
X90221585Y-76404988D01*
X90221583Y-76404988D01*
X90214934Y-76403410D01*
X90195161Y-76406101D01*
X90184337Y-76407574D01*
X90174358Y-76408250D01*
X87608306Y-76408250D01*
X87560740Y-76390937D01*
X87535430Y-76347100D01*
X87534306Y-76334505D01*
X87534130Y-76283505D01*
X87551279Y-76235880D01*
X87595029Y-76210419D01*
X87608130Y-76209250D01*
X89280111Y-76209250D01*
X89285584Y-76209652D01*
X89290020Y-76211175D01*
X89296844Y-76210919D01*
X89296845Y-76210919D01*
X89339919Y-76209302D01*
X89342695Y-76209250D01*
X89362626Y-76209250D01*
X89365978Y-76208626D01*
X89369369Y-76208313D01*
X89369387Y-76208503D01*
X89373433Y-76208044D01*
X89401886Y-76206976D01*
X89408163Y-76204279D01*
X89408168Y-76204278D01*
X89415021Y-76201334D01*
X89430678Y-76196576D01*
X89439877Y-76194863D01*
X89463382Y-76194586D01*
X89466246Y-76195481D01*
X89471514Y-76195578D01*
X89471517Y-76195578D01*
X89531822Y-76196683D01*
X89609588Y-76198109D01*
X89614671Y-76196723D01*
X89614673Y-76196723D01*
X89742816Y-76161787D01*
X89742818Y-76161786D01*
X89747906Y-76160399D01*
X89838968Y-76104487D01*
X89865587Y-76088143D01*
X89865588Y-76088142D01*
X89870080Y-76085384D01*
X89966289Y-75979093D01*
X90028799Y-75850072D01*
X90052585Y-75708693D01*
X90052736Y-75696339D01*
X90047877Y-75662411D01*
X90058272Y-75612872D01*
X90068804Y-75599595D01*
X91771905Y-73896495D01*
X91817781Y-73875103D01*
X91855504Y-73881754D01*
X91956763Y-73928972D01*
X92006349Y-73935500D01*
X92186175Y-73935500D01*
X92366150Y-73935499D01*
X92368557Y-73935182D01*
X92368560Y-73935182D01*
X92410125Y-73929711D01*
X92410127Y-73929710D01*
X92415737Y-73928972D01*
X92420864Y-73926581D01*
X92420865Y-73926581D01*
X92468734Y-73904259D01*
X92524566Y-73878224D01*
X92609474Y-73793316D01*
X92609966Y-73793808D01*
X92647099Y-73767808D01*
X92697525Y-73772221D01*
G37*
%TD.AperFunction*%
%TA.AperFunction,Conductor*%
G36*
X73385433Y-68728977D02*
G01*
X79027697Y-68739937D01*
X79075228Y-68757342D01*
X79081914Y-68763731D01*
X79613253Y-69339103D01*
X79632804Y-69385790D01*
X79632006Y-69400685D01*
X79614391Y-69513823D01*
X79615074Y-69519046D01*
X79615074Y-69519049D01*
X79622412Y-69575164D01*
X79632980Y-69655979D01*
X79690720Y-69787203D01*
X79694112Y-69791238D01*
X79779580Y-69892916D01*
X79779583Y-69892919D01*
X79782970Y-69896948D01*
X79787357Y-69899868D01*
X79897924Y-69973469D01*
X79897927Y-69973470D01*
X79902313Y-69976390D01*
X80022275Y-70013868D01*
X80062513Y-70044576D01*
X80073599Y-70093966D01*
X80050344Y-70138927D01*
X80000207Y-70158500D01*
X79742791Y-70158501D01*
X79736350Y-70158501D01*
X79733943Y-70158818D01*
X79733940Y-70158818D01*
X79692375Y-70164289D01*
X79692373Y-70164290D01*
X79686763Y-70165028D01*
X79681636Y-70167419D01*
X79681635Y-70167419D01*
X79655614Y-70179553D01*
X79577934Y-70215776D01*
X79493026Y-70300684D01*
X79490291Y-70306550D01*
X79490014Y-70306945D01*
X79448549Y-70335979D01*
X79429397Y-70338500D01*
X79193103Y-70338500D01*
X79145537Y-70321187D01*
X79132486Y-70306945D01*
X79132209Y-70306550D01*
X79129474Y-70300684D01*
X79044566Y-70215776D01*
X78935737Y-70165028D01*
X78886151Y-70158500D01*
X78676337Y-70158500D01*
X78466350Y-70158501D01*
X78463943Y-70158818D01*
X78463940Y-70158818D01*
X78422375Y-70164289D01*
X78422373Y-70164290D01*
X78416763Y-70165028D01*
X78411636Y-70167419D01*
X78411635Y-70167419D01*
X78385614Y-70179553D01*
X78307934Y-70215776D01*
X78223026Y-70300684D01*
X78220289Y-70306554D01*
X78216577Y-70311855D01*
X78215318Y-70310973D01*
X78184982Y-70341314D01*
X78153703Y-70348250D01*
X77995690Y-70348250D01*
X77951855Y-70331818D01*
X77951275Y-70332713D01*
X77947204Y-70330074D01*
X77947203Y-70330074D01*
X77946856Y-70329849D01*
X77946854Y-70329847D01*
X77894796Y-70296105D01*
X77830970Y-70254735D01*
X77716004Y-70220353D01*
X77698667Y-70215168D01*
X77698666Y-70215168D01*
X77693614Y-70213657D01*
X77619978Y-70213207D01*
X77555521Y-70212813D01*
X77555520Y-70212813D01*
X77550251Y-70212781D01*
X77412404Y-70252178D01*
X77291155Y-70328680D01*
X77260328Y-70363585D01*
X77202589Y-70428963D01*
X77196252Y-70436138D01*
X77135322Y-70565913D01*
X77134512Y-70571118D01*
X77134511Y-70571120D01*
X77133628Y-70576794D01*
X77113266Y-70707573D01*
X77131855Y-70849729D01*
X77189595Y-70980953D01*
X77206524Y-71001093D01*
X77278455Y-71086666D01*
X77278458Y-71086669D01*
X77281845Y-71090698D01*
X77315380Y-71113021D01*
X77396799Y-71167219D01*
X77396802Y-71167220D01*
X77401188Y-71170140D01*
X77538032Y-71212892D01*
X77543300Y-71212989D01*
X77543303Y-71212989D01*
X77603608Y-71214094D01*
X77681374Y-71215520D01*
X77686457Y-71214134D01*
X77686459Y-71214134D01*
X77814602Y-71179198D01*
X77814604Y-71179197D01*
X77819692Y-71177810D01*
X77904234Y-71125901D01*
X77937373Y-71105554D01*
X77937374Y-71105553D01*
X77941866Y-71102795D01*
X78038075Y-70996504D01*
X78040374Y-70991759D01*
X78040376Y-70991756D01*
X78040750Y-70990984D01*
X78041175Y-70990572D01*
X78043323Y-70987387D01*
X78043991Y-70987838D01*
X78077070Y-70955726D01*
X78107345Y-70949250D01*
X78166224Y-70949250D01*
X78213790Y-70966563D01*
X78222386Y-70975944D01*
X78223026Y-70977316D01*
X78307934Y-71062224D01*
X78416763Y-71112972D01*
X78422376Y-71113711D01*
X78434409Y-71115295D01*
X78466349Y-71119500D01*
X78676163Y-71119500D01*
X78886150Y-71119499D01*
X78888557Y-71119182D01*
X78888560Y-71119182D01*
X78930125Y-71113711D01*
X78930127Y-71113710D01*
X78935737Y-71112972D01*
X78940864Y-71110581D01*
X78940865Y-71110581D01*
X78979094Y-71092754D01*
X79044566Y-71062224D01*
X79129474Y-70977316D01*
X79132209Y-70971450D01*
X79132486Y-70971055D01*
X79173951Y-70942021D01*
X79193103Y-70939500D01*
X79429397Y-70939500D01*
X79476963Y-70956813D01*
X79490014Y-70971055D01*
X79490291Y-70971450D01*
X79493026Y-70977316D01*
X79577934Y-71062224D01*
X79686763Y-71112972D01*
X79692376Y-71113711D01*
X79704409Y-71115295D01*
X79736349Y-71119500D01*
X79946163Y-71119500D01*
X80156150Y-71119499D01*
X80158557Y-71119182D01*
X80158560Y-71119182D01*
X80200125Y-71113711D01*
X80200127Y-71113710D01*
X80205737Y-71112972D01*
X80210864Y-71110581D01*
X80210865Y-71110581D01*
X80249094Y-71092754D01*
X80314566Y-71062224D01*
X80399474Y-70977316D01*
X80450222Y-70868487D01*
X80456750Y-70818901D01*
X80456749Y-70460372D01*
X80474062Y-70412806D01*
X80517899Y-70387496D01*
X80567749Y-70396286D01*
X80583075Y-70408046D01*
X80757826Y-70582797D01*
X80779218Y-70628673D01*
X80779500Y-70635123D01*
X80779500Y-72136000D01*
X80762187Y-72183566D01*
X80718350Y-72208876D01*
X80705500Y-72210000D01*
X78960000Y-72210000D01*
X78963121Y-73561226D01*
X78945918Y-73608832D01*
X78902139Y-73634243D01*
X78852269Y-73625568D01*
X78819642Y-73586867D01*
X78817180Y-73577093D01*
X78816070Y-73573297D01*
X78815323Y-73568082D01*
X78811372Y-73559391D01*
X78758166Y-73442371D01*
X78755984Y-73437572D01*
X78662400Y-73328963D01*
X78657981Y-73326099D01*
X78657979Y-73326097D01*
X78612126Y-73296377D01*
X78542095Y-73250985D01*
X78438168Y-73219904D01*
X78409792Y-73211418D01*
X78409791Y-73211418D01*
X78404739Y-73209907D01*
X78354752Y-73209602D01*
X78284343Y-73209171D01*
X78236883Y-73191567D01*
X78232469Y-73187498D01*
X76566070Y-71521099D01*
X76562485Y-71516946D01*
X76560425Y-71512731D01*
X76523818Y-71478773D01*
X76521819Y-71476848D01*
X76507723Y-71462752D01*
X76504912Y-71460824D01*
X76502293Y-71458647D01*
X76502403Y-71458515D01*
X76499227Y-71455961D01*
X76483364Y-71441246D01*
X76483363Y-71441245D01*
X76478354Y-71436599D01*
X76472012Y-71434069D01*
X76472006Y-71434065D01*
X76465077Y-71431301D01*
X76450641Y-71423593D01*
X76444493Y-71419376D01*
X76444492Y-71419375D01*
X76438854Y-71415508D01*
X76432204Y-71413930D01*
X76432202Y-71413929D01*
X76411160Y-71408936D01*
X76400824Y-71405668D01*
X76398932Y-71404913D01*
X76374378Y-71395117D01*
X76368085Y-71394500D01*
X76358988Y-71394500D01*
X76341901Y-71392500D01*
X76336585Y-71391238D01*
X76336583Y-71391238D01*
X76329934Y-71389660D01*
X76309066Y-71392500D01*
X76299337Y-71393824D01*
X76289358Y-71394500D01*
X76176991Y-71394500D01*
X76129425Y-71377187D01*
X76109925Y-71351774D01*
X76100963Y-71332555D01*
X76100959Y-71332549D01*
X76098224Y-71326684D01*
X76013316Y-71241776D01*
X75904487Y-71191028D01*
X75854901Y-71184500D01*
X75675075Y-71184500D01*
X75495100Y-71184501D01*
X75492693Y-71184818D01*
X75492690Y-71184818D01*
X75451125Y-71190289D01*
X75451123Y-71190290D01*
X75445513Y-71191028D01*
X75440386Y-71193419D01*
X75440385Y-71193419D01*
X75422404Y-71201804D01*
X75336684Y-71241776D01*
X75251776Y-71326684D01*
X75251284Y-71326192D01*
X75214151Y-71352192D01*
X75163725Y-71347779D01*
X75138389Y-71326519D01*
X75138224Y-71326684D01*
X75053316Y-71241776D01*
X75047450Y-71239041D01*
X75047055Y-71238764D01*
X75018021Y-71197299D01*
X75015500Y-71178147D01*
X75015500Y-71145053D01*
X75032813Y-71097487D01*
X75047055Y-71084436D01*
X75047450Y-71084159D01*
X75053316Y-71081424D01*
X75138224Y-70996516D01*
X75188972Y-70887687D01*
X75195500Y-70838101D01*
X75195499Y-70418300D01*
X75195182Y-70415890D01*
X75189711Y-70374325D01*
X75189710Y-70374323D01*
X75188972Y-70368713D01*
X75138224Y-70259884D01*
X75053316Y-70174976D01*
X74944487Y-70124228D01*
X74894901Y-70117700D01*
X74715075Y-70117700D01*
X74535100Y-70117701D01*
X74532693Y-70118018D01*
X74532690Y-70118018D01*
X74491125Y-70123489D01*
X74491123Y-70123490D01*
X74485513Y-70124228D01*
X74480386Y-70126619D01*
X74480385Y-70126619D01*
X74480381Y-70126621D01*
X74376684Y-70174976D01*
X74291776Y-70259884D01*
X74289041Y-70265749D01*
X74289037Y-70265755D01*
X74280075Y-70284974D01*
X74244282Y-70320767D01*
X74213009Y-70327700D01*
X73956757Y-70327700D01*
X73909191Y-70310387D01*
X73900697Y-70302004D01*
X73874590Y-70271705D01*
X73874589Y-70271704D01*
X73871150Y-70267713D01*
X73866731Y-70264849D01*
X73866729Y-70264847D01*
X73826818Y-70238978D01*
X73750845Y-70189735D01*
X73633124Y-70154529D01*
X73618542Y-70150168D01*
X73618541Y-70150168D01*
X73613489Y-70148657D01*
X73539853Y-70148207D01*
X73475396Y-70147813D01*
X73475395Y-70147813D01*
X73470126Y-70147781D01*
X73332279Y-70187178D01*
X73211030Y-70263680D01*
X73177184Y-70302004D01*
X73122798Y-70363585D01*
X73116127Y-70371138D01*
X73055197Y-70500913D01*
X73033141Y-70642573D01*
X73033824Y-70647796D01*
X73033824Y-70647799D01*
X73037684Y-70677316D01*
X73051730Y-70784729D01*
X73109470Y-70915953D01*
X73122542Y-70931504D01*
X73198330Y-71021666D01*
X73198333Y-71021669D01*
X73201720Y-71025698D01*
X73206107Y-71028618D01*
X73316674Y-71102219D01*
X73316677Y-71102220D01*
X73321063Y-71105140D01*
X73457907Y-71147892D01*
X73463175Y-71147989D01*
X73463178Y-71147989D01*
X73523483Y-71149094D01*
X73601249Y-71150520D01*
X73606332Y-71149134D01*
X73606334Y-71149134D01*
X73734477Y-71114198D01*
X73734479Y-71114197D01*
X73739567Y-71112810D01*
X73817500Y-71064959D01*
X73857248Y-71040554D01*
X73857249Y-71040553D01*
X73861741Y-71037795D01*
X73924481Y-70968480D01*
X73938456Y-70953041D01*
X73983212Y-70929393D01*
X73993319Y-70928700D01*
X74213009Y-70928700D01*
X74260575Y-70946013D01*
X74280075Y-70971426D01*
X74289037Y-70990645D01*
X74289041Y-70990650D01*
X74291776Y-70996516D01*
X74376684Y-71081424D01*
X74382550Y-71084159D01*
X74382945Y-71084436D01*
X74411979Y-71125901D01*
X74414500Y-71145053D01*
X74414500Y-71178147D01*
X74397187Y-71225713D01*
X74382945Y-71238764D01*
X74382550Y-71239041D01*
X74376684Y-71241776D01*
X74291776Y-71326684D01*
X74241028Y-71435513D01*
X74234500Y-71485099D01*
X74234501Y-71904900D01*
X74234818Y-71907307D01*
X74234818Y-71907310D01*
X74235001Y-71908695D01*
X74241028Y-71954487D01*
X74291776Y-72063316D01*
X74376684Y-72148224D01*
X74485513Y-72198972D01*
X74491126Y-72199711D01*
X74503159Y-72201295D01*
X74535099Y-72205500D01*
X74714925Y-72205500D01*
X74894900Y-72205499D01*
X74897307Y-72205182D01*
X74897310Y-72205182D01*
X74938875Y-72199711D01*
X74938877Y-72199710D01*
X74944487Y-72198972D01*
X74949614Y-72196581D01*
X74949615Y-72196581D01*
X75000681Y-72172768D01*
X75053316Y-72148224D01*
X75138224Y-72063316D01*
X75138716Y-72063808D01*
X75175849Y-72037808D01*
X75226275Y-72042221D01*
X75251611Y-72063481D01*
X75251776Y-72063316D01*
X75336684Y-72148224D01*
X75445513Y-72198972D01*
X75451126Y-72199711D01*
X75463159Y-72201295D01*
X75495099Y-72205500D01*
X75674925Y-72205500D01*
X75854900Y-72205499D01*
X75857307Y-72205182D01*
X75857310Y-72205182D01*
X75898875Y-72199711D01*
X75898877Y-72199710D01*
X75904487Y-72198972D01*
X75909614Y-72196581D01*
X75909615Y-72196581D01*
X75960681Y-72172768D01*
X76013316Y-72148224D01*
X76098224Y-72063316D01*
X76104481Y-72049898D01*
X76140273Y-72014105D01*
X76190699Y-72009692D01*
X76223874Y-72028845D01*
X77483011Y-73287983D01*
X77504403Y-73333860D01*
X77491302Y-73382754D01*
X77449838Y-73411788D01*
X77402408Y-73408096D01*
X77399334Y-73405988D01*
X77371641Y-73399416D01*
X77361304Y-73396148D01*
X77359412Y-73395393D01*
X77334858Y-73385597D01*
X77328565Y-73384980D01*
X77319468Y-73384980D01*
X77302381Y-73382980D01*
X77297065Y-73381718D01*
X77297063Y-73381718D01*
X77290414Y-73380140D01*
X77271207Y-73382754D01*
X77259817Y-73384304D01*
X77249838Y-73384980D01*
X76874353Y-73384980D01*
X76826787Y-73367667D01*
X76822027Y-73363306D01*
X76547670Y-73088949D01*
X76544085Y-73084796D01*
X76542025Y-73080581D01*
X76505418Y-73046623D01*
X76503419Y-73044698D01*
X76489323Y-73030602D01*
X76486512Y-73028674D01*
X76483893Y-73026497D01*
X76484003Y-73026365D01*
X76480827Y-73023811D01*
X76464964Y-73009096D01*
X76464963Y-73009095D01*
X76459954Y-73004449D01*
X76453612Y-73001919D01*
X76453606Y-73001915D01*
X76446677Y-72999151D01*
X76432241Y-72991443D01*
X76426093Y-72987226D01*
X76426092Y-72987225D01*
X76420454Y-72983358D01*
X76413804Y-72981780D01*
X76413802Y-72981779D01*
X76392760Y-72976786D01*
X76382424Y-72973518D01*
X76371202Y-72969041D01*
X76355978Y-72962967D01*
X76349685Y-72962350D01*
X76340588Y-72962350D01*
X76323501Y-72960350D01*
X76318185Y-72959088D01*
X76318183Y-72959088D01*
X76311534Y-72957510D01*
X76290666Y-72960350D01*
X76280937Y-72961674D01*
X76270958Y-72962350D01*
X76210968Y-72962350D01*
X76163402Y-72945037D01*
X76143901Y-72919623D01*
X76129302Y-72888314D01*
X76129300Y-72888311D01*
X76126565Y-72882446D01*
X76042904Y-72798785D01*
X75935673Y-72748782D01*
X75886816Y-72742350D01*
X75538184Y-72742350D01*
X75489327Y-72748782D01*
X75382096Y-72798785D01*
X75298435Y-72882446D01*
X75280506Y-72920895D01*
X75269567Y-72944353D01*
X75233773Y-72980146D01*
X75183347Y-72984557D01*
X75141883Y-72955523D01*
X75135433Y-72944353D01*
X75124494Y-72920895D01*
X75106565Y-72882446D01*
X75022904Y-72798785D01*
X74915673Y-72748782D01*
X74866816Y-72742350D01*
X74518184Y-72742350D01*
X74469327Y-72748782D01*
X74362096Y-72798785D01*
X74278435Y-72882446D01*
X74278352Y-72882623D01*
X74239497Y-72909829D01*
X74220346Y-72912350D01*
X73872437Y-72912350D01*
X73856862Y-72910692D01*
X73849872Y-72909187D01*
X73849871Y-72909187D01*
X73843889Y-72907899D01*
X73837814Y-72908618D01*
X73837813Y-72908618D01*
X73810617Y-72911837D01*
X73801919Y-72912350D01*
X73798035Y-72912350D01*
X73795026Y-72912851D01*
X73795024Y-72912851D01*
X73790850Y-72913546D01*
X73779430Y-72915447D01*
X73776003Y-72915934D01*
X73757440Y-72918131D01*
X73734084Y-72920895D01*
X73734083Y-72920895D01*
X73728011Y-72921614D01*
X73722499Y-72924261D01*
X73721362Y-72924591D01*
X73720557Y-72924774D01*
X73719967Y-72924961D01*
X73719217Y-72925268D01*
X73718078Y-72925658D01*
X73712047Y-72926662D01*
X73706665Y-72929566D01*
X73669509Y-72949615D01*
X73666401Y-72951199D01*
X73643179Y-72962350D01*
X73622824Y-72972124D01*
X73618876Y-72975442D01*
X73617923Y-72976395D01*
X73614460Y-72979318D01*
X73609356Y-72982072D01*
X73588671Y-73004449D01*
X73575010Y-73019227D01*
X73572996Y-73021322D01*
X73426492Y-73167826D01*
X73380616Y-73189218D01*
X73374166Y-73189500D01*
X71795287Y-73189500D01*
X71779712Y-73187842D01*
X71772722Y-73186337D01*
X71772721Y-73186337D01*
X71766739Y-73185049D01*
X71760664Y-73185768D01*
X71760663Y-73185768D01*
X71733467Y-73188987D01*
X71724769Y-73189500D01*
X71720885Y-73189500D01*
X71717876Y-73190001D01*
X71717874Y-73190001D01*
X71713700Y-73190696D01*
X71702280Y-73192597D01*
X71698853Y-73193084D01*
X71650861Y-73198764D01*
X71645348Y-73201411D01*
X71644198Y-73201745D01*
X71643396Y-73201927D01*
X71642815Y-73202111D01*
X71642061Y-73202420D01*
X71640928Y-73202808D01*
X71634897Y-73203812D01*
X71629515Y-73206716D01*
X71592364Y-73226762D01*
X71589257Y-73228346D01*
X71545673Y-73249274D01*
X71541726Y-73252592D01*
X71540774Y-73253544D01*
X71537306Y-73256470D01*
X71532206Y-73259222D01*
X71528055Y-73263712D01*
X71528053Y-73263714D01*
X71497860Y-73296377D01*
X71495846Y-73298472D01*
X69236492Y-75557826D01*
X69190616Y-75579218D01*
X69184166Y-75579500D01*
X63682637Y-75579500D01*
X63635071Y-75562187D01*
X63609761Y-75518350D01*
X63614477Y-75482522D01*
X63612870Y-75482054D01*
X63614455Y-75476618D01*
X63616847Y-75471487D01*
X63623375Y-75421901D01*
X63623374Y-75002100D01*
X63623057Y-74999690D01*
X63617586Y-74958125D01*
X63617585Y-74958123D01*
X63616847Y-74952513D01*
X63613083Y-74944440D01*
X63583972Y-74882012D01*
X63566099Y-74843684D01*
X63529049Y-74806634D01*
X63507657Y-74760758D01*
X63507375Y-74754308D01*
X63507375Y-73967000D01*
X63524688Y-73919434D01*
X63568525Y-73894124D01*
X63581375Y-73893000D01*
X63886123Y-73893000D01*
X63889692Y-73892290D01*
X63889693Y-73892290D01*
X63910440Y-73888163D01*
X63944606Y-73881367D01*
X63959538Y-73871390D01*
X64004866Y-73841102D01*
X64010927Y-73837052D01*
X64029345Y-73809488D01*
X64051191Y-73776794D01*
X64051191Y-73776793D01*
X64055242Y-73770731D01*
X64066875Y-73712248D01*
X64066875Y-72672752D01*
X64055242Y-72614269D01*
X64010927Y-72547948D01*
X63944606Y-72503633D01*
X63900080Y-72494776D01*
X63889693Y-72492710D01*
X63889692Y-72492710D01*
X63886123Y-72492000D01*
X62346627Y-72492000D01*
X62343058Y-72492710D01*
X62343057Y-72492710D01*
X62332670Y-72494776D01*
X62288144Y-72503633D01*
X62221823Y-72547948D01*
X62177508Y-72614269D01*
X62165875Y-72672752D01*
X62165875Y-73559391D01*
X62148562Y-73606957D01*
X62144201Y-73611717D01*
X62086081Y-73669837D01*
X62040205Y-73691229D01*
X62033755Y-73691511D01*
X59240875Y-73691511D01*
X59193309Y-73674198D01*
X59167999Y-73630361D01*
X59166875Y-73617511D01*
X59166875Y-72697623D01*
X59184188Y-72650057D01*
X59188549Y-72645297D01*
X62039549Y-69794297D01*
X62085425Y-69772905D01*
X62134320Y-69786006D01*
X62163354Y-69827470D01*
X62165875Y-69846623D01*
X62165875Y-70512248D01*
X62177508Y-70570731D01*
X62221823Y-70637052D01*
X62227884Y-70641102D01*
X62276067Y-70673297D01*
X62288144Y-70681367D01*
X62332670Y-70690224D01*
X62343057Y-70692290D01*
X62343058Y-70692290D01*
X62346627Y-70693000D01*
X63886123Y-70693000D01*
X63889692Y-70692290D01*
X63889693Y-70692290D01*
X63900080Y-70690224D01*
X63944606Y-70681367D01*
X63956684Y-70673297D01*
X64004866Y-70641102D01*
X64010927Y-70637052D01*
X64055242Y-70570731D01*
X64066875Y-70512248D01*
X64066875Y-69472752D01*
X64055242Y-69414269D01*
X64036091Y-69385607D01*
X64014977Y-69354009D01*
X64010927Y-69347948D01*
X63944606Y-69303633D01*
X63900080Y-69294776D01*
X63889693Y-69292710D01*
X63889692Y-69292710D01*
X63886123Y-69292000D01*
X62720498Y-69292000D01*
X62672932Y-69274687D01*
X62647622Y-69230850D01*
X62656412Y-69181000D01*
X62668172Y-69165674D01*
X63103066Y-68730780D01*
X63148942Y-68709388D01*
X63155536Y-68709106D01*
X73385433Y-68728977D01*
G37*
%TD.AperFunction*%
%TD*%
%TA.AperFunction,Conductor*%
%TO.N,+3V3*%
G36*
X80911984Y-73690821D02*
G01*
X80932230Y-73694867D01*
X80932260Y-73694716D01*
X81001756Y-73708540D01*
X81001757Y-73708540D01*
X81005326Y-73709250D01*
X81154674Y-73709250D01*
X81158243Y-73708540D01*
X81158244Y-73708540D01*
X81227740Y-73694716D01*
X81227832Y-73695180D01*
X81246841Y-73691416D01*
X81313709Y-73691534D01*
X81332159Y-73695222D01*
X81332260Y-73694716D01*
X81401756Y-73708540D01*
X81401757Y-73708540D01*
X81405326Y-73709250D01*
X81554674Y-73709250D01*
X81558243Y-73708540D01*
X81558244Y-73708540D01*
X81627740Y-73694716D01*
X81627903Y-73695535D01*
X81645136Y-73692123D01*
X81715429Y-73692248D01*
X81732089Y-73695576D01*
X81732260Y-73694716D01*
X81801756Y-73708540D01*
X81801757Y-73708540D01*
X81805326Y-73709250D01*
X81954674Y-73709250D01*
X81958243Y-73708540D01*
X81958244Y-73708540D01*
X82027740Y-73694716D01*
X82027974Y-73695890D01*
X82043426Y-73692831D01*
X82117152Y-73692962D01*
X82132018Y-73695931D01*
X82132260Y-73694716D01*
X82201756Y-73708540D01*
X82201757Y-73708540D01*
X82205326Y-73709250D01*
X82354674Y-73709250D01*
X82358241Y-73708541D01*
X82358246Y-73708540D01*
X82426522Y-73694959D01*
X82441089Y-73693537D01*
X82519878Y-73693677D01*
X82534184Y-73695099D01*
X82601756Y-73708540D01*
X82601757Y-73708540D01*
X82605326Y-73709250D01*
X82754674Y-73709250D01*
X82758243Y-73708540D01*
X82758244Y-73708540D01*
X82815006Y-73697249D01*
X82822979Y-73695663D01*
X82837547Y-73694241D01*
X82851755Y-73694266D01*
X82923485Y-73694394D01*
X82937784Y-73695815D01*
X82963012Y-73700833D01*
X83001756Y-73708540D01*
X83001757Y-73708540D01*
X83005326Y-73709250D01*
X83154674Y-73709250D01*
X83158243Y-73708540D01*
X83158244Y-73708540D01*
X83219440Y-73696367D01*
X83234007Y-73694945D01*
X83327089Y-73695110D01*
X83341388Y-73696532D01*
X83383580Y-73704924D01*
X83401756Y-73708540D01*
X83401757Y-73708540D01*
X83405326Y-73709250D01*
X83554674Y-73709250D01*
X83558243Y-73708540D01*
X83558244Y-73708540D01*
X83598200Y-73700592D01*
X83615902Y-73697071D01*
X83630466Y-73695649D01*
X83730692Y-73695827D01*
X83744993Y-73697249D01*
X83763012Y-73700833D01*
X83801756Y-73708540D01*
X83801757Y-73708540D01*
X83805326Y-73709250D01*
X83954674Y-73709250D01*
X83958243Y-73708540D01*
X83958244Y-73708540D01*
X83973602Y-73705485D01*
X84012363Y-73697775D01*
X84026924Y-73696353D01*
X84518815Y-73697227D01*
X84537897Y-73697261D01*
X84552203Y-73698683D01*
X84601756Y-73708540D01*
X84601757Y-73708540D01*
X84605326Y-73709250D01*
X84754674Y-73709250D01*
X84758243Y-73708540D01*
X84758244Y-73708540D01*
X84805279Y-73699184D01*
X84819847Y-73697762D01*
X84941501Y-73697978D01*
X84955807Y-73699400D01*
X85001756Y-73708540D01*
X85001757Y-73708540D01*
X85005326Y-73709250D01*
X85154674Y-73709250D01*
X85158243Y-73708540D01*
X85158244Y-73708540D01*
X85201739Y-73699888D01*
X85216308Y-73698466D01*
X85345107Y-73698695D01*
X85359412Y-73700117D01*
X85405326Y-73709250D01*
X85554674Y-73709250D01*
X85558243Y-73708540D01*
X85558244Y-73708540D01*
X85598200Y-73700592D01*
X85612767Y-73699170D01*
X85748714Y-73699412D01*
X85763008Y-73700832D01*
X85805326Y-73709250D01*
X85954674Y-73709250D01*
X85958243Y-73708540D01*
X85958244Y-73708540D01*
X85971974Y-73705809D01*
X85991564Y-73701912D01*
X86041593Y-73709612D01*
X86074968Y-73747669D01*
X86080000Y-73774490D01*
X86080000Y-73829000D01*
X86079833Y-73832402D01*
X86079500Y-73834076D01*
X86079500Y-73983424D01*
X86079833Y-73985098D01*
X86080000Y-73988500D01*
X86080000Y-74229000D01*
X86079833Y-74232402D01*
X86079500Y-74234076D01*
X86079500Y-74383424D01*
X86079833Y-74385098D01*
X86080000Y-74388500D01*
X86080000Y-74629000D01*
X86079833Y-74632402D01*
X86079500Y-74634076D01*
X86079500Y-74783424D01*
X86079833Y-74785098D01*
X86080000Y-74788500D01*
X86080000Y-75029000D01*
X86079833Y-75032402D01*
X86079500Y-75034076D01*
X86079500Y-75183424D01*
X86079833Y-75185098D01*
X86080000Y-75188500D01*
X86080000Y-75429000D01*
X86079833Y-75432402D01*
X86079500Y-75434076D01*
X86079500Y-75583424D01*
X86079833Y-75585098D01*
X86080000Y-75588500D01*
X86080000Y-75829000D01*
X86079833Y-75832402D01*
X86079500Y-75834076D01*
X86079500Y-75983424D01*
X86079833Y-75985098D01*
X86080000Y-75988500D01*
X86080000Y-76629000D01*
X86079833Y-76632402D01*
X86079500Y-76634076D01*
X86079500Y-76783424D01*
X86079833Y-76785098D01*
X86080000Y-76788500D01*
X86080000Y-77029000D01*
X86079833Y-77032402D01*
X86079500Y-77034076D01*
X86079500Y-77183424D01*
X86079833Y-77185098D01*
X86080000Y-77188500D01*
X86080000Y-77429000D01*
X86079833Y-77432402D01*
X86079500Y-77434076D01*
X86079500Y-77583424D01*
X86079833Y-77585098D01*
X86080000Y-77588500D01*
X86080000Y-77829000D01*
X86079833Y-77832402D01*
X86079500Y-77834076D01*
X86079500Y-77983424D01*
X86079833Y-77985098D01*
X86080000Y-77988500D01*
X86080000Y-78229000D01*
X86079833Y-78232402D01*
X86079500Y-78234076D01*
X86079500Y-78383424D01*
X86079833Y-78385098D01*
X86080000Y-78388500D01*
X86080000Y-78629000D01*
X86079833Y-78632402D01*
X86079500Y-78634076D01*
X86079500Y-78783424D01*
X86079833Y-78785098D01*
X86080000Y-78788500D01*
X86080000Y-79029000D01*
X86079833Y-79032402D01*
X86079500Y-79034076D01*
X86079500Y-79183424D01*
X86079833Y-79185098D01*
X86080000Y-79188500D01*
X86080000Y-79243010D01*
X86062687Y-79290576D01*
X86018850Y-79315886D01*
X85991564Y-79315588D01*
X85966508Y-79310604D01*
X85958244Y-79308960D01*
X85958243Y-79308960D01*
X85954674Y-79308250D01*
X85805326Y-79308250D01*
X85801757Y-79308960D01*
X85801756Y-79308960D01*
X85785403Y-79312213D01*
X85732260Y-79322784D01*
X85721112Y-79330232D01*
X85671946Y-79342264D01*
X85638890Y-79330233D01*
X85633803Y-79326834D01*
X85633799Y-79326832D01*
X85627740Y-79322784D01*
X85574597Y-79312213D01*
X85558244Y-79308960D01*
X85558243Y-79308960D01*
X85554674Y-79308250D01*
X85405326Y-79308250D01*
X85401757Y-79308960D01*
X85401756Y-79308960D01*
X85385403Y-79312213D01*
X85332260Y-79322784D01*
X85321616Y-79329896D01*
X85321110Y-79330234D01*
X85271941Y-79342264D01*
X85238887Y-79330232D01*
X85233799Y-79326832D01*
X85233798Y-79326831D01*
X85227740Y-79322784D01*
X85220595Y-79321363D01*
X85220593Y-79321362D01*
X85158244Y-79308960D01*
X85158243Y-79308960D01*
X85154674Y-79308250D01*
X85005326Y-79308250D01*
X85001757Y-79308960D01*
X85001756Y-79308960D01*
X84985403Y-79312213D01*
X84932260Y-79322784D01*
X84926198Y-79326834D01*
X84926199Y-79326834D01*
X84922957Y-79329000D01*
X84881332Y-79341468D01*
X84877736Y-79341443D01*
X84877598Y-79341442D01*
X84837003Y-79328973D01*
X84827740Y-79322784D01*
X84774597Y-79312213D01*
X84758244Y-79308960D01*
X84758243Y-79308960D01*
X84754674Y-79308250D01*
X84605326Y-79308250D01*
X84601757Y-79308960D01*
X84601756Y-79308960D01*
X84585403Y-79312213D01*
X84532260Y-79322784D01*
X84526199Y-79326834D01*
X84519468Y-79329622D01*
X84519051Y-79328616D01*
X84485536Y-79338651D01*
X84238750Y-79336895D01*
X84068974Y-79335687D01*
X84041520Y-79327246D01*
X84040536Y-79329623D01*
X84033798Y-79326832D01*
X84027740Y-79322784D01*
X83974597Y-79312213D01*
X83958244Y-79308960D01*
X83958243Y-79308960D01*
X83954674Y-79308250D01*
X83805326Y-79308250D01*
X83801757Y-79308960D01*
X83801756Y-79308960D01*
X83739407Y-79321362D01*
X83739405Y-79321363D01*
X83732260Y-79322784D01*
X83726201Y-79326832D01*
X83724828Y-79327401D01*
X83695982Y-79333032D01*
X83691850Y-79333002D01*
X83662383Y-79332792D01*
X83634595Y-79327162D01*
X83633799Y-79326832D01*
X83627740Y-79322784D01*
X83620593Y-79321362D01*
X83620592Y-79321362D01*
X83558244Y-79308960D01*
X83558243Y-79308960D01*
X83554674Y-79308250D01*
X83405326Y-79308250D01*
X83401757Y-79308960D01*
X83401756Y-79308960D01*
X83385403Y-79312213D01*
X83332260Y-79322784D01*
X83328694Y-79325167D01*
X83302741Y-79330233D01*
X83255392Y-79329896D01*
X83230982Y-79324950D01*
X83227740Y-79322784D01*
X83220595Y-79321363D01*
X83220593Y-79321362D01*
X83158244Y-79308960D01*
X83158243Y-79308960D01*
X83154674Y-79308250D01*
X83005326Y-79308250D01*
X83001757Y-79308960D01*
X83001756Y-79308960D01*
X82939407Y-79321362D01*
X82939405Y-79321363D01*
X82932260Y-79322784D01*
X82931823Y-79323076D01*
X82909498Y-79327434D01*
X82848398Y-79326999D01*
X82827803Y-79322826D01*
X82827740Y-79322784D01*
X82820596Y-79321363D01*
X82820594Y-79321362D01*
X82758244Y-79308960D01*
X82758243Y-79308960D01*
X82754674Y-79308250D01*
X82605326Y-79308250D01*
X82601757Y-79308960D01*
X82601756Y-79308960D01*
X82532260Y-79322784D01*
X82532016Y-79321557D01*
X82516256Y-79324635D01*
X82441128Y-79324100D01*
X82427218Y-79322680D01*
X82358244Y-79308960D01*
X82358243Y-79308960D01*
X82354674Y-79308250D01*
X82205326Y-79308250D01*
X82201757Y-79308960D01*
X82201756Y-79308960D01*
X82185403Y-79312213D01*
X82143948Y-79320459D01*
X82128986Y-79321879D01*
X82026286Y-79321148D01*
X82012377Y-79319728D01*
X81958244Y-79308960D01*
X81958243Y-79308960D01*
X81954674Y-79308250D01*
X81805326Y-79308250D01*
X81801757Y-79308960D01*
X81801756Y-79308960D01*
X81757767Y-79317710D01*
X81742803Y-79319130D01*
X81611442Y-79318195D01*
X81597532Y-79316775D01*
X81558244Y-79308960D01*
X81558243Y-79308960D01*
X81554674Y-79308250D01*
X81405326Y-79308250D01*
X81401758Y-79308960D01*
X81401755Y-79308960D01*
X81371585Y-79314961D01*
X81356623Y-79316381D01*
X81245114Y-79315588D01*
X81196598Y-79315243D01*
X81182692Y-79313823D01*
X81166508Y-79310604D01*
X81158244Y-79308960D01*
X81158243Y-79308960D01*
X81154674Y-79308250D01*
X81005326Y-79308250D01*
X81001757Y-79308960D01*
X81001756Y-79308960D01*
X80985402Y-79312213D01*
X80970438Y-79313633D01*
X80544844Y-79310604D01*
X80497402Y-79292953D01*
X80472406Y-79248937D01*
X80472793Y-79222169D01*
X80479790Y-79186994D01*
X80479790Y-79186993D01*
X80480500Y-79183424D01*
X80480500Y-79034076D01*
X80465966Y-78961010D01*
X80464667Y-78959066D01*
X80460000Y-78935603D01*
X80460000Y-78881897D01*
X80464667Y-78858434D01*
X80465966Y-78856490D01*
X80480500Y-78783424D01*
X80480500Y-78634076D01*
X80465966Y-78561010D01*
X80464667Y-78559066D01*
X80460000Y-78535603D01*
X80460000Y-78481897D01*
X80464667Y-78458434D01*
X80465966Y-78456490D01*
X80470869Y-78431844D01*
X80479790Y-78386994D01*
X80479790Y-78386993D01*
X80480500Y-78383424D01*
X80480500Y-78379784D01*
X80480820Y-78376536D01*
X80502712Y-78330896D01*
X80548820Y-78310006D01*
X80568857Y-78311204D01*
X80598055Y-78316995D01*
X80601288Y-78317064D01*
X80601290Y-78317064D01*
X80722074Y-78319634D01*
X80769261Y-78337954D01*
X80793633Y-78382320D01*
X80794500Y-78393617D01*
X80794500Y-78726000D01*
X80795282Y-78743907D01*
X80796406Y-78756757D01*
X80797620Y-78760608D01*
X80797621Y-78760612D01*
X80809826Y-78799322D01*
X80823157Y-78841602D01*
X80848467Y-78885439D01*
X80879322Y-78926174D01*
X80884757Y-78929684D01*
X80952656Y-78973539D01*
X80952661Y-78973541D01*
X80956147Y-78975793D01*
X80960051Y-78977214D01*
X80960053Y-78977215D01*
X80979545Y-78984310D01*
X81003713Y-78993106D01*
X81006887Y-78993666D01*
X81006892Y-78993667D01*
X81041144Y-78999706D01*
X81074000Y-79005500D01*
X85386000Y-79005500D01*
X85386795Y-79005465D01*
X85386808Y-79005465D01*
X85398869Y-79004938D01*
X85403907Y-79004718D01*
X85404699Y-79004649D01*
X85404710Y-79004648D01*
X85412733Y-79003946D01*
X85416757Y-79003594D01*
X85420608Y-79002380D01*
X85420612Y-79002379D01*
X85497745Y-78978059D01*
X85497744Y-78978059D01*
X85501602Y-78976843D01*
X85545439Y-78951533D01*
X85586174Y-78920678D01*
X85611222Y-78881897D01*
X85633539Y-78847344D01*
X85633541Y-78847339D01*
X85635793Y-78843853D01*
X85653106Y-78796287D01*
X85655759Y-78781246D01*
X85664938Y-78729185D01*
X85665500Y-78726000D01*
X85665500Y-78164000D01*
X85665370Y-78161010D01*
X85664753Y-78146897D01*
X85664718Y-78146093D01*
X85663594Y-78133243D01*
X85636843Y-78048398D01*
X85611533Y-78004561D01*
X85580678Y-77963826D01*
X85555258Y-77947408D01*
X85507344Y-77916461D01*
X85507339Y-77916459D01*
X85503853Y-77914207D01*
X85499949Y-77912786D01*
X85499947Y-77912785D01*
X85480455Y-77905690D01*
X85456287Y-77896894D01*
X85453113Y-77896334D01*
X85453108Y-77896333D01*
X85418856Y-77890294D01*
X85386000Y-77884500D01*
X85154500Y-77884500D01*
X85106934Y-77867187D01*
X85081624Y-77823350D01*
X85080500Y-77810500D01*
X85080499Y-75014817D01*
X85080499Y-75012388D01*
X85073894Y-74962211D01*
X85071502Y-74957080D01*
X85025286Y-74857971D01*
X85022551Y-74852105D01*
X84936645Y-74766199D01*
X84826539Y-74714856D01*
X84776363Y-74708250D01*
X83280309Y-74708250D01*
X81783638Y-74708251D01*
X81781231Y-74708568D01*
X81781229Y-74708568D01*
X81739073Y-74714117D01*
X81739071Y-74714117D01*
X81733461Y-74714856D01*
X81623355Y-74766199D01*
X81537449Y-74852105D01*
X81486106Y-74962211D01*
X81479500Y-75012387D01*
X81479500Y-76310500D01*
X81462187Y-76358066D01*
X81418350Y-76383376D01*
X81405500Y-76384500D01*
X80604000Y-76384500D01*
X80603205Y-76384535D01*
X80603192Y-76384535D01*
X80591452Y-76385048D01*
X80586093Y-76385282D01*
X80585301Y-76385351D01*
X80585290Y-76385352D01*
X80577267Y-76386054D01*
X80573243Y-76386406D01*
X80569388Y-76387621D01*
X80569385Y-76387622D01*
X80556251Y-76391763D01*
X80505681Y-76389555D01*
X80468361Y-76355357D01*
X80460000Y-76321188D01*
X80460000Y-75681897D01*
X80464667Y-75658434D01*
X80465966Y-75656490D01*
X80480500Y-75583424D01*
X80480500Y-75434076D01*
X80465966Y-75361010D01*
X80464667Y-75359066D01*
X80460000Y-75335603D01*
X80460000Y-75281897D01*
X80464667Y-75258434D01*
X80465966Y-75256490D01*
X80480500Y-75183424D01*
X80480500Y-75034076D01*
X80465966Y-74961010D01*
X80464667Y-74959066D01*
X80460000Y-74935603D01*
X80460000Y-74881897D01*
X80464667Y-74858434D01*
X80465966Y-74856490D01*
X80480500Y-74783424D01*
X80480500Y-74634076D01*
X80465966Y-74561010D01*
X80464667Y-74559066D01*
X80460000Y-74535603D01*
X80460000Y-73764150D01*
X80477313Y-73716584D01*
X80521150Y-73691274D01*
X80534131Y-73690150D01*
X80911984Y-73690821D01*
G37*
%TD.AperFunction*%
%TD*%
M02*
