%TF.GenerationSoftware,KiCad,Pcbnew,(6.0.5)*%
%TF.CreationDate,2022-05-27T15:03:32+08:00*%
%TF.ProjectId,RP2040-3k,52503230-3430-42d3-936b-2e6b69636164,rev?*%
%TF.SameCoordinates,Original*%
%TF.FileFunction,Copper,L2,Bot*%
%TF.FilePolarity,Positive*%
%FSLAX46Y46*%
G04 Gerber Fmt 4.6, Leading zero omitted, Abs format (unit mm)*
G04 Created by KiCad (PCBNEW (6.0.5)) date 2022-05-27 15:03:32*
%MOMM*%
%LPD*%
G01*
G04 APERTURE LIST*
%TA.AperFunction,ComponentPad*%
%ADD10C,0.600000*%
%TD*%
%TA.AperFunction,ComponentPad*%
%ADD11O,1.700000X1.700000*%
%TD*%
%TA.AperFunction,ComponentPad*%
%ADD12R,1.700000X1.700000*%
%TD*%
%TA.AperFunction,ComponentPad*%
%ADD13C,3.300000*%
%TD*%
%TA.AperFunction,ComponentPad*%
%ADD14O,1.000000X1.600000*%
%TD*%
%TA.AperFunction,ComponentPad*%
%ADD15O,1.000000X2.100000*%
%TD*%
%TA.AperFunction,ViaPad*%
%ADD16C,0.600000*%
%TD*%
%TA.AperFunction,ViaPad*%
%ADD17C,0.800000*%
%TD*%
%TA.AperFunction,Conductor*%
%ADD18C,0.200000*%
%TD*%
%TA.AperFunction,Conductor*%
%ADD19C,0.381000*%
%TD*%
G04 APERTURE END LIST*
D10*
%TO.P,U1,57,GND*%
%TO.N,GND*%
X82005000Y-75233750D03*
X84555000Y-76508750D03*
X82005000Y-76508750D03*
X84555000Y-77783750D03*
X83280000Y-77783750D03*
X84555000Y-75233750D03*
X83280000Y-75233750D03*
X83280000Y-76508750D03*
X82005000Y-77783750D03*
%TD*%
D11*
%TO.P,J2,2,Pin_2*%
%TO.N,/~{USB_BOOT}*%
X61090000Y-81360000D03*
D12*
%TO.P,J2,1,Pin_1*%
%TO.N,GND*%
X61090000Y-78820000D03*
%TD*%
D13*
%TO.P,SW1,1,1*%
%TO.N,COL0*%
X68060375Y-56670000D03*
%TO.P,SW1,2,2*%
%TO.N,GND*%
X61710375Y-54130000D03*
%TD*%
%TO.P,SW2,1,1*%
%TO.N,COL1*%
X87110375Y-56670000D03*
%TO.P,SW2,2,2*%
%TO.N,GND*%
X80760375Y-54130000D03*
%TD*%
%TO.P,SW3,1,1*%
%TO.N,COL2*%
X106160375Y-56670000D03*
%TO.P,SW3,2,2*%
%TO.N,GND*%
X99810375Y-54130000D03*
%TD*%
D14*
%TO.P,J1,S1,SHIELD*%
%TO.N,GND*%
X79023750Y-38637500D03*
X87663750Y-38637500D03*
D15*
X79023750Y-42817500D03*
X87663750Y-42817500D03*
%TD*%
D16*
%TO.N,+1V1*%
X85096710Y-78497649D03*
X81090000Y-77720000D03*
X78330000Y-73710000D03*
%TO.N,COL0*%
X80120000Y-69520000D03*
%TO.N,+1V1*%
X89547089Y-75696339D03*
%TO.N,GND*%
X69510000Y-82430000D03*
D17*
%TO.N,+5V*%
X111331625Y-73155000D03*
X56429114Y-74082511D03*
%TO.N,GND*%
X87884000Y-45212000D03*
D16*
X56081625Y-54155000D03*
X94206625Y-54130000D03*
X73750000Y-76980000D03*
X106406625Y-63530000D03*
X101481625Y-67080000D03*
X87531625Y-63555000D03*
X84253375Y-83198750D03*
X88111250Y-77865000D03*
X103056625Y-68930000D03*
X77618875Y-70713750D03*
X63456625Y-67080000D03*
X58231625Y-68905000D03*
X65223750Y-77546250D03*
X73538750Y-70648750D03*
X61156625Y-75205000D03*
X82456625Y-67094020D03*
D17*
X87122000Y-47244000D03*
D16*
X68331625Y-63580000D03*
X74931625Y-54155000D03*
X94186250Y-73415000D03*
X106156625Y-75230000D03*
X85260000Y-70810000D03*
%TO.N,SWITCHLED*%
X82976625Y-69510000D03*
X103266625Y-67070000D03*
%TO.N,COL0*%
X71996625Y-59170000D03*
%TO.N,COL1*%
X90596625Y-59550000D03*
X80996625Y-69520000D03*
%TO.N,COL2*%
X109816625Y-59460000D03*
X81876625Y-69490000D03*
%TD*%
D18*
%TO.N,+1V1*%
X85096710Y-78073290D02*
X85096710Y-78497649D01*
X85400000Y-77770000D02*
X85096710Y-78073290D01*
X87473661Y-75696339D02*
X85400000Y-77770000D01*
X89547089Y-75696339D02*
X87473661Y-75696339D01*
X78330000Y-73710000D02*
X81090000Y-76470000D01*
X81090000Y-76470000D02*
X81090000Y-77720000D01*
%TO.N,COL0*%
X80120000Y-69503375D02*
X77646625Y-67030000D01*
X80120000Y-69520000D02*
X80120000Y-69503375D01*
%TO.N,COL2*%
X109816625Y-63613375D02*
X109816625Y-59460000D01*
X107300000Y-66130000D02*
X109816625Y-63613375D01*
X103279463Y-66130000D02*
X107300000Y-66130000D01*
X101719463Y-67690000D02*
X103279463Y-66130000D01*
X83676625Y-67690000D02*
X101719463Y-67690000D01*
%TO.N,+1V1*%
X89484178Y-75759250D02*
X89547089Y-75696339D01*
D19*
%TO.N,+5V*%
X56429114Y-74082511D02*
X56429114Y-83249114D01*
X57920000Y-84740000D02*
X109053250Y-84740000D01*
X111331625Y-82461625D02*
X111331625Y-73155000D01*
X56429114Y-83249114D02*
X57920000Y-84740000D01*
X109053250Y-84740000D02*
X111331625Y-82461625D01*
%TO.N,GND*%
X87122000Y-45974000D02*
X87884000Y-45212000D01*
X87122000Y-47244000D02*
X87122000Y-45974000D01*
D18*
%TO.N,SWITCHLED*%
X82976625Y-69510000D02*
X84221625Y-68265000D01*
X102071625Y-68265000D02*
X103266625Y-67070000D01*
X84221625Y-68265000D02*
X102071625Y-68265000D01*
%TO.N,COL0*%
X71996625Y-64330000D02*
X71996625Y-59170000D01*
X74696625Y-67030000D02*
X71996625Y-64330000D01*
X77646625Y-67030000D02*
X74696625Y-67030000D01*
%TO.N,COL1*%
X86996625Y-67080000D02*
X90596625Y-63480000D01*
X90596625Y-63480000D02*
X90596625Y-59550000D01*
X83436625Y-67080000D02*
X86996625Y-67080000D01*
X80996625Y-69520000D02*
X83436625Y-67080000D01*
%TO.N,COL2*%
X81876625Y-69490000D02*
X83676625Y-67690000D01*
%TD*%
%TA.AperFunction,Conductor*%
%TO.N,GND*%
G36*
X88973066Y-35697813D02*
G01*
X88998376Y-35741650D01*
X88999500Y-35754500D01*
X88999500Y-39713007D01*
X88996923Y-39732366D01*
X88996741Y-39733036D01*
X88996741Y-39733038D01*
X88994192Y-39742442D01*
X88995479Y-39747300D01*
X88996139Y-39755129D01*
X88996139Y-39755130D01*
X88997061Y-39766057D01*
X89012004Y-39943247D01*
X89063462Y-40138083D01*
X89147885Y-40321062D01*
X89149718Y-40323704D01*
X89149719Y-40323707D01*
X89154150Y-40330096D01*
X89262723Y-40486654D01*
X89264986Y-40488940D01*
X89264988Y-40488942D01*
X89332593Y-40557223D01*
X89404505Y-40629855D01*
X89568946Y-40746337D01*
X89571855Y-40747715D01*
X89571856Y-40747715D01*
X89587744Y-40755238D01*
X89751075Y-40832578D01*
X89945388Y-40885973D01*
X89948587Y-40886275D01*
X89948593Y-40886276D01*
X90129841Y-40903381D01*
X90129844Y-40903381D01*
X90141045Y-40904438D01*
X90146006Y-40905805D01*
X90155435Y-40903350D01*
X90157209Y-40902888D01*
X90175855Y-40900500D01*
X108300443Y-40900500D01*
X108319594Y-40903021D01*
X108330000Y-40905809D01*
X108339409Y-40903288D01*
X108344286Y-40903288D01*
X108358415Y-40901741D01*
X108564928Y-40910757D01*
X108748571Y-40918775D01*
X108754992Y-40919338D01*
X109167178Y-40973603D01*
X109173511Y-40974719D01*
X109578412Y-41064484D01*
X109579402Y-41064703D01*
X109585637Y-41066374D01*
X109982126Y-41191387D01*
X109988192Y-41193595D01*
X109996799Y-41197160D01*
X110372279Y-41352688D01*
X110378117Y-41355410D01*
X110526909Y-41432866D01*
X110746884Y-41547378D01*
X110752475Y-41550606D01*
X111103101Y-41773980D01*
X111108389Y-41777683D01*
X111438206Y-42030760D01*
X111443152Y-42034910D01*
X111749661Y-42315775D01*
X111754225Y-42320339D01*
X112035090Y-42626848D01*
X112039240Y-42631794D01*
X112292317Y-42961611D01*
X112296020Y-42966899D01*
X112519394Y-43317525D01*
X112522621Y-43323115D01*
X112704927Y-43673319D01*
X112714587Y-43691876D01*
X112717312Y-43697721D01*
X112721522Y-43707884D01*
X112876405Y-44081808D01*
X112878613Y-44087874D01*
X113003626Y-44484363D01*
X113005297Y-44490598D01*
X113095281Y-44896489D01*
X113096397Y-44902822D01*
X113150662Y-45315003D01*
X113151225Y-45321429D01*
X113151486Y-45327408D01*
X113168259Y-45711585D01*
X113166712Y-45725714D01*
X113166712Y-45730591D01*
X113164191Y-45740000D01*
X113166712Y-45749408D01*
X113166942Y-45750266D01*
X113169463Y-45769508D01*
X113140976Y-68564753D01*
X113126073Y-80490435D01*
X113123558Y-80509471D01*
X113120728Y-80520048D01*
X113123252Y-80529454D01*
X113123253Y-80534332D01*
X113124806Y-80548465D01*
X113114817Y-80779044D01*
X113107884Y-80939066D01*
X113107325Y-80945487D01*
X113082178Y-81137085D01*
X113053164Y-81358144D01*
X113052046Y-81364497D01*
X113045646Y-81393427D01*
X112962155Y-81770851D01*
X112960495Y-81777062D01*
X112899391Y-81971210D01*
X112835542Y-82174078D01*
X112833339Y-82180138D01*
X112824377Y-82201811D01*
X112674300Y-82564720D01*
X112671578Y-82570568D01*
X112479641Y-82939851D01*
X112476419Y-82945441D01*
X112253043Y-83296612D01*
X112249346Y-83301899D01*
X111996243Y-83632267D01*
X111992100Y-83637212D01*
X111711185Y-83944281D01*
X111706628Y-83948846D01*
X111641406Y-84008716D01*
X111400029Y-84230287D01*
X111395091Y-84234438D01*
X111371404Y-84252649D01*
X111065133Y-84488115D01*
X111059878Y-84491802D01*
X110881512Y-84605684D01*
X110709094Y-84715768D01*
X110703511Y-84719000D01*
X110334539Y-84911571D01*
X110328695Y-84914303D01*
X109944382Y-85073993D01*
X109938322Y-85076207D01*
X109541543Y-85201825D01*
X109535317Y-85203501D01*
X109189320Y-85280656D01*
X109129105Y-85294083D01*
X109122753Y-85295211D01*
X108710207Y-85350068D01*
X108703781Y-85350639D01*
X108602578Y-85355195D01*
X108313213Y-85368223D01*
X108299065Y-85366693D01*
X108294199Y-85366700D01*
X108284784Y-85364191D01*
X108274537Y-85366952D01*
X108255285Y-85369500D01*
X58323880Y-85369500D01*
X58305152Y-85367091D01*
X58303503Y-85366660D01*
X58294077Y-85364194D01*
X58284683Y-85366771D01*
X58279777Y-85366800D01*
X58265687Y-85368427D01*
X58172633Y-85364907D01*
X57875249Y-85353655D01*
X57868819Y-85353130D01*
X57628769Y-85322894D01*
X57456151Y-85301151D01*
X57449772Y-85300062D01*
X57043239Y-85212232D01*
X57036980Y-85210590D01*
X56639686Y-85087582D01*
X56633593Y-85085400D01*
X56441066Y-85006770D01*
X56248530Y-84928137D01*
X56242670Y-84925438D01*
X56062977Y-84832978D01*
X55872850Y-84735149D01*
X55867231Y-84731940D01*
X55515427Y-84510055D01*
X55510118Y-84506372D01*
X55179065Y-84254614D01*
X55174090Y-84250476D01*
X54866284Y-83970745D01*
X54861690Y-83966187D01*
X54579515Y-83660646D01*
X54575336Y-83655704D01*
X54320933Y-83326678D01*
X54317203Y-83321391D01*
X54092508Y-82971380D01*
X54089253Y-82965786D01*
X53896008Y-82597500D01*
X53893255Y-82591644D01*
X53771271Y-82299668D01*
X53732923Y-82207881D01*
X53730693Y-82201811D01*
X53721863Y-82174078D01*
X53604501Y-81805499D01*
X53602809Y-81799253D01*
X53546179Y-81546945D01*
X53511720Y-81393417D01*
X53510583Y-81387056D01*
X53507232Y-81362062D01*
X53477062Y-81137085D01*
X53455305Y-80974842D01*
X53454726Y-80968397D01*
X53439785Y-80642612D01*
X53436823Y-80578023D01*
X53438317Y-80564102D01*
X53438307Y-80559091D01*
X53440809Y-80549675D01*
X53438100Y-80539646D01*
X53435539Y-80520251D01*
X53443863Y-74082511D01*
X55823432Y-74082511D01*
X55844070Y-74239273D01*
X55904578Y-74385352D01*
X55907528Y-74389196D01*
X55907530Y-74389200D01*
X55976953Y-74479673D01*
X56000832Y-74510793D01*
X56004678Y-74513744D01*
X56004681Y-74513747D01*
X56009163Y-74517186D01*
X56036360Y-74559878D01*
X56038114Y-74575894D01*
X56038114Y-83311042D01*
X56039914Y-83316581D01*
X56039914Y-83316583D01*
X56045941Y-83335131D01*
X56048652Y-83346423D01*
X56052615Y-83371446D01*
X56064117Y-83394018D01*
X56068559Y-83404742D01*
X56076387Y-83428837D01*
X56079807Y-83433545D01*
X56079808Y-83433546D01*
X56091279Y-83449334D01*
X56097346Y-83459236D01*
X56108845Y-83481803D01*
X56196425Y-83569383D01*
X56196427Y-83569384D01*
X57599730Y-84972687D01*
X57599731Y-84972689D01*
X57687311Y-85060269D01*
X57692499Y-85062912D01*
X57692501Y-85062914D01*
X57709878Y-85071768D01*
X57719778Y-85077834D01*
X57740277Y-85092727D01*
X57745815Y-85094526D01*
X57745814Y-85094526D01*
X57764371Y-85100556D01*
X57775097Y-85104999D01*
X57792480Y-85113856D01*
X57792482Y-85113857D01*
X57797668Y-85116499D01*
X57803416Y-85117409D01*
X57803418Y-85117410D01*
X57822694Y-85120463D01*
X57833978Y-85123172D01*
X57858071Y-85131000D01*
X109115178Y-85131000D01*
X109120717Y-85129200D01*
X109120719Y-85129200D01*
X109139267Y-85123173D01*
X109150559Y-85120462D01*
X109169830Y-85117410D01*
X109175582Y-85116499D01*
X109198154Y-85104997D01*
X109208879Y-85100555D01*
X109227437Y-85094526D01*
X109227439Y-85094525D01*
X109232973Y-85092727D01*
X109253472Y-85077834D01*
X109263372Y-85071768D01*
X109280749Y-85062914D01*
X109280751Y-85062912D01*
X109285939Y-85060269D01*
X109373519Y-84972689D01*
X109373520Y-84972687D01*
X111564312Y-82781895D01*
X111564314Y-82781894D01*
X111651894Y-82694314D01*
X111663393Y-82671747D01*
X111669460Y-82661845D01*
X111680931Y-82646057D01*
X111680932Y-82646056D01*
X111684352Y-82641348D01*
X111692180Y-82617253D01*
X111696622Y-82606529D01*
X111708124Y-82583957D01*
X111712087Y-82558934D01*
X111714798Y-82547642D01*
X111720825Y-82529094D01*
X111720825Y-82529092D01*
X111722625Y-82523553D01*
X111722625Y-73648383D01*
X111739938Y-73600817D01*
X111751576Y-73589675D01*
X111756058Y-73586236D01*
X111756061Y-73586233D01*
X111759907Y-73583282D01*
X111826241Y-73496834D01*
X111853209Y-73461689D01*
X111853211Y-73461685D01*
X111856161Y-73457841D01*
X111916669Y-73311762D01*
X111924671Y-73250985D01*
X111936674Y-73159808D01*
X111937307Y-73155000D01*
X111916669Y-72998238D01*
X111856161Y-72852159D01*
X111853211Y-72848315D01*
X111853209Y-72848311D01*
X111762862Y-72730569D01*
X111759907Y-72726718D01*
X111756056Y-72723763D01*
X111638314Y-72633416D01*
X111638310Y-72633414D01*
X111634466Y-72630464D01*
X111488387Y-72569956D01*
X111483585Y-72569324D01*
X111483582Y-72569323D01*
X111336433Y-72549951D01*
X111331625Y-72549318D01*
X111326817Y-72549951D01*
X111179668Y-72569323D01*
X111179665Y-72569324D01*
X111174863Y-72569956D01*
X111028784Y-72630464D01*
X111024940Y-72633414D01*
X111024936Y-72633416D01*
X110907194Y-72723763D01*
X110903343Y-72726718D01*
X110900388Y-72730569D01*
X110810041Y-72848311D01*
X110810039Y-72848315D01*
X110807089Y-72852159D01*
X110746581Y-72998238D01*
X110725943Y-73155000D01*
X110726576Y-73159808D01*
X110738580Y-73250985D01*
X110746581Y-73311762D01*
X110807089Y-73457841D01*
X110810039Y-73461685D01*
X110810041Y-73461689D01*
X110837009Y-73496834D01*
X110903343Y-73583282D01*
X110907189Y-73586233D01*
X110907192Y-73586236D01*
X110911674Y-73589675D01*
X110938871Y-73632367D01*
X110940625Y-73648383D01*
X110940625Y-82269016D01*
X110923312Y-82316582D01*
X110918951Y-82321342D01*
X108912967Y-84327326D01*
X108867091Y-84348718D01*
X108860641Y-84349000D01*
X58112609Y-84349000D01*
X58065043Y-84331687D01*
X58060283Y-84327326D01*
X56841788Y-83108831D01*
X56820396Y-83062955D01*
X56820114Y-83056505D01*
X56820114Y-81345262D01*
X60034520Y-81345262D01*
X60034823Y-81348871D01*
X60034823Y-81348873D01*
X60038904Y-81397474D01*
X60051759Y-81550553D01*
X60108544Y-81748586D01*
X60110196Y-81751800D01*
X60110197Y-81751803D01*
X60137793Y-81805499D01*
X60202712Y-81931818D01*
X60330677Y-82093270D01*
X60333430Y-82095613D01*
X60333433Y-82095616D01*
X60364062Y-82121683D01*
X60487564Y-82226791D01*
X60534266Y-82252892D01*
X60664239Y-82325532D01*
X60664243Y-82325534D01*
X60667398Y-82327297D01*
X60670834Y-82328414D01*
X60670840Y-82328416D01*
X60795256Y-82368841D01*
X60863329Y-82390959D01*
X60927176Y-82398572D01*
X61064294Y-82414922D01*
X61064297Y-82414922D01*
X61067894Y-82415351D01*
X61136714Y-82410056D01*
X61269689Y-82399824D01*
X61269691Y-82399824D01*
X61273300Y-82399546D01*
X61471725Y-82344145D01*
X61502863Y-82328416D01*
X61652376Y-82252892D01*
X61652379Y-82252890D01*
X61655610Y-82251258D01*
X61817951Y-82124424D01*
X61952564Y-81968472D01*
X61954347Y-81965333D01*
X61954350Y-81965329D01*
X62003444Y-81878908D01*
X62054323Y-81789344D01*
X62056026Y-81784227D01*
X62118208Y-81597299D01*
X62119351Y-81593863D01*
X62124823Y-81550553D01*
X62144913Y-81391519D01*
X62144913Y-81391513D01*
X62145171Y-81389474D01*
X62145583Y-81360000D01*
X62125480Y-81154970D01*
X62065935Y-80957749D01*
X61969218Y-80775849D01*
X61839011Y-80616200D01*
X61722667Y-80519952D01*
X61683070Y-80487194D01*
X61683069Y-80487193D01*
X61680275Y-80484882D01*
X61669384Y-80478993D01*
X61502238Y-80388618D01*
X61499055Y-80386897D01*
X61495605Y-80385829D01*
X61495600Y-80385827D01*
X61370996Y-80347256D01*
X61302254Y-80325977D01*
X61097369Y-80304443D01*
X61093765Y-80304771D01*
X61093764Y-80304771D01*
X61093215Y-80304821D01*
X60892203Y-80323114D01*
X60843247Y-80337522D01*
X60698043Y-80380258D01*
X60698039Y-80380260D01*
X60694572Y-80381280D01*
X60598633Y-80431436D01*
X60515209Y-80475049D01*
X60515206Y-80475051D01*
X60512002Y-80476726D01*
X60509184Y-80478992D01*
X60509182Y-80478993D01*
X60354266Y-80603548D01*
X60354263Y-80603551D01*
X60351447Y-80605815D01*
X60349121Y-80608587D01*
X60349119Y-80608589D01*
X60221351Y-80760856D01*
X60221348Y-80760860D01*
X60219024Y-80763630D01*
X60119776Y-80944162D01*
X60057484Y-81140532D01*
X60057081Y-81144123D01*
X60057081Y-81144124D01*
X60055461Y-81158570D01*
X60034520Y-81345262D01*
X56820114Y-81345262D01*
X56820114Y-78491472D01*
X84591101Y-78491472D01*
X84591784Y-78496695D01*
X84591784Y-78496698D01*
X84592283Y-78500511D01*
X84609690Y-78633628D01*
X84667430Y-78764852D01*
X84670822Y-78768887D01*
X84756290Y-78870565D01*
X84756293Y-78870568D01*
X84759680Y-78874597D01*
X84764067Y-78877517D01*
X84874634Y-78951118D01*
X84874637Y-78951119D01*
X84879023Y-78954039D01*
X85015867Y-78996791D01*
X85021135Y-78996888D01*
X85021138Y-78996888D01*
X85081443Y-78997993D01*
X85159209Y-78999419D01*
X85164292Y-78998033D01*
X85164294Y-78998033D01*
X85292437Y-78963097D01*
X85292439Y-78963096D01*
X85297527Y-78961709D01*
X85419701Y-78886694D01*
X85515910Y-78780403D01*
X85578420Y-78651382D01*
X85602206Y-78510003D01*
X85602357Y-78497649D01*
X85582033Y-78355731D01*
X85522694Y-78225221D01*
X85510029Y-78210522D01*
X85496752Y-78195113D01*
X85478819Y-78147777D01*
X85495509Y-78099989D01*
X85500487Y-78094484D01*
X87576458Y-76018513D01*
X87622334Y-75997121D01*
X87628784Y-75996839D01*
X89111330Y-75996839D01*
X89158896Y-76014152D01*
X89167976Y-76023223D01*
X89206669Y-76069255D01*
X89206672Y-76069258D01*
X89210059Y-76073287D01*
X89214446Y-76076207D01*
X89325013Y-76149808D01*
X89325016Y-76149809D01*
X89329402Y-76152729D01*
X89466246Y-76195481D01*
X89471514Y-76195578D01*
X89471517Y-76195578D01*
X89531822Y-76196683D01*
X89609588Y-76198109D01*
X89614671Y-76196723D01*
X89614673Y-76196723D01*
X89742816Y-76161787D01*
X89742818Y-76161786D01*
X89747906Y-76160399D01*
X89870080Y-76085384D01*
X89966289Y-75979093D01*
X90028799Y-75850072D01*
X90052585Y-75708693D01*
X90052736Y-75696339D01*
X90032412Y-75554421D01*
X89973073Y-75423911D01*
X89879489Y-75315302D01*
X89875070Y-75312438D01*
X89875068Y-75312436D01*
X89835157Y-75286567D01*
X89759184Y-75237324D01*
X89655257Y-75206243D01*
X89626881Y-75197757D01*
X89626880Y-75197757D01*
X89621828Y-75196246D01*
X89548192Y-75195796D01*
X89483735Y-75195402D01*
X89483734Y-75195402D01*
X89478465Y-75195370D01*
X89340618Y-75234767D01*
X89219369Y-75311269D01*
X89212282Y-75319294D01*
X89166772Y-75370824D01*
X89122308Y-75395017D01*
X89111306Y-75395839D01*
X87528234Y-75395839D01*
X87522757Y-75395437D01*
X87518319Y-75393913D01*
X87511495Y-75394169D01*
X87511493Y-75394169D01*
X87468405Y-75395787D01*
X87465629Y-75395839D01*
X87445713Y-75395839D01*
X87442356Y-75396464D01*
X87438968Y-75396777D01*
X87438951Y-75396589D01*
X87434905Y-75397045D01*
X87406453Y-75398113D01*
X87400176Y-75400810D01*
X87400171Y-75400811D01*
X87393318Y-75403755D01*
X87377659Y-75408513D01*
X87370323Y-75409879D01*
X87370321Y-75409880D01*
X87363608Y-75411130D01*
X87342873Y-75423911D01*
X87339372Y-75426069D01*
X87329755Y-75431065D01*
X87308395Y-75440242D01*
X87308393Y-75440243D01*
X87303599Y-75442303D01*
X87298713Y-75446316D01*
X87292281Y-75452748D01*
X87278786Y-75463415D01*
X87268313Y-75469871D01*
X87264177Y-75475310D01*
X87249622Y-75494451D01*
X87243044Y-75501985D01*
X84922809Y-77822220D01*
X84918656Y-77825805D01*
X84914441Y-77827865D01*
X84883887Y-77860803D01*
X84880484Y-77864471D01*
X84878558Y-77866471D01*
X84864462Y-77880567D01*
X84862534Y-77883378D01*
X84860357Y-77885997D01*
X84860225Y-77885887D01*
X84857671Y-77889063D01*
X84838309Y-77909936D01*
X84835779Y-77916278D01*
X84835775Y-77916284D01*
X84833011Y-77923213D01*
X84825303Y-77937649D01*
X84821086Y-77943797D01*
X84817218Y-77949436D01*
X84815640Y-77956086D01*
X84815639Y-77956088D01*
X84810646Y-77977130D01*
X84807378Y-77987466D01*
X84796827Y-78013912D01*
X84796210Y-78020205D01*
X84796210Y-78029302D01*
X84794210Y-78046388D01*
X84791370Y-78058356D01*
X84792097Y-78063700D01*
X84772778Y-78109652D01*
X84771142Y-78111221D01*
X84768990Y-78112579D01*
X84765502Y-78116528D01*
X84765500Y-78116530D01*
X84696099Y-78195113D01*
X84674087Y-78220037D01*
X84613157Y-78349812D01*
X84591101Y-78491472D01*
X56820114Y-78491472D01*
X56820114Y-74575894D01*
X56837427Y-74528328D01*
X56849065Y-74517186D01*
X56853547Y-74513747D01*
X56853550Y-74513744D01*
X56857396Y-74510793D01*
X56881275Y-74479673D01*
X56950698Y-74389200D01*
X56950700Y-74389196D01*
X56953650Y-74385352D01*
X57014158Y-74239273D01*
X57034796Y-74082511D01*
X57014158Y-73925749D01*
X56953650Y-73779670D01*
X56950700Y-73775826D01*
X56950698Y-73775822D01*
X56895451Y-73703823D01*
X77824391Y-73703823D01*
X77825074Y-73709046D01*
X77825074Y-73709049D01*
X77825573Y-73712862D01*
X77842980Y-73845979D01*
X77900720Y-73977203D01*
X77904112Y-73981238D01*
X77989580Y-74082916D01*
X77989583Y-74082919D01*
X77992970Y-74086948D01*
X77997357Y-74089868D01*
X78107924Y-74163469D01*
X78107927Y-74163470D01*
X78112313Y-74166390D01*
X78249157Y-74209142D01*
X78254425Y-74209239D01*
X78254428Y-74209239D01*
X78377211Y-74211490D01*
X78428180Y-74233152D01*
X80767826Y-76572798D01*
X80789218Y-76618674D01*
X80789500Y-76625124D01*
X80789500Y-77278553D01*
X80772187Y-77326119D01*
X80765379Y-77332975D01*
X80762280Y-77334930D01*
X80667377Y-77442388D01*
X80606447Y-77572163D01*
X80584391Y-77713823D01*
X80585074Y-77719046D01*
X80585074Y-77719049D01*
X80585573Y-77722862D01*
X80602980Y-77855979D01*
X80660720Y-77987203D01*
X80664112Y-77991238D01*
X80749580Y-78092916D01*
X80749583Y-78092919D01*
X80752970Y-78096948D01*
X80765269Y-78105135D01*
X80867924Y-78173469D01*
X80867927Y-78173470D01*
X80872313Y-78176390D01*
X81009157Y-78219142D01*
X81014425Y-78219239D01*
X81014428Y-78219239D01*
X81074733Y-78220344D01*
X81152499Y-78221770D01*
X81157582Y-78220384D01*
X81157584Y-78220384D01*
X81285727Y-78185448D01*
X81285729Y-78185447D01*
X81290817Y-78184060D01*
X81357582Y-78143066D01*
X81408498Y-78111804D01*
X81408499Y-78111803D01*
X81412991Y-78109045D01*
X81509200Y-78002754D01*
X81571710Y-77873733D01*
X81595496Y-77732354D01*
X81595647Y-77720000D01*
X81575323Y-77578082D01*
X81515984Y-77447572D01*
X81422400Y-77338963D01*
X81417973Y-77336093D01*
X81415854Y-77334245D01*
X81391391Y-77289930D01*
X81390500Y-77278481D01*
X81390500Y-76524567D01*
X81390902Y-76519094D01*
X81392425Y-76514658D01*
X81390552Y-76464758D01*
X81390500Y-76461982D01*
X81390500Y-76442052D01*
X81389876Y-76438700D01*
X81389563Y-76435309D01*
X81389753Y-76435291D01*
X81389294Y-76431242D01*
X81388482Y-76409617D01*
X81388226Y-76402791D01*
X81385530Y-76396516D01*
X81385529Y-76396512D01*
X81382584Y-76389658D01*
X81377825Y-76373995D01*
X81376460Y-76366664D01*
X81376460Y-76366663D01*
X81375209Y-76359947D01*
X81371624Y-76354132D01*
X81371623Y-76354128D01*
X81360270Y-76335710D01*
X81355274Y-76326093D01*
X81346099Y-76304738D01*
X81346098Y-76304736D01*
X81344036Y-76299937D01*
X81340022Y-76295051D01*
X81333591Y-76288620D01*
X81322923Y-76275124D01*
X81320053Y-76270468D01*
X81316468Y-76264652D01*
X81291888Y-76245961D01*
X81284354Y-76239383D01*
X78852657Y-73807686D01*
X78831265Y-73761810D01*
X78832008Y-73743084D01*
X78835496Y-73722354D01*
X78835647Y-73710000D01*
X78817500Y-73583282D01*
X78816070Y-73573297D01*
X78816070Y-73573296D01*
X78815323Y-73568082D01*
X78783217Y-73497467D01*
X78758166Y-73442371D01*
X78755984Y-73437572D01*
X78662400Y-73328963D01*
X78657981Y-73326099D01*
X78657979Y-73326097D01*
X78618068Y-73300228D01*
X78542095Y-73250985D01*
X78438168Y-73219904D01*
X78409792Y-73211418D01*
X78409791Y-73211418D01*
X78404739Y-73209907D01*
X78331103Y-73209457D01*
X78266646Y-73209063D01*
X78266645Y-73209063D01*
X78261376Y-73209031D01*
X78123529Y-73248428D01*
X78002280Y-73324930D01*
X77907377Y-73432388D01*
X77846447Y-73562163D01*
X77824391Y-73703823D01*
X56895451Y-73703823D01*
X56860351Y-73658080D01*
X56857396Y-73654229D01*
X56828905Y-73632367D01*
X56735803Y-73560927D01*
X56735799Y-73560925D01*
X56731955Y-73557975D01*
X56585876Y-73497467D01*
X56581074Y-73496835D01*
X56581071Y-73496834D01*
X56433922Y-73477462D01*
X56429114Y-73476829D01*
X56424306Y-73477462D01*
X56277157Y-73496834D01*
X56277154Y-73496835D01*
X56272352Y-73497467D01*
X56126273Y-73557975D01*
X56122429Y-73560925D01*
X56122425Y-73560927D01*
X56029323Y-73632367D01*
X56000832Y-73654229D01*
X55997877Y-73658080D01*
X55907530Y-73775822D01*
X55907528Y-73775826D01*
X55904578Y-73779670D01*
X55844070Y-73925749D01*
X55823432Y-74082511D01*
X53443863Y-74082511D01*
X53455044Y-65436202D01*
X62296540Y-65436202D01*
X62316239Y-65586299D01*
X62317759Y-65590311D01*
X62368325Y-65723777D01*
X62369873Y-65727864D01*
X62372275Y-65731422D01*
X62372276Y-65731424D01*
X62438488Y-65829500D01*
X62454577Y-65853332D01*
X62457727Y-65856239D01*
X62554901Y-65945919D01*
X62565825Y-65956001D01*
X62697674Y-66030385D01*
X62701791Y-66031578D01*
X62701794Y-66031579D01*
X62760791Y-66048670D01*
X62843079Y-66072510D01*
X62847367Y-66072726D01*
X62859250Y-66073324D01*
X62994272Y-66080125D01*
X63143173Y-66052824D01*
X63147100Y-66051103D01*
X63147104Y-66051102D01*
X63268927Y-65997719D01*
X63268933Y-65997715D01*
X63276458Y-65994418D01*
X63282267Y-65992829D01*
X63282270Y-65992826D01*
X63282274Y-65992825D01*
X63288926Y-65986103D01*
X63297426Y-65981166D01*
X63297449Y-65981206D01*
X63297964Y-65980737D01*
X63298316Y-65980537D01*
X63298496Y-65980854D01*
X63304954Y-65976285D01*
X63329325Y-65964792D01*
X63341550Y-65960295D01*
X63388317Y-65947635D01*
X63401141Y-65945351D01*
X63419446Y-65943734D01*
X63428016Y-65942977D01*
X63436761Y-65943738D01*
X63436761Y-65943288D01*
X63446506Y-65943288D01*
X63455915Y-65945810D01*
X63466333Y-65943019D01*
X63485475Y-65940500D01*
X65015264Y-65940500D01*
X65034420Y-65943023D01*
X65035406Y-65943287D01*
X65035408Y-65943287D01*
X65044819Y-65945809D01*
X65054230Y-65943288D01*
X65063972Y-65943288D01*
X65063972Y-65943734D01*
X65072750Y-65942969D01*
X65099596Y-65945343D01*
X65112418Y-65947628D01*
X65159182Y-65960292D01*
X65171407Y-65964790D01*
X65195816Y-65976303D01*
X65203147Y-65981489D01*
X65203332Y-65981170D01*
X65203840Y-65981465D01*
X65203889Y-65981384D01*
X65204243Y-65981596D01*
X65204402Y-65981791D01*
X65208870Y-65984387D01*
X65209813Y-65984944D01*
X65211943Y-65986224D01*
X65218471Y-65992821D01*
X65218481Y-65992824D01*
X65218488Y-65992831D01*
X65223873Y-65994304D01*
X65357562Y-66052874D01*
X65361780Y-66053647D01*
X65361783Y-66053648D01*
X65502247Y-66079393D01*
X65502249Y-66079393D01*
X65506466Y-66080166D01*
X65657659Y-66072542D01*
X65730279Y-66051500D01*
X65798945Y-66031604D01*
X65798949Y-66031602D01*
X65803064Y-66030410D01*
X65884635Y-65984387D01*
X65931177Y-65958128D01*
X65931179Y-65958127D01*
X65934911Y-65956021D01*
X66046158Y-65853349D01*
X66130862Y-65727879D01*
X66132418Y-65723774D01*
X66182978Y-65590324D01*
X66182979Y-65590322D01*
X66184497Y-65586314D01*
X66204197Y-65436216D01*
X66188912Y-65285604D01*
X66141368Y-65148055D01*
X66140250Y-65142143D01*
X66140245Y-65142137D01*
X66140244Y-65142130D01*
X66134436Y-65135380D01*
X66130590Y-65127228D01*
X66130084Y-65126388D01*
X66129459Y-65125562D01*
X66129070Y-65124705D01*
X66125196Y-65118275D01*
X66118408Y-65100976D01*
X66115152Y-65090419D01*
X66105997Y-65050306D01*
X66104350Y-65039378D01*
X66102964Y-65020893D01*
X66103799Y-65011982D01*
X66103664Y-65011982D01*
X66103663Y-65002239D01*
X66106183Y-64992830D01*
X66103397Y-64982435D01*
X66100874Y-64963278D01*
X66100874Y-63616725D01*
X66103397Y-63597568D01*
X66103661Y-63596584D01*
X66103661Y-63596582D01*
X66106183Y-63587172D01*
X66103662Y-63577762D01*
X66103663Y-63568019D01*
X66103806Y-63568019D01*
X66102975Y-63559151D01*
X66104364Y-63540626D01*
X66106011Y-63529700D01*
X66115167Y-63489584D01*
X66118425Y-63479022D01*
X66125226Y-63461691D01*
X66130567Y-63452825D01*
X66130840Y-63452245D01*
X66130615Y-63452128D01*
X66131165Y-63451065D01*
X66131574Y-63450688D01*
X66133175Y-63447294D01*
X66134392Y-63444833D01*
X66134600Y-63444430D01*
X66140244Y-63437871D01*
X66140245Y-63437867D01*
X66140250Y-63437861D01*
X66141452Y-63431501D01*
X66141767Y-63430590D01*
X66141769Y-63430586D01*
X66142417Y-63428712D01*
X66142948Y-63427408D01*
X66143219Y-63426388D01*
X66143550Y-63425431D01*
X66188848Y-63294385D01*
X66197314Y-63210973D01*
X66203699Y-63148054D01*
X66204132Y-63143788D01*
X66184434Y-62993705D01*
X66166289Y-62945810D01*
X66133979Y-62860531D01*
X66130805Y-62852153D01*
X66127136Y-62846717D01*
X66048515Y-62730257D01*
X66046110Y-62726694D01*
X66042938Y-62723766D01*
X66013668Y-62696753D01*
X65934874Y-62624032D01*
X65931087Y-62621895D01*
X65862960Y-62583458D01*
X65803039Y-62549650D01*
X65798924Y-62548458D01*
X65798920Y-62548456D01*
X65716879Y-62524684D01*
X65657649Y-62507522D01*
X65594677Y-62504347D01*
X65510758Y-62500115D01*
X65510757Y-62500115D01*
X65506471Y-62499899D01*
X65502254Y-62500672D01*
X65502252Y-62500672D01*
X65395033Y-62520323D01*
X65357580Y-62527188D01*
X65229247Y-62583412D01*
X65229118Y-62583458D01*
X65229052Y-62583497D01*
X65224292Y-62585583D01*
X65218488Y-62587170D01*
X65218481Y-62587177D01*
X65218471Y-62587180D01*
X65211941Y-62593779D01*
X65209821Y-62595053D01*
X65208876Y-62595611D01*
X65204611Y-62598088D01*
X65204322Y-62598358D01*
X65203969Y-62598570D01*
X65203921Y-62598489D01*
X65203331Y-62598832D01*
X65203150Y-62598520D01*
X65195793Y-62603723D01*
X65183218Y-62609655D01*
X65171412Y-62615224D01*
X65159192Y-62619720D01*
X65112418Y-62632387D01*
X65099607Y-62634670D01*
X65072780Y-62637042D01*
X65063970Y-62636275D01*
X65063970Y-62636712D01*
X65054228Y-62636712D01*
X65044819Y-62634192D01*
X65035412Y-62636713D01*
X65035407Y-62636713D01*
X65034420Y-62636978D01*
X65015264Y-62639501D01*
X63485476Y-62639501D01*
X63466327Y-62636981D01*
X63466316Y-62636978D01*
X63455916Y-62634192D01*
X63446506Y-62636714D01*
X63436765Y-62636714D01*
X63436765Y-62636270D01*
X63427984Y-62637034D01*
X63401141Y-62634663D01*
X63388316Y-62632379D01*
X63341544Y-62619718D01*
X63329330Y-62615225D01*
X63304971Y-62603738D01*
X63297754Y-62598633D01*
X63297533Y-62599011D01*
X63289118Y-62594095D01*
X63282268Y-62587173D01*
X63276419Y-62585573D01*
X63143174Y-62527184D01*
X62994273Y-62499882D01*
X62843082Y-62507497D01*
X62838959Y-62508692D01*
X62838956Y-62508692D01*
X62701801Y-62548426D01*
X62701797Y-62548428D01*
X62697678Y-62549621D01*
X62693943Y-62551728D01*
X62693941Y-62551729D01*
X62576451Y-62618012D01*
X62565830Y-62624004D01*
X62454582Y-62726673D01*
X62452185Y-62730224D01*
X62452183Y-62730226D01*
X62373540Y-62846717D01*
X62369879Y-62852140D01*
X62368357Y-62856156D01*
X62368357Y-62856157D01*
X62335987Y-62941597D01*
X62316246Y-62993704D01*
X62296547Y-63143799D01*
X62296980Y-63148064D01*
X62303367Y-63210973D01*
X62311837Y-63294408D01*
X62313237Y-63298457D01*
X62313237Y-63298458D01*
X62314705Y-63302703D01*
X62359383Y-63431945D01*
X62360503Y-63437866D01*
X62360516Y-63437881D01*
X62360520Y-63437901D01*
X62366749Y-63445138D01*
X62370938Y-63453720D01*
X62370777Y-63453798D01*
X62375571Y-63461754D01*
X62382349Y-63479020D01*
X62385611Y-63489593D01*
X62394761Y-63529678D01*
X62396408Y-63540605D01*
X62397791Y-63559077D01*
X62396955Y-63567988D01*
X62397091Y-63567988D01*
X62397090Y-63577731D01*
X62394567Y-63587140D01*
X62397087Y-63596549D01*
X62397357Y-63597556D01*
X62399876Y-63616701D01*
X62399876Y-64963278D01*
X62397353Y-64982435D01*
X62394567Y-64992830D01*
X62397087Y-65002239D01*
X62397086Y-65011982D01*
X62396943Y-65011982D01*
X62397774Y-65020850D01*
X62396384Y-65039380D01*
X62394738Y-65050301D01*
X62385582Y-65090410D01*
X62382327Y-65100965D01*
X62375518Y-65118316D01*
X62371741Y-65124584D01*
X62367634Y-65133845D01*
X62360509Y-65142124D01*
X62360508Y-65142132D01*
X62360503Y-65142137D01*
X62359395Y-65147999D01*
X62356118Y-65157477D01*
X62356118Y-65157478D01*
X62314697Y-65277299D01*
X62311830Y-65285592D01*
X62296540Y-65436202D01*
X53455044Y-65436202D01*
X53463166Y-59154769D01*
X58041105Y-59154769D01*
X58051034Y-59369306D01*
X58101353Y-59578094D01*
X58190244Y-59773600D01*
X58192282Y-59776473D01*
X58311063Y-59943923D01*
X58314501Y-59948770D01*
X58317043Y-59951203D01*
X58317046Y-59951207D01*
X58398062Y-60028763D01*
X58469640Y-60097284D01*
X58472594Y-60099191D01*
X58472596Y-60099193D01*
X58512445Y-60124923D01*
X58650064Y-60213782D01*
X58849262Y-60294061D01*
X58852711Y-60294735D01*
X58852716Y-60294736D01*
X59057428Y-60334713D01*
X59057431Y-60334713D01*
X59060046Y-60335224D01*
X59063204Y-60335378D01*
X59064800Y-60335457D01*
X59064819Y-60335457D01*
X59065689Y-60335500D01*
X59224039Y-60335500D01*
X59384170Y-60320222D01*
X59590251Y-60259765D01*
X59593381Y-60258153D01*
X59593386Y-60258151D01*
X59778053Y-60163041D01*
X59778057Y-60163039D01*
X59781182Y-60161429D01*
X59824898Y-60127090D01*
X59865941Y-60094850D01*
X59950073Y-60028763D01*
X60090830Y-59866554D01*
X60092592Y-59863508D01*
X60092595Y-59863504D01*
X60196608Y-59683712D01*
X60196610Y-59683708D01*
X60198376Y-59680655D01*
X60221615Y-59613733D01*
X60267672Y-59481104D01*
X60267673Y-59481100D01*
X60268828Y-59477774D01*
X60273144Y-59448010D01*
X60299139Y-59268723D01*
X60299139Y-59268720D01*
X60299645Y-59265231D01*
X60299269Y-59257108D01*
X62001445Y-59257108D01*
X62027431Y-59554130D01*
X62032788Y-59578094D01*
X62090649Y-59836948D01*
X62092472Y-59845105D01*
X62093321Y-59847414D01*
X62093323Y-59847419D01*
X62125353Y-59934473D01*
X62195425Y-60124923D01*
X62196564Y-60127084D01*
X62196567Y-60127090D01*
X62333336Y-60386495D01*
X62334481Y-60388666D01*
X62335904Y-60390668D01*
X62335905Y-60390670D01*
X62455758Y-60559319D01*
X62507197Y-60631701D01*
X62508868Y-60633493D01*
X62508873Y-60633499D01*
X62599580Y-60730770D01*
X62710539Y-60849759D01*
X62940934Y-61039008D01*
X63194335Y-61196123D01*
X63196573Y-61197129D01*
X63196579Y-61197132D01*
X63464058Y-61317342D01*
X63464066Y-61317345D01*
X63466289Y-61318344D01*
X63752019Y-61403523D01*
X64046504Y-61450165D01*
X64048558Y-61450258D01*
X64048565Y-61450259D01*
X64103464Y-61452752D01*
X64139763Y-61454400D01*
X64326000Y-61454400D01*
X64327212Y-61454319D01*
X64327227Y-61454319D01*
X64545426Y-61439826D01*
X64545430Y-61439825D01*
X64547876Y-61439663D01*
X64840149Y-61380730D01*
X65122061Y-61283660D01*
X65299457Y-61194827D01*
X65386453Y-61151263D01*
X65386457Y-61151261D01*
X65388659Y-61150158D01*
X65390697Y-61148773D01*
X65633228Y-60983950D01*
X65633232Y-60983947D01*
X65635258Y-60982570D01*
X65783799Y-60849759D01*
X65855692Y-60785479D01*
X65855694Y-60785477D01*
X65857526Y-60783839D01*
X66051559Y-60557457D01*
X66213946Y-60307403D01*
X66220282Y-60294061D01*
X66340785Y-60040282D01*
X66340786Y-60040278D01*
X66341836Y-60038068D01*
X66369195Y-59952855D01*
X66432231Y-59756522D01*
X66432232Y-59756517D01*
X66432981Y-59754185D01*
X66470268Y-59546948D01*
X66485346Y-59463149D01*
X66485346Y-59463145D01*
X66485779Y-59460741D01*
X66499305Y-59162892D01*
X66473319Y-58865870D01*
X66438126Y-58708428D01*
X66408815Y-58577296D01*
X66408814Y-58577292D01*
X66408278Y-58574895D01*
X66401509Y-58556496D01*
X66336467Y-58379718D01*
X66305325Y-58295077D01*
X66304186Y-58292916D01*
X66304183Y-58292910D01*
X66167414Y-58033505D01*
X66167411Y-58033501D01*
X66166269Y-58031334D01*
X66159922Y-58022402D01*
X65994978Y-57790304D01*
X65994977Y-57790303D01*
X65993553Y-57788299D01*
X65991882Y-57786507D01*
X65991877Y-57786501D01*
X65833388Y-57616543D01*
X65790211Y-57570241D01*
X65751102Y-57538116D01*
X65561714Y-57382551D01*
X65559816Y-57380992D01*
X65554154Y-57377481D01*
X65308505Y-57225173D01*
X65306415Y-57223877D01*
X65304177Y-57222871D01*
X65304171Y-57222868D01*
X65036692Y-57102658D01*
X65036684Y-57102655D01*
X65034461Y-57101656D01*
X64748731Y-57016477D01*
X64454246Y-56969835D01*
X64452192Y-56969742D01*
X64452185Y-56969741D01*
X64397286Y-56967248D01*
X64360987Y-56965600D01*
X64174750Y-56965600D01*
X64173538Y-56965681D01*
X64173523Y-56965681D01*
X63955324Y-56980174D01*
X63955320Y-56980175D01*
X63952874Y-56980337D01*
X63660601Y-57039270D01*
X63378689Y-57136340D01*
X63376484Y-57137444D01*
X63376482Y-57137445D01*
X63114297Y-57268737D01*
X63114293Y-57268739D01*
X63112091Y-57269842D01*
X63110053Y-57271227D01*
X62867522Y-57436050D01*
X62867518Y-57436053D01*
X62865492Y-57437430D01*
X62863660Y-57439068D01*
X62714943Y-57572037D01*
X62643224Y-57636161D01*
X62449191Y-57862543D01*
X62286804Y-58112597D01*
X62285752Y-58114813D01*
X62285749Y-58114818D01*
X62185876Y-58325150D01*
X62158914Y-58381932D01*
X62155071Y-58393901D01*
X62102868Y-58556496D01*
X62067769Y-58665815D01*
X62045612Y-58788963D01*
X62018036Y-58942226D01*
X62014971Y-58959259D01*
X62001445Y-59257108D01*
X60299269Y-59257108D01*
X60289716Y-59050694D01*
X60239397Y-58841906D01*
X60150506Y-58646400D01*
X60099784Y-58574895D01*
X60028288Y-58474104D01*
X60028286Y-58474102D01*
X60026249Y-58471230D01*
X60023707Y-58468797D01*
X60023704Y-58468793D01*
X59935405Y-58384265D01*
X59871110Y-58322716D01*
X59868156Y-58320809D01*
X59868154Y-58320807D01*
X59693641Y-58208126D01*
X59690686Y-58206218D01*
X59491488Y-58125939D01*
X59488039Y-58125265D01*
X59488034Y-58125264D01*
X59283322Y-58085287D01*
X59283319Y-58085287D01*
X59280704Y-58084776D01*
X59277546Y-58084622D01*
X59275950Y-58084543D01*
X59275931Y-58084543D01*
X59275061Y-58084500D01*
X59116711Y-58084500D01*
X58956580Y-58099778D01*
X58750499Y-58160235D01*
X58747369Y-58161847D01*
X58747364Y-58161849D01*
X58562697Y-58256959D01*
X58562693Y-58256961D01*
X58559568Y-58258571D01*
X58556802Y-58260744D01*
X58556800Y-58260745D01*
X58513094Y-58295077D01*
X58390677Y-58391237D01*
X58388367Y-58393899D01*
X58388365Y-58393901D01*
X58281924Y-58516564D01*
X58249920Y-58553446D01*
X58248158Y-58556492D01*
X58248155Y-58556496D01*
X58144142Y-58736288D01*
X58144140Y-58736292D01*
X58142374Y-58739345D01*
X58141217Y-58742677D01*
X58141216Y-58742679D01*
X58087573Y-58897157D01*
X58071922Y-58942226D01*
X58071416Y-58945714D01*
X58071416Y-58945715D01*
X58053089Y-59072118D01*
X58041105Y-59154769D01*
X53463166Y-59154769D01*
X53466454Y-56611726D01*
X66206063Y-56611726D01*
X66216352Y-56873582D01*
X66263433Y-57131376D01*
X66264262Y-57133860D01*
X66264262Y-57133861D01*
X66318330Y-57295921D01*
X66346369Y-57379965D01*
X66347535Y-57382299D01*
X66347539Y-57382308D01*
X66442342Y-57572037D01*
X66463503Y-57614387D01*
X66612499Y-57829967D01*
X66614282Y-57831896D01*
X66614283Y-57831897D01*
X66733696Y-57961076D01*
X66790385Y-58022402D01*
X66993610Y-58187853D01*
X66995851Y-58189202D01*
X66995855Y-58189205D01*
X67024114Y-58206218D01*
X67218120Y-58323019D01*
X67220524Y-58324037D01*
X67457030Y-58424185D01*
X67457035Y-58424187D01*
X67459435Y-58425203D01*
X67461958Y-58425872D01*
X67461964Y-58425874D01*
X67595178Y-58461195D01*
X67712740Y-58492366D01*
X67715339Y-58492674D01*
X67715341Y-58492674D01*
X67833402Y-58506647D01*
X67972982Y-58523167D01*
X68092180Y-58520358D01*
X68232348Y-58517055D01*
X68232352Y-58517055D01*
X68234967Y-58516993D01*
X68237542Y-58516564D01*
X68237546Y-58516564D01*
X68259277Y-58512947D01*
X68297125Y-58506647D01*
X68346887Y-58515915D01*
X68379051Y-58555002D01*
X68378565Y-58605619D01*
X68373327Y-58616699D01*
X68304142Y-58736288D01*
X68304140Y-58736292D01*
X68302374Y-58739345D01*
X68301217Y-58742677D01*
X68301216Y-58742679D01*
X68247573Y-58897157D01*
X68231922Y-58942226D01*
X68231416Y-58945714D01*
X68231416Y-58945715D01*
X68213089Y-59072118D01*
X68201105Y-59154769D01*
X68211034Y-59369306D01*
X68261353Y-59578094D01*
X68350244Y-59773600D01*
X68352282Y-59776473D01*
X68471063Y-59943923D01*
X68474501Y-59948770D01*
X68477043Y-59951203D01*
X68477046Y-59951207D01*
X68558062Y-60028763D01*
X68629640Y-60097284D01*
X68632594Y-60099191D01*
X68632596Y-60099193D01*
X68672445Y-60124923D01*
X68810064Y-60213782D01*
X69009262Y-60294061D01*
X69012711Y-60294735D01*
X69012716Y-60294736D01*
X69217428Y-60334713D01*
X69217431Y-60334713D01*
X69220046Y-60335224D01*
X69223204Y-60335378D01*
X69224800Y-60335457D01*
X69224819Y-60335457D01*
X69225689Y-60335500D01*
X69384039Y-60335500D01*
X69544170Y-60320222D01*
X69750251Y-60259765D01*
X69753381Y-60258153D01*
X69753386Y-60258151D01*
X69938053Y-60163041D01*
X69938057Y-60163039D01*
X69941182Y-60161429D01*
X69984898Y-60127090D01*
X70025941Y-60094850D01*
X70110073Y-60028763D01*
X70250830Y-59866554D01*
X70252592Y-59863508D01*
X70252595Y-59863504D01*
X70356608Y-59683712D01*
X70356610Y-59683708D01*
X70358376Y-59680655D01*
X70381615Y-59613733D01*
X70427672Y-59481104D01*
X70427673Y-59481100D01*
X70428828Y-59477774D01*
X70433144Y-59448010D01*
X70459139Y-59268723D01*
X70459139Y-59268720D01*
X70459645Y-59265231D01*
X70454952Y-59163823D01*
X71491016Y-59163823D01*
X71491699Y-59169046D01*
X71491699Y-59169049D01*
X71494749Y-59192371D01*
X71509605Y-59305979D01*
X71567345Y-59437203D01*
X71570737Y-59441238D01*
X71656205Y-59542916D01*
X71656208Y-59542919D01*
X71659595Y-59546948D01*
X71663981Y-59549867D01*
X71667912Y-59553382D01*
X71666936Y-59554473D01*
X71693132Y-59590068D01*
X71696125Y-59610901D01*
X71696125Y-64275433D01*
X71695723Y-64280906D01*
X71694200Y-64285342D01*
X71694456Y-64292166D01*
X71694456Y-64292167D01*
X71696073Y-64335241D01*
X71696125Y-64338017D01*
X71696125Y-64357948D01*
X71696749Y-64361300D01*
X71697062Y-64364691D01*
X71696872Y-64364709D01*
X71697331Y-64368755D01*
X71698399Y-64397208D01*
X71701096Y-64403485D01*
X71701097Y-64403490D01*
X71704041Y-64410343D01*
X71708799Y-64426002D01*
X71711416Y-64440053D01*
X71715001Y-64445868D01*
X71715002Y-64445872D01*
X71726355Y-64464290D01*
X71731351Y-64473907D01*
X71742589Y-64500063D01*
X71746603Y-64504949D01*
X71753034Y-64511380D01*
X71763701Y-64524875D01*
X71770157Y-64535348D01*
X71775596Y-64539484D01*
X71794737Y-64554039D01*
X71802271Y-64560617D01*
X74445555Y-67203901D01*
X74449140Y-67208054D01*
X74451200Y-67212269D01*
X74468676Y-67228480D01*
X74487806Y-67246226D01*
X74489806Y-67248152D01*
X74503902Y-67262248D01*
X74506713Y-67264176D01*
X74509332Y-67266353D01*
X74509222Y-67266485D01*
X74512398Y-67269039D01*
X74533271Y-67288401D01*
X74546544Y-67293696D01*
X74560980Y-67301404D01*
X74572771Y-67309493D01*
X74594944Y-67314755D01*
X74600473Y-67316067D01*
X74610806Y-67319335D01*
X74632394Y-67327947D01*
X74637247Y-67329883D01*
X74643540Y-67330500D01*
X74652633Y-67330500D01*
X74669719Y-67332500D01*
X74675039Y-67333762D01*
X74675042Y-67333762D01*
X74681691Y-67335340D01*
X74688459Y-67334419D01*
X74688462Y-67334419D01*
X74712288Y-67331176D01*
X74722267Y-67330500D01*
X77491502Y-67330500D01*
X77539068Y-67347813D01*
X77543828Y-67352174D01*
X79600087Y-69408433D01*
X79621479Y-69454309D01*
X79620880Y-69472143D01*
X79614391Y-69513823D01*
X79615074Y-69519046D01*
X79615074Y-69519049D01*
X79622412Y-69575164D01*
X79632980Y-69655979D01*
X79677520Y-69757203D01*
X79682278Y-69768016D01*
X79690720Y-69787203D01*
X79694112Y-69791238D01*
X79779580Y-69892916D01*
X79779583Y-69892919D01*
X79782970Y-69896948D01*
X79787357Y-69899868D01*
X79897924Y-69973469D01*
X79897927Y-69973470D01*
X79902313Y-69976390D01*
X80039157Y-70019142D01*
X80044425Y-70019239D01*
X80044428Y-70019239D01*
X80104733Y-70020344D01*
X80182499Y-70021770D01*
X80187582Y-70020384D01*
X80187584Y-70020384D01*
X80315727Y-69985448D01*
X80315729Y-69985447D01*
X80320817Y-69984060D01*
X80442991Y-69909045D01*
X80503645Y-69842035D01*
X80548401Y-69818387D01*
X80597886Y-69829041D01*
X80615154Y-69844079D01*
X80656202Y-69892913D01*
X80656207Y-69892917D01*
X80659595Y-69896948D01*
X80663982Y-69899868D01*
X80774549Y-69973469D01*
X80774552Y-69973470D01*
X80778938Y-69976390D01*
X80915782Y-70019142D01*
X80921050Y-70019239D01*
X80921053Y-70019239D01*
X80981358Y-70020344D01*
X81059124Y-70021770D01*
X81064207Y-70020384D01*
X81064209Y-70020384D01*
X81192352Y-69985448D01*
X81192354Y-69985447D01*
X81197442Y-69984060D01*
X81319616Y-69909045D01*
X81344273Y-69881804D01*
X81395095Y-69825657D01*
X81439851Y-69802009D01*
X81489336Y-69812663D01*
X81506604Y-69827701D01*
X81536202Y-69862913D01*
X81536207Y-69862917D01*
X81539595Y-69866948D01*
X81543982Y-69869868D01*
X81654549Y-69943469D01*
X81654552Y-69943470D01*
X81658938Y-69946390D01*
X81795782Y-69989142D01*
X81801050Y-69989239D01*
X81801053Y-69989239D01*
X81861358Y-69990344D01*
X81939124Y-69991770D01*
X81944207Y-69990384D01*
X81944209Y-69990384D01*
X82072352Y-69955448D01*
X82072354Y-69955447D01*
X82077442Y-69954060D01*
X82157124Y-69905135D01*
X82195123Y-69881804D01*
X82195124Y-69881803D01*
X82199616Y-69879045D01*
X82295825Y-69772754D01*
X82356783Y-69646936D01*
X82393101Y-69611680D01*
X82443588Y-69608016D01*
X82484617Y-69637662D01*
X82491110Y-69649400D01*
X82543303Y-69768016D01*
X82547345Y-69777203D01*
X82555751Y-69787203D01*
X82636205Y-69882916D01*
X82636208Y-69882919D01*
X82639595Y-69886948D01*
X82643982Y-69889868D01*
X82754549Y-69963469D01*
X82754552Y-69963470D01*
X82758938Y-69966390D01*
X82895782Y-70009142D01*
X82901050Y-70009239D01*
X82901053Y-70009239D01*
X82961358Y-70010344D01*
X83039124Y-70011770D01*
X83044207Y-70010384D01*
X83044209Y-70010384D01*
X83172352Y-69975448D01*
X83172354Y-69975447D01*
X83177442Y-69974060D01*
X83278836Y-69911804D01*
X83295123Y-69901804D01*
X83295124Y-69901803D01*
X83299616Y-69899045D01*
X83395825Y-69792754D01*
X83458335Y-69663733D01*
X83482121Y-69522354D01*
X83482272Y-69510000D01*
X83477413Y-69476072D01*
X83487808Y-69426533D01*
X83498340Y-69413256D01*
X84324422Y-68587174D01*
X84370298Y-68565782D01*
X84376748Y-68565500D01*
X102017058Y-68565500D01*
X102022531Y-68565902D01*
X102026967Y-68567425D01*
X102033791Y-68567169D01*
X102033792Y-68567169D01*
X102076866Y-68565552D01*
X102079642Y-68565500D01*
X102099573Y-68565500D01*
X102102925Y-68564876D01*
X102106316Y-68564563D01*
X102106334Y-68564753D01*
X102110380Y-68564294D01*
X102138833Y-68563226D01*
X102145110Y-68560529D01*
X102145115Y-68560528D01*
X102151968Y-68557584D01*
X102167627Y-68552826D01*
X102174961Y-68551460D01*
X102181678Y-68550209D01*
X102187493Y-68546624D01*
X102187497Y-68546623D01*
X102205915Y-68535270D01*
X102215532Y-68530274D01*
X102236887Y-68521099D01*
X102236889Y-68521098D01*
X102241688Y-68519036D01*
X102246574Y-68515022D01*
X102253005Y-68508591D01*
X102266501Y-68497923D01*
X102271157Y-68495053D01*
X102276973Y-68491468D01*
X102295664Y-68466888D01*
X102302242Y-68459354D01*
X103170096Y-67591501D01*
X103215973Y-67570109D01*
X103223778Y-67569839D01*
X103278564Y-67570843D01*
X103329124Y-67571770D01*
X103334206Y-67570385D01*
X103334210Y-67570384D01*
X103462352Y-67535448D01*
X103462354Y-67535447D01*
X103467442Y-67534060D01*
X103535777Y-67492102D01*
X103585123Y-67461804D01*
X103585124Y-67461803D01*
X103589616Y-67459045D01*
X103685825Y-67352754D01*
X103748335Y-67223733D01*
X103772121Y-67082354D01*
X103772272Y-67070000D01*
X103751948Y-66928082D01*
X103719220Y-66856099D01*
X103694791Y-66802371D01*
X103692609Y-66797572D01*
X103619036Y-66712187D01*
X103602465Y-66692955D01*
X103602464Y-66692954D01*
X103599025Y-66688963D01*
X103594606Y-66686099D01*
X103594604Y-66686097D01*
X103554693Y-66660228D01*
X103478720Y-66610985D01*
X103401027Y-66587750D01*
X103360418Y-66557536D01*
X103348730Y-66508285D01*
X103369906Y-66464528D01*
X103382260Y-66452174D01*
X103428136Y-66430782D01*
X103434586Y-66430500D01*
X107245433Y-66430500D01*
X107250906Y-66430902D01*
X107255342Y-66432425D01*
X107262166Y-66432169D01*
X107262167Y-66432169D01*
X107305241Y-66430552D01*
X107308017Y-66430500D01*
X107327948Y-66430500D01*
X107331300Y-66429876D01*
X107334691Y-66429563D01*
X107334709Y-66429753D01*
X107338755Y-66429294D01*
X107367208Y-66428226D01*
X107373485Y-66425529D01*
X107373490Y-66425528D01*
X107380343Y-66422584D01*
X107396002Y-66417826D01*
X107403336Y-66416460D01*
X107410053Y-66415209D01*
X107415868Y-66411624D01*
X107415872Y-66411623D01*
X107434290Y-66400270D01*
X107443907Y-66395274D01*
X107465262Y-66386099D01*
X107465264Y-66386098D01*
X107470063Y-66384036D01*
X107474949Y-66380022D01*
X107481380Y-66373591D01*
X107494876Y-66362923D01*
X107499532Y-66360053D01*
X107505348Y-66356468D01*
X107524039Y-66331888D01*
X107530617Y-66324354D01*
X109990530Y-63864442D01*
X109994679Y-63860860D01*
X109998894Y-63858800D01*
X110032839Y-63822207D01*
X110034764Y-63820208D01*
X110048873Y-63806099D01*
X110050799Y-63803291D01*
X110052981Y-63800665D01*
X110053120Y-63800781D01*
X110055667Y-63797599D01*
X110070377Y-63781741D01*
X110070378Y-63781740D01*
X110075026Y-63776729D01*
X110080323Y-63763452D01*
X110088031Y-63749016D01*
X110092250Y-63742866D01*
X110096117Y-63737229D01*
X110098301Y-63728029D01*
X110102689Y-63709535D01*
X110105957Y-63699199D01*
X110114574Y-63677600D01*
X110116508Y-63672753D01*
X110117125Y-63666460D01*
X110117125Y-63657363D01*
X110119125Y-63640276D01*
X110120387Y-63634960D01*
X110120387Y-63634958D01*
X110121965Y-63628309D01*
X110117801Y-63597712D01*
X110117125Y-63587733D01*
X110117125Y-59901489D01*
X110134438Y-59853923D01*
X110138898Y-59849486D01*
X110139616Y-59849045D01*
X110235825Y-59742754D01*
X110298335Y-59613733D01*
X110322121Y-59472354D01*
X110322272Y-59460000D01*
X110301948Y-59318082D01*
X110298639Y-59310803D01*
X110244791Y-59192371D01*
X110242609Y-59187572D01*
X110161854Y-59093852D01*
X110152465Y-59082955D01*
X110152464Y-59082954D01*
X110149025Y-59078963D01*
X110144606Y-59076099D01*
X110144604Y-59076097D01*
X110102846Y-59049031D01*
X110028720Y-59000985D01*
X109924793Y-58969904D01*
X109896417Y-58961418D01*
X109896416Y-58961418D01*
X109891364Y-58959907D01*
X109817728Y-58959457D01*
X109753271Y-58959063D01*
X109753270Y-58959063D01*
X109748001Y-58959031D01*
X109610154Y-58998428D01*
X109488905Y-59074930D01*
X109474726Y-59090985D01*
X109404943Y-59170000D01*
X109394002Y-59182388D01*
X109333072Y-59312163D01*
X109332262Y-59317368D01*
X109332261Y-59317370D01*
X109324175Y-59369306D01*
X109311016Y-59453823D01*
X109311699Y-59459046D01*
X109311699Y-59459049D01*
X109313808Y-59475177D01*
X109329605Y-59595979D01*
X109387345Y-59727203D01*
X109410026Y-59754185D01*
X109476205Y-59832916D01*
X109476208Y-59832919D01*
X109479595Y-59836948D01*
X109483981Y-59839867D01*
X109487912Y-59843382D01*
X109486936Y-59844473D01*
X109513132Y-59880068D01*
X109516125Y-59900901D01*
X109516125Y-63458252D01*
X109498812Y-63505818D01*
X109494451Y-63510578D01*
X107197203Y-65807826D01*
X107151327Y-65829218D01*
X107144877Y-65829500D01*
X104299335Y-65829500D01*
X104251769Y-65812187D01*
X104226459Y-65768350D01*
X104232551Y-65728519D01*
X104230862Y-65727879D01*
X104282978Y-65590324D01*
X104282979Y-65590322D01*
X104284497Y-65586314D01*
X104304197Y-65436216D01*
X104288912Y-65285604D01*
X104241368Y-65148055D01*
X104240250Y-65142143D01*
X104240245Y-65142137D01*
X104240244Y-65142130D01*
X104234436Y-65135380D01*
X104230590Y-65127228D01*
X104230084Y-65126388D01*
X104229459Y-65125562D01*
X104229070Y-65124705D01*
X104225196Y-65118275D01*
X104218408Y-65100976D01*
X104215152Y-65090419D01*
X104205997Y-65050306D01*
X104204350Y-65039378D01*
X104202964Y-65020893D01*
X104203799Y-65011982D01*
X104203664Y-65011982D01*
X104203663Y-65002239D01*
X104206183Y-64992830D01*
X104203397Y-64982435D01*
X104200874Y-64963278D01*
X104200874Y-63616725D01*
X104203397Y-63597568D01*
X104203661Y-63596584D01*
X104203661Y-63596582D01*
X104206183Y-63587172D01*
X104203662Y-63577762D01*
X104203663Y-63568019D01*
X104203806Y-63568019D01*
X104202975Y-63559151D01*
X104204364Y-63540626D01*
X104206011Y-63529700D01*
X104215167Y-63489584D01*
X104218425Y-63479022D01*
X104225226Y-63461691D01*
X104230567Y-63452825D01*
X104230840Y-63452245D01*
X104230615Y-63452128D01*
X104231165Y-63451065D01*
X104231574Y-63450688D01*
X104233175Y-63447294D01*
X104234392Y-63444833D01*
X104234600Y-63444430D01*
X104240244Y-63437871D01*
X104240245Y-63437867D01*
X104240250Y-63437861D01*
X104241452Y-63431501D01*
X104241767Y-63430590D01*
X104241769Y-63430586D01*
X104242417Y-63428712D01*
X104242948Y-63427408D01*
X104243219Y-63426388D01*
X104243550Y-63425431D01*
X104288848Y-63294385D01*
X104297314Y-63210973D01*
X104303699Y-63148054D01*
X104304132Y-63143788D01*
X104284434Y-62993705D01*
X104266289Y-62945810D01*
X104233979Y-62860531D01*
X104230805Y-62852153D01*
X104227136Y-62846717D01*
X104148515Y-62730257D01*
X104146110Y-62726694D01*
X104142938Y-62723766D01*
X104113668Y-62696753D01*
X104034874Y-62624032D01*
X104031087Y-62621895D01*
X103962960Y-62583458D01*
X103903039Y-62549650D01*
X103898924Y-62548458D01*
X103898920Y-62548456D01*
X103816879Y-62524684D01*
X103757649Y-62507522D01*
X103694677Y-62504347D01*
X103610758Y-62500115D01*
X103610757Y-62500115D01*
X103606471Y-62499899D01*
X103602254Y-62500672D01*
X103602252Y-62500672D01*
X103495033Y-62520323D01*
X103457580Y-62527188D01*
X103329247Y-62583412D01*
X103329118Y-62583458D01*
X103329052Y-62583497D01*
X103324292Y-62585583D01*
X103318488Y-62587170D01*
X103318481Y-62587177D01*
X103318471Y-62587180D01*
X103311941Y-62593779D01*
X103309821Y-62595053D01*
X103308876Y-62595611D01*
X103304611Y-62598088D01*
X103304322Y-62598358D01*
X103303969Y-62598570D01*
X103303921Y-62598489D01*
X103303331Y-62598832D01*
X103303150Y-62598520D01*
X103295793Y-62603723D01*
X103283218Y-62609655D01*
X103271412Y-62615224D01*
X103259192Y-62619720D01*
X103212418Y-62632387D01*
X103199607Y-62634670D01*
X103172780Y-62637042D01*
X103163970Y-62636275D01*
X103163970Y-62636712D01*
X103154228Y-62636712D01*
X103144819Y-62634192D01*
X103135412Y-62636713D01*
X103135407Y-62636713D01*
X103134420Y-62636978D01*
X103115264Y-62639501D01*
X101585476Y-62639501D01*
X101566327Y-62636981D01*
X101566316Y-62636978D01*
X101555916Y-62634192D01*
X101546506Y-62636714D01*
X101536765Y-62636714D01*
X101536765Y-62636270D01*
X101527984Y-62637034D01*
X101501141Y-62634663D01*
X101488316Y-62632379D01*
X101441544Y-62619718D01*
X101429330Y-62615225D01*
X101404971Y-62603738D01*
X101397754Y-62598633D01*
X101397533Y-62599011D01*
X101389118Y-62594095D01*
X101382268Y-62587173D01*
X101376419Y-62585573D01*
X101243174Y-62527184D01*
X101094273Y-62499882D01*
X100943082Y-62507497D01*
X100938959Y-62508692D01*
X100938956Y-62508692D01*
X100801801Y-62548426D01*
X100801797Y-62548428D01*
X100797678Y-62549621D01*
X100793943Y-62551728D01*
X100793941Y-62551729D01*
X100676451Y-62618012D01*
X100665830Y-62624004D01*
X100554582Y-62726673D01*
X100552185Y-62730224D01*
X100552183Y-62730226D01*
X100473540Y-62846717D01*
X100469879Y-62852140D01*
X100468357Y-62856156D01*
X100468357Y-62856157D01*
X100435987Y-62941597D01*
X100416246Y-62993704D01*
X100396547Y-63143799D01*
X100396980Y-63148064D01*
X100403367Y-63210973D01*
X100411837Y-63294408D01*
X100413237Y-63298457D01*
X100413237Y-63298458D01*
X100414705Y-63302703D01*
X100459383Y-63431945D01*
X100460503Y-63437866D01*
X100460516Y-63437881D01*
X100460520Y-63437901D01*
X100466749Y-63445138D01*
X100470938Y-63453720D01*
X100470777Y-63453798D01*
X100475571Y-63461754D01*
X100482349Y-63479020D01*
X100485611Y-63489593D01*
X100494761Y-63529678D01*
X100496408Y-63540605D01*
X100497791Y-63559077D01*
X100496955Y-63567988D01*
X100497091Y-63567988D01*
X100497090Y-63577731D01*
X100494567Y-63587140D01*
X100497087Y-63596549D01*
X100497357Y-63597556D01*
X100499876Y-63616701D01*
X100499876Y-64963278D01*
X100497353Y-64982435D01*
X100494567Y-64992830D01*
X100497087Y-65002239D01*
X100497086Y-65011982D01*
X100496943Y-65011982D01*
X100497774Y-65020850D01*
X100496384Y-65039380D01*
X100494738Y-65050301D01*
X100485582Y-65090410D01*
X100482327Y-65100965D01*
X100475518Y-65118316D01*
X100471741Y-65124584D01*
X100467634Y-65133845D01*
X100460509Y-65142124D01*
X100460508Y-65142132D01*
X100460503Y-65142137D01*
X100459395Y-65147999D01*
X100456118Y-65157477D01*
X100456118Y-65157478D01*
X100414697Y-65277299D01*
X100411830Y-65285592D01*
X100396540Y-65436202D01*
X100416239Y-65586299D01*
X100417759Y-65590311D01*
X100468325Y-65723777D01*
X100469873Y-65727864D01*
X100472275Y-65731422D01*
X100472276Y-65731424D01*
X100538488Y-65829500D01*
X100554577Y-65853332D01*
X100557727Y-65856239D01*
X100654901Y-65945919D01*
X100665825Y-65956001D01*
X100797674Y-66030385D01*
X100801791Y-66031578D01*
X100801794Y-66031579D01*
X100860791Y-66048670D01*
X100943079Y-66072510D01*
X100947367Y-66072726D01*
X100959250Y-66073324D01*
X101094272Y-66080125D01*
X101243173Y-66052824D01*
X101247100Y-66051103D01*
X101247104Y-66051102D01*
X101368927Y-65997719D01*
X101368933Y-65997715D01*
X101376458Y-65994418D01*
X101382267Y-65992829D01*
X101382270Y-65992826D01*
X101382274Y-65992825D01*
X101388926Y-65986103D01*
X101397426Y-65981166D01*
X101397449Y-65981206D01*
X101397964Y-65980737D01*
X101398316Y-65980537D01*
X101398496Y-65980854D01*
X101404954Y-65976285D01*
X101429325Y-65964792D01*
X101441550Y-65960295D01*
X101488317Y-65947635D01*
X101501141Y-65945351D01*
X101519446Y-65943734D01*
X101528016Y-65942977D01*
X101536761Y-65943738D01*
X101536761Y-65943288D01*
X101546506Y-65943288D01*
X101555915Y-65945810D01*
X101566333Y-65943019D01*
X101585475Y-65940500D01*
X102865340Y-65940500D01*
X102912906Y-65957813D01*
X102938216Y-66001650D01*
X102929426Y-66051500D01*
X102917666Y-66066826D01*
X101616666Y-67367826D01*
X101570790Y-67389218D01*
X101564340Y-67389500D01*
X87290748Y-67389500D01*
X87243182Y-67372187D01*
X87217872Y-67328350D01*
X87226662Y-67278500D01*
X87238422Y-67263174D01*
X90770526Y-63731070D01*
X90774679Y-63727485D01*
X90778894Y-63725425D01*
X90812852Y-63688818D01*
X90814777Y-63686819D01*
X90828873Y-63672723D01*
X90830801Y-63669912D01*
X90832978Y-63667293D01*
X90833110Y-63667403D01*
X90835664Y-63664227D01*
X90850379Y-63648364D01*
X90850380Y-63648363D01*
X90855026Y-63643354D01*
X90860321Y-63630081D01*
X90868030Y-63615644D01*
X90872251Y-63609491D01*
X90876118Y-63603854D01*
X90882692Y-63576152D01*
X90885960Y-63565819D01*
X90894572Y-63544231D01*
X90894572Y-63544230D01*
X90896508Y-63539378D01*
X90897125Y-63533085D01*
X90897125Y-63523992D01*
X90899125Y-63506906D01*
X90900387Y-63501586D01*
X90900387Y-63501583D01*
X90901965Y-63494934D01*
X90900503Y-63484186D01*
X90897801Y-63464337D01*
X90897125Y-63454358D01*
X90897125Y-59991489D01*
X90914438Y-59943923D01*
X90918898Y-59939486D01*
X90919616Y-59939045D01*
X91015825Y-59832754D01*
X91078335Y-59703733D01*
X91102121Y-59562354D01*
X91102272Y-59550000D01*
X91100642Y-59538616D01*
X91082695Y-59413297D01*
X91082695Y-59413296D01*
X91081948Y-59408082D01*
X91038337Y-59312163D01*
X91024791Y-59282371D01*
X91022609Y-59277572D01*
X90940593Y-59182388D01*
X90932465Y-59172955D01*
X90932464Y-59172954D01*
X90929025Y-59168963D01*
X90924606Y-59166099D01*
X90924604Y-59166097D01*
X90907127Y-59154769D01*
X96141105Y-59154769D01*
X96151034Y-59369306D01*
X96201353Y-59578094D01*
X96290244Y-59773600D01*
X96292282Y-59776473D01*
X96411063Y-59943923D01*
X96414501Y-59948770D01*
X96417043Y-59951203D01*
X96417046Y-59951207D01*
X96498062Y-60028763D01*
X96569640Y-60097284D01*
X96572594Y-60099191D01*
X96572596Y-60099193D01*
X96612445Y-60124923D01*
X96750064Y-60213782D01*
X96949262Y-60294061D01*
X96952711Y-60294735D01*
X96952716Y-60294736D01*
X97157428Y-60334713D01*
X97157431Y-60334713D01*
X97160046Y-60335224D01*
X97163204Y-60335378D01*
X97164800Y-60335457D01*
X97164819Y-60335457D01*
X97165689Y-60335500D01*
X97324039Y-60335500D01*
X97484170Y-60320222D01*
X97690251Y-60259765D01*
X97693381Y-60258153D01*
X97693386Y-60258151D01*
X97878053Y-60163041D01*
X97878057Y-60163039D01*
X97881182Y-60161429D01*
X97924898Y-60127090D01*
X97965941Y-60094850D01*
X98050073Y-60028763D01*
X98190830Y-59866554D01*
X98192592Y-59863508D01*
X98192595Y-59863504D01*
X98296608Y-59683712D01*
X98296610Y-59683708D01*
X98298376Y-59680655D01*
X98321615Y-59613733D01*
X98367672Y-59481104D01*
X98367673Y-59481100D01*
X98368828Y-59477774D01*
X98373144Y-59448010D01*
X98399139Y-59268723D01*
X98399139Y-59268720D01*
X98399645Y-59265231D01*
X98399269Y-59257108D01*
X100101445Y-59257108D01*
X100127431Y-59554130D01*
X100132788Y-59578094D01*
X100190649Y-59836948D01*
X100192472Y-59845105D01*
X100193321Y-59847414D01*
X100193323Y-59847419D01*
X100225353Y-59934473D01*
X100295425Y-60124923D01*
X100296564Y-60127084D01*
X100296567Y-60127090D01*
X100433336Y-60386495D01*
X100434481Y-60388666D01*
X100435904Y-60390668D01*
X100435905Y-60390670D01*
X100555758Y-60559319D01*
X100607197Y-60631701D01*
X100608868Y-60633493D01*
X100608873Y-60633499D01*
X100699580Y-60730770D01*
X100810539Y-60849759D01*
X101040934Y-61039008D01*
X101294335Y-61196123D01*
X101296573Y-61197129D01*
X101296579Y-61197132D01*
X101564058Y-61317342D01*
X101564066Y-61317345D01*
X101566289Y-61318344D01*
X101852019Y-61403523D01*
X102146504Y-61450165D01*
X102148558Y-61450258D01*
X102148565Y-61450259D01*
X102203464Y-61452752D01*
X102239763Y-61454400D01*
X102426000Y-61454400D01*
X102427212Y-61454319D01*
X102427227Y-61454319D01*
X102645426Y-61439826D01*
X102645430Y-61439825D01*
X102647876Y-61439663D01*
X102940149Y-61380730D01*
X103222061Y-61283660D01*
X103399457Y-61194827D01*
X103486453Y-61151263D01*
X103486457Y-61151261D01*
X103488659Y-61150158D01*
X103490697Y-61148773D01*
X103733228Y-60983950D01*
X103733232Y-60983947D01*
X103735258Y-60982570D01*
X103883799Y-60849759D01*
X103955692Y-60785479D01*
X103955694Y-60785477D01*
X103957526Y-60783839D01*
X104151559Y-60557457D01*
X104313946Y-60307403D01*
X104320282Y-60294061D01*
X104440785Y-60040282D01*
X104440786Y-60040278D01*
X104441836Y-60038068D01*
X104469195Y-59952855D01*
X104532231Y-59756522D01*
X104532232Y-59756517D01*
X104532981Y-59754185D01*
X104570268Y-59546948D01*
X104585346Y-59463149D01*
X104585346Y-59463145D01*
X104585779Y-59460741D01*
X104599305Y-59162892D01*
X104573319Y-58865870D01*
X104538126Y-58708428D01*
X104508815Y-58577296D01*
X104508814Y-58577292D01*
X104508278Y-58574895D01*
X104501509Y-58556496D01*
X104436467Y-58379718D01*
X104405325Y-58295077D01*
X104404186Y-58292916D01*
X104404183Y-58292910D01*
X104267414Y-58033505D01*
X104267411Y-58033501D01*
X104266269Y-58031334D01*
X104259922Y-58022402D01*
X104094978Y-57790304D01*
X104094977Y-57790303D01*
X104093553Y-57788299D01*
X104091882Y-57786507D01*
X104091877Y-57786501D01*
X103933388Y-57616543D01*
X103890211Y-57570241D01*
X103851102Y-57538116D01*
X103661714Y-57382551D01*
X103659816Y-57380992D01*
X103654154Y-57377481D01*
X103408505Y-57225173D01*
X103406415Y-57223877D01*
X103404177Y-57222871D01*
X103404171Y-57222868D01*
X103136692Y-57102658D01*
X103136684Y-57102655D01*
X103134461Y-57101656D01*
X102848731Y-57016477D01*
X102554246Y-56969835D01*
X102552192Y-56969742D01*
X102552185Y-56969741D01*
X102497286Y-56967248D01*
X102460987Y-56965600D01*
X102274750Y-56965600D01*
X102273538Y-56965681D01*
X102273523Y-56965681D01*
X102055324Y-56980174D01*
X102055320Y-56980175D01*
X102052874Y-56980337D01*
X101760601Y-57039270D01*
X101478689Y-57136340D01*
X101476484Y-57137444D01*
X101476482Y-57137445D01*
X101214297Y-57268737D01*
X101214293Y-57268739D01*
X101212091Y-57269842D01*
X101210053Y-57271227D01*
X100967522Y-57436050D01*
X100967518Y-57436053D01*
X100965492Y-57437430D01*
X100963660Y-57439068D01*
X100814943Y-57572037D01*
X100743224Y-57636161D01*
X100549191Y-57862543D01*
X100386804Y-58112597D01*
X100385752Y-58114813D01*
X100385749Y-58114818D01*
X100285876Y-58325150D01*
X100258914Y-58381932D01*
X100255071Y-58393901D01*
X100202868Y-58556496D01*
X100167769Y-58665815D01*
X100145612Y-58788963D01*
X100118036Y-58942226D01*
X100114971Y-58959259D01*
X100101445Y-59257108D01*
X98399269Y-59257108D01*
X98389716Y-59050694D01*
X98339397Y-58841906D01*
X98250506Y-58646400D01*
X98199784Y-58574895D01*
X98128288Y-58474104D01*
X98128286Y-58474102D01*
X98126249Y-58471230D01*
X98123707Y-58468797D01*
X98123704Y-58468793D01*
X98035405Y-58384265D01*
X97971110Y-58322716D01*
X97968156Y-58320809D01*
X97968154Y-58320807D01*
X97793641Y-58208126D01*
X97790686Y-58206218D01*
X97591488Y-58125939D01*
X97588039Y-58125265D01*
X97588034Y-58125264D01*
X97383322Y-58085287D01*
X97383319Y-58085287D01*
X97380704Y-58084776D01*
X97377546Y-58084622D01*
X97375950Y-58084543D01*
X97375931Y-58084543D01*
X97375061Y-58084500D01*
X97216711Y-58084500D01*
X97056580Y-58099778D01*
X96850499Y-58160235D01*
X96847369Y-58161847D01*
X96847364Y-58161849D01*
X96662697Y-58256959D01*
X96662693Y-58256961D01*
X96659568Y-58258571D01*
X96656802Y-58260744D01*
X96656800Y-58260745D01*
X96613094Y-58295077D01*
X96490677Y-58391237D01*
X96488367Y-58393899D01*
X96488365Y-58393901D01*
X96381924Y-58516564D01*
X96349920Y-58553446D01*
X96348158Y-58556492D01*
X96348155Y-58556496D01*
X96244142Y-58736288D01*
X96244140Y-58736292D01*
X96242374Y-58739345D01*
X96241217Y-58742677D01*
X96241216Y-58742679D01*
X96187573Y-58897157D01*
X96171922Y-58942226D01*
X96171416Y-58945714D01*
X96171416Y-58945715D01*
X96153089Y-59072118D01*
X96141105Y-59154769D01*
X90907127Y-59154769D01*
X90884693Y-59140228D01*
X90808720Y-59090985D01*
X90685776Y-59054217D01*
X90676417Y-59051418D01*
X90676416Y-59051418D01*
X90671364Y-59049907D01*
X90597728Y-59049457D01*
X90533271Y-59049063D01*
X90533270Y-59049063D01*
X90528001Y-59049031D01*
X90390154Y-59088428D01*
X90268905Y-59164930D01*
X90244670Y-59192371D01*
X90180323Y-59265231D01*
X90174002Y-59272388D01*
X90113072Y-59402163D01*
X90091016Y-59543823D01*
X90091699Y-59549046D01*
X90091699Y-59549049D01*
X90097063Y-59590068D01*
X90109605Y-59685979D01*
X90167345Y-59817203D01*
X90170737Y-59821238D01*
X90256205Y-59922916D01*
X90256208Y-59922919D01*
X90259595Y-59926948D01*
X90263981Y-59929867D01*
X90267912Y-59933382D01*
X90266936Y-59934473D01*
X90293132Y-59970068D01*
X90296125Y-59990901D01*
X90296125Y-63324877D01*
X90278812Y-63372443D01*
X90274451Y-63377203D01*
X86893828Y-66757826D01*
X86847952Y-66779218D01*
X86841502Y-66779500D01*
X83491192Y-66779500D01*
X83485719Y-66779098D01*
X83481283Y-66777575D01*
X83474459Y-66777831D01*
X83474458Y-66777831D01*
X83431384Y-66779448D01*
X83428608Y-66779500D01*
X83408677Y-66779500D01*
X83405325Y-66780124D01*
X83401934Y-66780437D01*
X83401916Y-66780247D01*
X83397870Y-66780706D01*
X83369417Y-66781774D01*
X83363140Y-66784471D01*
X83363135Y-66784472D01*
X83356282Y-66787416D01*
X83340623Y-66792174D01*
X83326572Y-66794791D01*
X83320757Y-66798376D01*
X83320753Y-66798377D01*
X83302335Y-66809730D01*
X83292718Y-66814726D01*
X83271363Y-66823901D01*
X83271361Y-66823902D01*
X83266562Y-66825964D01*
X83261676Y-66829978D01*
X83255245Y-66836409D01*
X83241750Y-66847076D01*
X83231277Y-66853532D01*
X83227141Y-66858971D01*
X83212586Y-66878112D01*
X83206008Y-66885646D01*
X81093607Y-68998047D01*
X81047731Y-69019439D01*
X81040829Y-69019720D01*
X80933271Y-69019063D01*
X80933270Y-69019063D01*
X80928001Y-69019031D01*
X80790154Y-69058428D01*
X80668905Y-69134930D01*
X80614314Y-69196744D01*
X80613713Y-69197424D01*
X80569249Y-69221617D01*
X80519638Y-69211568D01*
X80502189Y-69196746D01*
X80452400Y-69138963D01*
X80447981Y-69136099D01*
X80447979Y-69136097D01*
X80408068Y-69110228D01*
X80332095Y-69060985D01*
X80228168Y-69029904D01*
X80199792Y-69021418D01*
X80199791Y-69021418D01*
X80194739Y-69019907D01*
X80091070Y-69019274D01*
X80043611Y-69001671D01*
X80039197Y-68997601D01*
X77897695Y-66856099D01*
X77894110Y-66851946D01*
X77892050Y-66847731D01*
X77855443Y-66813773D01*
X77853444Y-66811848D01*
X77839348Y-66797752D01*
X77836537Y-66795824D01*
X77833918Y-66793647D01*
X77834028Y-66793515D01*
X77830852Y-66790961D01*
X77814989Y-66776246D01*
X77814988Y-66776245D01*
X77809979Y-66771599D01*
X77803637Y-66769069D01*
X77803631Y-66769065D01*
X77796702Y-66766301D01*
X77782266Y-66758593D01*
X77776118Y-66754376D01*
X77776117Y-66754375D01*
X77770479Y-66750508D01*
X77763829Y-66748930D01*
X77763827Y-66748929D01*
X77742785Y-66743936D01*
X77732449Y-66740668D01*
X77730557Y-66739913D01*
X77706003Y-66730117D01*
X77699710Y-66729500D01*
X77690613Y-66729500D01*
X77673526Y-66727500D01*
X77668210Y-66726238D01*
X77668208Y-66726238D01*
X77661559Y-66724660D01*
X77640691Y-66727500D01*
X77630962Y-66728824D01*
X77620983Y-66729500D01*
X74851749Y-66729500D01*
X74804183Y-66712187D01*
X74799423Y-66707826D01*
X73527798Y-65436202D01*
X81346540Y-65436202D01*
X81366239Y-65586299D01*
X81367759Y-65590311D01*
X81418325Y-65723777D01*
X81419873Y-65727864D01*
X81422275Y-65731422D01*
X81422276Y-65731424D01*
X81488488Y-65829500D01*
X81504577Y-65853332D01*
X81507727Y-65856239D01*
X81604901Y-65945919D01*
X81615825Y-65956001D01*
X81747674Y-66030385D01*
X81751791Y-66031578D01*
X81751794Y-66031579D01*
X81810791Y-66048670D01*
X81893079Y-66072510D01*
X81897367Y-66072726D01*
X81909250Y-66073324D01*
X82044272Y-66080125D01*
X82193173Y-66052824D01*
X82197100Y-66051103D01*
X82197104Y-66051102D01*
X82318927Y-65997719D01*
X82318933Y-65997715D01*
X82326458Y-65994418D01*
X82332267Y-65992829D01*
X82332270Y-65992826D01*
X82332274Y-65992825D01*
X82338926Y-65986103D01*
X82347426Y-65981166D01*
X82347449Y-65981206D01*
X82347964Y-65980737D01*
X82348316Y-65980537D01*
X82348496Y-65980854D01*
X82354954Y-65976285D01*
X82379325Y-65964792D01*
X82391550Y-65960295D01*
X82438317Y-65947635D01*
X82451141Y-65945351D01*
X82469446Y-65943734D01*
X82478016Y-65942977D01*
X82486761Y-65943738D01*
X82486761Y-65943288D01*
X82496506Y-65943288D01*
X82505915Y-65945810D01*
X82516333Y-65943019D01*
X82535475Y-65940500D01*
X84065264Y-65940500D01*
X84084420Y-65943023D01*
X84085406Y-65943287D01*
X84085408Y-65943287D01*
X84094819Y-65945809D01*
X84104230Y-65943288D01*
X84113972Y-65943288D01*
X84113972Y-65943734D01*
X84122750Y-65942969D01*
X84149596Y-65945343D01*
X84162418Y-65947628D01*
X84209182Y-65960292D01*
X84221407Y-65964790D01*
X84245816Y-65976303D01*
X84253147Y-65981489D01*
X84253332Y-65981170D01*
X84253840Y-65981465D01*
X84253889Y-65981384D01*
X84254243Y-65981596D01*
X84254402Y-65981791D01*
X84258870Y-65984387D01*
X84259813Y-65984944D01*
X84261943Y-65986224D01*
X84268471Y-65992821D01*
X84268481Y-65992824D01*
X84268488Y-65992831D01*
X84273873Y-65994304D01*
X84407562Y-66052874D01*
X84411780Y-66053647D01*
X84411783Y-66053648D01*
X84552247Y-66079393D01*
X84552249Y-66079393D01*
X84556466Y-66080166D01*
X84707659Y-66072542D01*
X84780279Y-66051500D01*
X84848945Y-66031604D01*
X84848949Y-66031602D01*
X84853064Y-66030410D01*
X84934635Y-65984387D01*
X84981177Y-65958128D01*
X84981179Y-65958127D01*
X84984911Y-65956021D01*
X85096158Y-65853349D01*
X85180862Y-65727879D01*
X85182418Y-65723774D01*
X85232978Y-65590324D01*
X85232979Y-65590322D01*
X85234497Y-65586314D01*
X85254197Y-65436216D01*
X85238912Y-65285604D01*
X85191368Y-65148055D01*
X85190250Y-65142143D01*
X85190245Y-65142137D01*
X85190244Y-65142130D01*
X85184436Y-65135380D01*
X85180590Y-65127228D01*
X85180084Y-65126388D01*
X85179459Y-65125562D01*
X85179070Y-65124705D01*
X85175196Y-65118275D01*
X85168408Y-65100976D01*
X85165152Y-65090419D01*
X85155997Y-65050306D01*
X85154350Y-65039378D01*
X85152964Y-65020893D01*
X85153799Y-65011982D01*
X85153664Y-65011982D01*
X85153663Y-65002239D01*
X85156183Y-64992830D01*
X85153397Y-64982435D01*
X85150874Y-64963278D01*
X85150874Y-63616725D01*
X85153397Y-63597568D01*
X85153661Y-63596584D01*
X85153661Y-63596582D01*
X85156183Y-63587172D01*
X85153662Y-63577762D01*
X85153663Y-63568019D01*
X85153806Y-63568019D01*
X85152975Y-63559151D01*
X85154364Y-63540626D01*
X85156011Y-63529700D01*
X85165167Y-63489584D01*
X85168425Y-63479022D01*
X85175226Y-63461691D01*
X85180567Y-63452825D01*
X85180840Y-63452245D01*
X85180615Y-63452128D01*
X85181165Y-63451065D01*
X85181574Y-63450688D01*
X85183175Y-63447294D01*
X85184392Y-63444833D01*
X85184600Y-63444430D01*
X85190244Y-63437871D01*
X85190245Y-63437867D01*
X85190250Y-63437861D01*
X85191452Y-63431501D01*
X85191767Y-63430590D01*
X85191769Y-63430586D01*
X85192417Y-63428712D01*
X85192948Y-63427408D01*
X85193219Y-63426388D01*
X85193550Y-63425431D01*
X85238848Y-63294385D01*
X85247314Y-63210973D01*
X85253699Y-63148054D01*
X85254132Y-63143788D01*
X85234434Y-62993705D01*
X85216289Y-62945810D01*
X85183979Y-62860531D01*
X85180805Y-62852153D01*
X85177136Y-62846717D01*
X85098515Y-62730257D01*
X85096110Y-62726694D01*
X85092938Y-62723766D01*
X85063668Y-62696753D01*
X84984874Y-62624032D01*
X84981087Y-62621895D01*
X84912960Y-62583458D01*
X84853039Y-62549650D01*
X84848924Y-62548458D01*
X84848920Y-62548456D01*
X84766879Y-62524684D01*
X84707649Y-62507522D01*
X84644677Y-62504347D01*
X84560758Y-62500115D01*
X84560757Y-62500115D01*
X84556471Y-62499899D01*
X84552254Y-62500672D01*
X84552252Y-62500672D01*
X84445033Y-62520323D01*
X84407580Y-62527188D01*
X84279247Y-62583412D01*
X84279118Y-62583458D01*
X84279052Y-62583497D01*
X84274292Y-62585583D01*
X84268488Y-62587170D01*
X84268481Y-62587177D01*
X84268471Y-62587180D01*
X84261941Y-62593779D01*
X84259821Y-62595053D01*
X84258876Y-62595611D01*
X84254611Y-62598088D01*
X84254322Y-62598358D01*
X84253969Y-62598570D01*
X84253921Y-62598489D01*
X84253331Y-62598832D01*
X84253150Y-62598520D01*
X84245793Y-62603723D01*
X84233218Y-62609655D01*
X84221412Y-62615224D01*
X84209192Y-62619720D01*
X84162418Y-62632387D01*
X84149607Y-62634670D01*
X84122780Y-62637042D01*
X84113970Y-62636275D01*
X84113970Y-62636712D01*
X84104228Y-62636712D01*
X84094819Y-62634192D01*
X84085412Y-62636713D01*
X84085407Y-62636713D01*
X84084420Y-62636978D01*
X84065264Y-62639501D01*
X82535476Y-62639501D01*
X82516327Y-62636981D01*
X82516316Y-62636978D01*
X82505916Y-62634192D01*
X82496506Y-62636714D01*
X82486765Y-62636714D01*
X82486765Y-62636270D01*
X82477984Y-62637034D01*
X82451141Y-62634663D01*
X82438316Y-62632379D01*
X82391544Y-62619718D01*
X82379330Y-62615225D01*
X82354971Y-62603738D01*
X82347754Y-62598633D01*
X82347533Y-62599011D01*
X82339118Y-62594095D01*
X82332268Y-62587173D01*
X82326419Y-62585573D01*
X82193174Y-62527184D01*
X82044273Y-62499882D01*
X81893082Y-62507497D01*
X81888959Y-62508692D01*
X81888956Y-62508692D01*
X81751801Y-62548426D01*
X81751797Y-62548428D01*
X81747678Y-62549621D01*
X81743943Y-62551728D01*
X81743941Y-62551729D01*
X81626451Y-62618012D01*
X81615830Y-62624004D01*
X81504582Y-62726673D01*
X81502185Y-62730224D01*
X81502183Y-62730226D01*
X81423540Y-62846717D01*
X81419879Y-62852140D01*
X81418357Y-62856156D01*
X81418357Y-62856157D01*
X81385987Y-62941597D01*
X81366246Y-62993704D01*
X81346547Y-63143799D01*
X81346980Y-63148064D01*
X81353367Y-63210973D01*
X81361837Y-63294408D01*
X81363237Y-63298457D01*
X81363237Y-63298458D01*
X81364705Y-63302703D01*
X81409383Y-63431945D01*
X81410503Y-63437866D01*
X81410516Y-63437881D01*
X81410520Y-63437901D01*
X81416749Y-63445138D01*
X81420938Y-63453720D01*
X81420777Y-63453798D01*
X81425571Y-63461754D01*
X81432349Y-63479020D01*
X81435611Y-63489593D01*
X81444761Y-63529678D01*
X81446408Y-63540605D01*
X81447791Y-63559077D01*
X81446955Y-63567988D01*
X81447091Y-63567988D01*
X81447090Y-63577731D01*
X81444567Y-63587140D01*
X81447087Y-63596549D01*
X81447357Y-63597556D01*
X81449876Y-63616701D01*
X81449876Y-64963278D01*
X81447353Y-64982435D01*
X81444567Y-64992830D01*
X81447087Y-65002239D01*
X81447086Y-65011982D01*
X81446943Y-65011982D01*
X81447774Y-65020850D01*
X81446384Y-65039380D01*
X81444738Y-65050301D01*
X81435582Y-65090410D01*
X81432327Y-65100965D01*
X81425518Y-65118316D01*
X81421741Y-65124584D01*
X81417634Y-65133845D01*
X81410509Y-65142124D01*
X81410508Y-65142132D01*
X81410503Y-65142137D01*
X81409395Y-65147999D01*
X81406118Y-65157477D01*
X81406118Y-65157478D01*
X81364697Y-65277299D01*
X81361830Y-65285592D01*
X81346540Y-65436202D01*
X73527798Y-65436202D01*
X72318799Y-64227203D01*
X72297407Y-64181327D01*
X72297125Y-64174877D01*
X72297125Y-59611489D01*
X72314438Y-59563923D01*
X72318898Y-59559486D01*
X72319616Y-59559045D01*
X72415825Y-59452754D01*
X72478335Y-59323733D01*
X72502121Y-59182354D01*
X72502272Y-59170000D01*
X72500091Y-59154769D01*
X77091105Y-59154769D01*
X77101034Y-59369306D01*
X77151353Y-59578094D01*
X77240244Y-59773600D01*
X77242282Y-59776473D01*
X77361063Y-59943923D01*
X77364501Y-59948770D01*
X77367043Y-59951203D01*
X77367046Y-59951207D01*
X77448062Y-60028763D01*
X77519640Y-60097284D01*
X77522594Y-60099191D01*
X77522596Y-60099193D01*
X77562445Y-60124923D01*
X77700064Y-60213782D01*
X77899262Y-60294061D01*
X77902711Y-60294735D01*
X77902716Y-60294736D01*
X78107428Y-60334713D01*
X78107431Y-60334713D01*
X78110046Y-60335224D01*
X78113204Y-60335378D01*
X78114800Y-60335457D01*
X78114819Y-60335457D01*
X78115689Y-60335500D01*
X78274039Y-60335500D01*
X78434170Y-60320222D01*
X78640251Y-60259765D01*
X78643381Y-60258153D01*
X78643386Y-60258151D01*
X78828053Y-60163041D01*
X78828057Y-60163039D01*
X78831182Y-60161429D01*
X78874898Y-60127090D01*
X78915941Y-60094850D01*
X79000073Y-60028763D01*
X79140830Y-59866554D01*
X79142592Y-59863508D01*
X79142595Y-59863504D01*
X79246608Y-59683712D01*
X79246610Y-59683708D01*
X79248376Y-59680655D01*
X79271615Y-59613733D01*
X79317672Y-59481104D01*
X79317673Y-59481100D01*
X79318828Y-59477774D01*
X79323144Y-59448010D01*
X79349139Y-59268723D01*
X79349139Y-59268720D01*
X79349645Y-59265231D01*
X79349269Y-59257108D01*
X81051445Y-59257108D01*
X81077431Y-59554130D01*
X81082788Y-59578094D01*
X81140649Y-59836948D01*
X81142472Y-59845105D01*
X81143321Y-59847414D01*
X81143323Y-59847419D01*
X81175353Y-59934473D01*
X81245425Y-60124923D01*
X81246564Y-60127084D01*
X81246567Y-60127090D01*
X81383336Y-60386495D01*
X81384481Y-60388666D01*
X81385904Y-60390668D01*
X81385905Y-60390670D01*
X81505758Y-60559319D01*
X81557197Y-60631701D01*
X81558868Y-60633493D01*
X81558873Y-60633499D01*
X81649580Y-60730770D01*
X81760539Y-60849759D01*
X81990934Y-61039008D01*
X82244335Y-61196123D01*
X82246573Y-61197129D01*
X82246579Y-61197132D01*
X82514058Y-61317342D01*
X82514066Y-61317345D01*
X82516289Y-61318344D01*
X82802019Y-61403523D01*
X83096504Y-61450165D01*
X83098558Y-61450258D01*
X83098565Y-61450259D01*
X83153464Y-61452752D01*
X83189763Y-61454400D01*
X83376000Y-61454400D01*
X83377212Y-61454319D01*
X83377227Y-61454319D01*
X83595426Y-61439826D01*
X83595430Y-61439825D01*
X83597876Y-61439663D01*
X83890149Y-61380730D01*
X84172061Y-61283660D01*
X84349457Y-61194827D01*
X84436453Y-61151263D01*
X84436457Y-61151261D01*
X84438659Y-61150158D01*
X84440697Y-61148773D01*
X84683228Y-60983950D01*
X84683232Y-60983947D01*
X84685258Y-60982570D01*
X84833799Y-60849759D01*
X84905692Y-60785479D01*
X84905694Y-60785477D01*
X84907526Y-60783839D01*
X85101559Y-60557457D01*
X85263946Y-60307403D01*
X85270282Y-60294061D01*
X85390785Y-60040282D01*
X85390786Y-60040278D01*
X85391836Y-60038068D01*
X85419195Y-59952855D01*
X85482231Y-59756522D01*
X85482232Y-59756517D01*
X85482981Y-59754185D01*
X85520268Y-59546948D01*
X85535346Y-59463149D01*
X85535346Y-59463145D01*
X85535779Y-59460741D01*
X85549305Y-59162892D01*
X85523319Y-58865870D01*
X85488126Y-58708428D01*
X85458815Y-58577296D01*
X85458814Y-58577292D01*
X85458278Y-58574895D01*
X85451509Y-58556496D01*
X85386467Y-58379718D01*
X85355325Y-58295077D01*
X85354186Y-58292916D01*
X85354183Y-58292910D01*
X85217414Y-58033505D01*
X85217411Y-58033501D01*
X85216269Y-58031334D01*
X85209922Y-58022402D01*
X85044978Y-57790304D01*
X85044977Y-57790303D01*
X85043553Y-57788299D01*
X85041882Y-57786507D01*
X85041877Y-57786501D01*
X84883388Y-57616543D01*
X84840211Y-57570241D01*
X84801102Y-57538116D01*
X84611714Y-57382551D01*
X84609816Y-57380992D01*
X84604154Y-57377481D01*
X84358505Y-57225173D01*
X84356415Y-57223877D01*
X84354177Y-57222871D01*
X84354171Y-57222868D01*
X84086692Y-57102658D01*
X84086684Y-57102655D01*
X84084461Y-57101656D01*
X83798731Y-57016477D01*
X83504246Y-56969835D01*
X83502192Y-56969742D01*
X83502185Y-56969741D01*
X83447286Y-56967248D01*
X83410987Y-56965600D01*
X83224750Y-56965600D01*
X83223538Y-56965681D01*
X83223523Y-56965681D01*
X83005324Y-56980174D01*
X83005320Y-56980175D01*
X83002874Y-56980337D01*
X82710601Y-57039270D01*
X82428689Y-57136340D01*
X82426484Y-57137444D01*
X82426482Y-57137445D01*
X82164297Y-57268737D01*
X82164293Y-57268739D01*
X82162091Y-57269842D01*
X82160053Y-57271227D01*
X81917522Y-57436050D01*
X81917518Y-57436053D01*
X81915492Y-57437430D01*
X81913660Y-57439068D01*
X81764943Y-57572037D01*
X81693224Y-57636161D01*
X81499191Y-57862543D01*
X81336804Y-58112597D01*
X81335752Y-58114813D01*
X81335749Y-58114818D01*
X81235876Y-58325150D01*
X81208914Y-58381932D01*
X81205071Y-58393901D01*
X81152868Y-58556496D01*
X81117769Y-58665815D01*
X81095612Y-58788963D01*
X81068036Y-58942226D01*
X81064971Y-58959259D01*
X81051445Y-59257108D01*
X79349269Y-59257108D01*
X79339716Y-59050694D01*
X79289397Y-58841906D01*
X79200506Y-58646400D01*
X79149784Y-58574895D01*
X79078288Y-58474104D01*
X79078286Y-58474102D01*
X79076249Y-58471230D01*
X79073707Y-58468797D01*
X79073704Y-58468793D01*
X78985405Y-58384265D01*
X78921110Y-58322716D01*
X78918156Y-58320809D01*
X78918154Y-58320807D01*
X78743641Y-58208126D01*
X78740686Y-58206218D01*
X78541488Y-58125939D01*
X78538039Y-58125265D01*
X78538034Y-58125264D01*
X78333322Y-58085287D01*
X78333319Y-58085287D01*
X78330704Y-58084776D01*
X78327546Y-58084622D01*
X78325950Y-58084543D01*
X78325931Y-58084543D01*
X78325061Y-58084500D01*
X78166711Y-58084500D01*
X78006580Y-58099778D01*
X77800499Y-58160235D01*
X77797369Y-58161847D01*
X77797364Y-58161849D01*
X77612697Y-58256959D01*
X77612693Y-58256961D01*
X77609568Y-58258571D01*
X77606802Y-58260744D01*
X77606800Y-58260745D01*
X77563094Y-58295077D01*
X77440677Y-58391237D01*
X77438367Y-58393899D01*
X77438365Y-58393901D01*
X77331924Y-58516564D01*
X77299920Y-58553446D01*
X77298158Y-58556492D01*
X77298155Y-58556496D01*
X77194142Y-58736288D01*
X77194140Y-58736292D01*
X77192374Y-58739345D01*
X77191217Y-58742677D01*
X77191216Y-58742679D01*
X77137573Y-58897157D01*
X77121922Y-58942226D01*
X77121416Y-58945714D01*
X77121416Y-58945715D01*
X77103089Y-59072118D01*
X77091105Y-59154769D01*
X72500091Y-59154769D01*
X72481948Y-59028082D01*
X72422609Y-58897572D01*
X72329025Y-58788963D01*
X72324606Y-58786099D01*
X72324604Y-58786097D01*
X72284693Y-58760228D01*
X72208720Y-58710985D01*
X72104793Y-58679904D01*
X72076417Y-58671418D01*
X72076416Y-58671418D01*
X72071364Y-58669907D01*
X71997728Y-58669457D01*
X71933271Y-58669063D01*
X71933270Y-58669063D01*
X71928001Y-58669031D01*
X71790154Y-58708428D01*
X71668905Y-58784930D01*
X71618586Y-58841906D01*
X71595253Y-58868326D01*
X71574002Y-58892388D01*
X71513072Y-59022163D01*
X71491016Y-59163823D01*
X70454952Y-59163823D01*
X70449716Y-59050694D01*
X70399397Y-58841906D01*
X70310506Y-58646400D01*
X70259784Y-58574895D01*
X70188288Y-58474104D01*
X70188286Y-58474102D01*
X70186249Y-58471230D01*
X70183707Y-58468797D01*
X70183704Y-58468793D01*
X70095405Y-58384265D01*
X70031110Y-58322716D01*
X70028156Y-58320809D01*
X70028154Y-58320807D01*
X69853641Y-58208126D01*
X69850686Y-58206218D01*
X69651488Y-58125939D01*
X69648039Y-58125265D01*
X69648034Y-58125264D01*
X69443316Y-58085286D01*
X69443315Y-58085286D01*
X69440704Y-58084776D01*
X69438044Y-58084646D01*
X69437979Y-58084638D01*
X69392846Y-58061718D01*
X69373006Y-58015149D01*
X69387741Y-57966722D01*
X69392252Y-57961443D01*
X69392662Y-57961076D01*
X69561285Y-57760475D01*
X69699961Y-57538116D01*
X69805922Y-57298436D01*
X69877056Y-57046216D01*
X69911941Y-56786491D01*
X69915602Y-56670000D01*
X69915468Y-56668106D01*
X69911476Y-56611726D01*
X85256063Y-56611726D01*
X85266352Y-56873582D01*
X85313433Y-57131376D01*
X85314262Y-57133860D01*
X85314262Y-57133861D01*
X85368330Y-57295921D01*
X85396369Y-57379965D01*
X85397535Y-57382299D01*
X85397539Y-57382308D01*
X85492342Y-57572037D01*
X85513503Y-57614387D01*
X85662499Y-57829967D01*
X85664282Y-57831896D01*
X85664283Y-57831897D01*
X85783696Y-57961076D01*
X85840385Y-58022402D01*
X86043610Y-58187853D01*
X86045851Y-58189202D01*
X86045855Y-58189205D01*
X86074114Y-58206218D01*
X86268120Y-58323019D01*
X86270524Y-58324037D01*
X86507030Y-58424185D01*
X86507035Y-58424187D01*
X86509435Y-58425203D01*
X86511958Y-58425872D01*
X86511964Y-58425874D01*
X86645178Y-58461195D01*
X86762740Y-58492366D01*
X86765339Y-58492674D01*
X86765341Y-58492674D01*
X86883402Y-58506647D01*
X87022982Y-58523167D01*
X87142180Y-58520358D01*
X87282348Y-58517055D01*
X87282352Y-58517055D01*
X87284967Y-58516993D01*
X87287542Y-58516564D01*
X87287546Y-58516564D01*
X87309277Y-58512947D01*
X87347125Y-58506647D01*
X87396887Y-58515915D01*
X87429051Y-58555002D01*
X87428565Y-58605619D01*
X87423327Y-58616699D01*
X87354142Y-58736288D01*
X87354140Y-58736292D01*
X87352374Y-58739345D01*
X87351217Y-58742677D01*
X87351216Y-58742679D01*
X87297573Y-58897157D01*
X87281922Y-58942226D01*
X87281416Y-58945714D01*
X87281416Y-58945715D01*
X87263089Y-59072118D01*
X87251105Y-59154769D01*
X87261034Y-59369306D01*
X87311353Y-59578094D01*
X87400244Y-59773600D01*
X87402282Y-59776473D01*
X87521063Y-59943923D01*
X87524501Y-59948770D01*
X87527043Y-59951203D01*
X87527046Y-59951207D01*
X87608062Y-60028763D01*
X87679640Y-60097284D01*
X87682594Y-60099191D01*
X87682596Y-60099193D01*
X87722445Y-60124923D01*
X87860064Y-60213782D01*
X88059262Y-60294061D01*
X88062711Y-60294735D01*
X88062716Y-60294736D01*
X88267428Y-60334713D01*
X88267431Y-60334713D01*
X88270046Y-60335224D01*
X88273204Y-60335378D01*
X88274800Y-60335457D01*
X88274819Y-60335457D01*
X88275689Y-60335500D01*
X88434039Y-60335500D01*
X88594170Y-60320222D01*
X88800251Y-60259765D01*
X88803381Y-60258153D01*
X88803386Y-60258151D01*
X88988053Y-60163041D01*
X88988057Y-60163039D01*
X88991182Y-60161429D01*
X89034898Y-60127090D01*
X89075941Y-60094850D01*
X89160073Y-60028763D01*
X89300830Y-59866554D01*
X89302592Y-59863508D01*
X89302595Y-59863504D01*
X89406608Y-59683712D01*
X89406610Y-59683708D01*
X89408376Y-59680655D01*
X89431615Y-59613733D01*
X89477672Y-59481104D01*
X89477673Y-59481100D01*
X89478828Y-59477774D01*
X89483144Y-59448010D01*
X89509139Y-59268723D01*
X89509139Y-59268720D01*
X89509645Y-59265231D01*
X89499716Y-59050694D01*
X89449397Y-58841906D01*
X89360506Y-58646400D01*
X89309784Y-58574895D01*
X89238288Y-58474104D01*
X89238286Y-58474102D01*
X89236249Y-58471230D01*
X89233707Y-58468797D01*
X89233704Y-58468793D01*
X89145405Y-58384265D01*
X89081110Y-58322716D01*
X89078156Y-58320809D01*
X89078154Y-58320807D01*
X88903641Y-58208126D01*
X88900686Y-58206218D01*
X88701488Y-58125939D01*
X88698039Y-58125265D01*
X88698034Y-58125264D01*
X88493316Y-58085286D01*
X88493315Y-58085286D01*
X88490704Y-58084776D01*
X88488044Y-58084646D01*
X88487979Y-58084638D01*
X88442846Y-58061718D01*
X88423006Y-58015149D01*
X88437741Y-57966722D01*
X88442252Y-57961443D01*
X88442662Y-57961076D01*
X88611285Y-57760475D01*
X88749961Y-57538116D01*
X88855922Y-57298436D01*
X88927056Y-57046216D01*
X88961941Y-56786491D01*
X88965602Y-56670000D01*
X88965468Y-56668106D01*
X88961476Y-56611726D01*
X104306063Y-56611726D01*
X104316352Y-56873582D01*
X104363433Y-57131376D01*
X104364262Y-57133860D01*
X104364262Y-57133861D01*
X104418330Y-57295921D01*
X104446369Y-57379965D01*
X104447535Y-57382299D01*
X104447539Y-57382308D01*
X104542342Y-57572037D01*
X104563503Y-57614387D01*
X104712499Y-57829967D01*
X104714282Y-57831896D01*
X104714283Y-57831897D01*
X104833696Y-57961076D01*
X104890385Y-58022402D01*
X105093610Y-58187853D01*
X105095851Y-58189202D01*
X105095855Y-58189205D01*
X105124114Y-58206218D01*
X105318120Y-58323019D01*
X105320524Y-58324037D01*
X105557030Y-58424185D01*
X105557035Y-58424187D01*
X105559435Y-58425203D01*
X105561958Y-58425872D01*
X105561964Y-58425874D01*
X105695178Y-58461195D01*
X105812740Y-58492366D01*
X105815339Y-58492674D01*
X105815341Y-58492674D01*
X105933402Y-58506647D01*
X106072982Y-58523167D01*
X106192180Y-58520358D01*
X106332348Y-58517055D01*
X106332352Y-58517055D01*
X106334967Y-58516993D01*
X106337542Y-58516564D01*
X106337546Y-58516564D01*
X106359277Y-58512947D01*
X106397125Y-58506647D01*
X106446887Y-58515915D01*
X106479051Y-58555002D01*
X106478565Y-58605619D01*
X106473327Y-58616699D01*
X106404142Y-58736288D01*
X106404140Y-58736292D01*
X106402374Y-58739345D01*
X106401217Y-58742677D01*
X106401216Y-58742679D01*
X106347573Y-58897157D01*
X106331922Y-58942226D01*
X106331416Y-58945714D01*
X106331416Y-58945715D01*
X106313089Y-59072118D01*
X106301105Y-59154769D01*
X106311034Y-59369306D01*
X106361353Y-59578094D01*
X106450244Y-59773600D01*
X106452282Y-59776473D01*
X106571063Y-59943923D01*
X106574501Y-59948770D01*
X106577043Y-59951203D01*
X106577046Y-59951207D01*
X106658062Y-60028763D01*
X106729640Y-60097284D01*
X106732594Y-60099191D01*
X106732596Y-60099193D01*
X106772445Y-60124923D01*
X106910064Y-60213782D01*
X107109262Y-60294061D01*
X107112711Y-60294735D01*
X107112716Y-60294736D01*
X107317428Y-60334713D01*
X107317431Y-60334713D01*
X107320046Y-60335224D01*
X107323204Y-60335378D01*
X107324800Y-60335457D01*
X107324819Y-60335457D01*
X107325689Y-60335500D01*
X107484039Y-60335500D01*
X107644170Y-60320222D01*
X107850251Y-60259765D01*
X107853381Y-60258153D01*
X107853386Y-60258151D01*
X108038053Y-60163041D01*
X108038057Y-60163039D01*
X108041182Y-60161429D01*
X108084898Y-60127090D01*
X108125941Y-60094850D01*
X108210073Y-60028763D01*
X108350830Y-59866554D01*
X108352592Y-59863508D01*
X108352595Y-59863504D01*
X108456608Y-59683712D01*
X108456610Y-59683708D01*
X108458376Y-59680655D01*
X108481615Y-59613733D01*
X108527672Y-59481104D01*
X108527673Y-59481100D01*
X108528828Y-59477774D01*
X108533144Y-59448010D01*
X108559139Y-59268723D01*
X108559139Y-59268720D01*
X108559645Y-59265231D01*
X108549716Y-59050694D01*
X108499397Y-58841906D01*
X108410506Y-58646400D01*
X108359784Y-58574895D01*
X108288288Y-58474104D01*
X108288286Y-58474102D01*
X108286249Y-58471230D01*
X108283707Y-58468797D01*
X108283704Y-58468793D01*
X108195405Y-58384265D01*
X108131110Y-58322716D01*
X108128156Y-58320809D01*
X108128154Y-58320807D01*
X107953641Y-58208126D01*
X107950686Y-58206218D01*
X107751488Y-58125939D01*
X107748039Y-58125265D01*
X107748034Y-58125264D01*
X107543316Y-58085286D01*
X107543315Y-58085286D01*
X107540704Y-58084776D01*
X107538044Y-58084646D01*
X107537979Y-58084638D01*
X107492846Y-58061718D01*
X107473006Y-58015149D01*
X107487741Y-57966722D01*
X107492252Y-57961443D01*
X107492662Y-57961076D01*
X107661285Y-57760475D01*
X107799961Y-57538116D01*
X107905922Y-57298436D01*
X107977056Y-57046216D01*
X108011941Y-56786491D01*
X108015602Y-56670000D01*
X108015468Y-56668106D01*
X107997280Y-56411216D01*
X107997279Y-56411209D01*
X107997094Y-56408596D01*
X107941938Y-56152408D01*
X107921388Y-56096703D01*
X107852139Y-55908997D01*
X107852138Y-55908995D01*
X107851235Y-55906547D01*
X107726795Y-55675920D01*
X107571101Y-55465126D01*
X107387259Y-55278374D01*
X107306299Y-55216587D01*
X107181016Y-55120974D01*
X107181010Y-55120970D01*
X107178937Y-55119388D01*
X106950292Y-54991340D01*
X106705887Y-54896787D01*
X106703344Y-54896198D01*
X106703339Y-54896196D01*
X106453142Y-54838204D01*
X106453140Y-54838204D01*
X106450596Y-54837614D01*
X106447996Y-54837389D01*
X106447991Y-54837388D01*
X106192125Y-54815228D01*
X106192126Y-54815228D01*
X106189516Y-54815002D01*
X105927853Y-54829402D01*
X105670831Y-54880527D01*
X105517239Y-54934465D01*
X105426047Y-54966489D01*
X105426044Y-54966490D01*
X105423576Y-54967357D01*
X105421256Y-54968562D01*
X105421254Y-54968563D01*
X105193337Y-55086956D01*
X105193332Y-55086959D01*
X105191022Y-55088159D01*
X104977809Y-55240523D01*
X104788191Y-55421409D01*
X104625953Y-55627208D01*
X104494330Y-55853813D01*
X104395949Y-56096703D01*
X104332774Y-56351032D01*
X104306063Y-56611726D01*
X88961476Y-56611726D01*
X88947280Y-56411216D01*
X88947279Y-56411209D01*
X88947094Y-56408596D01*
X88891938Y-56152408D01*
X88871388Y-56096703D01*
X88802139Y-55908997D01*
X88802138Y-55908995D01*
X88801235Y-55906547D01*
X88676795Y-55675920D01*
X88521101Y-55465126D01*
X88337259Y-55278374D01*
X88256299Y-55216587D01*
X88131016Y-55120974D01*
X88131010Y-55120970D01*
X88128937Y-55119388D01*
X87900292Y-54991340D01*
X87655887Y-54896787D01*
X87653344Y-54896198D01*
X87653339Y-54896196D01*
X87403142Y-54838204D01*
X87403140Y-54838204D01*
X87400596Y-54837614D01*
X87397996Y-54837389D01*
X87397991Y-54837388D01*
X87142125Y-54815228D01*
X87142126Y-54815228D01*
X87139516Y-54815002D01*
X86877853Y-54829402D01*
X86620831Y-54880527D01*
X86467239Y-54934465D01*
X86376047Y-54966489D01*
X86376044Y-54966490D01*
X86373576Y-54967357D01*
X86371256Y-54968562D01*
X86371254Y-54968563D01*
X86143337Y-55086956D01*
X86143332Y-55086959D01*
X86141022Y-55088159D01*
X85927809Y-55240523D01*
X85738191Y-55421409D01*
X85575953Y-55627208D01*
X85444330Y-55853813D01*
X85345949Y-56096703D01*
X85282774Y-56351032D01*
X85256063Y-56611726D01*
X69911476Y-56611726D01*
X69897280Y-56411216D01*
X69897279Y-56411209D01*
X69897094Y-56408596D01*
X69841938Y-56152408D01*
X69821388Y-56096703D01*
X69752139Y-55908997D01*
X69752138Y-55908995D01*
X69751235Y-55906547D01*
X69626795Y-55675920D01*
X69471101Y-55465126D01*
X69287259Y-55278374D01*
X69206299Y-55216587D01*
X69081016Y-55120974D01*
X69081010Y-55120970D01*
X69078937Y-55119388D01*
X68850292Y-54991340D01*
X68605887Y-54896787D01*
X68603344Y-54896198D01*
X68603339Y-54896196D01*
X68353142Y-54838204D01*
X68353140Y-54838204D01*
X68350596Y-54837614D01*
X68347996Y-54837389D01*
X68347991Y-54837388D01*
X68092125Y-54815228D01*
X68092126Y-54815228D01*
X68089516Y-54815002D01*
X67827853Y-54829402D01*
X67570831Y-54880527D01*
X67417239Y-54934465D01*
X67326047Y-54966489D01*
X67326044Y-54966490D01*
X67323576Y-54967357D01*
X67321256Y-54968562D01*
X67321254Y-54968563D01*
X67093337Y-55086956D01*
X67093332Y-55086959D01*
X67091022Y-55088159D01*
X66877809Y-55240523D01*
X66688191Y-55421409D01*
X66525953Y-55627208D01*
X66394330Y-55853813D01*
X66295949Y-56096703D01*
X66232774Y-56351032D01*
X66206063Y-56611726D01*
X53466454Y-56611726D01*
X53480463Y-45778214D01*
X53482833Y-45759733D01*
X53483358Y-45757710D01*
X53483358Y-45757709D01*
X53485804Y-45748277D01*
X53483207Y-45738886D01*
X53483167Y-45733967D01*
X53481513Y-45719901D01*
X53495443Y-45330641D01*
X53495959Y-45324180D01*
X53496300Y-45321434D01*
X53546993Y-44912645D01*
X53548070Y-44906262D01*
X53548307Y-44905158D01*
X53634916Y-44500765D01*
X53636549Y-44494493D01*
X53758542Y-44098139D01*
X53760718Y-44092035D01*
X53916917Y-43707884D01*
X53919619Y-43701993D01*
X53921807Y-43697727D01*
X54108827Y-43332991D01*
X54112033Y-43327360D01*
X54332810Y-42976308D01*
X54336491Y-42970987D01*
X54587137Y-42640598D01*
X54591277Y-42635611D01*
X54632341Y-42590331D01*
X54869866Y-42328422D01*
X54874405Y-42323837D01*
X54913679Y-42287500D01*
X79873284Y-42287500D01*
X79873917Y-42292308D01*
X79878067Y-42323827D01*
X79893063Y-42437736D01*
X79951052Y-42577733D01*
X80043299Y-42697951D01*
X80163517Y-42790198D01*
X80303514Y-42848187D01*
X80308316Y-42848819D01*
X80308319Y-42848820D01*
X80390930Y-42859695D01*
X80416030Y-42863000D01*
X80491470Y-42863000D01*
X80516570Y-42859695D01*
X80599181Y-42848820D01*
X80599184Y-42848819D01*
X80603986Y-42848187D01*
X80743983Y-42790198D01*
X80864201Y-42697951D01*
X80956448Y-42577733D01*
X81014437Y-42437736D01*
X81029434Y-42323827D01*
X81033583Y-42292308D01*
X81034216Y-42287500D01*
X85653284Y-42287500D01*
X85653917Y-42292308D01*
X85658067Y-42323827D01*
X85673063Y-42437736D01*
X85731052Y-42577733D01*
X85823299Y-42697951D01*
X85943517Y-42790198D01*
X86083514Y-42848187D01*
X86088316Y-42848819D01*
X86088319Y-42848820D01*
X86170930Y-42859695D01*
X86196030Y-42863000D01*
X86271470Y-42863000D01*
X86296570Y-42859695D01*
X86379181Y-42848820D01*
X86379184Y-42848819D01*
X86383986Y-42848187D01*
X86523983Y-42790198D01*
X86644201Y-42697951D01*
X86736448Y-42577733D01*
X86794437Y-42437736D01*
X86809434Y-42323827D01*
X86813583Y-42292308D01*
X86814216Y-42287500D01*
X86811261Y-42265057D01*
X86795070Y-42142069D01*
X86795069Y-42142066D01*
X86794437Y-42137264D01*
X86736448Y-41997267D01*
X86644201Y-41877049D01*
X86523983Y-41784802D01*
X86383986Y-41726813D01*
X86379184Y-41726181D01*
X86379181Y-41726180D01*
X86296570Y-41715305D01*
X86271470Y-41712000D01*
X86196030Y-41712000D01*
X86170930Y-41715305D01*
X86088319Y-41726180D01*
X86088316Y-41726181D01*
X86083514Y-41726813D01*
X85943517Y-41784802D01*
X85823299Y-41877049D01*
X85731052Y-41997267D01*
X85673063Y-42137264D01*
X85672431Y-42142066D01*
X85672430Y-42142069D01*
X85656239Y-42265057D01*
X85653284Y-42287500D01*
X81034216Y-42287500D01*
X81031261Y-42265057D01*
X81015070Y-42142069D01*
X81015069Y-42142066D01*
X81014437Y-42137264D01*
X80956448Y-41997267D01*
X80864201Y-41877049D01*
X80743983Y-41784802D01*
X80603986Y-41726813D01*
X80599184Y-41726181D01*
X80599181Y-41726180D01*
X80516570Y-41715305D01*
X80491470Y-41712000D01*
X80416030Y-41712000D01*
X80390930Y-41715305D01*
X80308319Y-41726180D01*
X80308316Y-41726181D01*
X80303514Y-41726813D01*
X80163517Y-41784802D01*
X80043299Y-41877049D01*
X79951052Y-41997267D01*
X79893063Y-42137264D01*
X79892431Y-42142066D01*
X79892430Y-42142069D01*
X79876239Y-42265057D01*
X79873284Y-42287500D01*
X54913679Y-42287500D01*
X55178808Y-42042196D01*
X55183753Y-42038007D01*
X55511623Y-41784084D01*
X55516916Y-41780344D01*
X55865736Y-41556087D01*
X55871336Y-41552824D01*
X55881702Y-41547378D01*
X56238444Y-41359944D01*
X56244308Y-41357184D01*
X56626892Y-41197160D01*
X56632975Y-41194924D01*
X57028075Y-41068992D01*
X57034330Y-41067296D01*
X57438944Y-40976414D01*
X57445323Y-40975272D01*
X57856331Y-40920139D01*
X57862786Y-40919559D01*
X58251723Y-40901758D01*
X58266210Y-40903315D01*
X58270886Y-40903306D01*
X58280302Y-40905809D01*
X58290486Y-40903059D01*
X58309777Y-40900500D01*
X76470443Y-40900500D01*
X76489594Y-40903021D01*
X76500000Y-40905809D01*
X76505065Y-40904452D01*
X76700545Y-40887350D01*
X76703671Y-40886512D01*
X76703673Y-40886512D01*
X76797771Y-40861298D01*
X76894997Y-40835246D01*
X77077448Y-40750168D01*
X77082919Y-40746337D01*
X77239703Y-40636556D01*
X77239704Y-40636555D01*
X77242352Y-40634701D01*
X77384701Y-40492352D01*
X77500168Y-40327448D01*
X77585246Y-40144997D01*
X77637350Y-39950545D01*
X77654452Y-39755065D01*
X77655809Y-39750000D01*
X77653021Y-39739594D01*
X77650500Y-39720443D01*
X77650500Y-35754500D01*
X77667813Y-35706934D01*
X77711650Y-35681624D01*
X77724500Y-35680500D01*
X88925500Y-35680500D01*
X88973066Y-35697813D01*
G37*
%TD.AperFunction*%
%TD*%
M02*
