%TF.GenerationSoftware,KiCad,Pcbnew,(6.0.5)*%
%TF.CreationDate,2022-07-04T16:26:11+08:00*%
%TF.ProjectId,RP2040-3k,52503230-3430-42d3-936b-2e6b69636164,rev?*%
%TF.SameCoordinates,Original*%
%TF.FileFunction,Profile,NP*%
%FSLAX46Y46*%
G04 Gerber Fmt 4.6, Leading zero omitted, Abs format (unit mm)*
G04 Created by KiCad (PCBNEW (6.0.5)) date 2022-07-04 16:26:11*
%MOMM*%
%LPD*%
G01*
G04 APERTURE LIST*
%TA.AperFunction,Profile*%
%ADD10C,0.100000*%
%TD*%
G04 APERTURE END LIST*
D10*
X89150000Y-35530000D02*
X77500000Y-35530000D01*
X58280000Y-40749949D02*
G75*
G03*
X53330000Y-45749528I9600J-4959751D01*
G01*
X89149979Y-39742893D02*
G75*
G03*
X90147107Y-40750000I1004221J-2907D01*
G01*
X53285000Y-80550000D02*
X53330000Y-45749528D01*
X76500000Y-40750000D02*
X58280000Y-40750000D01*
X90147107Y-40750000D02*
X108330000Y-40750000D01*
X77500000Y-35530000D02*
X77500000Y-39750000D01*
X53285024Y-80550000D02*
G75*
G03*
X58295000Y-85520000I4980476J10400D01*
G01*
X76500000Y-40750000D02*
G75*
G03*
X77500000Y-39750000I0J1000000D01*
G01*
X113320000Y-45740000D02*
X113276537Y-80520000D01*
X113320000Y-45740000D02*
G75*
G03*
X108330000Y-40750000I-4990000J0D01*
G01*
X108285000Y-85520002D02*
G75*
G03*
X113276537Y-80520000I-6930J4998462D01*
G01*
X89150000Y-35530000D02*
X89150000Y-39742893D01*
X108285000Y-85520000D02*
X58295000Y-85520000D01*
%TO.C,LED3*%
X62550376Y-63587159D02*
X62550376Y-64992843D01*
X63455923Y-65790000D02*
X65044828Y-65790000D01*
X65044827Y-62790001D02*
X63455923Y-62790001D01*
X65950374Y-64992843D02*
X65950374Y-63587159D01*
X62550366Y-63587158D02*
G75*
G03*
X62500891Y-63370281I-499391J158D01*
G01*
X62500893Y-65209722D02*
G75*
G03*
X62550376Y-64992843I-450548J216882D01*
G01*
X65999859Y-63370281D02*
G75*
G03*
X65950374Y-63587159I450505J-216876D01*
G01*
X62500891Y-65209721D02*
G75*
G03*
X63203664Y-65858300I450514J-216879D01*
G01*
X63203665Y-62721703D02*
G75*
G03*
X63455923Y-62790001I252260J431713D01*
G01*
X65999858Y-63370282D02*
G75*
G03*
X65297086Y-62721702I-450513J216880D01*
G01*
X63455922Y-65790001D02*
G75*
G03*
X63203664Y-65858300I3J-500009D01*
G01*
X65044827Y-62790001D02*
G75*
G03*
X65297086Y-62721702I-2J500009D01*
G01*
X65297086Y-65858299D02*
G75*
G03*
X65044828Y-65790000I-252261J-431710D01*
G01*
X65950374Y-64992844D02*
G75*
G03*
X65999859Y-65209721I499990J-1D01*
G01*
X63203664Y-62721704D02*
G75*
G03*
X62500891Y-63370281I-252258J-431700D01*
G01*
X65297085Y-65858300D02*
G75*
G03*
X65999859Y-65209721I252259J431701D01*
G01*
%TO.C,LED2*%
X85000374Y-64992843D02*
X85000374Y-63587159D01*
X81600376Y-63587159D02*
X81600376Y-64992843D01*
X84094827Y-62790001D02*
X82505923Y-62790001D01*
X82505923Y-65790000D02*
X84094828Y-65790000D01*
X81600366Y-63587158D02*
G75*
G03*
X81550891Y-63370281I-499391J158D01*
G01*
X85049859Y-63370281D02*
G75*
G03*
X85000374Y-63587159I450505J-216876D01*
G01*
X84347085Y-65858300D02*
G75*
G03*
X85049859Y-65209721I252259J431701D01*
G01*
X84347086Y-65858299D02*
G75*
G03*
X84094828Y-65790000I-252261J-431710D01*
G01*
X81550891Y-65209721D02*
G75*
G03*
X82253664Y-65858300I450514J-216879D01*
G01*
X82505922Y-65790001D02*
G75*
G03*
X82253664Y-65858300I3J-500009D01*
G01*
X84094827Y-62790001D02*
G75*
G03*
X84347086Y-62721702I-2J500009D01*
G01*
X82253665Y-62721703D02*
G75*
G03*
X82505923Y-62790001I252260J431713D01*
G01*
X82253664Y-62721704D02*
G75*
G03*
X81550891Y-63370281I-252258J-431700D01*
G01*
X81550893Y-65209722D02*
G75*
G03*
X81600376Y-64992843I-450548J216882D01*
G01*
X85000374Y-64992844D02*
G75*
G03*
X85049859Y-65209721I499990J-1D01*
G01*
X85049858Y-63370282D02*
G75*
G03*
X84347086Y-62721702I-450513J216880D01*
G01*
%TO.C,LED1*%
X103144827Y-62790001D02*
X101555923Y-62790001D01*
X100650376Y-63587159D02*
X100650376Y-64992843D01*
X104050374Y-64992843D02*
X104050374Y-63587159D01*
X101555923Y-65790000D02*
X103144828Y-65790000D01*
X104099859Y-63370281D02*
G75*
G03*
X104050374Y-63587159I450505J-216876D01*
G01*
X100600891Y-65209721D02*
G75*
G03*
X101303664Y-65858300I450514J-216879D01*
G01*
X103397086Y-65858299D02*
G75*
G03*
X103144828Y-65790000I-252261J-431710D01*
G01*
X104099858Y-63370282D02*
G75*
G03*
X103397086Y-62721702I-450513J216880D01*
G01*
X100600893Y-65209722D02*
G75*
G03*
X100650376Y-64992843I-450548J216882D01*
G01*
X101303664Y-62721704D02*
G75*
G03*
X100600891Y-63370281I-252258J-431700D01*
G01*
X103144827Y-62790001D02*
G75*
G03*
X103397086Y-62721702I-2J500009D01*
G01*
X104050374Y-64992844D02*
G75*
G03*
X104099859Y-65209721I499990J-1D01*
G01*
X101555922Y-65790001D02*
G75*
G03*
X101303664Y-65858300I3J-500009D01*
G01*
X100650366Y-63587158D02*
G75*
G03*
X100600891Y-63370281I-499391J158D01*
G01*
X101303665Y-62721703D02*
G75*
G03*
X101555923Y-62790001I252260J431713D01*
G01*
X103397085Y-65858300D02*
G75*
G03*
X104099859Y-65209721I252259J431701D01*
G01*
%TD*%
M02*
