M48
; DRILL file {KiCad (6.0.5)} date Fri May 27 15:03:32 2022
; FORMAT={-:-/ absolute / inch / decimal}
; #@! TF.CreationDate,2022-05-27T15:03:32+08:00
; #@! TF.GenerationSoftware,Kicad,Pcbnew,(6.0.5)
; #@! TF.FileFunction,Plated,1,2,PTH
FMAT,2
INCH
; #@! TA.AperFunction,Plated,PTH,ViaDrill
T1C0.0138
; #@! TA.AperFunction,Plated,PTH,ComponentDrill
T2C0.0138
; #@! TA.AperFunction,Plated,PTH,ViaDrill
T3C0.0157
; #@! TA.AperFunction,Plated,PTH,ComponentDrill
T4C0.0236
; #@! TA.AperFunction,Plated,PTH,ComponentDrill
T5C0.0394
; #@! TA.AperFunction,Plated,PTH,ComponentDrill
T6C0.1181
%
G90
G05
T1
X2.2079Y-2.1321
X2.2926Y-2.7128
X2.4077Y-2.9608
X2.4983Y-2.6409
X2.5679Y-3.053
X2.6902Y-2.5031
X2.7366Y-3.2453
X2.8345Y-2.3295
X2.8952Y-2.7814
X2.9035Y-3.0307
X2.9501Y-2.1321
X3.0559Y-2.784
X3.0839Y-2.902
X3.1543Y-2.737
X3.1888Y-2.737
X3.1925Y-3.0598
X3.2235Y-2.7358
X3.2463Y-2.6415
X3.2668Y-2.7366
X3.3171Y-3.2755
X3.3503Y-3.0905
X3.3567Y-2.7878
X3.4461Y-2.5022
X3.4689Y-3.0656
X3.5255Y-2.9802
X3.5668Y-2.3445
X3.7081Y-2.8904
X3.7089Y-2.1311
X3.9953Y-2.6409
X4.0573Y-2.7138
X4.0656Y-2.6406
X4.1794Y-2.9618
X4.1892Y-2.5012
X4.3235Y-2.3409
T2
X3.2285Y-2.962
X3.2285Y-3.0122
X3.2285Y-3.0624
X3.2787Y-2.962
X3.2787Y-3.0122
X3.2787Y-3.0624
X3.3289Y-2.962
X3.3289Y-3.0122
X3.3289Y-3.0624
T3
X2.2216Y-2.9166
X3.43Y-1.86
X3.46Y-1.78
X4.3831Y-2.8801
T5
X2.4051Y-3.1031
X2.4051Y-3.2031
T6
X2.4295Y-2.1311
X2.6795Y-2.2311
X3.1795Y-2.1311
X3.4295Y-2.2311
X3.9295Y-2.1311
X4.1795Y-2.2311
T4
G00X3.1112Y-1.533
M15
G01X3.1112Y-1.5094
M16
G05
G00X3.1112Y-1.7074
M15
G01X3.1112Y-1.6641
M16
G05
G00X3.4513Y-1.533
M15
G01X3.4513Y-1.5094
M16
G05
G00X3.4513Y-1.7074
M15
G01X3.4513Y-1.6641
M16
G05
T0
M30
