%TF.GenerationSoftware,KiCad,Pcbnew,(6.0.5)*%
%TF.CreationDate,2022-07-04T16:26:11+08:00*%
%TF.ProjectId,RP2040-3k,52503230-3430-42d3-936b-2e6b69636164,rev?*%
%TF.SameCoordinates,Original*%
%TF.FileFunction,Legend,Top*%
%TF.FilePolarity,Positive*%
%FSLAX46Y46*%
G04 Gerber Fmt 4.6, Leading zero omitted, Abs format (unit mm)*
G04 Created by KiCad (PCBNEW (6.0.5)) date 2022-07-04 16:26:11*
%MOMM*%
%LPD*%
G01*
G04 APERTURE LIST*
G04 Aperture macros list*
%AMRoundRect*
0 Rectangle with rounded corners*
0 $1 Rounding radius*
0 $2 $3 $4 $5 $6 $7 $8 $9 X,Y pos of 4 corners*
0 Add a 4 corners polygon primitive as box body*
4,1,4,$2,$3,$4,$5,$6,$7,$8,$9,$2,$3,0*
0 Add four circle primitives for the rounded corners*
1,1,$1+$1,$2,$3*
1,1,$1+$1,$4,$5*
1,1,$1+$1,$6,$7*
1,1,$1+$1,$8,$9*
0 Add four rect primitives between the rounded corners*
20,1,$1+$1,$2,$3,$4,$5,0*
20,1,$1+$1,$4,$5,$6,$7,0*
20,1,$1+$1,$6,$7,$8,$9,0*
20,1,$1+$1,$8,$9,$2,$3,0*%
%AMFreePoly0*
4,1,18,-0.410000,0.265000,0.000000,0.675000,0.328000,0.675000,0.359380,0.668758,0.385983,0.650983,0.403758,0.624380,0.410000,0.593000,0.410000,-0.593000,0.403758,-0.624380,0.385983,-0.650983,0.359380,-0.668758,0.328000,-0.675000,-0.328000,-0.675000,-0.359380,-0.668758,-0.385983,-0.650983,-0.403758,-0.624380,-0.410000,-0.593000,-0.410000,0.265000,-0.410000,0.265000,$1*%
G04 Aperture macros list end*
%ADD10C,0.150000*%
%ADD11C,0.120000*%
%ADD12RoundRect,0.082000X-0.593000X0.328000X-0.593000X-0.328000X0.593000X-0.328000X0.593000X0.328000X0*%
%ADD13FreePoly0,270.000000*%
%ADD14RoundRect,0.140000X0.140000X0.170000X-0.140000X0.170000X-0.140000X-0.170000X0.140000X-0.170000X0*%
%ADD15RoundRect,0.135000X-0.185000X0.135000X-0.185000X-0.135000X0.185000X-0.135000X0.185000X0.135000X0*%
%ADD16RoundRect,0.135000X-0.135000X-0.185000X0.135000X-0.185000X0.135000X0.185000X-0.135000X0.185000X0*%
%ADD17RoundRect,0.050000X0.050000X-0.387500X0.050000X0.387500X-0.050000X0.387500X-0.050000X-0.387500X0*%
%ADD18RoundRect,0.050000X0.387500X-0.050000X0.387500X0.050000X-0.387500X0.050000X-0.387500X-0.050000X0*%
%ADD19RoundRect,0.144000X1.456000X-1.456000X1.456000X1.456000X-1.456000X1.456000X-1.456000X-1.456000X0*%
%ADD20RoundRect,0.150000X-0.650000X-0.150000X0.650000X-0.150000X0.650000X0.150000X-0.650000X0.150000X0*%
%ADD21RoundRect,0.140000X-0.140000X-0.170000X0.140000X-0.170000X0.140000X0.170000X-0.140000X0.170000X0*%
%ADD22RoundRect,0.140000X0.170000X-0.140000X0.170000X0.140000X-0.170000X0.140000X-0.170000X-0.140000X0*%
%ADD23R,1.200000X1.400000*%
%ADD24RoundRect,0.140000X-0.170000X0.140000X-0.170000X-0.140000X0.170000X-0.140000X0.170000X0.140000X0*%
%ADD25R,1.500000X1.000000*%
%ADD26RoundRect,0.135000X0.135000X0.185000X-0.135000X0.185000X-0.135000X-0.185000X0.135000X-0.185000X0*%
%ADD27RoundRect,0.147500X-0.172500X0.147500X-0.172500X-0.147500X0.172500X-0.147500X0.172500X0.147500X0*%
%ADD28R,1.700000X1.700000*%
%ADD29O,1.700000X1.700000*%
%ADD30RoundRect,0.150000X-0.475000X-0.150000X0.475000X-0.150000X0.475000X0.150000X-0.475000X0.150000X0*%
%ADD31C,1.750000*%
%ADD32C,3.987800*%
%ADD33C,3.300000*%
%ADD34RoundRect,0.250000X-1.025000X-1.000000X1.025000X-1.000000X1.025000X1.000000X-1.025000X1.000000X0*%
%ADD35RoundRect,0.150000X0.587500X0.150000X-0.587500X0.150000X-0.587500X-0.150000X0.587500X-0.150000X0*%
%ADD36RoundRect,0.135000X0.185000X-0.135000X0.185000X0.135000X-0.185000X0.135000X-0.185000X-0.135000X0*%
%ADD37C,0.650000*%
%ADD38R,0.600000X1.450000*%
%ADD39R,0.300000X1.450000*%
%ADD40O,1.000000X1.600000*%
%ADD41O,1.000000X2.100000*%
G04 APERTURE END LIST*
D10*
%TO.C,LED3*%
X66341071Y-62031428D02*
X66055357Y-62031428D01*
X66055357Y-61431428D01*
X66541071Y-61717142D02*
X66741071Y-61717142D01*
X66826785Y-62031428D02*
X66541071Y-62031428D01*
X66541071Y-61431428D01*
X66826785Y-61431428D01*
X67083928Y-62031428D02*
X67083928Y-61431428D01*
X67226785Y-61431428D01*
X67312500Y-61460000D01*
X67369642Y-61517142D01*
X67398214Y-61574285D01*
X67426785Y-61688571D01*
X67426785Y-61774285D01*
X67398214Y-61888571D01*
X67369642Y-61945714D01*
X67312500Y-62002857D01*
X67226785Y-62031428D01*
X67083928Y-62031428D01*
X67626785Y-61431428D02*
X67998214Y-61431428D01*
X67798214Y-61660000D01*
X67883928Y-61660000D01*
X67941071Y-61688571D01*
X67969642Y-61717142D01*
X67998214Y-61774285D01*
X67998214Y-61917142D01*
X67969642Y-61974285D01*
X67941071Y-62002857D01*
X67883928Y-62031428D01*
X67712500Y-62031428D01*
X67655357Y-62002857D01*
X67626785Y-61974285D01*
%TO.C,C16*%
X72647685Y-70791685D02*
X72619114Y-70820257D01*
X72533400Y-70848828D01*
X72476257Y-70848828D01*
X72390542Y-70820257D01*
X72333400Y-70763114D01*
X72304828Y-70705971D01*
X72276257Y-70591685D01*
X72276257Y-70505971D01*
X72304828Y-70391685D01*
X72333400Y-70334542D01*
X72390542Y-70277400D01*
X72476257Y-70248828D01*
X72533400Y-70248828D01*
X72619114Y-70277400D01*
X72647685Y-70305971D01*
X73219114Y-70848828D02*
X72876257Y-70848828D01*
X73047685Y-70848828D02*
X73047685Y-70248828D01*
X72990542Y-70334542D01*
X72933400Y-70391685D01*
X72876257Y-70420257D01*
X73733400Y-70248828D02*
X73619114Y-70248828D01*
X73561971Y-70277400D01*
X73533400Y-70305971D01*
X73476257Y-70391685D01*
X73447685Y-70505971D01*
X73447685Y-70734542D01*
X73476257Y-70791685D01*
X73504828Y-70820257D01*
X73561971Y-70848828D01*
X73676257Y-70848828D01*
X73733400Y-70820257D01*
X73761971Y-70791685D01*
X73790542Y-70734542D01*
X73790542Y-70591685D01*
X73761971Y-70534542D01*
X73733400Y-70505971D01*
X73676257Y-70477400D01*
X73561971Y-70477400D01*
X73504828Y-70505971D01*
X73476257Y-70534542D01*
X73447685Y-70591685D01*
%TO.C,R9*%
X90290478Y-73327000D02*
X90004764Y-73527000D01*
X90290478Y-73669857D02*
X89690478Y-73669857D01*
X89690478Y-73441285D01*
X89719050Y-73384142D01*
X89747621Y-73355571D01*
X89804764Y-73327000D01*
X89890478Y-73327000D01*
X89947621Y-73355571D01*
X89976192Y-73384142D01*
X90004764Y-73441285D01*
X90004764Y-73669857D01*
X90290478Y-73041285D02*
X90290478Y-72927000D01*
X90261907Y-72869857D01*
X90233335Y-72841285D01*
X90147621Y-72784142D01*
X90033335Y-72755571D01*
X89804764Y-72755571D01*
X89747621Y-72784142D01*
X89719050Y-72812714D01*
X89690478Y-72869857D01*
X89690478Y-72984142D01*
X89719050Y-73041285D01*
X89747621Y-73069857D01*
X89804764Y-73098428D01*
X89947621Y-73098428D01*
X90004764Y-73069857D01*
X90033335Y-73041285D01*
X90061907Y-72984142D01*
X90061907Y-72869857D01*
X90033335Y-72812714D01*
X90004764Y-72784142D01*
X89947621Y-72755571D01*
%TO.C,R7*%
X100470000Y-75541428D02*
X100270000Y-75255714D01*
X100127142Y-75541428D02*
X100127142Y-74941428D01*
X100355714Y-74941428D01*
X100412857Y-74970000D01*
X100441428Y-74998571D01*
X100470000Y-75055714D01*
X100470000Y-75141428D01*
X100441428Y-75198571D01*
X100412857Y-75227142D01*
X100355714Y-75255714D01*
X100127142Y-75255714D01*
X100670000Y-74941428D02*
X101070000Y-74941428D01*
X100812857Y-75541428D01*
%TO.C,U4*%
X78131428Y-76965892D02*
X78617142Y-76965892D01*
X78674285Y-76937321D01*
X78702857Y-76908750D01*
X78731428Y-76851607D01*
X78731428Y-76737321D01*
X78702857Y-76680178D01*
X78674285Y-76651607D01*
X78617142Y-76623035D01*
X78131428Y-76623035D01*
X78331428Y-76080178D02*
X78731428Y-76080178D01*
X78102857Y-76223035D02*
X78531428Y-76365892D01*
X78531428Y-75994464D01*
%TO.C,R1*%
X86521428Y-48350000D02*
X86235714Y-48550000D01*
X86521428Y-48692857D02*
X85921428Y-48692857D01*
X85921428Y-48464285D01*
X85950000Y-48407142D01*
X85978571Y-48378571D01*
X86035714Y-48350000D01*
X86121428Y-48350000D01*
X86178571Y-48378571D01*
X86207142Y-48407142D01*
X86235714Y-48464285D01*
X86235714Y-48692857D01*
X86521428Y-47778571D02*
X86521428Y-48121428D01*
X86521428Y-47950000D02*
X85921428Y-47950000D01*
X86007142Y-48007142D01*
X86064285Y-48064285D01*
X86092857Y-48121428D01*
%TO.C,U3*%
X66959482Y-76772678D02*
X66959482Y-77258392D01*
X66988053Y-77315535D01*
X67016625Y-77344107D01*
X67073767Y-77372678D01*
X67188053Y-77372678D01*
X67245196Y-77344107D01*
X67273767Y-77315535D01*
X67302339Y-77258392D01*
X67302339Y-76772678D01*
X67530910Y-76772678D02*
X67902339Y-76772678D01*
X67702339Y-77001250D01*
X67788053Y-77001250D01*
X67845196Y-77029821D01*
X67873767Y-77058392D01*
X67902339Y-77115535D01*
X67902339Y-77258392D01*
X67873767Y-77315535D01*
X67845196Y-77344107D01*
X67788053Y-77372678D01*
X67616625Y-77372678D01*
X67559482Y-77344107D01*
X67530910Y-77315535D01*
%TO.C,C7*%
X94265450Y-73639285D02*
X94236878Y-73667857D01*
X94151164Y-73696428D01*
X94094021Y-73696428D01*
X94008307Y-73667857D01*
X93951164Y-73610714D01*
X93922592Y-73553571D01*
X93894021Y-73439285D01*
X93894021Y-73353571D01*
X93922592Y-73239285D01*
X93951164Y-73182142D01*
X94008307Y-73125000D01*
X94094021Y-73096428D01*
X94151164Y-73096428D01*
X94236878Y-73125000D01*
X94265450Y-73153571D01*
X94465450Y-73096428D02*
X94865450Y-73096428D01*
X94608307Y-73696428D01*
%TO.C,C12*%
X83318535Y-71675714D02*
X83347107Y-71704285D01*
X83375678Y-71790000D01*
X83375678Y-71847142D01*
X83347107Y-71932857D01*
X83289964Y-71990000D01*
X83232821Y-72018571D01*
X83118535Y-72047142D01*
X83032821Y-72047142D01*
X82918535Y-72018571D01*
X82861392Y-71990000D01*
X82804250Y-71932857D01*
X82775678Y-71847142D01*
X82775678Y-71790000D01*
X82804250Y-71704285D01*
X82832821Y-71675714D01*
X83375678Y-71104285D02*
X83375678Y-71447142D01*
X83375678Y-71275714D02*
X82775678Y-71275714D01*
X82861392Y-71332857D01*
X82918535Y-71390000D01*
X82947107Y-71447142D01*
X82832821Y-70875714D02*
X82804250Y-70847142D01*
X82775678Y-70790000D01*
X82775678Y-70647142D01*
X82804250Y-70590000D01*
X82832821Y-70561428D01*
X82889964Y-70532857D01*
X82947107Y-70532857D01*
X83032821Y-70561428D01*
X83375678Y-70904285D01*
X83375678Y-70532857D01*
%TO.C,Y1*%
X94265164Y-79000714D02*
X94550878Y-79000714D01*
X93950878Y-79200714D02*
X94265164Y-79000714D01*
X93950878Y-78800714D01*
X94550878Y-78286428D02*
X94550878Y-78629285D01*
X94550878Y-78457857D02*
X93950878Y-78457857D01*
X94036592Y-78515000D01*
X94093735Y-78572142D01*
X94122307Y-78629285D01*
%TO.C,C9*%
X80160535Y-69413000D02*
X80189107Y-69441571D01*
X80217678Y-69527285D01*
X80217678Y-69584428D01*
X80189107Y-69670142D01*
X80131964Y-69727285D01*
X80074821Y-69755857D01*
X79960535Y-69784428D01*
X79874821Y-69784428D01*
X79760535Y-69755857D01*
X79703392Y-69727285D01*
X79646250Y-69670142D01*
X79617678Y-69584428D01*
X79617678Y-69527285D01*
X79646250Y-69441571D01*
X79674821Y-69413000D01*
X80217678Y-69127285D02*
X80217678Y-69013000D01*
X80189107Y-68955857D01*
X80160535Y-68927285D01*
X80074821Y-68870142D01*
X79960535Y-68841571D01*
X79731964Y-68841571D01*
X79674821Y-68870142D01*
X79646250Y-68898714D01*
X79617678Y-68955857D01*
X79617678Y-69070142D01*
X79646250Y-69127285D01*
X79674821Y-69155857D01*
X79731964Y-69184428D01*
X79874821Y-69184428D01*
X79931964Y-69155857D01*
X79960535Y-69127285D01*
X79989107Y-69070142D01*
X79989107Y-68955857D01*
X79960535Y-68898714D01*
X79931964Y-68870142D01*
X79874821Y-68841571D01*
%TO.C,C17*%
X107114285Y-76586285D02*
X107085714Y-76614857D01*
X107000000Y-76643428D01*
X106942857Y-76643428D01*
X106857142Y-76614857D01*
X106800000Y-76557714D01*
X106771428Y-76500571D01*
X106742857Y-76386285D01*
X106742857Y-76300571D01*
X106771428Y-76186285D01*
X106800000Y-76129142D01*
X106857142Y-76072000D01*
X106942857Y-76043428D01*
X107000000Y-76043428D01*
X107085714Y-76072000D01*
X107114285Y-76100571D01*
X107685714Y-76643428D02*
X107342857Y-76643428D01*
X107514285Y-76643428D02*
X107514285Y-76043428D01*
X107457142Y-76129142D01*
X107400000Y-76186285D01*
X107342857Y-76214857D01*
X107885714Y-76043428D02*
X108285714Y-76043428D01*
X108028571Y-76643428D01*
%TO.C,C3*%
X94403485Y-49059200D02*
X94432057Y-49087771D01*
X94460628Y-49173485D01*
X94460628Y-49230628D01*
X94432057Y-49316342D01*
X94374914Y-49373485D01*
X94317771Y-49402057D01*
X94203485Y-49430628D01*
X94117771Y-49430628D01*
X94003485Y-49402057D01*
X93946342Y-49373485D01*
X93889200Y-49316342D01*
X93860628Y-49230628D01*
X93860628Y-49173485D01*
X93889200Y-49087771D01*
X93917771Y-49059200D01*
X93860628Y-48859200D02*
X93860628Y-48487771D01*
X94089200Y-48687771D01*
X94089200Y-48602057D01*
X94117771Y-48544914D01*
X94146342Y-48516342D01*
X94203485Y-48487771D01*
X94346342Y-48487771D01*
X94403485Y-48516342D01*
X94432057Y-48544914D01*
X94460628Y-48602057D01*
X94460628Y-48773485D01*
X94432057Y-48830628D01*
X94403485Y-48859200D01*
%TO.C,C8*%
X73085800Y-71960085D02*
X73057228Y-71988657D01*
X72971514Y-72017228D01*
X72914371Y-72017228D01*
X72828657Y-71988657D01*
X72771514Y-71931514D01*
X72742942Y-71874371D01*
X72714371Y-71760085D01*
X72714371Y-71674371D01*
X72742942Y-71560085D01*
X72771514Y-71502942D01*
X72828657Y-71445800D01*
X72914371Y-71417228D01*
X72971514Y-71417228D01*
X73057228Y-71445800D01*
X73085800Y-71474371D01*
X73428657Y-71674371D02*
X73371514Y-71645800D01*
X73342942Y-71617228D01*
X73314371Y-71560085D01*
X73314371Y-71531514D01*
X73342942Y-71474371D01*
X73371514Y-71445800D01*
X73428657Y-71417228D01*
X73542942Y-71417228D01*
X73600085Y-71445800D01*
X73628657Y-71474371D01*
X73657228Y-71531514D01*
X73657228Y-71560085D01*
X73628657Y-71617228D01*
X73600085Y-71645800D01*
X73542942Y-71674371D01*
X73428657Y-71674371D01*
X73371514Y-71702942D01*
X73342942Y-71731514D01*
X73314371Y-71788657D01*
X73314371Y-71902942D01*
X73342942Y-71960085D01*
X73371514Y-71988657D01*
X73428657Y-72017228D01*
X73542942Y-72017228D01*
X73600085Y-71988657D01*
X73628657Y-71960085D01*
X73657228Y-71902942D01*
X73657228Y-71788657D01*
X73628657Y-71731514D01*
X73600085Y-71702942D01*
X73542942Y-71674371D01*
%TO.C,C1*%
X82067660Y-81948750D02*
X82096232Y-81977321D01*
X82124803Y-82063035D01*
X82124803Y-82120178D01*
X82096232Y-82205892D01*
X82039089Y-82263035D01*
X81981946Y-82291607D01*
X81867660Y-82320178D01*
X81781946Y-82320178D01*
X81667660Y-82291607D01*
X81610517Y-82263035D01*
X81553375Y-82205892D01*
X81524803Y-82120178D01*
X81524803Y-82063035D01*
X81553375Y-81977321D01*
X81581946Y-81948750D01*
X82124803Y-81377321D02*
X82124803Y-81720178D01*
X82124803Y-81548750D02*
X81524803Y-81548750D01*
X81610517Y-81605892D01*
X81667660Y-81663035D01*
X81696232Y-81720178D01*
%TO.C,C6*%
X72518750Y-77219285D02*
X72490178Y-77247857D01*
X72404464Y-77276428D01*
X72347321Y-77276428D01*
X72261607Y-77247857D01*
X72204464Y-77190714D01*
X72175892Y-77133571D01*
X72147321Y-77019285D01*
X72147321Y-76933571D01*
X72175892Y-76819285D01*
X72204464Y-76762142D01*
X72261607Y-76705000D01*
X72347321Y-76676428D01*
X72404464Y-76676428D01*
X72490178Y-76705000D01*
X72518750Y-76733571D01*
X73033035Y-76676428D02*
X72918750Y-76676428D01*
X72861607Y-76705000D01*
X72833035Y-76733571D01*
X72775892Y-76819285D01*
X72747321Y-76933571D01*
X72747321Y-77162142D01*
X72775892Y-77219285D01*
X72804464Y-77247857D01*
X72861607Y-77276428D01*
X72975892Y-77276428D01*
X73033035Y-77247857D01*
X73061607Y-77219285D01*
X73090178Y-77162142D01*
X73090178Y-77019285D01*
X73061607Y-76962142D01*
X73033035Y-76933571D01*
X72975892Y-76905000D01*
X72861607Y-76905000D01*
X72804464Y-76933571D01*
X72775892Y-76962142D01*
X72747321Y-77019285D01*
%TO.C,C2*%
X90787700Y-51531285D02*
X90759128Y-51559857D01*
X90673414Y-51588428D01*
X90616271Y-51588428D01*
X90530557Y-51559857D01*
X90473414Y-51502714D01*
X90444842Y-51445571D01*
X90416271Y-51331285D01*
X90416271Y-51245571D01*
X90444842Y-51131285D01*
X90473414Y-51074142D01*
X90530557Y-51017000D01*
X90616271Y-50988428D01*
X90673414Y-50988428D01*
X90759128Y-51017000D01*
X90787700Y-51045571D01*
X91016271Y-51045571D02*
X91044842Y-51017000D01*
X91101985Y-50988428D01*
X91244842Y-50988428D01*
X91301985Y-51017000D01*
X91330557Y-51045571D01*
X91359128Y-51102714D01*
X91359128Y-51159857D01*
X91330557Y-51245571D01*
X90987700Y-51588428D01*
X91359128Y-51588428D01*
%TO.C,D1*%
X104767142Y-75331028D02*
X104767142Y-74731028D01*
X104910000Y-74731028D01*
X104995714Y-74759600D01*
X105052857Y-74816742D01*
X105081428Y-74873885D01*
X105110000Y-74988171D01*
X105110000Y-75073885D01*
X105081428Y-75188171D01*
X105052857Y-75245314D01*
X104995714Y-75302457D01*
X104910000Y-75331028D01*
X104767142Y-75331028D01*
X105681428Y-75331028D02*
X105338571Y-75331028D01*
X105510000Y-75331028D02*
X105510000Y-74731028D01*
X105452857Y-74816742D01*
X105395714Y-74873885D01*
X105338571Y-74902457D01*
%TO.C,R6*%
X73170100Y-73585078D02*
X72970100Y-73299364D01*
X72827242Y-73585078D02*
X72827242Y-72985078D01*
X73055814Y-72985078D01*
X73112957Y-73013650D01*
X73141528Y-73042221D01*
X73170100Y-73099364D01*
X73170100Y-73185078D01*
X73141528Y-73242221D01*
X73112957Y-73270792D01*
X73055814Y-73299364D01*
X72827242Y-73299364D01*
X73684385Y-72985078D02*
X73570100Y-72985078D01*
X73512957Y-73013650D01*
X73484385Y-73042221D01*
X73427242Y-73127935D01*
X73398671Y-73242221D01*
X73398671Y-73470792D01*
X73427242Y-73527935D01*
X73455814Y-73556507D01*
X73512957Y-73585078D01*
X73627242Y-73585078D01*
X73684385Y-73556507D01*
X73712957Y-73527935D01*
X73741528Y-73470792D01*
X73741528Y-73327935D01*
X73712957Y-73270792D01*
X73684385Y-73242221D01*
X73627242Y-73213650D01*
X73512957Y-73213650D01*
X73455814Y-73242221D01*
X73427242Y-73270792D01*
X73398671Y-73327935D01*
%TO.C,C18*%
X65793785Y-75235339D02*
X65822357Y-75263910D01*
X65850928Y-75349625D01*
X65850928Y-75406767D01*
X65822357Y-75492482D01*
X65765214Y-75549625D01*
X65708071Y-75578196D01*
X65593785Y-75606767D01*
X65508071Y-75606767D01*
X65393785Y-75578196D01*
X65336642Y-75549625D01*
X65279500Y-75492482D01*
X65250928Y-75406767D01*
X65250928Y-75349625D01*
X65279500Y-75263910D01*
X65308071Y-75235339D01*
X65850928Y-74663910D02*
X65850928Y-75006767D01*
X65850928Y-74835339D02*
X65250928Y-74835339D01*
X65336642Y-74892482D01*
X65393785Y-74949625D01*
X65422357Y-75006767D01*
X65508071Y-74321053D02*
X65479500Y-74378196D01*
X65450928Y-74406767D01*
X65393785Y-74435339D01*
X65365214Y-74435339D01*
X65308071Y-74406767D01*
X65279500Y-74378196D01*
X65250928Y-74321053D01*
X65250928Y-74206767D01*
X65279500Y-74149625D01*
X65308071Y-74121053D01*
X65365214Y-74092482D01*
X65393785Y-74092482D01*
X65450928Y-74121053D01*
X65479500Y-74149625D01*
X65508071Y-74206767D01*
X65508071Y-74321053D01*
X65536642Y-74378196D01*
X65565214Y-74406767D01*
X65622357Y-74435339D01*
X65736642Y-74435339D01*
X65793785Y-74406767D01*
X65822357Y-74378196D01*
X65850928Y-74321053D01*
X65850928Y-74206767D01*
X65822357Y-74149625D01*
X65793785Y-74121053D01*
X65736642Y-74092482D01*
X65622357Y-74092482D01*
X65565214Y-74121053D01*
X65536642Y-74149625D01*
X65508071Y-74206767D01*
%TO.C,R4*%
X64073178Y-83074400D02*
X63787464Y-83274400D01*
X64073178Y-83417257D02*
X63473178Y-83417257D01*
X63473178Y-83188685D01*
X63501750Y-83131542D01*
X63530321Y-83102971D01*
X63587464Y-83074400D01*
X63673178Y-83074400D01*
X63730321Y-83102971D01*
X63758892Y-83131542D01*
X63787464Y-83188685D01*
X63787464Y-83417257D01*
X63673178Y-82560114D02*
X64073178Y-82560114D01*
X63444607Y-82702971D02*
X63873178Y-82845828D01*
X63873178Y-82474400D01*
%TO.C,C19*%
X97544285Y-67294285D02*
X97515714Y-67322857D01*
X97430000Y-67351428D01*
X97372857Y-67351428D01*
X97287142Y-67322857D01*
X97230000Y-67265714D01*
X97201428Y-67208571D01*
X97172857Y-67094285D01*
X97172857Y-67008571D01*
X97201428Y-66894285D01*
X97230000Y-66837142D01*
X97287142Y-66780000D01*
X97372857Y-66751428D01*
X97430000Y-66751428D01*
X97515714Y-66780000D01*
X97544285Y-66808571D01*
X98115714Y-67351428D02*
X97772857Y-67351428D01*
X97944285Y-67351428D02*
X97944285Y-66751428D01*
X97887142Y-66837142D01*
X97830000Y-66894285D01*
X97772857Y-66922857D01*
X98401428Y-67351428D02*
X98515714Y-67351428D01*
X98572857Y-67322857D01*
X98601428Y-67294285D01*
X98658571Y-67208571D01*
X98687142Y-67094285D01*
X98687142Y-66865714D01*
X98658571Y-66808571D01*
X98630000Y-66780000D01*
X98572857Y-66751428D01*
X98458571Y-66751428D01*
X98401428Y-66780000D01*
X98372857Y-66808571D01*
X98344285Y-66865714D01*
X98344285Y-67008571D01*
X98372857Y-67065714D01*
X98401428Y-67094285D01*
X98458571Y-67122857D01*
X98572857Y-67122857D01*
X98630000Y-67094285D01*
X98658571Y-67065714D01*
X98687142Y-67008571D01*
%TO.C,C11*%
X94238935Y-74810085D02*
X94210364Y-74838657D01*
X94124650Y-74867228D01*
X94067507Y-74867228D01*
X93981792Y-74838657D01*
X93924650Y-74781514D01*
X93896078Y-74724371D01*
X93867507Y-74610085D01*
X93867507Y-74524371D01*
X93896078Y-74410085D01*
X93924650Y-74352942D01*
X93981792Y-74295800D01*
X94067507Y-74267228D01*
X94124650Y-74267228D01*
X94210364Y-74295800D01*
X94238935Y-74324371D01*
X94810364Y-74867228D02*
X94467507Y-74867228D01*
X94638935Y-74867228D02*
X94638935Y-74267228D01*
X94581792Y-74352942D01*
X94524650Y-74410085D01*
X94467507Y-74438657D01*
X95381792Y-74867228D02*
X95038935Y-74867228D01*
X95210364Y-74867228D02*
X95210364Y-74267228D01*
X95153221Y-74352942D01*
X95096078Y-74410085D01*
X95038935Y-74438657D01*
%TO.C,F1*%
X88467142Y-48950000D02*
X88467142Y-49150000D01*
X88781428Y-49150000D02*
X88181428Y-49150000D01*
X88181428Y-48864285D01*
X88781428Y-48321428D02*
X88781428Y-48664285D01*
X88781428Y-48492857D02*
X88181428Y-48492857D01*
X88267142Y-48550000D01*
X88324285Y-48607142D01*
X88352857Y-48664285D01*
%TO.C,J2*%
X58370000Y-79721428D02*
X58370000Y-80150000D01*
X58341428Y-80235714D01*
X58284285Y-80292857D01*
X58198571Y-80321428D01*
X58141428Y-80321428D01*
X58627142Y-79778571D02*
X58655714Y-79750000D01*
X58712857Y-79721428D01*
X58855714Y-79721428D01*
X58912857Y-79750000D01*
X58941428Y-79778571D01*
X58970000Y-79835714D01*
X58970000Y-79892857D01*
X58941428Y-79978571D01*
X58598571Y-80321428D01*
X58970000Y-80321428D01*
%TO.C,C13*%
X78900535Y-69510714D02*
X78929107Y-69539285D01*
X78957678Y-69625000D01*
X78957678Y-69682142D01*
X78929107Y-69767857D01*
X78871964Y-69825000D01*
X78814821Y-69853571D01*
X78700535Y-69882142D01*
X78614821Y-69882142D01*
X78500535Y-69853571D01*
X78443392Y-69825000D01*
X78386250Y-69767857D01*
X78357678Y-69682142D01*
X78357678Y-69625000D01*
X78386250Y-69539285D01*
X78414821Y-69510714D01*
X78957678Y-68939285D02*
X78957678Y-69282142D01*
X78957678Y-69110714D02*
X78357678Y-69110714D01*
X78443392Y-69167857D01*
X78500535Y-69225000D01*
X78529107Y-69282142D01*
X78357678Y-68739285D02*
X78357678Y-68367857D01*
X78586250Y-68567857D01*
X78586250Y-68482142D01*
X78614821Y-68425000D01*
X78643392Y-68396428D01*
X78700535Y-68367857D01*
X78843392Y-68367857D01*
X78900535Y-68396428D01*
X78929107Y-68425000D01*
X78957678Y-68482142D01*
X78957678Y-68653571D01*
X78929107Y-68710714D01*
X78900535Y-68739285D01*
%TO.C,R5*%
X73220900Y-74753478D02*
X73020900Y-74467764D01*
X72878042Y-74753478D02*
X72878042Y-74153478D01*
X73106614Y-74153478D01*
X73163757Y-74182050D01*
X73192328Y-74210621D01*
X73220900Y-74267764D01*
X73220900Y-74353478D01*
X73192328Y-74410621D01*
X73163757Y-74439192D01*
X73106614Y-74467764D01*
X72878042Y-74467764D01*
X73763757Y-74153478D02*
X73478042Y-74153478D01*
X73449471Y-74439192D01*
X73478042Y-74410621D01*
X73535185Y-74382050D01*
X73678042Y-74382050D01*
X73735185Y-74410621D01*
X73763757Y-74439192D01*
X73792328Y-74496335D01*
X73792328Y-74639192D01*
X73763757Y-74696335D01*
X73735185Y-74724907D01*
X73678042Y-74753478D01*
X73535185Y-74753478D01*
X73478042Y-74724907D01*
X73449471Y-74696335D01*
%TO.C,C4*%
X94270650Y-76110085D02*
X94242078Y-76138657D01*
X94156364Y-76167228D01*
X94099221Y-76167228D01*
X94013507Y-76138657D01*
X93956364Y-76081514D01*
X93927792Y-76024371D01*
X93899221Y-75910085D01*
X93899221Y-75824371D01*
X93927792Y-75710085D01*
X93956364Y-75652942D01*
X94013507Y-75595800D01*
X94099221Y-75567228D01*
X94156364Y-75567228D01*
X94242078Y-75595800D01*
X94270650Y-75624371D01*
X94784935Y-75767228D02*
X94784935Y-76167228D01*
X94642078Y-75538657D02*
X94499221Y-75967228D01*
X94870650Y-75967228D01*
%TO.C,R8*%
X106210000Y-67511428D02*
X106010000Y-67225714D01*
X105867142Y-67511428D02*
X105867142Y-66911428D01*
X106095714Y-66911428D01*
X106152857Y-66940000D01*
X106181428Y-66968571D01*
X106210000Y-67025714D01*
X106210000Y-67111428D01*
X106181428Y-67168571D01*
X106152857Y-67197142D01*
X106095714Y-67225714D01*
X105867142Y-67225714D01*
X106552857Y-67168571D02*
X106495714Y-67140000D01*
X106467142Y-67111428D01*
X106438571Y-67054285D01*
X106438571Y-67025714D01*
X106467142Y-66968571D01*
X106495714Y-66940000D01*
X106552857Y-66911428D01*
X106667142Y-66911428D01*
X106724285Y-66940000D01*
X106752857Y-66968571D01*
X106781428Y-67025714D01*
X106781428Y-67054285D01*
X106752857Y-67111428D01*
X106724285Y-67140000D01*
X106667142Y-67168571D01*
X106552857Y-67168571D01*
X106495714Y-67197142D01*
X106467142Y-67225714D01*
X106438571Y-67282857D01*
X106438571Y-67397142D01*
X106467142Y-67454285D01*
X106495714Y-67482857D01*
X106552857Y-67511428D01*
X106667142Y-67511428D01*
X106724285Y-67482857D01*
X106752857Y-67454285D01*
X106781428Y-67397142D01*
X106781428Y-67282857D01*
X106752857Y-67225714D01*
X106724285Y-67197142D01*
X106667142Y-67168571D01*
%TO.C,D2*%
X57324167Y-75229428D02*
X57324167Y-74629428D01*
X57467025Y-74629428D01*
X57552739Y-74658000D01*
X57609882Y-74715142D01*
X57638453Y-74772285D01*
X57667025Y-74886571D01*
X57667025Y-74972285D01*
X57638453Y-75086571D01*
X57609882Y-75143714D01*
X57552739Y-75200857D01*
X57467025Y-75229428D01*
X57324167Y-75229428D01*
X57895596Y-74686571D02*
X57924167Y-74658000D01*
X57981310Y-74629428D01*
X58124167Y-74629428D01*
X58181310Y-74658000D01*
X58209882Y-74686571D01*
X58238453Y-74743714D01*
X58238453Y-74800857D01*
X58209882Y-74886571D01*
X57867025Y-75229428D01*
X58238453Y-75229428D01*
%TO.C,R3*%
X79771428Y-46584000D02*
X79485714Y-46784000D01*
X79771428Y-46926857D02*
X79171428Y-46926857D01*
X79171428Y-46698285D01*
X79200000Y-46641142D01*
X79228571Y-46612571D01*
X79285714Y-46584000D01*
X79371428Y-46584000D01*
X79428571Y-46612571D01*
X79457142Y-46641142D01*
X79485714Y-46698285D01*
X79485714Y-46926857D01*
X79171428Y-46384000D02*
X79171428Y-46012571D01*
X79400000Y-46212571D01*
X79400000Y-46126857D01*
X79428571Y-46069714D01*
X79457142Y-46041142D01*
X79514285Y-46012571D01*
X79657142Y-46012571D01*
X79714285Y-46041142D01*
X79742857Y-46069714D01*
X79771428Y-46126857D01*
X79771428Y-46298285D01*
X79742857Y-46355428D01*
X79714285Y-46384000D01*
%TO.C,C20*%
X78614285Y-67334285D02*
X78585714Y-67362857D01*
X78500000Y-67391428D01*
X78442857Y-67391428D01*
X78357142Y-67362857D01*
X78300000Y-67305714D01*
X78271428Y-67248571D01*
X78242857Y-67134285D01*
X78242857Y-67048571D01*
X78271428Y-66934285D01*
X78300000Y-66877142D01*
X78357142Y-66820000D01*
X78442857Y-66791428D01*
X78500000Y-66791428D01*
X78585714Y-66820000D01*
X78614285Y-66848571D01*
X78842857Y-66848571D02*
X78871428Y-66820000D01*
X78928571Y-66791428D01*
X79071428Y-66791428D01*
X79128571Y-66820000D01*
X79157142Y-66848571D01*
X79185714Y-66905714D01*
X79185714Y-66962857D01*
X79157142Y-67048571D01*
X78814285Y-67391428D01*
X79185714Y-67391428D01*
X79557142Y-66791428D02*
X79614285Y-66791428D01*
X79671428Y-66820000D01*
X79700000Y-66848571D01*
X79728571Y-66905714D01*
X79757142Y-67020000D01*
X79757142Y-67162857D01*
X79728571Y-67277142D01*
X79700000Y-67334285D01*
X79671428Y-67362857D01*
X79614285Y-67391428D01*
X79557142Y-67391428D01*
X79500000Y-67362857D01*
X79471428Y-67334285D01*
X79442857Y-67277142D01*
X79414285Y-67162857D01*
X79414285Y-67020000D01*
X79442857Y-66905714D01*
X79471428Y-66848571D01*
X79500000Y-66820000D01*
X79557142Y-66791428D01*
%TO.C,LED2*%
X85351071Y-61991428D02*
X85065357Y-61991428D01*
X85065357Y-61391428D01*
X85551071Y-61677142D02*
X85751071Y-61677142D01*
X85836785Y-61991428D02*
X85551071Y-61991428D01*
X85551071Y-61391428D01*
X85836785Y-61391428D01*
X86093928Y-61991428D02*
X86093928Y-61391428D01*
X86236785Y-61391428D01*
X86322500Y-61420000D01*
X86379642Y-61477142D01*
X86408214Y-61534285D01*
X86436785Y-61648571D01*
X86436785Y-61734285D01*
X86408214Y-61848571D01*
X86379642Y-61905714D01*
X86322500Y-61962857D01*
X86236785Y-61991428D01*
X86093928Y-61991428D01*
X86665357Y-61448571D02*
X86693928Y-61420000D01*
X86751071Y-61391428D01*
X86893928Y-61391428D01*
X86951071Y-61420000D01*
X86979642Y-61448571D01*
X87008214Y-61505714D01*
X87008214Y-61562857D01*
X86979642Y-61648571D01*
X86636785Y-61991428D01*
X87008214Y-61991428D01*
%TO.C,U2*%
X80042857Y-48921428D02*
X80042857Y-49407142D01*
X80071428Y-49464285D01*
X80100000Y-49492857D01*
X80157142Y-49521428D01*
X80271428Y-49521428D01*
X80328571Y-49492857D01*
X80357142Y-49464285D01*
X80385714Y-49407142D01*
X80385714Y-48921428D01*
X80642857Y-48978571D02*
X80671428Y-48950000D01*
X80728571Y-48921428D01*
X80871428Y-48921428D01*
X80928571Y-48950000D01*
X80957142Y-48978571D01*
X80985714Y-49035714D01*
X80985714Y-49092857D01*
X80957142Y-49178571D01*
X80614285Y-49521428D01*
X80985714Y-49521428D01*
%TO.C,C5*%
X94260650Y-81904285D02*
X94232078Y-81932857D01*
X94146364Y-81961428D01*
X94089221Y-81961428D01*
X94003507Y-81932857D01*
X93946364Y-81875714D01*
X93917792Y-81818571D01*
X93889221Y-81704285D01*
X93889221Y-81618571D01*
X93917792Y-81504285D01*
X93946364Y-81447142D01*
X94003507Y-81390000D01*
X94089221Y-81361428D01*
X94146364Y-81361428D01*
X94232078Y-81390000D01*
X94260650Y-81418571D01*
X94803507Y-81361428D02*
X94517792Y-81361428D01*
X94489221Y-81647142D01*
X94517792Y-81618571D01*
X94574935Y-81590000D01*
X94717792Y-81590000D01*
X94774935Y-81618571D01*
X94803507Y-81647142D01*
X94832078Y-81704285D01*
X94832078Y-81847142D01*
X94803507Y-81904285D01*
X94774935Y-81932857D01*
X94717792Y-81961428D01*
X94574935Y-81961428D01*
X94517792Y-81932857D01*
X94489221Y-81904285D01*
%TO.C,SW1*%
X63450375Y-51852857D02*
X63536089Y-51881428D01*
X63678946Y-51881428D01*
X63736089Y-51852857D01*
X63764660Y-51824285D01*
X63793232Y-51767142D01*
X63793232Y-51710000D01*
X63764660Y-51652857D01*
X63736089Y-51624285D01*
X63678946Y-51595714D01*
X63564660Y-51567142D01*
X63507517Y-51538571D01*
X63478946Y-51510000D01*
X63450375Y-51452857D01*
X63450375Y-51395714D01*
X63478946Y-51338571D01*
X63507517Y-51310000D01*
X63564660Y-51281428D01*
X63707517Y-51281428D01*
X63793232Y-51310000D01*
X63993232Y-51281428D02*
X64136089Y-51881428D01*
X64250375Y-51452857D01*
X64364660Y-51881428D01*
X64507517Y-51281428D01*
X65050375Y-51881428D02*
X64707517Y-51881428D01*
X64878946Y-51881428D02*
X64878946Y-51281428D01*
X64821803Y-51367142D01*
X64764660Y-51424285D01*
X64707517Y-51452857D01*
%TO.C,SW2*%
X82500375Y-51852857D02*
X82586089Y-51881428D01*
X82728946Y-51881428D01*
X82786089Y-51852857D01*
X82814660Y-51824285D01*
X82843232Y-51767142D01*
X82843232Y-51710000D01*
X82814660Y-51652857D01*
X82786089Y-51624285D01*
X82728946Y-51595714D01*
X82614660Y-51567142D01*
X82557517Y-51538571D01*
X82528946Y-51510000D01*
X82500375Y-51452857D01*
X82500375Y-51395714D01*
X82528946Y-51338571D01*
X82557517Y-51310000D01*
X82614660Y-51281428D01*
X82757517Y-51281428D01*
X82843232Y-51310000D01*
X83043232Y-51281428D02*
X83186089Y-51881428D01*
X83300375Y-51452857D01*
X83414660Y-51881428D01*
X83557517Y-51281428D01*
X83757517Y-51338571D02*
X83786089Y-51310000D01*
X83843232Y-51281428D01*
X83986089Y-51281428D01*
X84043232Y-51310000D01*
X84071803Y-51338571D01*
X84100375Y-51395714D01*
X84100375Y-51452857D01*
X84071803Y-51538571D01*
X83728946Y-51881428D01*
X84100375Y-51881428D01*
%TO.C,U1*%
X92295357Y-45238428D02*
X92295357Y-45724142D01*
X92323928Y-45781285D01*
X92352500Y-45809857D01*
X92409642Y-45838428D01*
X92523928Y-45838428D01*
X92581071Y-45809857D01*
X92609642Y-45781285D01*
X92638214Y-45724142D01*
X92638214Y-45238428D01*
X93238214Y-45838428D02*
X92895357Y-45838428D01*
X93066785Y-45838428D02*
X93066785Y-45238428D01*
X93009642Y-45324142D01*
X92952500Y-45381285D01*
X92895357Y-45409857D01*
%TO.C,C10*%
X64409285Y-77959285D02*
X64380714Y-77987857D01*
X64295000Y-78016428D01*
X64237857Y-78016428D01*
X64152142Y-77987857D01*
X64095000Y-77930714D01*
X64066428Y-77873571D01*
X64037857Y-77759285D01*
X64037857Y-77673571D01*
X64066428Y-77559285D01*
X64095000Y-77502142D01*
X64152142Y-77445000D01*
X64237857Y-77416428D01*
X64295000Y-77416428D01*
X64380714Y-77445000D01*
X64409285Y-77473571D01*
X64980714Y-78016428D02*
X64637857Y-78016428D01*
X64809285Y-78016428D02*
X64809285Y-77416428D01*
X64752142Y-77502142D01*
X64695000Y-77559285D01*
X64637857Y-77587857D01*
X65352142Y-77416428D02*
X65409285Y-77416428D01*
X65466428Y-77445000D01*
X65495000Y-77473571D01*
X65523571Y-77530714D01*
X65552142Y-77645000D01*
X65552142Y-77787857D01*
X65523571Y-77902142D01*
X65495000Y-77959285D01*
X65466428Y-77987857D01*
X65409285Y-78016428D01*
X65352142Y-78016428D01*
X65295000Y-77987857D01*
X65266428Y-77959285D01*
X65237857Y-77902142D01*
X65209285Y-77787857D01*
X65209285Y-77645000D01*
X65237857Y-77530714D01*
X65266428Y-77473571D01*
X65295000Y-77445000D01*
X65352142Y-77416428D01*
%TO.C,LED1*%
X104441071Y-61951428D02*
X104155357Y-61951428D01*
X104155357Y-61351428D01*
X104641071Y-61637142D02*
X104841071Y-61637142D01*
X104926785Y-61951428D02*
X104641071Y-61951428D01*
X104641071Y-61351428D01*
X104926785Y-61351428D01*
X105183928Y-61951428D02*
X105183928Y-61351428D01*
X105326785Y-61351428D01*
X105412500Y-61380000D01*
X105469642Y-61437142D01*
X105498214Y-61494285D01*
X105526785Y-61608571D01*
X105526785Y-61694285D01*
X105498214Y-61808571D01*
X105469642Y-61865714D01*
X105412500Y-61922857D01*
X105326785Y-61951428D01*
X105183928Y-61951428D01*
X106098214Y-61951428D02*
X105755357Y-61951428D01*
X105926785Y-61951428D02*
X105926785Y-61351428D01*
X105869642Y-61437142D01*
X105812500Y-61494285D01*
X105755357Y-61522857D01*
%TO.C,C21*%
X59614285Y-67294285D02*
X59585714Y-67322857D01*
X59500000Y-67351428D01*
X59442857Y-67351428D01*
X59357142Y-67322857D01*
X59300000Y-67265714D01*
X59271428Y-67208571D01*
X59242857Y-67094285D01*
X59242857Y-67008571D01*
X59271428Y-66894285D01*
X59300000Y-66837142D01*
X59357142Y-66780000D01*
X59442857Y-66751428D01*
X59500000Y-66751428D01*
X59585714Y-66780000D01*
X59614285Y-66808571D01*
X59842857Y-66808571D02*
X59871428Y-66780000D01*
X59928571Y-66751428D01*
X60071428Y-66751428D01*
X60128571Y-66780000D01*
X60157142Y-66808571D01*
X60185714Y-66865714D01*
X60185714Y-66922857D01*
X60157142Y-67008571D01*
X59814285Y-67351428D01*
X60185714Y-67351428D01*
X60757142Y-67351428D02*
X60414285Y-67351428D01*
X60585714Y-67351428D02*
X60585714Y-66751428D01*
X60528571Y-66837142D01*
X60471428Y-66894285D01*
X60414285Y-66922857D01*
%TO.C,C14*%
X72647685Y-76153285D02*
X72619114Y-76181857D01*
X72533400Y-76210428D01*
X72476257Y-76210428D01*
X72390542Y-76181857D01*
X72333400Y-76124714D01*
X72304828Y-76067571D01*
X72276257Y-75953285D01*
X72276257Y-75867571D01*
X72304828Y-75753285D01*
X72333400Y-75696142D01*
X72390542Y-75639000D01*
X72476257Y-75610428D01*
X72533400Y-75610428D01*
X72619114Y-75639000D01*
X72647685Y-75667571D01*
X73219114Y-76210428D02*
X72876257Y-76210428D01*
X73047685Y-76210428D02*
X73047685Y-75610428D01*
X72990542Y-75696142D01*
X72933400Y-75753285D01*
X72876257Y-75781857D01*
X73733400Y-75810428D02*
X73733400Y-76210428D01*
X73590542Y-75581857D02*
X73447685Y-76010428D01*
X73819114Y-76010428D01*
%TO.C,SW3*%
X101550375Y-51852857D02*
X101636089Y-51881428D01*
X101778946Y-51881428D01*
X101836089Y-51852857D01*
X101864660Y-51824285D01*
X101893232Y-51767142D01*
X101893232Y-51710000D01*
X101864660Y-51652857D01*
X101836089Y-51624285D01*
X101778946Y-51595714D01*
X101664660Y-51567142D01*
X101607517Y-51538571D01*
X101578946Y-51510000D01*
X101550375Y-51452857D01*
X101550375Y-51395714D01*
X101578946Y-51338571D01*
X101607517Y-51310000D01*
X101664660Y-51281428D01*
X101807517Y-51281428D01*
X101893232Y-51310000D01*
X102093232Y-51281428D02*
X102236089Y-51881428D01*
X102350375Y-51452857D01*
X102464660Y-51881428D01*
X102607517Y-51281428D01*
X102778946Y-51281428D02*
X103150375Y-51281428D01*
X102950375Y-51510000D01*
X103036089Y-51510000D01*
X103093232Y-51538571D01*
X103121803Y-51567142D01*
X103150375Y-51624285D01*
X103150375Y-51767142D01*
X103121803Y-51824285D01*
X103093232Y-51852857D01*
X103036089Y-51881428D01*
X102864660Y-51881428D01*
X102807517Y-51852857D01*
X102778946Y-51824285D01*
%TO.C,R2*%
X65313053Y-83121450D02*
X65027339Y-83321450D01*
X65313053Y-83464307D02*
X64713053Y-83464307D01*
X64713053Y-83235735D01*
X64741625Y-83178592D01*
X64770196Y-83150021D01*
X64827339Y-83121450D01*
X64913053Y-83121450D01*
X64970196Y-83150021D01*
X64998767Y-83178592D01*
X65027339Y-83235735D01*
X65027339Y-83464307D01*
X64770196Y-82892878D02*
X64741625Y-82864307D01*
X64713053Y-82807164D01*
X64713053Y-82664307D01*
X64741625Y-82607164D01*
X64770196Y-82578592D01*
X64827339Y-82550021D01*
X64884482Y-82550021D01*
X64970196Y-82578592D01*
X65313053Y-82921450D01*
X65313053Y-82550021D01*
%TO.C,C15*%
X85623660Y-82206464D02*
X85652232Y-82235035D01*
X85680803Y-82320750D01*
X85680803Y-82377892D01*
X85652232Y-82463607D01*
X85595089Y-82520750D01*
X85537946Y-82549321D01*
X85423660Y-82577892D01*
X85337946Y-82577892D01*
X85223660Y-82549321D01*
X85166517Y-82520750D01*
X85109375Y-82463607D01*
X85080803Y-82377892D01*
X85080803Y-82320750D01*
X85109375Y-82235035D01*
X85137946Y-82206464D01*
X85680803Y-81635035D02*
X85680803Y-81977892D01*
X85680803Y-81806464D02*
X85080803Y-81806464D01*
X85166517Y-81863607D01*
X85223660Y-81920750D01*
X85252232Y-81977892D01*
X85080803Y-81092178D02*
X85080803Y-81377892D01*
X85366517Y-81406464D01*
X85337946Y-81377892D01*
X85309375Y-81320750D01*
X85309375Y-81177892D01*
X85337946Y-81120750D01*
X85366517Y-81092178D01*
X85423660Y-81063607D01*
X85566517Y-81063607D01*
X85623660Y-81092178D01*
X85652232Y-81120750D01*
X85680803Y-81177892D01*
X85680803Y-81320750D01*
X85652232Y-81377892D01*
X85623660Y-81406464D01*
%TO.C,J1*%
X77050000Y-44171428D02*
X77050000Y-44600000D01*
X77021428Y-44685714D01*
X76964285Y-44742857D01*
X76878571Y-44771428D01*
X76821428Y-44771428D01*
X77650000Y-44771428D02*
X77307142Y-44771428D01*
X77478571Y-44771428D02*
X77478571Y-44171428D01*
X77421428Y-44257142D01*
X77364285Y-44314285D01*
X77307142Y-44342857D01*
D11*
%TO.C,LED3*%
X68050375Y-63790000D02*
X68050375Y-62790000D01*
X68050375Y-62790000D02*
X67150375Y-62790000D01*
%TO.C,C16*%
X75302836Y-70268200D02*
X75087164Y-70268200D01*
X75302836Y-70988200D02*
X75087164Y-70988200D01*
%TO.C,R9*%
X89426250Y-74051359D02*
X89426250Y-74358641D01*
X88666250Y-74051359D02*
X88666250Y-74358641D01*
%TO.C,R7*%
X102276359Y-75600000D02*
X102583641Y-75600000D01*
X102276359Y-74840000D02*
X102583641Y-74840000D01*
%TO.C,U4*%
X86890000Y-79468750D02*
X86890000Y-80118750D01*
X79670000Y-73548750D02*
X79670000Y-72898750D01*
X86890000Y-80118750D02*
X86240000Y-80118750D01*
X79670000Y-72898750D02*
X80320000Y-72898750D01*
X86890000Y-72898750D02*
X86240000Y-72898750D01*
X86890000Y-73548750D02*
X86890000Y-72898750D01*
X79670000Y-79468750D02*
X79670000Y-80118750D01*
%TO.C,R1*%
X85726000Y-46328359D02*
X85726000Y-46635641D01*
X86486000Y-46328359D02*
X86486000Y-46635641D01*
%TO.C,U3*%
X74105000Y-83265000D02*
X74105000Y-83005000D01*
X74105000Y-77815000D02*
X74105000Y-78075000D01*
X71380000Y-77815000D02*
X68655000Y-77815000D01*
X71380000Y-83265000D02*
X68655000Y-83265000D01*
X71380000Y-77815000D02*
X74105000Y-77815000D01*
X68655000Y-83265000D02*
X68655000Y-83005000D01*
X68655000Y-77815000D02*
X68655000Y-78075000D01*
X68655000Y-78075000D02*
X66980000Y-78075000D01*
X71380000Y-83265000D02*
X74105000Y-83265000D01*
%TO.C,C7*%
X92558414Y-73785000D02*
X92774086Y-73785000D01*
X92558414Y-73065000D02*
X92774086Y-73065000D01*
%TO.C,C12*%
X84624250Y-71397836D02*
X84624250Y-71182164D01*
X83904250Y-71397836D02*
X83904250Y-71182164D01*
%TO.C,Y1*%
X93606250Y-76715000D02*
X90306250Y-76715000D01*
X90306250Y-76715000D02*
X90306250Y-80715000D01*
%TO.C,C9*%
X80306250Y-71226836D02*
X80306250Y-71011164D01*
X79586250Y-71226836D02*
X79586250Y-71011164D01*
%TO.C,C17*%
X107607836Y-74852000D02*
X107392164Y-74852000D01*
X107607836Y-75572000D02*
X107392164Y-75572000D01*
%TO.C,C3*%
X93880000Y-47152164D02*
X93880000Y-47367836D01*
X94600000Y-47152164D02*
X94600000Y-47367836D01*
%TO.C,C8*%
X75302836Y-72055000D02*
X75087164Y-72055000D01*
X75302836Y-71335000D02*
X75087164Y-71335000D01*
%TO.C,C1*%
X80333375Y-81740914D02*
X80333375Y-81956586D01*
X81053375Y-81740914D02*
X81053375Y-81956586D01*
%TO.C,C6*%
X75302836Y-77315000D02*
X75087164Y-77315000D01*
X75302836Y-76595000D02*
X75087164Y-76595000D01*
%TO.C,C2*%
X90779864Y-49894600D02*
X90995536Y-49894600D01*
X90779864Y-50614600D02*
X90995536Y-50614600D01*
%TO.C,D1*%
X101875375Y-68842500D02*
X101875375Y-69992500D01*
X109175375Y-74342500D02*
X101875375Y-74342500D01*
X109175375Y-68842500D02*
X101875375Y-68842500D01*
%TO.C,R6*%
X75356141Y-73642850D02*
X75048859Y-73642850D01*
X75356141Y-72882850D02*
X75048859Y-72882850D01*
%TO.C,C18*%
X65137500Y-72830336D02*
X65137500Y-72614664D01*
X65857500Y-72830336D02*
X65857500Y-72614664D01*
%TO.C,R4*%
X63390000Y-81146359D02*
X63390000Y-81453641D01*
X64150000Y-81146359D02*
X64150000Y-81453641D01*
%TO.C,C19*%
X99952789Y-67444000D02*
X100168461Y-67444000D01*
X99952789Y-66724000D02*
X100168461Y-66724000D01*
%TO.C,C11*%
X92558414Y-74185000D02*
X92774086Y-74185000D01*
X92558414Y-74905000D02*
X92774086Y-74905000D01*
%TO.C,J2*%
X59760000Y-80090000D02*
X59760000Y-82690000D01*
X59760000Y-80090000D02*
X62420000Y-80090000D01*
X62420000Y-80090000D02*
X62420000Y-82690000D01*
X59760000Y-78820000D02*
X59760000Y-77490000D01*
X59760000Y-77490000D02*
X61090000Y-77490000D01*
X59760000Y-82690000D02*
X62420000Y-82690000D01*
%TO.C,C13*%
X78316250Y-71226836D02*
X78316250Y-71011164D01*
X79036250Y-71226836D02*
X79036250Y-71011164D01*
%TO.C,R5*%
X75356141Y-74811250D02*
X75048859Y-74811250D01*
X75356141Y-74051250D02*
X75048859Y-74051250D01*
%TO.C,C4*%
X92774086Y-76205000D02*
X92558414Y-76205000D01*
X92774086Y-75485000D02*
X92558414Y-75485000D01*
%TO.C,R8*%
X104426359Y-67520000D02*
X104733641Y-67520000D01*
X104426359Y-66760000D02*
X104733641Y-66760000D01*
%TO.C,D2*%
X57016375Y-68842500D02*
X57016375Y-69992500D01*
X64316375Y-74342500D02*
X57016375Y-74342500D01*
X64316375Y-68842500D02*
X57016375Y-68842500D01*
%TO.C,R3*%
X81025000Y-46330359D02*
X81025000Y-46637641D01*
X80265000Y-46330359D02*
X80265000Y-46637641D01*
%TO.C,C20*%
X80902789Y-66724000D02*
X81118461Y-66724000D01*
X80902789Y-67444000D02*
X81118461Y-67444000D01*
%TO.C,LED2*%
X87100375Y-62790000D02*
X86200375Y-62790000D01*
X87100375Y-63790000D02*
X87100375Y-62790000D01*
%TO.C,U2*%
X83343750Y-49693000D02*
X82543750Y-49693000D01*
X81243750Y-47183000D02*
X81243750Y-46573000D01*
X83343750Y-49693000D02*
X84143750Y-49693000D01*
X81243750Y-46573000D02*
X84143750Y-46573000D01*
%TO.C,C5*%
X92548414Y-82050000D02*
X92764086Y-82050000D01*
X92548414Y-81330000D02*
X92764086Y-81330000D01*
D10*
%TO.C,SW1*%
X59435551Y-52459780D02*
X59435551Y-52689780D01*
X59435551Y-55539780D02*
X59435551Y-56509780D01*
X68335551Y-52459780D02*
X62435551Y-52459780D01*
X70335551Y-58109780D02*
X70335551Y-58349780D01*
X70335551Y-55259780D02*
X70335551Y-54459780D01*
X59435551Y-56509780D02*
X64535551Y-56509780D01*
X60935551Y-52459780D02*
X59435551Y-52459780D01*
X66821191Y-58336262D02*
G75*
G03*
X64535551Y-56509780I-2570816J-873738D01*
G01*
X70335545Y-54459780D02*
G75*
G03*
X68335551Y-52459780I-1999990J10D01*
G01*
%TO.C,SW2*%
X78485551Y-55539780D02*
X78485551Y-56509780D01*
X78485551Y-56509780D02*
X83585551Y-56509780D01*
X89385551Y-55259780D02*
X89385551Y-54459780D01*
X89385551Y-58109780D02*
X89385551Y-58349780D01*
X79985551Y-52459780D02*
X78485551Y-52459780D01*
X87385551Y-52459780D02*
X81485551Y-52459780D01*
X78485551Y-52459780D02*
X78485551Y-52689780D01*
X89385545Y-54459780D02*
G75*
G03*
X87385551Y-52459780I-1999990J10D01*
G01*
X85871191Y-58336262D02*
G75*
G03*
X83585551Y-56509780I-2570816J-873738D01*
G01*
D11*
%TO.C,U1*%
X91340000Y-49300000D02*
X93015000Y-49300000D01*
X91340000Y-49300000D02*
X90690000Y-49300000D01*
X91340000Y-46180000D02*
X90690000Y-46180000D01*
X91340000Y-46180000D02*
X91990000Y-46180000D01*
%TO.C,C10*%
X64787836Y-78460000D02*
X64572164Y-78460000D01*
X64787836Y-79180000D02*
X64572164Y-79180000D01*
%TO.C,LED1*%
X106150375Y-62790000D02*
X105250375Y-62790000D01*
X106150375Y-63790000D02*
X106150375Y-62790000D01*
%TO.C,C21*%
X61852789Y-66724000D02*
X62068461Y-66724000D01*
X61852789Y-67444000D02*
X62068461Y-67444000D01*
%TO.C,C14*%
X75302836Y-75579000D02*
X75087164Y-75579000D01*
X75302836Y-76299000D02*
X75087164Y-76299000D01*
D10*
%TO.C,SW3*%
X97535551Y-56509780D02*
X102635551Y-56509780D01*
X99035551Y-52459780D02*
X97535551Y-52459780D01*
X106435551Y-52459780D02*
X100535551Y-52459780D01*
X108435551Y-55259780D02*
X108435551Y-54459780D01*
X97535551Y-55539780D02*
X97535551Y-56509780D01*
X108435551Y-58109780D02*
X108435551Y-58349780D01*
X97535551Y-52459780D02*
X97535551Y-52689780D01*
X104921191Y-58336262D02*
G75*
G03*
X102635551Y-56509780I-2570816J-873738D01*
G01*
X108435545Y-54459780D02*
G75*
G03*
X106435551Y-52459780I-1999990J10D01*
G01*
D11*
%TO.C,R2*%
X64661625Y-81449891D02*
X64661625Y-81142609D01*
X65421625Y-81449891D02*
X65421625Y-81142609D01*
%TO.C,C15*%
X83889375Y-81712914D02*
X83889375Y-81928586D01*
X84609375Y-81712914D02*
X84609375Y-81928586D01*
%TO.C,J1*%
X78643750Y-41587500D02*
X78643750Y-39587500D01*
X88043750Y-35787500D02*
X78643750Y-35787500D01*
X88043750Y-41587500D02*
X88043750Y-39587500D01*
X78643750Y-37687500D02*
X78643750Y-35787500D01*
X88043750Y-37687500D02*
X88043750Y-35787500D01*
%TD*%
%LPC*%
D12*
%TO.C,LED3*%
X61525375Y-65040000D03*
X61525375Y-63540000D03*
X66975375Y-65040000D03*
D13*
X66975375Y-63540000D03*
%TD*%
D14*
%TO.C,C16*%
X75675000Y-70628200D03*
X74715000Y-70628200D03*
%TD*%
D15*
%TO.C,R9*%
X89046250Y-73695000D03*
X89046250Y-74715000D03*
%TD*%
D16*
%TO.C,R7*%
X101920000Y-75220000D03*
X102940000Y-75220000D03*
%TD*%
D17*
%TO.C,U4*%
X80680000Y-79946250D03*
X81080000Y-79946250D03*
X81480000Y-79946250D03*
X81880000Y-79946250D03*
X82280000Y-79946250D03*
X82680000Y-79946250D03*
X83080000Y-79946250D03*
X83480000Y-79946250D03*
X83880000Y-79946250D03*
X84280000Y-79946250D03*
X84680000Y-79946250D03*
X85080000Y-79946250D03*
X85480000Y-79946250D03*
X85880000Y-79946250D03*
D18*
X86717500Y-79108750D03*
X86717500Y-78708750D03*
X86717500Y-78308750D03*
X86717500Y-77908750D03*
X86717500Y-77508750D03*
X86717500Y-77108750D03*
X86717500Y-76708750D03*
X86717500Y-76308750D03*
X86717500Y-75908750D03*
X86717500Y-75508750D03*
X86717500Y-75108750D03*
X86717500Y-74708750D03*
X86717500Y-74308750D03*
X86717500Y-73908750D03*
D17*
X85880000Y-73071250D03*
X85480000Y-73071250D03*
X85080000Y-73071250D03*
X84680000Y-73071250D03*
X84280000Y-73071250D03*
X83880000Y-73071250D03*
X83480000Y-73071250D03*
X83080000Y-73071250D03*
X82680000Y-73071250D03*
X82280000Y-73071250D03*
X81880000Y-73071250D03*
X81480000Y-73071250D03*
X81080000Y-73071250D03*
X80680000Y-73071250D03*
D18*
X79842500Y-73908750D03*
X79842500Y-74308750D03*
X79842500Y-74708750D03*
X79842500Y-75108750D03*
X79842500Y-75508750D03*
X79842500Y-75908750D03*
X79842500Y-76308750D03*
X79842500Y-76708750D03*
X79842500Y-77108750D03*
X79842500Y-77508750D03*
X79842500Y-77908750D03*
X79842500Y-78308750D03*
X79842500Y-78708750D03*
X79842500Y-79108750D03*
D19*
X83280000Y-76508750D03*
%TD*%
D15*
%TO.C,R1*%
X86106000Y-45972000D03*
X86106000Y-46992000D03*
%TD*%
D20*
%TO.C,U3*%
X67780000Y-78635000D03*
X67780000Y-79905000D03*
X67780000Y-81175000D03*
X67780000Y-82445000D03*
X74980000Y-82445000D03*
X74980000Y-81175000D03*
X74980000Y-79905000D03*
X74980000Y-78635000D03*
%TD*%
D21*
%TO.C,C7*%
X92186250Y-73425000D03*
X93146250Y-73425000D03*
%TD*%
D22*
%TO.C,C12*%
X84264250Y-71770000D03*
X84264250Y-70810000D03*
%TD*%
D23*
%TO.C,Y1*%
X91106250Y-77615000D03*
X91106250Y-79815000D03*
X92806250Y-79815000D03*
X92806250Y-77615000D03*
%TD*%
D22*
%TO.C,C9*%
X79946250Y-71599000D03*
X79946250Y-70639000D03*
%TD*%
D14*
%TO.C,C17*%
X107980000Y-75212000D03*
X107020000Y-75212000D03*
%TD*%
D24*
%TO.C,C3*%
X94240000Y-46780000D03*
X94240000Y-47740000D03*
%TD*%
D14*
%TO.C,C8*%
X75675000Y-71695000D03*
X74715000Y-71695000D03*
%TD*%
D24*
%TO.C,C1*%
X80693375Y-81368750D03*
X80693375Y-82328750D03*
%TD*%
D14*
%TO.C,C6*%
X75675000Y-76955000D03*
X74715000Y-76955000D03*
%TD*%
D21*
%TO.C,C2*%
X90407700Y-50254600D03*
X91367700Y-50254600D03*
%TD*%
D25*
%TO.C,D1*%
X107975375Y-73192500D03*
X107975375Y-69992500D03*
X103075375Y-69992500D03*
X103075375Y-73192500D03*
%TD*%
D26*
%TO.C,R6*%
X75712500Y-73262850D03*
X74692500Y-73262850D03*
%TD*%
D22*
%TO.C,C18*%
X65497500Y-73202500D03*
X65497500Y-72242500D03*
%TD*%
D15*
%TO.C,R4*%
X63770000Y-80790000D03*
X63770000Y-81810000D03*
%TD*%
D21*
%TO.C,C19*%
X99580625Y-67084000D03*
X100540625Y-67084000D03*
%TD*%
%TO.C,C11*%
X92186250Y-74545000D03*
X93146250Y-74545000D03*
%TD*%
D27*
%TO.C,F1*%
X88519000Y-46732000D03*
X88519000Y-47702000D03*
%TD*%
D28*
%TO.C,J2*%
X61090000Y-78820000D03*
D29*
X61090000Y-81360000D03*
%TD*%
D22*
%TO.C,C13*%
X78676250Y-71599000D03*
X78676250Y-70639000D03*
%TD*%
D26*
%TO.C,R5*%
X75712500Y-74431250D03*
X74692500Y-74431250D03*
%TD*%
D14*
%TO.C,C4*%
X93146250Y-75845000D03*
X92186250Y-75845000D03*
%TD*%
D16*
%TO.C,R8*%
X104070000Y-67140000D03*
X105090000Y-67140000D03*
%TD*%
D25*
%TO.C,D2*%
X63116375Y-73192500D03*
X63116375Y-69992500D03*
X58216375Y-69992500D03*
X58216375Y-73192500D03*
%TD*%
D15*
%TO.C,R3*%
X80645000Y-45974000D03*
X80645000Y-46994000D03*
%TD*%
D21*
%TO.C,C20*%
X80530625Y-67084000D03*
X81490625Y-67084000D03*
%TD*%
D12*
%TO.C,LED2*%
X80575375Y-65040000D03*
X80575375Y-63540000D03*
X86025375Y-65040000D03*
D13*
X86025375Y-63540000D03*
%TD*%
D30*
%TO.C,U2*%
X82168750Y-47183000D03*
X82168750Y-48133000D03*
X82093750Y-49083000D03*
X84518750Y-49083000D03*
X84518750Y-48133000D03*
X84518750Y-47183000D03*
%TD*%
D21*
%TO.C,C5*%
X92176250Y-81690000D03*
X93136250Y-81690000D03*
%TD*%
D31*
%TO.C,SW1*%
X59170375Y-59210000D03*
X69330375Y-59210000D03*
D32*
X64250375Y-59210000D03*
D33*
X68060375Y-56670000D03*
D34*
X71610375Y-56670000D03*
D33*
X61710375Y-54130000D03*
D34*
X58160375Y-54130000D03*
%TD*%
D31*
%TO.C,SW2*%
X88380375Y-59210000D03*
X78220375Y-59210000D03*
D32*
X83300375Y-59210000D03*
D34*
X90660375Y-56670000D03*
D33*
X87110375Y-56670000D03*
D34*
X77210375Y-54130000D03*
D33*
X80760375Y-54130000D03*
%TD*%
D35*
%TO.C,U1*%
X92277500Y-48690000D03*
X92277500Y-46790000D03*
X90402500Y-47740000D03*
%TD*%
D14*
%TO.C,C10*%
X65160000Y-78820000D03*
X64200000Y-78820000D03*
%TD*%
D12*
%TO.C,LED1*%
X99625375Y-65040000D03*
X99625375Y-63540000D03*
X105075375Y-65040000D03*
D13*
X105075375Y-63540000D03*
%TD*%
D21*
%TO.C,C21*%
X61480625Y-67084000D03*
X62440625Y-67084000D03*
%TD*%
D14*
%TO.C,C14*%
X75675000Y-75939000D03*
X74715000Y-75939000D03*
%TD*%
D31*
%TO.C,SW3*%
X107430375Y-59210000D03*
D32*
X102350375Y-59210000D03*
D31*
X97270375Y-59210000D03*
D34*
X109710375Y-56670000D03*
D33*
X106160375Y-56670000D03*
X99810375Y-54130000D03*
D34*
X96260375Y-54130000D03*
%TD*%
D36*
%TO.C,R2*%
X65041625Y-81806250D03*
X65041625Y-80786250D03*
%TD*%
D24*
%TO.C,C15*%
X84249375Y-81340750D03*
X84249375Y-82300750D03*
%TD*%
D37*
%TO.C,J1*%
X86233750Y-42287500D03*
X80453750Y-42287500D03*
D38*
X86593750Y-43732500D03*
X85793750Y-43732500D03*
D39*
X84593750Y-43732500D03*
X83593750Y-43732500D03*
X83093750Y-43732500D03*
X82093750Y-43732500D03*
D38*
X80893750Y-43732500D03*
X80093750Y-43732500D03*
X80093750Y-43732500D03*
X80893750Y-43732500D03*
D39*
X81593750Y-43732500D03*
X82593750Y-43732500D03*
X84093750Y-43732500D03*
X85093750Y-43732500D03*
D38*
X85793750Y-43732500D03*
X86593750Y-43732500D03*
D40*
X79023750Y-38637500D03*
X87663750Y-38637500D03*
D41*
X79023750Y-42817500D03*
X87663750Y-42817500D03*
%TD*%
M02*
