%TF.GenerationSoftware,KiCad,Pcbnew,(6.0.5)*%
%TF.CreationDate,2022-05-27T15:03:32+08:00*%
%TF.ProjectId,RP2040-3k,52503230-3430-42d3-936b-2e6b69636164,rev?*%
%TF.SameCoordinates,Original*%
%TF.FileFunction,Legend,Bot*%
%TF.FilePolarity,Positive*%
%FSLAX46Y46*%
G04 Gerber Fmt 4.6, Leading zero omitted, Abs format (unit mm)*
G04 Created by KiCad (PCBNEW (6.0.5)) date 2022-05-27 15:03:32*
%MOMM*%
%LPD*%
G01*
G04 APERTURE LIST*
%ADD10C,0.150000*%
%ADD11O,1.700000X1.700000*%
%ADD12R,1.700000X1.700000*%
%ADD13C,1.750000*%
%ADD14C,3.987800*%
%ADD15C,3.300000*%
%ADD16C,0.650000*%
%ADD17O,1.000000X1.600000*%
%ADD18O,1.000000X2.100000*%
G04 APERTURE END LIST*
D10*
X98929047Y-80533928D02*
X98167142Y-80533928D01*
X98643333Y-79867261D02*
X98643333Y-81581547D01*
X98548095Y-81772023D01*
X98357619Y-81867261D01*
X98167142Y-81867261D01*
X97500476Y-81867261D02*
X97500476Y-79867261D01*
X97310000Y-81105357D02*
X96738571Y-81867261D01*
X96738571Y-80533928D02*
X97500476Y-81295833D01*
X95881428Y-81867261D02*
X95881428Y-79867261D01*
X95690952Y-81105357D02*
X95119523Y-81867261D01*
X95119523Y-80533928D02*
X95881428Y-81295833D01*
X94262380Y-80533928D02*
X94262380Y-82533928D01*
X94262380Y-80629166D02*
X94071904Y-80533928D01*
X93690952Y-80533928D01*
X93500476Y-80629166D01*
X93405238Y-80724404D01*
X93310000Y-80914880D01*
X93310000Y-81486309D01*
X93405238Y-81676785D01*
X93500476Y-81772023D01*
X93690952Y-81867261D01*
X94071904Y-81867261D01*
X94262380Y-81772023D01*
X91595714Y-81867261D02*
X91595714Y-80819642D01*
X91690952Y-80629166D01*
X91881428Y-80533928D01*
X92262380Y-80533928D01*
X92452857Y-80629166D01*
X91595714Y-81772023D02*
X91786190Y-81867261D01*
X92262380Y-81867261D01*
X92452857Y-81772023D01*
X92548095Y-81581547D01*
X92548095Y-81391071D01*
X92452857Y-81200595D01*
X92262380Y-81105357D01*
X91786190Y-81105357D01*
X91595714Y-81010119D01*
X89786190Y-81867261D02*
X89786190Y-79867261D01*
X89786190Y-81772023D02*
X89976666Y-81867261D01*
X90357619Y-81867261D01*
X90548095Y-81772023D01*
X90643333Y-81676785D01*
X90738571Y-81486309D01*
X90738571Y-80914880D01*
X90643333Y-80724404D01*
X90548095Y-80629166D01*
X90357619Y-80533928D01*
X89976666Y-80533928D01*
X89786190Y-80629166D01*
X87310000Y-80533928D02*
X87310000Y-82533928D01*
X87310000Y-80629166D02*
X87119523Y-80533928D01*
X86738571Y-80533928D01*
X86548095Y-80629166D01*
X86452857Y-80724404D01*
X86357619Y-80914880D01*
X86357619Y-81486309D01*
X86452857Y-81676785D01*
X86548095Y-81772023D01*
X86738571Y-81867261D01*
X87119523Y-81867261D01*
X87310000Y-81772023D01*
X85500476Y-81867261D02*
X85500476Y-80533928D01*
X85500476Y-80914880D02*
X85405238Y-80724404D01*
X85310000Y-80629166D01*
X85119523Y-80533928D01*
X84929047Y-80533928D01*
X83976666Y-81867261D02*
X84167142Y-81772023D01*
X84262380Y-81676785D01*
X84357619Y-81486309D01*
X84357619Y-80914880D01*
X84262380Y-80724404D01*
X84167142Y-80629166D01*
X83976666Y-80533928D01*
X83690952Y-80533928D01*
X83500476Y-80629166D01*
X83405238Y-80724404D01*
X83310000Y-80914880D01*
X83310000Y-81486309D01*
X83405238Y-81676785D01*
X83500476Y-81772023D01*
X83690952Y-81867261D01*
X83976666Y-81867261D01*
X82738571Y-80533928D02*
X81976666Y-80533928D01*
X82452857Y-79867261D02*
X82452857Y-81581547D01*
X82357619Y-81772023D01*
X82167142Y-81867261D01*
X81976666Y-81867261D01*
X81024285Y-81867261D02*
X81214761Y-81772023D01*
X81310000Y-81676785D01*
X81405238Y-81486309D01*
X81405238Y-80914880D01*
X81310000Y-80724404D01*
X81214761Y-80629166D01*
X81024285Y-80533928D01*
X80738571Y-80533928D01*
X80548095Y-80629166D01*
X80452857Y-80724404D01*
X80357619Y-80914880D01*
X80357619Y-81486309D01*
X80452857Y-81676785D01*
X80548095Y-81772023D01*
X80738571Y-81867261D01*
X81024285Y-81867261D01*
X79786190Y-80533928D02*
X79024285Y-80533928D01*
X79500476Y-79867261D02*
X79500476Y-81581547D01*
X79405238Y-81772023D01*
X79214761Y-81867261D01*
X79024285Y-81867261D01*
X78548095Y-80533928D02*
X78071904Y-81867261D01*
X77595714Y-80533928D02*
X78071904Y-81867261D01*
X78262380Y-82343452D01*
X78357619Y-82438690D01*
X78548095Y-82533928D01*
X76833809Y-80533928D02*
X76833809Y-82533928D01*
X76833809Y-80629166D02*
X76643333Y-80533928D01*
X76262380Y-80533928D01*
X76071904Y-80629166D01*
X75976666Y-80724404D01*
X75881428Y-80914880D01*
X75881428Y-81486309D01*
X75976666Y-81676785D01*
X76071904Y-81772023D01*
X76262380Y-81867261D01*
X76643333Y-81867261D01*
X76833809Y-81772023D01*
X74262380Y-81772023D02*
X74452857Y-81867261D01*
X74833809Y-81867261D01*
X75024285Y-81772023D01*
X75119523Y-81581547D01*
X75119523Y-80819642D01*
X75024285Y-80629166D01*
X74833809Y-80533928D01*
X74452857Y-80533928D01*
X74262380Y-80629166D01*
X74167142Y-80819642D01*
X74167142Y-81010119D01*
X75119523Y-81200595D01*
X70738571Y-81867261D02*
X71881428Y-81867261D01*
X71310000Y-81867261D02*
X71310000Y-79867261D01*
X71500476Y-80152976D01*
X71690952Y-80343452D01*
X71881428Y-80438690D01*
X69881428Y-81676785D02*
X69786190Y-81772023D01*
X69881428Y-81867261D01*
X69976666Y-81772023D01*
X69881428Y-81676785D01*
X69881428Y-81867261D01*
X68548095Y-79867261D02*
X68357619Y-79867261D01*
X68167142Y-79962500D01*
X68071904Y-80057738D01*
X67976666Y-80248214D01*
X67881428Y-80629166D01*
X67881428Y-81105357D01*
X67976666Y-81486309D01*
X68071904Y-81676785D01*
X68167142Y-81772023D01*
X68357619Y-81867261D01*
X68548095Y-81867261D01*
X68738571Y-81772023D01*
X68833809Y-81676785D01*
X68929047Y-81486309D01*
X69024285Y-81105357D01*
X69024285Y-80629166D01*
X68929047Y-80248214D01*
X68833809Y-80057738D01*
X68738571Y-79962500D01*
X68548095Y-79867261D01*
%LPC*%
D11*
%TO.C,J2*%
X61090000Y-81360000D03*
D12*
X61090000Y-78820000D03*
%TD*%
D13*
%TO.C,SW1*%
X59170375Y-59210000D03*
X69330375Y-59210000D03*
D14*
X64250375Y-59210000D03*
D15*
X68060375Y-56670000D03*
X61710375Y-54130000D03*
%TD*%
D13*
%TO.C,SW2*%
X88380375Y-59210000D03*
X78220375Y-59210000D03*
D14*
X83300375Y-59210000D03*
D15*
X87110375Y-56670000D03*
X80760375Y-54130000D03*
%TD*%
D13*
%TO.C,SW3*%
X107430375Y-59210000D03*
D14*
X102350375Y-59210000D03*
D13*
X97270375Y-59210000D03*
D15*
X106160375Y-56670000D03*
X99810375Y-54130000D03*
%TD*%
D16*
%TO.C,J1*%
X86233750Y-42287500D03*
X80453750Y-42287500D03*
D17*
X79023750Y-38637500D03*
X87663750Y-38637500D03*
D18*
X79023750Y-42817500D03*
X87663750Y-42817500D03*
%TD*%
M02*
