%TF.GenerationSoftware,KiCad,Pcbnew,(6.0.5)*%
%TF.CreationDate,2022-07-04T16:26:11+08:00*%
%TF.ProjectId,RP2040-3k,52503230-3430-42d3-936b-2e6b69636164,rev?*%
%TF.SameCoordinates,Original*%
%TF.FileFunction,Copper,L2,Bot*%
%TF.FilePolarity,Positive*%
%FSLAX46Y46*%
G04 Gerber Fmt 4.6, Leading zero omitted, Abs format (unit mm)*
G04 Created by KiCad (PCBNEW (6.0.5)) date 2022-07-04 16:26:11*
%MOMM*%
%LPD*%
G01*
G04 APERTURE LIST*
%TA.AperFunction,ComponentPad*%
%ADD10C,0.600000*%
%TD*%
%TA.AperFunction,ComponentPad*%
%ADD11R,1.700000X1.700000*%
%TD*%
%TA.AperFunction,ComponentPad*%
%ADD12O,1.700000X1.700000*%
%TD*%
%TA.AperFunction,ComponentPad*%
%ADD13C,3.300000*%
%TD*%
%TA.AperFunction,ComponentPad*%
%ADD14O,1.000000X1.600000*%
%TD*%
%TA.AperFunction,ComponentPad*%
%ADD15O,1.000000X2.100000*%
%TD*%
%TA.AperFunction,ViaPad*%
%ADD16C,0.800000*%
%TD*%
%TA.AperFunction,ViaPad*%
%ADD17C,0.600000*%
%TD*%
%TA.AperFunction,Conductor*%
%ADD18C,0.381000*%
%TD*%
%TA.AperFunction,Conductor*%
%ADD19C,0.200000*%
%TD*%
G04 APERTURE END LIST*
D10*
%TO.P,U4,57,GND*%
%TO.N,GND*%
X82005000Y-77783750D03*
X83280000Y-76508750D03*
X83280000Y-75233750D03*
X84555000Y-75233750D03*
X83280000Y-77783750D03*
X84555000Y-77783750D03*
X82005000Y-76508750D03*
X84555000Y-76508750D03*
X82005000Y-75233750D03*
%TD*%
D11*
%TO.P,J2,1,Pin_1*%
%TO.N,GND*%
X61090000Y-78820000D03*
D12*
%TO.P,J2,2,Pin_2*%
%TO.N,/~{USB_BOOT}*%
X61090000Y-81360000D03*
%TD*%
D13*
%TO.P,SW1,1,1*%
%TO.N,COL0*%
X68060375Y-56670000D03*
%TO.P,SW1,2,2*%
%TO.N,GND*%
X61710375Y-54130000D03*
%TD*%
%TO.P,SW2,1,1*%
%TO.N,COL1*%
X87110375Y-56670000D03*
%TO.P,SW2,2,2*%
%TO.N,GND*%
X80760375Y-54130000D03*
%TD*%
%TO.P,SW3,1,1*%
%TO.N,COL2*%
X106160375Y-56670000D03*
%TO.P,SW3,2,2*%
%TO.N,GND*%
X99810375Y-54130000D03*
%TD*%
D14*
%TO.P,J1,S1,SHIELD*%
%TO.N,GND*%
X79023750Y-38637500D03*
X87663750Y-38637500D03*
D15*
X79023750Y-42817500D03*
X87663750Y-42817500D03*
%TD*%
D16*
%TO.N,+5V*%
X109660000Y-68020000D03*
X62970000Y-68030000D03*
X80540000Y-68020000D03*
X99580000Y-68020000D03*
%TO.N,GND*%
X87884000Y-45212000D03*
D17*
X56081625Y-54155000D03*
X94206625Y-54130000D03*
X73750000Y-76980000D03*
X106406625Y-63530000D03*
X101481625Y-67080000D03*
X87531625Y-63555000D03*
X84253375Y-83198750D03*
D16*
X78770000Y-45420000D03*
D17*
X88111250Y-77865000D03*
X103056625Y-68930000D03*
X77618875Y-70713750D03*
X63456625Y-67080000D03*
X58231625Y-68905000D03*
X99270000Y-76440000D03*
X73538750Y-70648750D03*
X65504500Y-71216250D03*
X69510000Y-82430000D03*
X82456625Y-67094020D03*
D16*
X87122000Y-47244000D03*
D17*
X68331625Y-63580000D03*
X74931625Y-54155000D03*
X94186250Y-73415000D03*
X106156625Y-75230000D03*
X110520000Y-75090000D03*
X85260000Y-70810000D03*
%TO.N,+3V3*%
X68890000Y-70850000D03*
X72000000Y-72460000D03*
X76590000Y-69600000D03*
%TO.N,+1V1*%
X85096710Y-78497649D03*
X78330000Y-73710000D03*
X89547089Y-75696339D03*
X81090000Y-77720000D03*
%TO.N,Net-(LED1-Pad2)*%
X97730000Y-64990000D03*
X87610000Y-64970000D03*
%TO.N,Net-(LED2-Pad2)*%
X68640000Y-65080000D03*
X78300000Y-65050000D03*
%TO.N,Net-(D1-Pad2)*%
X104800000Y-70010000D03*
X74200000Y-68840000D03*
%TD*%
D18*
%TO.N,+5V*%
X109660000Y-68020000D02*
X99580000Y-68020000D01*
X62980000Y-68020000D02*
X62970000Y-68030000D01*
X99580000Y-68020000D02*
X80540000Y-68020000D01*
X80540000Y-68020000D02*
X62980000Y-68020000D01*
%TO.N,GND*%
X87122000Y-45974000D02*
X87884000Y-45212000D01*
X87122000Y-47244000D02*
X87122000Y-45974000D01*
D19*
%TO.N,+3V3*%
X76590000Y-69600000D02*
X73730000Y-72460000D01*
X73730000Y-72460000D02*
X72000000Y-72460000D01*
X70390000Y-70850000D02*
X68890000Y-70850000D01*
X72000000Y-72460000D02*
X70390000Y-70850000D01*
%TO.N,+1V1*%
X81090000Y-76470000D02*
X81090000Y-77720000D01*
X78330000Y-73710000D02*
X81090000Y-76470000D01*
X87473661Y-75696339D02*
X85400000Y-77770000D01*
X85096710Y-78073290D02*
X85096710Y-78497649D01*
X85400000Y-77770000D02*
X85096710Y-78073290D01*
X89547089Y-75696339D02*
X87473661Y-75696339D01*
%TO.N,Net-(LED1-Pad2)*%
X87610000Y-64970000D02*
X97710000Y-64970000D01*
X97710000Y-64970000D02*
X97730000Y-64990000D01*
%TO.N,Net-(LED2-Pad2)*%
X68670000Y-65050000D02*
X68640000Y-65080000D01*
X78300000Y-65050000D02*
X68670000Y-65050000D01*
%TO.N,Net-(D1-Pad2)*%
X74200000Y-68840000D02*
X102118787Y-68840000D01*
X103288787Y-70010000D02*
X104800000Y-70010000D01*
X102118787Y-68840000D02*
X103288787Y-70010000D01*
%TD*%
%TA.AperFunction,Conductor*%
%TO.N,GND*%
G36*
X88891621Y-35750502D02*
G01*
X88938114Y-35804158D01*
X88949500Y-35856500D01*
X88949500Y-39705044D01*
X88946163Y-39733849D01*
X88945980Y-39734627D01*
X88945979Y-39734634D01*
X88944348Y-39741580D01*
X88944345Y-39742298D01*
X88945906Y-39749236D01*
X88946677Y-39756305D01*
X88946475Y-39756327D01*
X88947160Y-39760902D01*
X88960009Y-39930889D01*
X88961142Y-39935682D01*
X88961142Y-39935683D01*
X88961780Y-39938380D01*
X89003511Y-40114944D01*
X89075198Y-40289957D01*
X89173313Y-40451641D01*
X89176501Y-40455411D01*
X89176504Y-40455414D01*
X89243094Y-40534138D01*
X89295453Y-40596038D01*
X89438626Y-40719610D01*
X89599326Y-40819330D01*
X89603881Y-40821249D01*
X89603883Y-40821250D01*
X89625337Y-40830288D01*
X89773616Y-40892756D01*
X89778406Y-40893939D01*
X89778410Y-40893940D01*
X89866860Y-40915778D01*
X89957228Y-40938089D01*
X89962142Y-40938510D01*
X89962144Y-40938510D01*
X90125862Y-40952525D01*
X90130877Y-40953335D01*
X90130904Y-40953117D01*
X90137989Y-40953983D01*
X90144936Y-40955645D01*
X90145654Y-40955651D01*
X90155578Y-40953461D01*
X90182731Y-40950500D01*
X108292920Y-40950500D01*
X108310242Y-40952466D01*
X108315811Y-40952476D01*
X108329641Y-40955656D01*
X108343482Y-40952524D01*
X108357669Y-40952549D01*
X108357669Y-40952772D01*
X108365651Y-40952057D01*
X108681291Y-40965837D01*
X108741937Y-40968485D01*
X108752885Y-40969443D01*
X109156245Y-41022546D01*
X109167053Y-41024452D01*
X109564242Y-41112507D01*
X109574859Y-41115352D01*
X109962861Y-41237689D01*
X109973175Y-41241442D01*
X110349063Y-41397140D01*
X110359007Y-41401778D01*
X110719867Y-41589629D01*
X110729387Y-41595125D01*
X111072499Y-41813712D01*
X111081503Y-41820016D01*
X111404272Y-42067685D01*
X111412689Y-42074749D01*
X111653803Y-42295688D01*
X111712632Y-42349595D01*
X111720401Y-42357364D01*
X111915340Y-42570103D01*
X111995249Y-42657308D01*
X112002312Y-42665725D01*
X112030897Y-42702977D01*
X112249984Y-42988497D01*
X112256288Y-42997501D01*
X112474875Y-43340613D01*
X112480370Y-43350132D01*
X112480386Y-43350161D01*
X112668218Y-43710984D01*
X112672860Y-43720937D01*
X112828555Y-44096817D01*
X112832314Y-44107146D01*
X112954648Y-44495140D01*
X112957493Y-44505757D01*
X112958476Y-44510190D01*
X113045546Y-44902938D01*
X113047454Y-44913755D01*
X113099753Y-45311005D01*
X113100557Y-45317114D01*
X113101515Y-45328064D01*
X113117919Y-45703780D01*
X113117201Y-45711624D01*
X113117549Y-45711625D01*
X113117524Y-45725811D01*
X113114344Y-45739641D01*
X113117476Y-45753482D01*
X113117467Y-45758572D01*
X113119454Y-45776459D01*
X113097328Y-63482482D01*
X113076092Y-80476726D01*
X113076084Y-80482925D01*
X113074065Y-80500639D01*
X113074057Y-80505873D01*
X113070881Y-80519704D01*
X113074017Y-80533544D01*
X113073996Y-80547731D01*
X113073774Y-80547731D01*
X113074492Y-80555711D01*
X113058171Y-80932453D01*
X113057218Y-80943397D01*
X113004216Y-81347228D01*
X113002313Y-81358046D01*
X112914342Y-81755717D01*
X112911504Y-81766329D01*
X112789233Y-82154826D01*
X112785482Y-82165150D01*
X112629833Y-82541534D01*
X112625196Y-82551492D01*
X112437368Y-82912869D01*
X112431888Y-82922377D01*
X112213275Y-83266059D01*
X112206995Y-83275041D01*
X111959295Y-83598356D01*
X111952240Y-83606777D01*
X111677327Y-83907284D01*
X111669567Y-83915057D01*
X111369527Y-84190479D01*
X111361126Y-84197542D01*
X111038213Y-84445802D01*
X111029249Y-84452091D01*
X110758777Y-84624781D01*
X110685950Y-84671279D01*
X110676444Y-84676780D01*
X110645814Y-84692766D01*
X110315378Y-84865224D01*
X110305428Y-84869877D01*
X109929319Y-85026159D01*
X109919002Y-85029928D01*
X109530701Y-85152861D01*
X109520097Y-85155716D01*
X109122578Y-85244359D01*
X109111778Y-85246279D01*
X108837391Y-85282764D01*
X108708031Y-85299965D01*
X108697090Y-85300937D01*
X108320946Y-85317871D01*
X108313094Y-85317165D01*
X108313094Y-85317510D01*
X108298906Y-85317505D01*
X108285074Y-85314344D01*
X108271242Y-85317494D01*
X108266125Y-85317492D01*
X108248266Y-85319500D01*
X58331104Y-85319500D01*
X58312327Y-85317425D01*
X58307989Y-85317443D01*
X58294141Y-85314345D01*
X58280321Y-85317559D01*
X58266129Y-85317618D01*
X58266128Y-85317391D01*
X58258153Y-85318154D01*
X58191122Y-85315618D01*
X57881601Y-85303907D01*
X57870619Y-85303009D01*
X57577500Y-85266089D01*
X57466819Y-85252148D01*
X57455963Y-85250296D01*
X57058153Y-85164350D01*
X57047504Y-85161557D01*
X56833221Y-85095212D01*
X56658718Y-85041183D01*
X56648345Y-85037467D01*
X56271567Y-84883588D01*
X56261562Y-84878982D01*
X55899649Y-84692763D01*
X55890087Y-84687300D01*
X55869373Y-84674235D01*
X55545857Y-84470190D01*
X55536814Y-84463919D01*
X55212836Y-84217541D01*
X55204379Y-84210505D01*
X54903183Y-83936779D01*
X54895361Y-83929019D01*
X54619240Y-83630035D01*
X54612125Y-83621621D01*
X54597510Y-83602719D01*
X54363168Y-83299638D01*
X54356833Y-83290660D01*
X54136956Y-82948154D01*
X54131416Y-82938631D01*
X53942313Y-82578241D01*
X53937625Y-82568269D01*
X53780734Y-82192740D01*
X53776935Y-82182398D01*
X53768156Y-82154826D01*
X53653448Y-81794582D01*
X53650570Y-81783958D01*
X53646614Y-81766329D01*
X53561443Y-81386854D01*
X53559502Y-81376008D01*
X53555379Y-81345262D01*
X60034520Y-81345262D01*
X60051759Y-81550553D01*
X60108544Y-81748586D01*
X60111359Y-81754063D01*
X60111360Y-81754066D01*
X60148370Y-81826080D01*
X60202712Y-81931818D01*
X60330677Y-82093270D01*
X60335370Y-82097264D01*
X60335371Y-82097265D01*
X60466015Y-82208451D01*
X60487564Y-82226791D01*
X60667398Y-82327297D01*
X60762238Y-82358113D01*
X60857471Y-82389056D01*
X60857475Y-82389057D01*
X60863329Y-82390959D01*
X61067894Y-82415351D01*
X61074029Y-82414879D01*
X61074031Y-82414879D01*
X61130039Y-82410569D01*
X61273300Y-82399546D01*
X61279230Y-82397890D01*
X61279232Y-82397890D01*
X61465797Y-82345800D01*
X61465796Y-82345800D01*
X61471725Y-82344145D01*
X61477214Y-82341372D01*
X61477220Y-82341370D01*
X61650116Y-82254033D01*
X61655610Y-82251258D01*
X61817951Y-82124424D01*
X61952564Y-81968472D01*
X61973387Y-81931818D01*
X62051276Y-81794707D01*
X62054323Y-81789344D01*
X62119351Y-81593863D01*
X62145171Y-81389474D01*
X62145583Y-81360000D01*
X62125480Y-81154970D01*
X62065935Y-80957749D01*
X61969218Y-80775849D01*
X61895859Y-80685902D01*
X61842906Y-80620975D01*
X61842903Y-80620972D01*
X61839011Y-80616200D01*
X61802159Y-80585713D01*
X61685025Y-80488811D01*
X61685021Y-80488809D01*
X61680275Y-80484882D01*
X61499055Y-80386897D01*
X61302254Y-80325977D01*
X61296129Y-80325333D01*
X61296128Y-80325333D01*
X61103498Y-80305087D01*
X61103496Y-80305087D01*
X61097369Y-80304443D01*
X61010529Y-80312346D01*
X60898342Y-80322555D01*
X60898339Y-80322556D01*
X60892203Y-80323114D01*
X60694572Y-80381280D01*
X60512002Y-80476726D01*
X60507201Y-80480586D01*
X60507198Y-80480588D01*
X60386100Y-80577953D01*
X60351447Y-80605815D01*
X60219024Y-80763630D01*
X60216056Y-80769028D01*
X60216053Y-80769033D01*
X60122743Y-80938765D01*
X60119776Y-80944162D01*
X60057484Y-81140532D01*
X60056798Y-81146649D01*
X60056797Y-81146653D01*
X60035207Y-81339137D01*
X60034520Y-81345262D01*
X53555379Y-81345262D01*
X53505408Y-80972630D01*
X53504422Y-80961656D01*
X53495090Y-80758177D01*
X53487180Y-80585710D01*
X53487873Y-80577953D01*
X53487511Y-80577953D01*
X53487506Y-80563763D01*
X53490656Y-80549930D01*
X53487496Y-80536099D01*
X53487494Y-80530556D01*
X53485547Y-80513196D01*
X53485564Y-80500639D01*
X53488162Y-78491472D01*
X84591101Y-78491472D01*
X84592265Y-78500374D01*
X84592265Y-78500377D01*
X84593524Y-78510003D01*
X84609690Y-78633628D01*
X84667430Y-78764852D01*
X84673207Y-78771725D01*
X84673208Y-78771726D01*
X84680502Y-78780403D01*
X84759680Y-78874597D01*
X84879023Y-78954039D01*
X85015867Y-78996791D01*
X85024839Y-78996955D01*
X85024842Y-78996956D01*
X85090173Y-78998153D01*
X85159209Y-78999419D01*
X85168243Y-78996956D01*
X85288868Y-78964070D01*
X85288870Y-78964069D01*
X85297527Y-78961709D01*
X85419701Y-78886694D01*
X85515910Y-78780403D01*
X85578420Y-78651382D01*
X85602206Y-78510003D01*
X85602357Y-78497649D01*
X85582033Y-78355731D01*
X85522694Y-78225221D01*
X85516836Y-78218422D01*
X85516695Y-78218202D01*
X85496844Y-78150037D01*
X85516998Y-78081960D01*
X85533749Y-78061222D01*
X87561227Y-76033744D01*
X87623539Y-75999718D01*
X87650322Y-75996839D01*
X89087110Y-75996839D01*
X89155231Y-76016841D01*
X89183559Y-76041761D01*
X89210059Y-76073287D01*
X89329402Y-76152729D01*
X89466246Y-76195481D01*
X89475218Y-76195645D01*
X89475221Y-76195646D01*
X89540552Y-76196843D01*
X89609588Y-76198109D01*
X89618622Y-76195646D01*
X89739247Y-76162760D01*
X89739249Y-76162759D01*
X89747906Y-76160399D01*
X89870080Y-76085384D01*
X89966289Y-75979093D01*
X90028799Y-75850072D01*
X90052585Y-75708693D01*
X90052736Y-75696339D01*
X90032412Y-75554421D01*
X89973073Y-75423911D01*
X89949458Y-75396505D01*
X89885349Y-75322102D01*
X89885346Y-75322099D01*
X89879489Y-75315302D01*
X89759184Y-75237324D01*
X89621828Y-75196246D01*
X89612852Y-75196191D01*
X89612851Y-75196191D01*
X89552644Y-75195823D01*
X89478465Y-75195370D01*
X89340618Y-75234767D01*
X89219369Y-75311269D01*
X89213427Y-75317997D01*
X89182297Y-75353246D01*
X89122212Y-75391064D01*
X89087855Y-75395839D01*
X87526033Y-75395839D01*
X87523356Y-75395642D01*
X87518319Y-75393913D01*
X87506698Y-75394349D01*
X87506696Y-75394349D01*
X87469391Y-75395750D01*
X87464664Y-75395839D01*
X87445713Y-75395839D01*
X87440980Y-75396721D01*
X87437453Y-75396949D01*
X87418081Y-75397676D01*
X87418079Y-75397677D01*
X87406453Y-75398113D01*
X87395761Y-75402707D01*
X87391158Y-75403744D01*
X87379448Y-75407301D01*
X87375045Y-75409000D01*
X87363608Y-75411130D01*
X87353707Y-75417233D01*
X87353704Y-75417234D01*
X87342617Y-75424068D01*
X87326246Y-75432572D01*
X87311770Y-75438792D01*
X87311768Y-75438793D01*
X87303599Y-75442303D01*
X87298713Y-75446316D01*
X87296530Y-75448499D01*
X87294254Y-75450563D01*
X87294108Y-75450402D01*
X87285112Y-75457514D01*
X87278217Y-75463766D01*
X87268313Y-75469871D01*
X87251745Y-75491659D01*
X87240551Y-75504478D01*
X84921258Y-77823771D01*
X84919224Y-77825527D01*
X84914441Y-77827865D01*
X84906529Y-77836394D01*
X84906528Y-77836395D01*
X84881137Y-77863767D01*
X84877857Y-77867172D01*
X84864462Y-77880567D01*
X84861738Y-77884537D01*
X84859413Y-77887185D01*
X84846218Y-77901409D01*
X84846216Y-77901412D01*
X84838309Y-77909936D01*
X84833999Y-77920740D01*
X84831477Y-77924729D01*
X84825716Y-77935517D01*
X84823799Y-77939842D01*
X84817218Y-77949436D01*
X84814532Y-77960755D01*
X84814531Y-77960757D01*
X84811527Y-77973417D01*
X84805962Y-77991014D01*
X84800122Y-78005652D01*
X84796827Y-78013912D01*
X84796210Y-78020205D01*
X84796210Y-78023284D01*
X84796060Y-78026357D01*
X84795844Y-78026346D01*
X84794511Y-78037733D01*
X84794290Y-78042247D01*
X84793827Y-78043580D01*
X84792805Y-78052309D01*
X84791370Y-78058356D01*
X84788895Y-78057769D01*
X84770982Y-78109308D01*
X84762884Y-78119493D01*
X84674087Y-78220037D01*
X84613157Y-78349812D01*
X84591101Y-78491472D01*
X53488162Y-78491472D01*
X53494353Y-73703823D01*
X77824391Y-73703823D01*
X77825555Y-73712725D01*
X77825555Y-73712728D01*
X77826814Y-73722354D01*
X77842980Y-73845979D01*
X77900720Y-73977203D01*
X77992970Y-74086948D01*
X78112313Y-74166390D01*
X78249157Y-74209142D01*
X78258129Y-74209306D01*
X78258132Y-74209307D01*
X78340168Y-74210811D01*
X78356232Y-74211105D01*
X78423974Y-74232353D01*
X78443017Y-74247989D01*
X80752595Y-76557567D01*
X80786621Y-76619879D01*
X80789500Y-76646662D01*
X80789500Y-77256435D01*
X80769498Y-77324556D01*
X80757943Y-77339841D01*
X80667377Y-77442388D01*
X80606447Y-77572163D01*
X80584391Y-77713823D01*
X80585555Y-77722725D01*
X80585555Y-77722728D01*
X80586814Y-77732354D01*
X80602980Y-77855979D01*
X80660720Y-77987203D01*
X80666497Y-77994076D01*
X80666498Y-77994077D01*
X80673792Y-78002754D01*
X80752970Y-78096948D01*
X80872313Y-78176390D01*
X81009157Y-78219142D01*
X81018129Y-78219306D01*
X81018132Y-78219307D01*
X81083463Y-78220504D01*
X81152499Y-78221770D01*
X81161533Y-78219307D01*
X81282158Y-78186421D01*
X81282160Y-78186420D01*
X81290817Y-78184060D01*
X81412991Y-78109045D01*
X81509200Y-78002754D01*
X81571710Y-77873733D01*
X81595496Y-77732354D01*
X81595647Y-77720000D01*
X81575323Y-77578082D01*
X81515984Y-77447572D01*
X81422400Y-77338963D01*
X81424932Y-77336781D01*
X81395491Y-77290645D01*
X81390500Y-77255535D01*
X81390500Y-76522366D01*
X81390696Y-76519693D01*
X81392425Y-76514658D01*
X81390589Y-76465744D01*
X81390500Y-76461018D01*
X81390500Y-76442052D01*
X81389619Y-76437317D01*
X81389390Y-76433790D01*
X81388662Y-76414415D01*
X81388226Y-76402791D01*
X81383634Y-76392104D01*
X81382595Y-76387492D01*
X81379043Y-76375800D01*
X81377339Y-76371383D01*
X81375209Y-76359947D01*
X81362272Y-76338959D01*
X81353769Y-76322589D01*
X81347549Y-76308112D01*
X81347547Y-76308108D01*
X81344036Y-76299937D01*
X81340022Y-76295051D01*
X81337837Y-76292866D01*
X81335785Y-76290603D01*
X81335945Y-76290458D01*
X81328825Y-76281451D01*
X81322573Y-76274556D01*
X81316468Y-76264652D01*
X81294680Y-76248084D01*
X81281861Y-76236890D01*
X78871204Y-73826233D01*
X78837178Y-73763921D01*
X78834830Y-73726313D01*
X78835496Y-73722354D01*
X78835647Y-73710000D01*
X78815323Y-73568082D01*
X78755984Y-73437572D01*
X78737598Y-73416234D01*
X78668260Y-73335763D01*
X78668257Y-73335760D01*
X78662400Y-73328963D01*
X78542095Y-73250985D01*
X78404739Y-73209907D01*
X78395763Y-73209852D01*
X78395762Y-73209852D01*
X78335555Y-73209484D01*
X78261376Y-73209031D01*
X78123529Y-73248428D01*
X78002280Y-73324930D01*
X77907377Y-73432388D01*
X77846447Y-73562163D01*
X77824391Y-73703823D01*
X53494353Y-73703823D01*
X53501690Y-68030000D01*
X62364318Y-68030000D01*
X62365396Y-68038188D01*
X62382562Y-68168574D01*
X62384956Y-68186762D01*
X62445464Y-68332841D01*
X62541718Y-68458282D01*
X62667159Y-68554536D01*
X62813238Y-68615044D01*
X62970000Y-68635682D01*
X62978188Y-68634604D01*
X63118574Y-68616122D01*
X63126762Y-68615044D01*
X63272841Y-68554536D01*
X63398282Y-68458282D01*
X63403311Y-68451729D01*
X63407132Y-68447907D01*
X63469444Y-68413880D01*
X63496230Y-68411000D01*
X73650100Y-68411000D01*
X73718221Y-68431002D01*
X73764714Y-68484658D01*
X73774818Y-68554932D01*
X73764155Y-68590549D01*
X73748166Y-68624604D01*
X73716447Y-68692163D01*
X73694391Y-68833823D01*
X73712980Y-68975979D01*
X73770720Y-69107203D01*
X73776497Y-69114076D01*
X73776498Y-69114077D01*
X73815522Y-69160502D01*
X73862970Y-69216948D01*
X73982313Y-69296390D01*
X74119157Y-69339142D01*
X74128129Y-69339306D01*
X74128132Y-69339307D01*
X74193463Y-69340504D01*
X74262499Y-69341770D01*
X74271533Y-69339307D01*
X74392158Y-69306421D01*
X74392160Y-69306420D01*
X74400817Y-69304060D01*
X74522991Y-69229045D01*
X74533941Y-69216948D01*
X74565623Y-69181946D01*
X74626166Y-69144864D01*
X74659039Y-69140500D01*
X76054858Y-69140500D01*
X76122979Y-69160502D01*
X76169472Y-69214158D01*
X76179576Y-69284432D01*
X76165533Y-69321522D01*
X76167377Y-69322388D01*
X76106447Y-69452163D01*
X76105066Y-69461035D01*
X76091061Y-69550985D01*
X76084391Y-69593823D01*
X76086383Y-69609054D01*
X76075384Y-69679191D01*
X76050542Y-69714486D01*
X73642434Y-72122595D01*
X73580122Y-72156620D01*
X73553339Y-72159500D01*
X72459549Y-72159500D01*
X72391428Y-72139498D01*
X72364096Y-72115748D01*
X72338259Y-72085763D01*
X72332400Y-72078963D01*
X72212095Y-72000985D01*
X72074739Y-71959907D01*
X72065763Y-71959852D01*
X72065762Y-71959852D01*
X72026987Y-71959615D01*
X71975694Y-71959302D01*
X71907698Y-71938884D01*
X71887370Y-71922399D01*
X70639519Y-70674548D01*
X70637763Y-70672514D01*
X70635425Y-70667731D01*
X70599523Y-70634427D01*
X70596118Y-70631147D01*
X70582723Y-70617752D01*
X70578753Y-70615028D01*
X70576105Y-70612703D01*
X70561881Y-70599508D01*
X70561878Y-70599506D01*
X70553354Y-70591599D01*
X70542550Y-70587289D01*
X70538561Y-70584767D01*
X70527773Y-70579006D01*
X70523448Y-70577089D01*
X70513854Y-70570508D01*
X70502535Y-70567822D01*
X70502533Y-70567821D01*
X70489873Y-70564817D01*
X70472276Y-70559252D01*
X70457638Y-70553412D01*
X70457635Y-70553411D01*
X70449378Y-70550117D01*
X70443085Y-70549500D01*
X70440006Y-70549500D01*
X70436933Y-70549350D01*
X70436944Y-70549134D01*
X70425569Y-70547802D01*
X70416254Y-70547346D01*
X70404934Y-70544660D01*
X70393405Y-70546229D01*
X70393404Y-70546229D01*
X70377827Y-70548349D01*
X70360836Y-70549500D01*
X69349549Y-70549500D01*
X69281428Y-70529498D01*
X69254096Y-70505748D01*
X69228259Y-70475763D01*
X69222400Y-70468963D01*
X69102095Y-70390985D01*
X68964739Y-70349907D01*
X68955763Y-70349852D01*
X68955762Y-70349852D01*
X68895555Y-70349484D01*
X68821376Y-70349031D01*
X68683529Y-70388428D01*
X68562280Y-70464930D01*
X68556338Y-70471658D01*
X68556337Y-70471659D01*
X68526231Y-70505748D01*
X68467377Y-70572388D01*
X68406447Y-70702163D01*
X68384391Y-70843823D01*
X68402980Y-70985979D01*
X68460720Y-71117203D01*
X68552970Y-71226948D01*
X68672313Y-71306390D01*
X68809157Y-71349142D01*
X68818129Y-71349306D01*
X68818132Y-71349307D01*
X68883463Y-71350504D01*
X68952499Y-71351770D01*
X68961533Y-71349307D01*
X69082158Y-71316421D01*
X69082160Y-71316420D01*
X69090817Y-71314060D01*
X69212991Y-71239045D01*
X69223941Y-71226948D01*
X69255623Y-71191946D01*
X69316166Y-71154864D01*
X69349039Y-71150500D01*
X70213339Y-71150500D01*
X70281460Y-71170502D01*
X70302434Y-71187405D01*
X71459173Y-72344144D01*
X71493199Y-72406456D01*
X71494080Y-72435956D01*
X71495882Y-72435978D01*
X71495772Y-72444951D01*
X71494391Y-72453823D01*
X71512980Y-72595979D01*
X71570720Y-72727203D01*
X71576497Y-72734076D01*
X71576498Y-72734077D01*
X71600327Y-72762425D01*
X71662970Y-72836948D01*
X71782313Y-72916390D01*
X71919157Y-72959142D01*
X71928129Y-72959306D01*
X71928132Y-72959307D01*
X71993463Y-72960504D01*
X72062499Y-72961770D01*
X72071533Y-72959307D01*
X72192158Y-72926421D01*
X72192160Y-72926420D01*
X72200817Y-72924060D01*
X72322991Y-72849045D01*
X72333941Y-72836948D01*
X72365623Y-72801946D01*
X72426166Y-72764864D01*
X72459039Y-72760500D01*
X73677634Y-72760500D01*
X73680307Y-72760696D01*
X73685342Y-72762425D01*
X73696964Y-72761989D01*
X73696966Y-72761989D01*
X73734255Y-72760589D01*
X73738981Y-72760500D01*
X73757948Y-72760500D01*
X73762683Y-72759618D01*
X73766209Y-72759390D01*
X73769949Y-72759249D01*
X73797208Y-72758226D01*
X73807893Y-72753636D01*
X73812493Y-72752599D01*
X73824214Y-72749038D01*
X73828617Y-72747339D01*
X73840053Y-72745209D01*
X73861041Y-72732272D01*
X73877411Y-72723769D01*
X73891888Y-72717549D01*
X73891892Y-72717547D01*
X73900063Y-72714036D01*
X73904949Y-72710022D01*
X73907134Y-72707837D01*
X73909397Y-72705785D01*
X73909542Y-72705945D01*
X73918549Y-72698825D01*
X73925444Y-72692573D01*
X73935348Y-72686468D01*
X73951916Y-72664680D01*
X73963110Y-72651861D01*
X76477843Y-70137128D01*
X76540155Y-70103102D01*
X76569247Y-70100244D01*
X76606711Y-70100930D01*
X76652499Y-70101770D01*
X76661163Y-70099408D01*
X76782158Y-70066421D01*
X76782160Y-70066420D01*
X76790817Y-70064060D01*
X76912991Y-69989045D01*
X77009200Y-69882754D01*
X77071710Y-69753733D01*
X77095496Y-69612354D01*
X77095647Y-69600000D01*
X77082627Y-69509086D01*
X77076596Y-69466968D01*
X77076595Y-69466965D01*
X77075323Y-69458082D01*
X77068937Y-69444036D01*
X77019698Y-69335740D01*
X77019697Y-69335739D01*
X77015984Y-69327572D01*
X77016746Y-69327226D01*
X76998980Y-69266218D01*
X77019135Y-69198142D01*
X77072894Y-69151769D01*
X77124980Y-69140500D01*
X101942126Y-69140500D01*
X102010247Y-69160502D01*
X102031221Y-69177405D01*
X103039268Y-70185452D01*
X103041024Y-70187486D01*
X103043362Y-70192269D01*
X103051891Y-70200181D01*
X103051892Y-70200182D01*
X103079264Y-70225573D01*
X103082669Y-70228853D01*
X103096064Y-70242248D01*
X103100034Y-70244972D01*
X103102682Y-70247297D01*
X103125433Y-70268401D01*
X103136240Y-70272713D01*
X103140225Y-70275232D01*
X103151034Y-70281004D01*
X103155339Y-70282911D01*
X103164933Y-70289493D01*
X103188886Y-70295177D01*
X103188923Y-70295186D01*
X103206519Y-70300751D01*
X103229409Y-70309883D01*
X103235702Y-70310500D01*
X103238784Y-70310500D01*
X103241854Y-70310650D01*
X103241843Y-70310866D01*
X103253218Y-70312198D01*
X103262532Y-70312653D01*
X103273853Y-70315340D01*
X103285382Y-70313771D01*
X103285383Y-70313771D01*
X103300960Y-70311651D01*
X103317951Y-70310500D01*
X104340021Y-70310500D01*
X104408142Y-70330502D01*
X104436470Y-70355422D01*
X104462970Y-70386948D01*
X104582313Y-70466390D01*
X104719157Y-70509142D01*
X104728129Y-70509306D01*
X104728132Y-70509307D01*
X104793463Y-70510504D01*
X104862499Y-70511770D01*
X104871533Y-70509307D01*
X104992158Y-70476421D01*
X104992160Y-70476420D01*
X105000817Y-70474060D01*
X105122991Y-70399045D01*
X105130287Y-70390985D01*
X105198756Y-70315340D01*
X105219200Y-70292754D01*
X105264419Y-70199421D01*
X105277795Y-70171814D01*
X105277795Y-70171813D01*
X105281710Y-70163733D01*
X105305496Y-70022354D01*
X105305647Y-70010000D01*
X105288377Y-69889407D01*
X105286596Y-69876968D01*
X105286595Y-69876965D01*
X105285323Y-69868082D01*
X105225984Y-69737572D01*
X105206092Y-69714486D01*
X105138260Y-69635763D01*
X105138257Y-69635760D01*
X105132400Y-69628963D01*
X105012095Y-69550985D01*
X104874739Y-69509907D01*
X104865763Y-69509852D01*
X104865762Y-69509852D01*
X104805555Y-69509484D01*
X104731376Y-69509031D01*
X104593529Y-69548428D01*
X104472280Y-69624930D01*
X104466338Y-69631658D01*
X104435208Y-69666907D01*
X104375123Y-69704725D01*
X104340766Y-69709500D01*
X103465448Y-69709500D01*
X103397327Y-69689498D01*
X103376353Y-69672595D01*
X102368306Y-68664548D01*
X102366550Y-68662514D01*
X102364212Y-68657731D01*
X102333644Y-68629375D01*
X102297305Y-68568383D01*
X102299710Y-68497427D01*
X102340094Y-68439035D01*
X102405637Y-68411747D01*
X102419334Y-68411000D01*
X109143769Y-68411000D01*
X109211890Y-68431002D01*
X109229103Y-68444874D01*
X109231718Y-68448282D01*
X109357159Y-68544536D01*
X109503238Y-68605044D01*
X109660000Y-68625682D01*
X109668188Y-68624604D01*
X109808574Y-68606122D01*
X109816762Y-68605044D01*
X109962841Y-68544536D01*
X110088282Y-68448282D01*
X110095378Y-68439035D01*
X110179509Y-68329392D01*
X110184536Y-68322841D01*
X110245044Y-68176762D01*
X110265682Y-68020000D01*
X110255363Y-67941619D01*
X110246122Y-67871426D01*
X110245044Y-67863238D01*
X110184536Y-67717159D01*
X110088282Y-67591718D01*
X109962841Y-67495464D01*
X109816762Y-67434956D01*
X109660000Y-67414318D01*
X109503238Y-67434956D01*
X109357159Y-67495464D01*
X109231718Y-67591718D01*
X109230394Y-67593444D01*
X109170552Y-67626121D01*
X109143769Y-67629000D01*
X100096231Y-67629000D01*
X100028110Y-67608998D01*
X100010897Y-67595126D01*
X100008282Y-67591718D01*
X99882841Y-67495464D01*
X99736762Y-67434956D01*
X99580000Y-67414318D01*
X99423238Y-67434956D01*
X99277159Y-67495464D01*
X99151718Y-67591718D01*
X99150394Y-67593444D01*
X99090552Y-67626121D01*
X99063769Y-67629000D01*
X81056231Y-67629000D01*
X80988110Y-67608998D01*
X80970897Y-67595126D01*
X80968282Y-67591718D01*
X80842841Y-67495464D01*
X80696762Y-67434956D01*
X80540000Y-67414318D01*
X80383238Y-67434956D01*
X80237159Y-67495464D01*
X80111718Y-67591718D01*
X80110394Y-67593444D01*
X80050552Y-67626121D01*
X80023769Y-67629000D01*
X63476231Y-67629000D01*
X63408110Y-67608998D01*
X63398586Y-67601322D01*
X63398282Y-67601718D01*
X63279392Y-67510491D01*
X63272841Y-67505464D01*
X63126762Y-67444956D01*
X62970000Y-67424318D01*
X62813238Y-67444956D01*
X62667159Y-67505464D01*
X62541718Y-67601718D01*
X62445464Y-67727159D01*
X62384956Y-67873238D01*
X62364318Y-68030000D01*
X53501690Y-68030000D01*
X53505078Y-65409733D01*
X62247241Y-65409733D01*
X62247791Y-65416407D01*
X62247791Y-65416408D01*
X62251581Y-65462391D01*
X62259504Y-65558524D01*
X62261448Y-65564930D01*
X62261448Y-65564932D01*
X62271399Y-65597727D01*
X62302851Y-65701388D01*
X62375336Y-65831907D01*
X62379746Y-65836942D01*
X62379748Y-65836945D01*
X62455492Y-65923427D01*
X62473701Y-65944217D01*
X62479078Y-65948213D01*
X62588155Y-66029280D01*
X62588158Y-66029282D01*
X62593527Y-66033272D01*
X62729432Y-66095072D01*
X62875308Y-66126839D01*
X62882002Y-66126853D01*
X62882004Y-66126853D01*
X62950717Y-66126995D01*
X63024604Y-66127147D01*
X63031152Y-66125749D01*
X63031155Y-66125749D01*
X63125982Y-66105507D01*
X63170610Y-66095981D01*
X63289067Y-66042704D01*
X63296264Y-66039980D01*
X63300044Y-66038322D01*
X63306802Y-66036224D01*
X63307102Y-66036050D01*
X63307106Y-66036048D01*
X63307423Y-66035863D01*
X63312592Y-66031017D01*
X63314382Y-66029683D01*
X63335946Y-66016736D01*
X63336979Y-66016249D01*
X63342428Y-66013679D01*
X63363248Y-66006020D01*
X63392650Y-65998060D01*
X63414478Y-65994173D01*
X63428202Y-65992961D01*
X63439505Y-65992472D01*
X63441724Y-65992476D01*
X63455554Y-65995657D01*
X63469396Y-65992525D01*
X63474215Y-65992534D01*
X63492423Y-65990500D01*
X65007735Y-65990500D01*
X65025050Y-65992466D01*
X65030632Y-65992476D01*
X65044457Y-65995656D01*
X65058295Y-65992526D01*
X65062479Y-65992533D01*
X65073348Y-65993023D01*
X65086243Y-65994163D01*
X65108073Y-65998051D01*
X65137491Y-66006018D01*
X65158294Y-66013673D01*
X65164633Y-66016663D01*
X65186513Y-66029847D01*
X65187555Y-66030629D01*
X65192723Y-66035507D01*
X65193009Y-66035675D01*
X65193011Y-66035677D01*
X65193013Y-66035678D01*
X65193342Y-66035871D01*
X65200139Y-66038006D01*
X65204309Y-66039856D01*
X65210081Y-66042052D01*
X65324018Y-66093286D01*
X65324022Y-66093287D01*
X65330128Y-66096033D01*
X65336675Y-66097430D01*
X65469594Y-66125792D01*
X65469595Y-66125792D01*
X65476137Y-66127188D01*
X65482825Y-66127174D01*
X65482826Y-66127174D01*
X65547324Y-66127037D01*
X65625433Y-66126872D01*
X65771308Y-66095097D01*
X65798012Y-66082953D01*
X65901119Y-66036064D01*
X65901123Y-66036062D01*
X65907211Y-66033293D01*
X66027035Y-65944234D01*
X66125399Y-65831923D01*
X66197883Y-65701403D01*
X66241231Y-65558539D01*
X66246938Y-65489307D01*
X66252946Y-65416422D01*
X66252946Y-65416421D01*
X66253496Y-65409748D01*
X66234128Y-65261713D01*
X66190517Y-65139380D01*
X66188380Y-65131996D01*
X66187031Y-65128103D01*
X66185475Y-65121171D01*
X66185165Y-65120523D01*
X66180711Y-65114935D01*
X66178199Y-65110924D01*
X66167672Y-65090022D01*
X66167594Y-65089823D01*
X66162662Y-65073823D01*
X68134391Y-65073823D01*
X68135555Y-65082725D01*
X68135555Y-65082728D01*
X68140498Y-65120523D01*
X68152980Y-65215979D01*
X68170320Y-65255387D01*
X68195207Y-65311946D01*
X68210720Y-65347203D01*
X68216497Y-65354076D01*
X68216498Y-65354077D01*
X68291868Y-65443741D01*
X68302970Y-65456948D01*
X68422313Y-65536390D01*
X68559157Y-65579142D01*
X68568129Y-65579306D01*
X68568132Y-65579307D01*
X68633463Y-65580504D01*
X68702499Y-65581770D01*
X68711533Y-65579307D01*
X68832158Y-65546421D01*
X68832160Y-65546420D01*
X68840817Y-65544060D01*
X68962991Y-65469045D01*
X68976555Y-65454060D01*
X69032778Y-65391945D01*
X69093322Y-65354864D01*
X69126194Y-65350500D01*
X77840021Y-65350500D01*
X77908142Y-65370502D01*
X77936470Y-65395422D01*
X77962970Y-65426948D01*
X78007246Y-65456421D01*
X78056802Y-65489408D01*
X78082313Y-65506390D01*
X78219157Y-65549142D01*
X78228129Y-65549306D01*
X78228132Y-65549307D01*
X78293463Y-65550504D01*
X78362499Y-65551770D01*
X78371533Y-65549307D01*
X78492158Y-65516421D01*
X78492160Y-65516420D01*
X78500817Y-65514060D01*
X78622991Y-65439045D01*
X78649523Y-65409733D01*
X81297241Y-65409733D01*
X81297791Y-65416407D01*
X81297791Y-65416408D01*
X81301581Y-65462391D01*
X81309504Y-65558524D01*
X81311448Y-65564930D01*
X81311448Y-65564932D01*
X81321399Y-65597727D01*
X81352851Y-65701388D01*
X81425336Y-65831907D01*
X81429746Y-65836942D01*
X81429748Y-65836945D01*
X81505492Y-65923427D01*
X81523701Y-65944217D01*
X81529078Y-65948213D01*
X81638155Y-66029280D01*
X81638158Y-66029282D01*
X81643527Y-66033272D01*
X81779432Y-66095072D01*
X81925308Y-66126839D01*
X81932002Y-66126853D01*
X81932004Y-66126853D01*
X82000717Y-66126995D01*
X82074604Y-66127147D01*
X82081152Y-66125749D01*
X82081155Y-66125749D01*
X82175982Y-66105507D01*
X82220610Y-66095981D01*
X82339067Y-66042704D01*
X82346264Y-66039980D01*
X82350044Y-66038322D01*
X82356802Y-66036224D01*
X82357102Y-66036050D01*
X82357106Y-66036048D01*
X82357423Y-66035863D01*
X82362592Y-66031017D01*
X82364382Y-66029683D01*
X82385946Y-66016736D01*
X82386979Y-66016249D01*
X82392428Y-66013679D01*
X82413248Y-66006020D01*
X82442650Y-65998060D01*
X82464478Y-65994173D01*
X82478202Y-65992961D01*
X82489505Y-65992472D01*
X82491724Y-65992476D01*
X82505554Y-65995657D01*
X82519396Y-65992525D01*
X82524215Y-65992534D01*
X82542423Y-65990500D01*
X84057735Y-65990500D01*
X84075050Y-65992466D01*
X84080632Y-65992476D01*
X84094457Y-65995656D01*
X84108295Y-65992526D01*
X84112479Y-65992533D01*
X84123348Y-65993023D01*
X84136243Y-65994163D01*
X84158073Y-65998051D01*
X84187491Y-66006018D01*
X84208294Y-66013673D01*
X84214633Y-66016663D01*
X84236513Y-66029847D01*
X84237555Y-66030629D01*
X84242723Y-66035507D01*
X84243009Y-66035675D01*
X84243011Y-66035677D01*
X84243013Y-66035678D01*
X84243342Y-66035871D01*
X84250139Y-66038006D01*
X84254309Y-66039856D01*
X84260081Y-66042052D01*
X84374018Y-66093286D01*
X84374022Y-66093287D01*
X84380128Y-66096033D01*
X84386675Y-66097430D01*
X84519594Y-66125792D01*
X84519595Y-66125792D01*
X84526137Y-66127188D01*
X84532825Y-66127174D01*
X84532826Y-66127174D01*
X84597324Y-66127037D01*
X84675433Y-66126872D01*
X84821308Y-66095097D01*
X84848012Y-66082953D01*
X84951119Y-66036064D01*
X84951123Y-66036062D01*
X84957211Y-66033293D01*
X85077035Y-65944234D01*
X85175399Y-65831923D01*
X85247883Y-65701403D01*
X85291231Y-65558539D01*
X85296938Y-65489307D01*
X85302946Y-65416422D01*
X85302946Y-65416421D01*
X85303496Y-65409748D01*
X85284128Y-65261713D01*
X85240517Y-65139380D01*
X85238380Y-65131996D01*
X85237031Y-65128103D01*
X85235475Y-65121171D01*
X85235165Y-65120523D01*
X85230711Y-65114935D01*
X85228199Y-65110924D01*
X85217672Y-65090022D01*
X85217594Y-65089823D01*
X85212063Y-65071879D01*
X85212061Y-65071868D01*
X85206306Y-65046652D01*
X85203501Y-65028053D01*
X85203192Y-65023938D01*
X85202838Y-65014293D01*
X85202850Y-65007018D01*
X85206030Y-64993185D01*
X85202896Y-64979341D01*
X85202904Y-64974490D01*
X85201712Y-64963823D01*
X87104391Y-64963823D01*
X87105555Y-64972725D01*
X87105555Y-64972728D01*
X87110991Y-65014293D01*
X87122980Y-65105979D01*
X87126597Y-65114199D01*
X87169549Y-65211814D01*
X87180720Y-65237203D01*
X87186497Y-65244076D01*
X87186498Y-65244077D01*
X87241543Y-65309561D01*
X87272970Y-65346948D01*
X87392313Y-65426390D01*
X87529157Y-65469142D01*
X87538129Y-65469306D01*
X87538132Y-65469307D01*
X87603463Y-65470504D01*
X87672499Y-65471770D01*
X87681533Y-65469307D01*
X87802158Y-65436421D01*
X87802160Y-65436420D01*
X87810817Y-65434060D01*
X87932991Y-65359045D01*
X87939436Y-65351925D01*
X87975623Y-65311946D01*
X88036166Y-65274864D01*
X88069039Y-65270500D01*
X97253209Y-65270500D01*
X97321330Y-65290502D01*
X97349658Y-65315423D01*
X97392970Y-65366948D01*
X97512313Y-65446390D01*
X97649157Y-65489142D01*
X97658129Y-65489306D01*
X97658132Y-65489307D01*
X97723463Y-65490504D01*
X97792499Y-65491770D01*
X97801533Y-65489307D01*
X97922158Y-65456421D01*
X97922160Y-65456420D01*
X97930817Y-65454060D01*
X98003011Y-65409733D01*
X100347241Y-65409733D01*
X100347791Y-65416407D01*
X100347791Y-65416408D01*
X100351581Y-65462391D01*
X100359504Y-65558524D01*
X100361448Y-65564930D01*
X100361448Y-65564932D01*
X100371399Y-65597727D01*
X100402851Y-65701388D01*
X100475336Y-65831907D01*
X100479746Y-65836942D01*
X100479748Y-65836945D01*
X100555492Y-65923427D01*
X100573701Y-65944217D01*
X100579078Y-65948213D01*
X100688155Y-66029280D01*
X100688158Y-66029282D01*
X100693527Y-66033272D01*
X100829432Y-66095072D01*
X100975308Y-66126839D01*
X100982002Y-66126853D01*
X100982004Y-66126853D01*
X101050717Y-66126995D01*
X101124604Y-66127147D01*
X101131152Y-66125749D01*
X101131155Y-66125749D01*
X101225982Y-66105507D01*
X101270610Y-66095981D01*
X101389067Y-66042704D01*
X101396264Y-66039980D01*
X101400044Y-66038322D01*
X101406802Y-66036224D01*
X101407102Y-66036050D01*
X101407106Y-66036048D01*
X101407423Y-66035863D01*
X101412592Y-66031017D01*
X101414382Y-66029683D01*
X101435946Y-66016736D01*
X101436979Y-66016249D01*
X101442428Y-66013679D01*
X101463248Y-66006020D01*
X101492650Y-65998060D01*
X101514478Y-65994173D01*
X101528202Y-65992961D01*
X101539505Y-65992472D01*
X101541724Y-65992476D01*
X101555554Y-65995657D01*
X101569396Y-65992525D01*
X101574215Y-65992534D01*
X101592423Y-65990500D01*
X103107735Y-65990500D01*
X103125050Y-65992466D01*
X103130632Y-65992476D01*
X103144457Y-65995656D01*
X103158295Y-65992526D01*
X103162479Y-65992533D01*
X103173348Y-65993023D01*
X103186243Y-65994163D01*
X103208073Y-65998051D01*
X103237491Y-66006018D01*
X103258294Y-66013673D01*
X103264633Y-66016663D01*
X103286513Y-66029847D01*
X103287555Y-66030629D01*
X103292723Y-66035507D01*
X103293009Y-66035675D01*
X103293011Y-66035677D01*
X103293013Y-66035678D01*
X103293342Y-66035871D01*
X103300139Y-66038006D01*
X103304309Y-66039856D01*
X103310081Y-66042052D01*
X103424018Y-66093286D01*
X103424022Y-66093287D01*
X103430128Y-66096033D01*
X103436675Y-66097430D01*
X103569594Y-66125792D01*
X103569595Y-66125792D01*
X103576137Y-66127188D01*
X103582825Y-66127174D01*
X103582826Y-66127174D01*
X103647324Y-66127037D01*
X103725433Y-66126872D01*
X103871308Y-66095097D01*
X103898012Y-66082953D01*
X104001119Y-66036064D01*
X104001123Y-66036062D01*
X104007211Y-66033293D01*
X104127035Y-65944234D01*
X104225399Y-65831923D01*
X104297883Y-65701403D01*
X104341231Y-65558539D01*
X104346938Y-65489307D01*
X104352946Y-65416422D01*
X104352946Y-65416421D01*
X104353496Y-65409748D01*
X104334128Y-65261713D01*
X104290517Y-65139380D01*
X104288380Y-65131996D01*
X104287031Y-65128103D01*
X104285475Y-65121171D01*
X104285165Y-65120523D01*
X104280711Y-65114935D01*
X104278199Y-65110924D01*
X104267672Y-65090022D01*
X104267594Y-65089823D01*
X104262063Y-65071879D01*
X104262061Y-65071868D01*
X104256306Y-65046652D01*
X104253501Y-65028053D01*
X104253192Y-65023938D01*
X104252838Y-65014293D01*
X104252850Y-65007018D01*
X104256030Y-64993185D01*
X104252896Y-64979341D01*
X104252904Y-64974490D01*
X104250874Y-64956327D01*
X104250874Y-63624255D01*
X104252839Y-63606950D01*
X104252849Y-63601362D01*
X104256030Y-63587535D01*
X104252900Y-63573696D01*
X104252917Y-63564424D01*
X104253269Y-63555251D01*
X104253514Y-63551978D01*
X104256319Y-63533360D01*
X104262079Y-63508121D01*
X104267227Y-63491167D01*
X104267253Y-63491099D01*
X104278402Y-63468831D01*
X104280380Y-63465699D01*
X104284852Y-63460127D01*
X104285164Y-63459481D01*
X104286747Y-63452544D01*
X104287857Y-63449377D01*
X104290225Y-63441246D01*
X104331816Y-63324580D01*
X104334064Y-63318275D01*
X104353431Y-63170254D01*
X104341168Y-63021476D01*
X104339225Y-63015071D01*
X104299770Y-62885036D01*
X104299768Y-62885032D01*
X104297824Y-62878624D01*
X104225347Y-62748116D01*
X104126992Y-62635814D01*
X104007179Y-62546764D01*
X104001016Y-62543961D01*
X103973521Y-62531457D01*
X103871289Y-62484965D01*
X103725426Y-62453193D01*
X103648242Y-62453030D01*
X103582835Y-62452891D01*
X103582833Y-62452891D01*
X103576144Y-62452877D01*
X103569604Y-62454272D01*
X103569599Y-62454273D01*
X103492809Y-62470659D01*
X103430148Y-62484029D01*
X103424039Y-62486776D01*
X103311720Y-62537282D01*
X103304538Y-62540000D01*
X103300763Y-62541658D01*
X103293963Y-62543769D01*
X103293633Y-62543961D01*
X103293629Y-62543963D01*
X103293342Y-62544131D01*
X103288201Y-62548950D01*
X103286407Y-62550289D01*
X103264792Y-62563278D01*
X103258309Y-62566335D01*
X103237487Y-62573998D01*
X103208080Y-62581961D01*
X103186248Y-62585851D01*
X103172802Y-62587039D01*
X103161507Y-62587528D01*
X103159003Y-62587524D01*
X103145175Y-62584345D01*
X103131333Y-62587478D01*
X103126496Y-62587470D01*
X103108316Y-62589501D01*
X101592995Y-62589501D01*
X101575662Y-62587534D01*
X101570102Y-62587524D01*
X101556273Y-62584345D01*
X101542436Y-62587476D01*
X101538255Y-62587469D01*
X101527389Y-62586980D01*
X101514481Y-62585840D01*
X101492644Y-62581952D01*
X101463245Y-62573994D01*
X101442423Y-62566334D01*
X101436210Y-62563404D01*
X101414310Y-62550208D01*
X101413347Y-62549485D01*
X101413304Y-62549471D01*
X101408043Y-62544505D01*
X101407735Y-62544324D01*
X101407725Y-62544315D01*
X101407712Y-62544311D01*
X101407424Y-62544142D01*
X101400622Y-62542004D01*
X101397031Y-62540410D01*
X101390161Y-62537795D01*
X101276717Y-62486772D01*
X101276711Y-62486770D01*
X101270610Y-62484026D01*
X101264067Y-62482629D01*
X101264066Y-62482629D01*
X101131156Y-62454258D01*
X101131153Y-62454258D01*
X101124605Y-62452860D01*
X101050720Y-62453012D01*
X100982007Y-62453154D01*
X100982005Y-62453154D01*
X100975311Y-62453168D01*
X100909533Y-62467492D01*
X100835972Y-62483511D01*
X100835968Y-62483512D01*
X100829435Y-62484935D01*
X100823347Y-62487703D01*
X100823345Y-62487704D01*
X100714315Y-62537282D01*
X100693531Y-62546733D01*
X100688156Y-62550727D01*
X100688152Y-62550730D01*
X100635985Y-62589501D01*
X100573705Y-62635788D01*
X100475341Y-62748097D01*
X100472090Y-62753950D01*
X100472087Y-62753955D01*
X100472079Y-62753970D01*
X100402857Y-62878615D01*
X100359510Y-63021478D01*
X100347248Y-63170268D01*
X100356934Y-63244284D01*
X100361664Y-63280420D01*
X100366621Y-63318301D01*
X100368870Y-63324608D01*
X100410235Y-63440626D01*
X100412362Y-63447977D01*
X100412507Y-63448394D01*
X100412512Y-63448494D01*
X100412688Y-63449103D01*
X100412969Y-63449724D01*
X100413715Y-63451875D01*
X100415279Y-63458840D01*
X100415455Y-63459207D01*
X100415456Y-63459211D01*
X100415459Y-63459214D01*
X100415590Y-63459488D01*
X100420053Y-63465088D01*
X100422584Y-63469129D01*
X100433009Y-63489779D01*
X100433084Y-63489971D01*
X100438700Y-63508127D01*
X100444452Y-63533328D01*
X100447258Y-63551952D01*
X100447563Y-63556025D01*
X100447915Y-63565667D01*
X100447901Y-63572947D01*
X100444720Y-63586775D01*
X100447850Y-63600614D01*
X100447841Y-63605424D01*
X100449876Y-63623643D01*
X100449876Y-64955746D01*
X100447911Y-64973053D01*
X100447901Y-64978639D01*
X100444720Y-64992466D01*
X100447850Y-65006305D01*
X100447833Y-65015575D01*
X100447481Y-65024747D01*
X100447235Y-65028037D01*
X100444428Y-65046650D01*
X100441953Y-65057493D01*
X100438672Y-65071868D01*
X100432907Y-65090406D01*
X100432870Y-65090499D01*
X100422321Y-65111213D01*
X100420364Y-65114310D01*
X100415902Y-65119869D01*
X100415755Y-65120173D01*
X100415753Y-65120175D01*
X100415752Y-65120178D01*
X100415589Y-65120515D01*
X100414004Y-65127461D01*
X100412670Y-65131262D01*
X100410662Y-65138155D01*
X100366614Y-65261700D01*
X100347241Y-65409733D01*
X98003011Y-65409733D01*
X98052991Y-65379045D01*
X98066844Y-65363741D01*
X98143178Y-65279407D01*
X98149200Y-65272754D01*
X98211710Y-65143733D01*
X98235496Y-65002354D01*
X98235647Y-64990000D01*
X98215323Y-64848082D01*
X98203539Y-64822163D01*
X98180171Y-64770769D01*
X98155984Y-64717572D01*
X98116422Y-64671658D01*
X98068260Y-64615763D01*
X98068257Y-64615760D01*
X98062400Y-64608963D01*
X97942095Y-64530985D01*
X97804739Y-64489907D01*
X97795763Y-64489852D01*
X97795762Y-64489852D01*
X97735555Y-64489484D01*
X97661376Y-64489031D01*
X97523529Y-64528428D01*
X97402280Y-64604930D01*
X97382869Y-64626909D01*
X97322787Y-64664725D01*
X97288430Y-64669500D01*
X88069549Y-64669500D01*
X88001428Y-64649498D01*
X87974096Y-64625748D01*
X87965492Y-64615763D01*
X87942400Y-64588963D01*
X87822095Y-64510985D01*
X87684739Y-64469907D01*
X87675763Y-64469852D01*
X87675762Y-64469852D01*
X87615555Y-64469484D01*
X87541376Y-64469031D01*
X87403529Y-64508428D01*
X87282280Y-64584930D01*
X87276338Y-64591658D01*
X87276337Y-64591659D01*
X87248466Y-64623217D01*
X87187377Y-64692388D01*
X87126447Y-64822163D01*
X87121028Y-64856968D01*
X87110586Y-64924036D01*
X87104391Y-64963823D01*
X85201712Y-64963823D01*
X85200874Y-64956327D01*
X85200874Y-63624255D01*
X85202839Y-63606950D01*
X85202849Y-63601362D01*
X85206030Y-63587535D01*
X85202900Y-63573696D01*
X85202917Y-63564424D01*
X85203269Y-63555251D01*
X85203514Y-63551978D01*
X85206319Y-63533360D01*
X85212079Y-63508121D01*
X85217227Y-63491167D01*
X85217253Y-63491099D01*
X85228402Y-63468831D01*
X85230380Y-63465699D01*
X85234852Y-63460127D01*
X85235164Y-63459481D01*
X85236747Y-63452544D01*
X85237857Y-63449377D01*
X85240225Y-63441246D01*
X85281816Y-63324580D01*
X85284064Y-63318275D01*
X85303431Y-63170254D01*
X85291168Y-63021476D01*
X85289225Y-63015071D01*
X85249770Y-62885036D01*
X85249768Y-62885032D01*
X85247824Y-62878624D01*
X85175347Y-62748116D01*
X85076992Y-62635814D01*
X84957179Y-62546764D01*
X84951016Y-62543961D01*
X84923521Y-62531457D01*
X84821289Y-62484965D01*
X84675426Y-62453193D01*
X84598242Y-62453030D01*
X84532835Y-62452891D01*
X84532833Y-62452891D01*
X84526144Y-62452877D01*
X84519604Y-62454272D01*
X84519599Y-62454273D01*
X84442809Y-62470659D01*
X84380148Y-62484029D01*
X84374039Y-62486776D01*
X84261720Y-62537282D01*
X84254538Y-62540000D01*
X84250763Y-62541658D01*
X84243963Y-62543769D01*
X84243633Y-62543961D01*
X84243629Y-62543963D01*
X84243342Y-62544131D01*
X84238201Y-62548950D01*
X84236407Y-62550289D01*
X84214792Y-62563278D01*
X84208309Y-62566335D01*
X84187487Y-62573998D01*
X84158080Y-62581961D01*
X84136248Y-62585851D01*
X84122802Y-62587039D01*
X84111507Y-62587528D01*
X84109003Y-62587524D01*
X84095175Y-62584345D01*
X84081333Y-62587478D01*
X84076496Y-62587470D01*
X84058316Y-62589501D01*
X82542995Y-62589501D01*
X82525662Y-62587534D01*
X82520102Y-62587524D01*
X82506273Y-62584345D01*
X82492436Y-62587476D01*
X82488255Y-62587469D01*
X82477389Y-62586980D01*
X82464481Y-62585840D01*
X82442644Y-62581952D01*
X82413245Y-62573994D01*
X82392423Y-62566334D01*
X82386210Y-62563404D01*
X82364310Y-62550208D01*
X82363347Y-62549485D01*
X82363304Y-62549471D01*
X82358043Y-62544505D01*
X82357735Y-62544324D01*
X82357725Y-62544315D01*
X82357712Y-62544311D01*
X82357424Y-62544142D01*
X82350622Y-62542004D01*
X82347031Y-62540410D01*
X82340161Y-62537795D01*
X82226717Y-62486772D01*
X82226711Y-62486770D01*
X82220610Y-62484026D01*
X82214067Y-62482629D01*
X82214066Y-62482629D01*
X82081156Y-62454258D01*
X82081153Y-62454258D01*
X82074605Y-62452860D01*
X82000720Y-62453012D01*
X81932007Y-62453154D01*
X81932005Y-62453154D01*
X81925311Y-62453168D01*
X81859533Y-62467492D01*
X81785972Y-62483511D01*
X81785968Y-62483512D01*
X81779435Y-62484935D01*
X81773347Y-62487703D01*
X81773345Y-62487704D01*
X81664315Y-62537282D01*
X81643531Y-62546733D01*
X81638156Y-62550727D01*
X81638152Y-62550730D01*
X81585985Y-62589501D01*
X81523705Y-62635788D01*
X81425341Y-62748097D01*
X81422090Y-62753950D01*
X81422087Y-62753955D01*
X81422079Y-62753970D01*
X81352857Y-62878615D01*
X81309510Y-63021478D01*
X81297248Y-63170268D01*
X81306934Y-63244284D01*
X81311664Y-63280420D01*
X81316621Y-63318301D01*
X81318870Y-63324608D01*
X81360235Y-63440626D01*
X81362362Y-63447977D01*
X81362507Y-63448394D01*
X81362512Y-63448494D01*
X81362688Y-63449103D01*
X81362969Y-63449724D01*
X81363715Y-63451875D01*
X81365279Y-63458840D01*
X81365455Y-63459207D01*
X81365456Y-63459211D01*
X81365459Y-63459214D01*
X81365590Y-63459488D01*
X81370053Y-63465088D01*
X81372584Y-63469129D01*
X81383009Y-63489779D01*
X81383084Y-63489971D01*
X81388700Y-63508127D01*
X81394452Y-63533328D01*
X81397258Y-63551952D01*
X81397563Y-63556025D01*
X81397915Y-63565667D01*
X81397901Y-63572947D01*
X81394720Y-63586775D01*
X81397850Y-63600614D01*
X81397841Y-63605424D01*
X81399876Y-63623643D01*
X81399876Y-64955746D01*
X81397911Y-64973053D01*
X81397901Y-64978639D01*
X81394720Y-64992466D01*
X81397850Y-65006305D01*
X81397833Y-65015575D01*
X81397481Y-65024747D01*
X81397235Y-65028037D01*
X81394428Y-65046650D01*
X81391953Y-65057493D01*
X81388672Y-65071868D01*
X81382907Y-65090406D01*
X81382870Y-65090499D01*
X81372321Y-65111213D01*
X81370364Y-65114310D01*
X81365902Y-65119869D01*
X81365755Y-65120173D01*
X81365753Y-65120175D01*
X81365752Y-65120178D01*
X81365589Y-65120515D01*
X81364004Y-65127461D01*
X81362670Y-65131262D01*
X81360662Y-65138155D01*
X81316614Y-65261700D01*
X81297241Y-65409733D01*
X78649523Y-65409733D01*
X78719200Y-65332754D01*
X78781710Y-65203733D01*
X78805496Y-65062354D01*
X78805647Y-65050000D01*
X78794833Y-64974490D01*
X78786596Y-64916968D01*
X78786595Y-64916965D01*
X78785323Y-64908082D01*
X78725984Y-64777572D01*
X78707598Y-64756234D01*
X78638260Y-64675763D01*
X78638257Y-64675760D01*
X78632400Y-64668963D01*
X78512095Y-64590985D01*
X78374739Y-64549907D01*
X78365763Y-64549852D01*
X78365762Y-64549852D01*
X78305555Y-64549484D01*
X78231376Y-64549031D01*
X78093529Y-64588428D01*
X77972280Y-64664930D01*
X77939843Y-64701659D01*
X77935208Y-64706907D01*
X77875123Y-64744725D01*
X77840766Y-64749500D01*
X69073699Y-64749500D01*
X69005578Y-64729498D01*
X68985039Y-64711649D01*
X68985025Y-64711665D01*
X68978260Y-64705764D01*
X68972400Y-64698963D01*
X68852095Y-64620985D01*
X68714739Y-64579907D01*
X68705763Y-64579852D01*
X68705762Y-64579852D01*
X68645555Y-64579484D01*
X68571376Y-64579031D01*
X68433529Y-64618428D01*
X68312280Y-64694930D01*
X68306338Y-64701658D01*
X68306337Y-64701659D01*
X68297514Y-64711649D01*
X68217377Y-64802388D01*
X68156447Y-64932163D01*
X68155066Y-64941035D01*
X68136177Y-65062354D01*
X68134391Y-65073823D01*
X66162662Y-65073823D01*
X66162063Y-65071879D01*
X66162061Y-65071868D01*
X66156306Y-65046652D01*
X66153501Y-65028053D01*
X66153192Y-65023938D01*
X66152838Y-65014293D01*
X66152850Y-65007018D01*
X66156030Y-64993185D01*
X66152896Y-64979341D01*
X66152904Y-64974490D01*
X66150874Y-64956327D01*
X66150874Y-63624255D01*
X66152839Y-63606950D01*
X66152849Y-63601362D01*
X66156030Y-63587535D01*
X66152900Y-63573696D01*
X66152917Y-63564424D01*
X66153269Y-63555251D01*
X66153514Y-63551978D01*
X66156319Y-63533360D01*
X66162079Y-63508121D01*
X66167227Y-63491167D01*
X66167253Y-63491099D01*
X66178402Y-63468831D01*
X66180380Y-63465699D01*
X66184852Y-63460127D01*
X66185164Y-63459481D01*
X66186747Y-63452544D01*
X66187857Y-63449377D01*
X66190225Y-63441246D01*
X66231816Y-63324580D01*
X66234064Y-63318275D01*
X66253431Y-63170254D01*
X66241168Y-63021476D01*
X66239225Y-63015071D01*
X66199770Y-62885036D01*
X66199768Y-62885032D01*
X66197824Y-62878624D01*
X66125347Y-62748116D01*
X66026992Y-62635814D01*
X65907179Y-62546764D01*
X65901016Y-62543961D01*
X65873521Y-62531457D01*
X65771289Y-62484965D01*
X65625426Y-62453193D01*
X65548242Y-62453030D01*
X65482835Y-62452891D01*
X65482833Y-62452891D01*
X65476144Y-62452877D01*
X65469604Y-62454272D01*
X65469599Y-62454273D01*
X65392809Y-62470659D01*
X65330148Y-62484029D01*
X65324039Y-62486776D01*
X65211720Y-62537282D01*
X65204538Y-62540000D01*
X65200763Y-62541658D01*
X65193963Y-62543769D01*
X65193633Y-62543961D01*
X65193629Y-62543963D01*
X65193342Y-62544131D01*
X65188201Y-62548950D01*
X65186407Y-62550289D01*
X65164792Y-62563278D01*
X65158309Y-62566335D01*
X65137487Y-62573998D01*
X65108080Y-62581961D01*
X65086248Y-62585851D01*
X65072802Y-62587039D01*
X65061507Y-62587528D01*
X65059003Y-62587524D01*
X65045175Y-62584345D01*
X65031333Y-62587478D01*
X65026496Y-62587470D01*
X65008316Y-62589501D01*
X63492995Y-62589501D01*
X63475662Y-62587534D01*
X63470102Y-62587524D01*
X63456273Y-62584345D01*
X63442436Y-62587476D01*
X63438255Y-62587469D01*
X63427389Y-62586980D01*
X63414481Y-62585840D01*
X63392644Y-62581952D01*
X63363245Y-62573994D01*
X63342423Y-62566334D01*
X63336210Y-62563404D01*
X63314310Y-62550208D01*
X63313347Y-62549485D01*
X63313304Y-62549471D01*
X63308043Y-62544505D01*
X63307735Y-62544324D01*
X63307725Y-62544315D01*
X63307712Y-62544311D01*
X63307424Y-62544142D01*
X63300622Y-62542004D01*
X63297031Y-62540410D01*
X63290161Y-62537795D01*
X63176717Y-62486772D01*
X63176711Y-62486770D01*
X63170610Y-62484026D01*
X63164067Y-62482629D01*
X63164066Y-62482629D01*
X63031156Y-62454258D01*
X63031153Y-62454258D01*
X63024605Y-62452860D01*
X62950720Y-62453012D01*
X62882007Y-62453154D01*
X62882005Y-62453154D01*
X62875311Y-62453168D01*
X62809533Y-62467492D01*
X62735972Y-62483511D01*
X62735968Y-62483512D01*
X62729435Y-62484935D01*
X62723347Y-62487703D01*
X62723345Y-62487704D01*
X62614315Y-62537282D01*
X62593531Y-62546733D01*
X62588156Y-62550727D01*
X62588152Y-62550730D01*
X62535985Y-62589501D01*
X62473705Y-62635788D01*
X62375341Y-62748097D01*
X62372090Y-62753950D01*
X62372087Y-62753955D01*
X62372079Y-62753970D01*
X62302857Y-62878615D01*
X62259510Y-63021478D01*
X62247248Y-63170268D01*
X62256934Y-63244284D01*
X62261664Y-63280420D01*
X62266621Y-63318301D01*
X62268870Y-63324608D01*
X62310235Y-63440626D01*
X62312362Y-63447977D01*
X62312507Y-63448394D01*
X62312512Y-63448494D01*
X62312688Y-63449103D01*
X62312969Y-63449724D01*
X62313715Y-63451875D01*
X62315279Y-63458840D01*
X62315455Y-63459207D01*
X62315456Y-63459211D01*
X62315459Y-63459214D01*
X62315590Y-63459488D01*
X62320053Y-63465088D01*
X62322584Y-63469129D01*
X62333009Y-63489779D01*
X62333084Y-63489971D01*
X62338700Y-63508127D01*
X62344452Y-63533328D01*
X62347258Y-63551952D01*
X62347563Y-63556025D01*
X62347915Y-63565667D01*
X62347901Y-63572947D01*
X62344720Y-63586775D01*
X62347850Y-63600614D01*
X62347841Y-63605424D01*
X62349876Y-63623643D01*
X62349876Y-64955746D01*
X62347911Y-64973053D01*
X62347901Y-64978639D01*
X62344720Y-64992466D01*
X62347850Y-65006305D01*
X62347833Y-65015575D01*
X62347481Y-65024747D01*
X62347235Y-65028037D01*
X62344428Y-65046650D01*
X62341953Y-65057493D01*
X62338672Y-65071868D01*
X62332907Y-65090406D01*
X62332870Y-65090499D01*
X62322321Y-65111213D01*
X62320364Y-65114310D01*
X62315902Y-65119869D01*
X62315755Y-65120173D01*
X62315753Y-65120175D01*
X62315752Y-65120178D01*
X62315589Y-65120515D01*
X62314004Y-65127461D01*
X62312670Y-65131262D01*
X62310662Y-65138155D01*
X62266614Y-65261700D01*
X62247241Y-65409733D01*
X53505078Y-65409733D01*
X53513166Y-59154769D01*
X58041105Y-59154769D01*
X58051034Y-59369306D01*
X58101353Y-59578094D01*
X58103835Y-59583552D01*
X58103836Y-59583556D01*
X58150346Y-59685849D01*
X58190244Y-59773600D01*
X58314501Y-59948770D01*
X58318824Y-59952909D01*
X58318828Y-59952913D01*
X58407782Y-60038068D01*
X58469640Y-60097284D01*
X58650064Y-60213782D01*
X58849262Y-60294061D01*
X58953633Y-60314443D01*
X59055600Y-60334356D01*
X59055603Y-60334356D01*
X59060046Y-60335224D01*
X59065689Y-60335500D01*
X59224039Y-60335500D01*
X59384170Y-60320222D01*
X59389926Y-60318533D01*
X59389928Y-60318533D01*
X59480995Y-60291817D01*
X59590251Y-60259765D01*
X59595579Y-60257021D01*
X59775851Y-60164175D01*
X59775854Y-60164173D01*
X59781182Y-60161429D01*
X59950073Y-60028763D01*
X60090830Y-59866554D01*
X60198376Y-59680655D01*
X60268828Y-59477774D01*
X60283711Y-59375131D01*
X60298784Y-59271171D01*
X60298784Y-59271168D01*
X60299645Y-59265231D01*
X60299269Y-59257108D01*
X62001445Y-59257108D01*
X62001808Y-59261256D01*
X62001808Y-59261260D01*
X62027066Y-59549964D01*
X62027067Y-59549972D01*
X62027431Y-59554130D01*
X62028345Y-59558219D01*
X62076489Y-59773600D01*
X62092472Y-59845105D01*
X62195425Y-60124923D01*
X62197372Y-60128616D01*
X62197373Y-60128618D01*
X62214672Y-60161429D01*
X62334481Y-60388666D01*
X62507197Y-60631701D01*
X62510041Y-60634751D01*
X62510046Y-60634757D01*
X62707689Y-60846703D01*
X62710539Y-60849759D01*
X62940934Y-61039008D01*
X63194335Y-61196123D01*
X63198147Y-61197836D01*
X63462472Y-61316629D01*
X63462478Y-61316631D01*
X63466289Y-61318344D01*
X63470295Y-61319538D01*
X63470297Y-61319539D01*
X63609154Y-61360933D01*
X63752019Y-61403523D01*
X64046504Y-61450165D01*
X64091776Y-61452221D01*
X64138344Y-61454336D01*
X64138363Y-61454336D01*
X64139763Y-61454400D01*
X64326000Y-61454400D01*
X64547876Y-61439663D01*
X64840149Y-61380730D01*
X65122061Y-61283660D01*
X65125794Y-61281791D01*
X65125798Y-61281789D01*
X65384915Y-61152033D01*
X65384917Y-61152032D01*
X65388659Y-61150158D01*
X65635258Y-60982570D01*
X65857526Y-60783839D01*
X66051559Y-60557457D01*
X66053833Y-60553955D01*
X66053837Y-60553950D01*
X66211667Y-60310913D01*
X66211670Y-60310908D01*
X66213946Y-60307403D01*
X66341836Y-60038068D01*
X66369177Y-59952913D01*
X66431701Y-59758172D01*
X66431701Y-59758171D01*
X66432981Y-59754185D01*
X66447272Y-59674759D01*
X66485040Y-59464850D01*
X66485041Y-59464845D01*
X66485779Y-59460741D01*
X66489932Y-59369306D01*
X66499116Y-59167062D01*
X66499116Y-59167056D01*
X66499305Y-59162892D01*
X66498942Y-59158740D01*
X66473684Y-58870036D01*
X66473683Y-58870028D01*
X66473319Y-58865870D01*
X66425481Y-58651855D01*
X66409192Y-58578983D01*
X66409191Y-58578980D01*
X66408278Y-58574895D01*
X66389054Y-58522644D01*
X66316245Y-58324757D01*
X66305325Y-58295077D01*
X66288031Y-58262275D01*
X66194903Y-58085644D01*
X66166269Y-58031334D01*
X65993553Y-57788299D01*
X65990709Y-57785249D01*
X65990704Y-57785243D01*
X65793061Y-57573297D01*
X65793059Y-57573295D01*
X65790211Y-57570241D01*
X65559816Y-57380992D01*
X65306415Y-57223877D01*
X65115800Y-57138211D01*
X65038278Y-57103371D01*
X65038272Y-57103369D01*
X65034461Y-57101656D01*
X65030455Y-57100462D01*
X65030453Y-57100461D01*
X64822415Y-57038443D01*
X64748731Y-57016477D01*
X64454246Y-56969835D01*
X64408974Y-56967779D01*
X64362406Y-56965664D01*
X64362387Y-56965664D01*
X64360987Y-56965600D01*
X64174750Y-56965600D01*
X63952874Y-56980337D01*
X63660601Y-57039270D01*
X63378689Y-57136340D01*
X63374956Y-57138209D01*
X63374952Y-57138211D01*
X63115835Y-57267967D01*
X63112091Y-57269842D01*
X62865492Y-57437430D01*
X62643224Y-57636161D01*
X62449191Y-57862543D01*
X62446917Y-57866045D01*
X62446913Y-57866050D01*
X62289083Y-58109087D01*
X62286804Y-58112597D01*
X62158914Y-58381932D01*
X62157635Y-58385915D01*
X62157634Y-58385918D01*
X62074002Y-58646400D01*
X62067769Y-58665815D01*
X62067028Y-58669934D01*
X62016968Y-58948162D01*
X62014971Y-58959259D01*
X62014782Y-58963426D01*
X62014781Y-58963433D01*
X62005534Y-59167062D01*
X62001445Y-59257108D01*
X60299269Y-59257108D01*
X60289716Y-59050694D01*
X60266690Y-58955150D01*
X60240803Y-58847740D01*
X60239397Y-58841906D01*
X60192766Y-58739345D01*
X60183126Y-58718144D01*
X60150506Y-58646400D01*
X60026249Y-58471230D01*
X60021926Y-58467091D01*
X60021922Y-58467087D01*
X59875440Y-58326861D01*
X59875439Y-58326861D01*
X59871110Y-58322716D01*
X59690686Y-58206218D01*
X59491488Y-58125939D01*
X59357525Y-58099778D01*
X59285150Y-58085644D01*
X59285147Y-58085644D01*
X59280704Y-58084776D01*
X59275061Y-58084500D01*
X59116711Y-58084500D01*
X58956580Y-58099778D01*
X58950824Y-58101467D01*
X58950822Y-58101467D01*
X58871328Y-58124788D01*
X58750499Y-58160235D01*
X58745172Y-58162979D01*
X58745171Y-58162979D01*
X58564899Y-58255825D01*
X58564896Y-58255827D01*
X58559568Y-58258571D01*
X58390677Y-58391237D01*
X58386746Y-58395767D01*
X58386745Y-58395768D01*
X58361203Y-58425203D01*
X58249920Y-58553446D01*
X58142374Y-58739345D01*
X58071922Y-58942226D01*
X58071062Y-58948159D01*
X58071061Y-58948162D01*
X58041966Y-59148829D01*
X58041105Y-59154769D01*
X53513166Y-59154769D01*
X53516454Y-56611726D01*
X66206063Y-56611726D01*
X66216352Y-56873582D01*
X66263433Y-57131376D01*
X66346369Y-57379965D01*
X66348362Y-57383953D01*
X66441445Y-57570241D01*
X66463503Y-57614387D01*
X66508716Y-57679804D01*
X66583701Y-57788299D01*
X66612499Y-57829967D01*
X66645854Y-57866050D01*
X66733696Y-57961076D01*
X66790385Y-58022402D01*
X66793839Y-58025214D01*
X66990153Y-58185039D01*
X66990157Y-58185042D01*
X66993610Y-58187853D01*
X66997432Y-58190154D01*
X67212217Y-58319465D01*
X67218120Y-58323019D01*
X67330920Y-58370784D01*
X67455337Y-58423468D01*
X67455341Y-58423469D01*
X67459435Y-58425203D01*
X67463727Y-58426341D01*
X67463730Y-58426342D01*
X67564500Y-58453061D01*
X67712740Y-58492366D01*
X67717164Y-58492890D01*
X67717166Y-58492890D01*
X67867947Y-58510736D01*
X67972982Y-58523167D01*
X68209250Y-58517599D01*
X68277824Y-58535991D01*
X68325568Y-58588536D01*
X68337324Y-58658552D01*
X68321283Y-58706659D01*
X68302374Y-58739345D01*
X68231922Y-58942226D01*
X68231062Y-58948159D01*
X68231061Y-58948162D01*
X68201966Y-59148829D01*
X68201105Y-59154769D01*
X68211034Y-59369306D01*
X68261353Y-59578094D01*
X68263835Y-59583552D01*
X68263836Y-59583556D01*
X68310346Y-59685849D01*
X68350244Y-59773600D01*
X68474501Y-59948770D01*
X68478824Y-59952909D01*
X68478828Y-59952913D01*
X68567782Y-60038068D01*
X68629640Y-60097284D01*
X68810064Y-60213782D01*
X69009262Y-60294061D01*
X69113633Y-60314443D01*
X69215600Y-60334356D01*
X69215603Y-60334356D01*
X69220046Y-60335224D01*
X69225689Y-60335500D01*
X69384039Y-60335500D01*
X69544170Y-60320222D01*
X69549926Y-60318533D01*
X69549928Y-60318533D01*
X69640995Y-60291817D01*
X69750251Y-60259765D01*
X69755579Y-60257021D01*
X69935851Y-60164175D01*
X69935854Y-60164173D01*
X69941182Y-60161429D01*
X70110073Y-60028763D01*
X70250830Y-59866554D01*
X70358376Y-59680655D01*
X70428828Y-59477774D01*
X70443711Y-59375131D01*
X70458784Y-59271171D01*
X70458784Y-59271168D01*
X70459645Y-59265231D01*
X70454533Y-59154769D01*
X77091105Y-59154769D01*
X77101034Y-59369306D01*
X77151353Y-59578094D01*
X77153835Y-59583552D01*
X77153836Y-59583556D01*
X77200346Y-59685849D01*
X77240244Y-59773600D01*
X77364501Y-59948770D01*
X77368824Y-59952909D01*
X77368828Y-59952913D01*
X77457782Y-60038068D01*
X77519640Y-60097284D01*
X77700064Y-60213782D01*
X77899262Y-60294061D01*
X78003633Y-60314443D01*
X78105600Y-60334356D01*
X78105603Y-60334356D01*
X78110046Y-60335224D01*
X78115689Y-60335500D01*
X78274039Y-60335500D01*
X78434170Y-60320222D01*
X78439926Y-60318533D01*
X78439928Y-60318533D01*
X78530995Y-60291817D01*
X78640251Y-60259765D01*
X78645579Y-60257021D01*
X78825851Y-60164175D01*
X78825854Y-60164173D01*
X78831182Y-60161429D01*
X79000073Y-60028763D01*
X79140830Y-59866554D01*
X79248376Y-59680655D01*
X79318828Y-59477774D01*
X79333711Y-59375131D01*
X79348784Y-59271171D01*
X79348784Y-59271168D01*
X79349645Y-59265231D01*
X79349269Y-59257108D01*
X81051445Y-59257108D01*
X81051808Y-59261256D01*
X81051808Y-59261260D01*
X81077066Y-59549964D01*
X81077067Y-59549972D01*
X81077431Y-59554130D01*
X81078345Y-59558219D01*
X81126489Y-59773600D01*
X81142472Y-59845105D01*
X81245425Y-60124923D01*
X81247372Y-60128616D01*
X81247373Y-60128618D01*
X81264672Y-60161429D01*
X81384481Y-60388666D01*
X81557197Y-60631701D01*
X81560041Y-60634751D01*
X81560046Y-60634757D01*
X81757689Y-60846703D01*
X81760539Y-60849759D01*
X81990934Y-61039008D01*
X82244335Y-61196123D01*
X82248147Y-61197836D01*
X82512472Y-61316629D01*
X82512478Y-61316631D01*
X82516289Y-61318344D01*
X82520295Y-61319538D01*
X82520297Y-61319539D01*
X82659154Y-61360933D01*
X82802019Y-61403523D01*
X83096504Y-61450165D01*
X83141776Y-61452221D01*
X83188344Y-61454336D01*
X83188363Y-61454336D01*
X83189763Y-61454400D01*
X83376000Y-61454400D01*
X83597876Y-61439663D01*
X83890149Y-61380730D01*
X84172061Y-61283660D01*
X84175794Y-61281791D01*
X84175798Y-61281789D01*
X84434915Y-61152033D01*
X84434917Y-61152032D01*
X84438659Y-61150158D01*
X84685258Y-60982570D01*
X84907526Y-60783839D01*
X85101559Y-60557457D01*
X85103833Y-60553955D01*
X85103837Y-60553950D01*
X85261667Y-60310913D01*
X85261670Y-60310908D01*
X85263946Y-60307403D01*
X85391836Y-60038068D01*
X85419177Y-59952913D01*
X85481701Y-59758172D01*
X85481701Y-59758171D01*
X85482981Y-59754185D01*
X85497272Y-59674759D01*
X85535040Y-59464850D01*
X85535041Y-59464845D01*
X85535779Y-59460741D01*
X85539932Y-59369306D01*
X85549116Y-59167062D01*
X85549116Y-59167056D01*
X85549305Y-59162892D01*
X85548942Y-59158740D01*
X85523684Y-58870036D01*
X85523683Y-58870028D01*
X85523319Y-58865870D01*
X85475481Y-58651855D01*
X85459192Y-58578983D01*
X85459191Y-58578980D01*
X85458278Y-58574895D01*
X85439054Y-58522644D01*
X85366245Y-58324757D01*
X85355325Y-58295077D01*
X85338031Y-58262275D01*
X85244903Y-58085644D01*
X85216269Y-58031334D01*
X85043553Y-57788299D01*
X85040709Y-57785249D01*
X85040704Y-57785243D01*
X84843061Y-57573297D01*
X84843059Y-57573295D01*
X84840211Y-57570241D01*
X84609816Y-57380992D01*
X84356415Y-57223877D01*
X84165800Y-57138211D01*
X84088278Y-57103371D01*
X84088272Y-57103369D01*
X84084461Y-57101656D01*
X84080455Y-57100462D01*
X84080453Y-57100461D01*
X83872415Y-57038443D01*
X83798731Y-57016477D01*
X83504246Y-56969835D01*
X83458974Y-56967779D01*
X83412406Y-56965664D01*
X83412387Y-56965664D01*
X83410987Y-56965600D01*
X83224750Y-56965600D01*
X83002874Y-56980337D01*
X82710601Y-57039270D01*
X82428689Y-57136340D01*
X82424956Y-57138209D01*
X82424952Y-57138211D01*
X82165835Y-57267967D01*
X82162091Y-57269842D01*
X81915492Y-57437430D01*
X81693224Y-57636161D01*
X81499191Y-57862543D01*
X81496917Y-57866045D01*
X81496913Y-57866050D01*
X81339083Y-58109087D01*
X81336804Y-58112597D01*
X81208914Y-58381932D01*
X81207635Y-58385915D01*
X81207634Y-58385918D01*
X81124002Y-58646400D01*
X81117769Y-58665815D01*
X81117028Y-58669934D01*
X81066968Y-58948162D01*
X81064971Y-58959259D01*
X81064782Y-58963426D01*
X81064781Y-58963433D01*
X81055534Y-59167062D01*
X81051445Y-59257108D01*
X79349269Y-59257108D01*
X79339716Y-59050694D01*
X79316690Y-58955150D01*
X79290803Y-58847740D01*
X79289397Y-58841906D01*
X79242766Y-58739345D01*
X79233126Y-58718144D01*
X79200506Y-58646400D01*
X79076249Y-58471230D01*
X79071926Y-58467091D01*
X79071922Y-58467087D01*
X78925440Y-58326861D01*
X78925439Y-58326861D01*
X78921110Y-58322716D01*
X78740686Y-58206218D01*
X78541488Y-58125939D01*
X78407525Y-58099778D01*
X78335150Y-58085644D01*
X78335147Y-58085644D01*
X78330704Y-58084776D01*
X78325061Y-58084500D01*
X78166711Y-58084500D01*
X78006580Y-58099778D01*
X78000824Y-58101467D01*
X78000822Y-58101467D01*
X77921328Y-58124788D01*
X77800499Y-58160235D01*
X77795172Y-58162979D01*
X77795171Y-58162979D01*
X77614899Y-58255825D01*
X77614896Y-58255827D01*
X77609568Y-58258571D01*
X77440677Y-58391237D01*
X77436746Y-58395767D01*
X77436745Y-58395768D01*
X77411203Y-58425203D01*
X77299920Y-58553446D01*
X77192374Y-58739345D01*
X77121922Y-58942226D01*
X77121062Y-58948159D01*
X77121061Y-58948162D01*
X77091966Y-59148829D01*
X77091105Y-59154769D01*
X70454533Y-59154769D01*
X70449716Y-59050694D01*
X70426690Y-58955150D01*
X70400803Y-58847740D01*
X70399397Y-58841906D01*
X70352766Y-58739345D01*
X70343126Y-58718144D01*
X70310506Y-58646400D01*
X70186249Y-58471230D01*
X70181926Y-58467091D01*
X70181922Y-58467087D01*
X70035440Y-58326861D01*
X70035439Y-58326861D01*
X70031110Y-58322716D01*
X69850686Y-58206218D01*
X69651488Y-58125939D01*
X69645600Y-58124789D01*
X69645596Y-58124788D01*
X69554120Y-58106924D01*
X69520059Y-58100273D01*
X69457034Y-58067586D01*
X69421687Y-58006014D01*
X69425239Y-57935106D01*
X69447757Y-57895534D01*
X69558413Y-57763893D01*
X69558420Y-57763883D01*
X69561285Y-57760475D01*
X69699961Y-57538116D01*
X69768116Y-57383953D01*
X69804124Y-57302503D01*
X69805922Y-57298436D01*
X69877056Y-57046216D01*
X69882230Y-57007696D01*
X69911514Y-56789673D01*
X69911515Y-56789665D01*
X69911941Y-56786491D01*
X69915602Y-56670000D01*
X69911476Y-56611726D01*
X85256063Y-56611726D01*
X85266352Y-56873582D01*
X85313433Y-57131376D01*
X85396369Y-57379965D01*
X85398362Y-57383953D01*
X85491445Y-57570241D01*
X85513503Y-57614387D01*
X85558716Y-57679804D01*
X85633701Y-57788299D01*
X85662499Y-57829967D01*
X85695854Y-57866050D01*
X85783696Y-57961076D01*
X85840385Y-58022402D01*
X85843839Y-58025214D01*
X86040153Y-58185039D01*
X86040157Y-58185042D01*
X86043610Y-58187853D01*
X86047432Y-58190154D01*
X86262217Y-58319465D01*
X86268120Y-58323019D01*
X86380920Y-58370784D01*
X86505337Y-58423468D01*
X86505341Y-58423469D01*
X86509435Y-58425203D01*
X86513727Y-58426341D01*
X86513730Y-58426342D01*
X86614500Y-58453061D01*
X86762740Y-58492366D01*
X86767164Y-58492890D01*
X86767166Y-58492890D01*
X86917947Y-58510736D01*
X87022982Y-58523167D01*
X87259250Y-58517599D01*
X87327824Y-58535991D01*
X87375568Y-58588536D01*
X87387324Y-58658552D01*
X87371283Y-58706659D01*
X87352374Y-58739345D01*
X87281922Y-58942226D01*
X87281062Y-58948159D01*
X87281061Y-58948162D01*
X87251966Y-59148829D01*
X87251105Y-59154769D01*
X87261034Y-59369306D01*
X87311353Y-59578094D01*
X87313835Y-59583552D01*
X87313836Y-59583556D01*
X87360346Y-59685849D01*
X87400244Y-59773600D01*
X87524501Y-59948770D01*
X87528824Y-59952909D01*
X87528828Y-59952913D01*
X87617782Y-60038068D01*
X87679640Y-60097284D01*
X87860064Y-60213782D01*
X88059262Y-60294061D01*
X88163633Y-60314443D01*
X88265600Y-60334356D01*
X88265603Y-60334356D01*
X88270046Y-60335224D01*
X88275689Y-60335500D01*
X88434039Y-60335500D01*
X88594170Y-60320222D01*
X88599926Y-60318533D01*
X88599928Y-60318533D01*
X88690995Y-60291817D01*
X88800251Y-60259765D01*
X88805579Y-60257021D01*
X88985851Y-60164175D01*
X88985854Y-60164173D01*
X88991182Y-60161429D01*
X89160073Y-60028763D01*
X89300830Y-59866554D01*
X89408376Y-59680655D01*
X89478828Y-59477774D01*
X89493711Y-59375131D01*
X89508784Y-59271171D01*
X89508784Y-59271168D01*
X89509645Y-59265231D01*
X89504533Y-59154769D01*
X96141105Y-59154769D01*
X96151034Y-59369306D01*
X96201353Y-59578094D01*
X96203835Y-59583552D01*
X96203836Y-59583556D01*
X96250346Y-59685849D01*
X96290244Y-59773600D01*
X96414501Y-59948770D01*
X96418824Y-59952909D01*
X96418828Y-59952913D01*
X96507782Y-60038068D01*
X96569640Y-60097284D01*
X96750064Y-60213782D01*
X96949262Y-60294061D01*
X97053633Y-60314443D01*
X97155600Y-60334356D01*
X97155603Y-60334356D01*
X97160046Y-60335224D01*
X97165689Y-60335500D01*
X97324039Y-60335500D01*
X97484170Y-60320222D01*
X97489926Y-60318533D01*
X97489928Y-60318533D01*
X97580995Y-60291817D01*
X97690251Y-60259765D01*
X97695579Y-60257021D01*
X97875851Y-60164175D01*
X97875854Y-60164173D01*
X97881182Y-60161429D01*
X98050073Y-60028763D01*
X98190830Y-59866554D01*
X98298376Y-59680655D01*
X98368828Y-59477774D01*
X98383711Y-59375131D01*
X98398784Y-59271171D01*
X98398784Y-59271168D01*
X98399645Y-59265231D01*
X98399269Y-59257108D01*
X100101445Y-59257108D01*
X100101808Y-59261256D01*
X100101808Y-59261260D01*
X100127066Y-59549964D01*
X100127067Y-59549972D01*
X100127431Y-59554130D01*
X100128345Y-59558219D01*
X100176489Y-59773600D01*
X100192472Y-59845105D01*
X100295425Y-60124923D01*
X100297372Y-60128616D01*
X100297373Y-60128618D01*
X100314672Y-60161429D01*
X100434481Y-60388666D01*
X100607197Y-60631701D01*
X100610041Y-60634751D01*
X100610046Y-60634757D01*
X100807689Y-60846703D01*
X100810539Y-60849759D01*
X101040934Y-61039008D01*
X101294335Y-61196123D01*
X101298147Y-61197836D01*
X101562472Y-61316629D01*
X101562478Y-61316631D01*
X101566289Y-61318344D01*
X101570295Y-61319538D01*
X101570297Y-61319539D01*
X101709154Y-61360933D01*
X101852019Y-61403523D01*
X102146504Y-61450165D01*
X102191776Y-61452221D01*
X102238344Y-61454336D01*
X102238363Y-61454336D01*
X102239763Y-61454400D01*
X102426000Y-61454400D01*
X102647876Y-61439663D01*
X102940149Y-61380730D01*
X103222061Y-61283660D01*
X103225794Y-61281791D01*
X103225798Y-61281789D01*
X103484915Y-61152033D01*
X103484917Y-61152032D01*
X103488659Y-61150158D01*
X103735258Y-60982570D01*
X103957526Y-60783839D01*
X104151559Y-60557457D01*
X104153833Y-60553955D01*
X104153837Y-60553950D01*
X104311667Y-60310913D01*
X104311670Y-60310908D01*
X104313946Y-60307403D01*
X104441836Y-60038068D01*
X104469177Y-59952913D01*
X104531701Y-59758172D01*
X104531701Y-59758171D01*
X104532981Y-59754185D01*
X104547272Y-59674759D01*
X104585040Y-59464850D01*
X104585041Y-59464845D01*
X104585779Y-59460741D01*
X104589932Y-59369306D01*
X104599116Y-59167062D01*
X104599116Y-59167056D01*
X104599305Y-59162892D01*
X104598942Y-59158740D01*
X104573684Y-58870036D01*
X104573683Y-58870028D01*
X104573319Y-58865870D01*
X104525481Y-58651855D01*
X104509192Y-58578983D01*
X104509191Y-58578980D01*
X104508278Y-58574895D01*
X104489054Y-58522644D01*
X104416245Y-58324757D01*
X104405325Y-58295077D01*
X104388031Y-58262275D01*
X104294903Y-58085644D01*
X104266269Y-58031334D01*
X104093553Y-57788299D01*
X104090709Y-57785249D01*
X104090704Y-57785243D01*
X103893061Y-57573297D01*
X103893059Y-57573295D01*
X103890211Y-57570241D01*
X103659816Y-57380992D01*
X103406415Y-57223877D01*
X103215800Y-57138211D01*
X103138278Y-57103371D01*
X103138272Y-57103369D01*
X103134461Y-57101656D01*
X103130455Y-57100462D01*
X103130453Y-57100461D01*
X102922415Y-57038443D01*
X102848731Y-57016477D01*
X102554246Y-56969835D01*
X102508974Y-56967779D01*
X102462406Y-56965664D01*
X102462387Y-56965664D01*
X102460987Y-56965600D01*
X102274750Y-56965600D01*
X102052874Y-56980337D01*
X101760601Y-57039270D01*
X101478689Y-57136340D01*
X101474956Y-57138209D01*
X101474952Y-57138211D01*
X101215835Y-57267967D01*
X101212091Y-57269842D01*
X100965492Y-57437430D01*
X100743224Y-57636161D01*
X100549191Y-57862543D01*
X100546917Y-57866045D01*
X100546913Y-57866050D01*
X100389083Y-58109087D01*
X100386804Y-58112597D01*
X100258914Y-58381932D01*
X100257635Y-58385915D01*
X100257634Y-58385918D01*
X100174002Y-58646400D01*
X100167769Y-58665815D01*
X100167028Y-58669934D01*
X100116968Y-58948162D01*
X100114971Y-58959259D01*
X100114782Y-58963426D01*
X100114781Y-58963433D01*
X100105534Y-59167062D01*
X100101445Y-59257108D01*
X98399269Y-59257108D01*
X98389716Y-59050694D01*
X98366690Y-58955150D01*
X98340803Y-58847740D01*
X98339397Y-58841906D01*
X98292766Y-58739345D01*
X98283126Y-58718144D01*
X98250506Y-58646400D01*
X98126249Y-58471230D01*
X98121926Y-58467091D01*
X98121922Y-58467087D01*
X97975440Y-58326861D01*
X97975439Y-58326861D01*
X97971110Y-58322716D01*
X97790686Y-58206218D01*
X97591488Y-58125939D01*
X97457525Y-58099778D01*
X97385150Y-58085644D01*
X97385147Y-58085644D01*
X97380704Y-58084776D01*
X97375061Y-58084500D01*
X97216711Y-58084500D01*
X97056580Y-58099778D01*
X97050824Y-58101467D01*
X97050822Y-58101467D01*
X96971328Y-58124788D01*
X96850499Y-58160235D01*
X96845172Y-58162979D01*
X96845171Y-58162979D01*
X96664899Y-58255825D01*
X96664896Y-58255827D01*
X96659568Y-58258571D01*
X96490677Y-58391237D01*
X96486746Y-58395767D01*
X96486745Y-58395768D01*
X96461203Y-58425203D01*
X96349920Y-58553446D01*
X96242374Y-58739345D01*
X96171922Y-58942226D01*
X96171062Y-58948159D01*
X96171061Y-58948162D01*
X96141966Y-59148829D01*
X96141105Y-59154769D01*
X89504533Y-59154769D01*
X89499716Y-59050694D01*
X89476690Y-58955150D01*
X89450803Y-58847740D01*
X89449397Y-58841906D01*
X89402766Y-58739345D01*
X89393126Y-58718144D01*
X89360506Y-58646400D01*
X89236249Y-58471230D01*
X89231926Y-58467091D01*
X89231922Y-58467087D01*
X89085440Y-58326861D01*
X89085439Y-58326861D01*
X89081110Y-58322716D01*
X88900686Y-58206218D01*
X88701488Y-58125939D01*
X88695600Y-58124789D01*
X88695596Y-58124788D01*
X88604120Y-58106924D01*
X88570059Y-58100273D01*
X88507034Y-58067586D01*
X88471687Y-58006014D01*
X88475239Y-57935106D01*
X88497757Y-57895534D01*
X88608413Y-57763893D01*
X88608420Y-57763883D01*
X88611285Y-57760475D01*
X88749961Y-57538116D01*
X88818116Y-57383953D01*
X88854124Y-57302503D01*
X88855922Y-57298436D01*
X88927056Y-57046216D01*
X88932230Y-57007696D01*
X88961514Y-56789673D01*
X88961515Y-56789665D01*
X88961941Y-56786491D01*
X88965602Y-56670000D01*
X88961476Y-56611726D01*
X104306063Y-56611726D01*
X104316352Y-56873582D01*
X104363433Y-57131376D01*
X104446369Y-57379965D01*
X104448362Y-57383953D01*
X104541445Y-57570241D01*
X104563503Y-57614387D01*
X104608716Y-57679804D01*
X104683701Y-57788299D01*
X104712499Y-57829967D01*
X104745854Y-57866050D01*
X104833696Y-57961076D01*
X104890385Y-58022402D01*
X104893839Y-58025214D01*
X105090153Y-58185039D01*
X105090157Y-58185042D01*
X105093610Y-58187853D01*
X105097432Y-58190154D01*
X105312217Y-58319465D01*
X105318120Y-58323019D01*
X105430920Y-58370784D01*
X105555337Y-58423468D01*
X105555341Y-58423469D01*
X105559435Y-58425203D01*
X105563727Y-58426341D01*
X105563730Y-58426342D01*
X105664500Y-58453061D01*
X105812740Y-58492366D01*
X105817164Y-58492890D01*
X105817166Y-58492890D01*
X105967947Y-58510736D01*
X106072982Y-58523167D01*
X106309250Y-58517599D01*
X106377824Y-58535991D01*
X106425568Y-58588536D01*
X106437324Y-58658552D01*
X106421283Y-58706659D01*
X106402374Y-58739345D01*
X106331922Y-58942226D01*
X106331062Y-58948159D01*
X106331061Y-58948162D01*
X106301966Y-59148829D01*
X106301105Y-59154769D01*
X106311034Y-59369306D01*
X106361353Y-59578094D01*
X106363835Y-59583552D01*
X106363836Y-59583556D01*
X106410346Y-59685849D01*
X106450244Y-59773600D01*
X106574501Y-59948770D01*
X106578824Y-59952909D01*
X106578828Y-59952913D01*
X106667782Y-60038068D01*
X106729640Y-60097284D01*
X106910064Y-60213782D01*
X107109262Y-60294061D01*
X107213633Y-60314443D01*
X107315600Y-60334356D01*
X107315603Y-60334356D01*
X107320046Y-60335224D01*
X107325689Y-60335500D01*
X107484039Y-60335500D01*
X107644170Y-60320222D01*
X107649926Y-60318533D01*
X107649928Y-60318533D01*
X107740995Y-60291817D01*
X107850251Y-60259765D01*
X107855579Y-60257021D01*
X108035851Y-60164175D01*
X108035854Y-60164173D01*
X108041182Y-60161429D01*
X108210073Y-60028763D01*
X108350830Y-59866554D01*
X108458376Y-59680655D01*
X108528828Y-59477774D01*
X108543711Y-59375131D01*
X108558784Y-59271171D01*
X108558784Y-59271168D01*
X108559645Y-59265231D01*
X108549716Y-59050694D01*
X108526690Y-58955150D01*
X108500803Y-58847740D01*
X108499397Y-58841906D01*
X108452766Y-58739345D01*
X108443126Y-58718144D01*
X108410506Y-58646400D01*
X108286249Y-58471230D01*
X108281926Y-58467091D01*
X108281922Y-58467087D01*
X108135440Y-58326861D01*
X108135439Y-58326861D01*
X108131110Y-58322716D01*
X107950686Y-58206218D01*
X107751488Y-58125939D01*
X107745600Y-58124789D01*
X107745596Y-58124788D01*
X107654120Y-58106924D01*
X107620059Y-58100273D01*
X107557034Y-58067586D01*
X107521687Y-58006014D01*
X107525239Y-57935106D01*
X107547757Y-57895534D01*
X107658413Y-57763893D01*
X107658420Y-57763883D01*
X107661285Y-57760475D01*
X107799961Y-57538116D01*
X107868116Y-57383953D01*
X107904124Y-57302503D01*
X107905922Y-57298436D01*
X107977056Y-57046216D01*
X107982230Y-57007696D01*
X108011514Y-56789673D01*
X108011515Y-56789665D01*
X108011941Y-56786491D01*
X108015602Y-56670000D01*
X107997094Y-56408596D01*
X107941938Y-56152408D01*
X107922985Y-56101032D01*
X107852776Y-55910724D01*
X107851235Y-55906547D01*
X107726795Y-55675920D01*
X107693658Y-55631055D01*
X107573745Y-55468706D01*
X107571101Y-55465126D01*
X107387259Y-55278374D01*
X107318711Y-55226060D01*
X107182482Y-55122093D01*
X107182478Y-55122090D01*
X107178937Y-55119388D01*
X106950292Y-54991340D01*
X106946143Y-54989735D01*
X106946139Y-54989733D01*
X106798571Y-54932644D01*
X106705887Y-54896787D01*
X106701566Y-54895785D01*
X106701558Y-54895783D01*
X106533444Y-54856817D01*
X106450596Y-54837614D01*
X106189516Y-54815002D01*
X106185081Y-54815246D01*
X106185077Y-54815246D01*
X105932296Y-54829157D01*
X105932289Y-54829158D01*
X105927853Y-54829402D01*
X105670831Y-54880527D01*
X105666621Y-54882005D01*
X105666619Y-54882006D01*
X105521872Y-54932838D01*
X105423576Y-54967357D01*
X105419625Y-54969410D01*
X105419619Y-54969412D01*
X105292269Y-55035566D01*
X105191022Y-55088159D01*
X105187407Y-55090742D01*
X105187401Y-55090746D01*
X104981430Y-55237935D01*
X104981426Y-55237938D01*
X104977809Y-55240523D01*
X104788191Y-55421409D01*
X104625953Y-55627208D01*
X104623721Y-55631050D01*
X104623718Y-55631055D01*
X104496561Y-55849972D01*
X104494330Y-55853813D01*
X104492665Y-55857925D01*
X104492662Y-55857930D01*
X104397623Y-56092570D01*
X104395949Y-56096703D01*
X104332774Y-56351032D01*
X104306063Y-56611726D01*
X88961476Y-56611726D01*
X88947094Y-56408596D01*
X88891938Y-56152408D01*
X88872985Y-56101032D01*
X88802776Y-55910724D01*
X88801235Y-55906547D01*
X88676795Y-55675920D01*
X88643658Y-55631055D01*
X88523745Y-55468706D01*
X88521101Y-55465126D01*
X88337259Y-55278374D01*
X88268711Y-55226060D01*
X88132482Y-55122093D01*
X88132478Y-55122090D01*
X88128937Y-55119388D01*
X87900292Y-54991340D01*
X87896143Y-54989735D01*
X87896139Y-54989733D01*
X87748571Y-54932644D01*
X87655887Y-54896787D01*
X87651566Y-54895785D01*
X87651558Y-54895783D01*
X87483444Y-54856817D01*
X87400596Y-54837614D01*
X87139516Y-54815002D01*
X87135081Y-54815246D01*
X87135077Y-54815246D01*
X86882296Y-54829157D01*
X86882289Y-54829158D01*
X86877853Y-54829402D01*
X86620831Y-54880527D01*
X86616621Y-54882005D01*
X86616619Y-54882006D01*
X86471872Y-54932838D01*
X86373576Y-54967357D01*
X86369625Y-54969410D01*
X86369619Y-54969412D01*
X86242269Y-55035566D01*
X86141022Y-55088159D01*
X86137407Y-55090742D01*
X86137401Y-55090746D01*
X85931430Y-55237935D01*
X85931426Y-55237938D01*
X85927809Y-55240523D01*
X85738191Y-55421409D01*
X85575953Y-55627208D01*
X85573721Y-55631050D01*
X85573718Y-55631055D01*
X85446561Y-55849972D01*
X85444330Y-55853813D01*
X85442665Y-55857925D01*
X85442662Y-55857930D01*
X85347623Y-56092570D01*
X85345949Y-56096703D01*
X85282774Y-56351032D01*
X85256063Y-56611726D01*
X69911476Y-56611726D01*
X69897094Y-56408596D01*
X69841938Y-56152408D01*
X69822985Y-56101032D01*
X69752776Y-55910724D01*
X69751235Y-55906547D01*
X69626795Y-55675920D01*
X69593658Y-55631055D01*
X69473745Y-55468706D01*
X69471101Y-55465126D01*
X69287259Y-55278374D01*
X69218711Y-55226060D01*
X69082482Y-55122093D01*
X69082478Y-55122090D01*
X69078937Y-55119388D01*
X68850292Y-54991340D01*
X68846143Y-54989735D01*
X68846139Y-54989733D01*
X68698571Y-54932644D01*
X68605887Y-54896787D01*
X68601566Y-54895785D01*
X68601558Y-54895783D01*
X68433444Y-54856817D01*
X68350596Y-54837614D01*
X68089516Y-54815002D01*
X68085081Y-54815246D01*
X68085077Y-54815246D01*
X67832296Y-54829157D01*
X67832289Y-54829158D01*
X67827853Y-54829402D01*
X67570831Y-54880527D01*
X67566621Y-54882005D01*
X67566619Y-54882006D01*
X67421872Y-54932838D01*
X67323576Y-54967357D01*
X67319625Y-54969410D01*
X67319619Y-54969412D01*
X67192269Y-55035566D01*
X67091022Y-55088159D01*
X67087407Y-55090742D01*
X67087401Y-55090746D01*
X66881430Y-55237935D01*
X66881426Y-55237938D01*
X66877809Y-55240523D01*
X66688191Y-55421409D01*
X66525953Y-55627208D01*
X66523721Y-55631050D01*
X66523718Y-55631055D01*
X66396561Y-55849972D01*
X66394330Y-55853813D01*
X66392665Y-55857925D01*
X66392662Y-55857930D01*
X66297623Y-56092570D01*
X66295949Y-56096703D01*
X66232774Y-56351032D01*
X66206063Y-56611726D01*
X53516454Y-56611726D01*
X53530454Y-45785325D01*
X53532608Y-45765765D01*
X53532585Y-45762084D01*
X53535652Y-45748236D01*
X53532410Y-45734426D01*
X53532320Y-45720234D01*
X53532549Y-45720233D01*
X53531770Y-45712256D01*
X53545203Y-45336904D01*
X53546080Y-45325904D01*
X53596015Y-44923232D01*
X53597851Y-44912351D01*
X53599867Y-44902938D01*
X53682828Y-44515580D01*
X53685606Y-44504912D01*
X53687000Y-44500386D01*
X53804968Y-44117105D01*
X53808672Y-44106714D01*
X53810632Y-44101895D01*
X53961509Y-43730838D01*
X53966107Y-43720811D01*
X54151245Y-43359743D01*
X54156701Y-43350161D01*
X54372714Y-43006687D01*
X54378992Y-42997612D01*
X54445495Y-42909952D01*
X54624232Y-42674350D01*
X54631277Y-42665862D01*
X54903857Y-42365299D01*
X54911620Y-42357458D01*
X54987232Y-42287500D01*
X79873284Y-42287500D01*
X79893063Y-42437736D01*
X79951052Y-42577733D01*
X80043299Y-42697951D01*
X80163517Y-42790198D01*
X80303514Y-42848187D01*
X80416030Y-42863000D01*
X80491470Y-42863000D01*
X80603986Y-42848187D01*
X80743983Y-42790198D01*
X80864201Y-42697951D01*
X80956448Y-42577733D01*
X81014437Y-42437736D01*
X81034216Y-42287500D01*
X85653284Y-42287500D01*
X85673063Y-42437736D01*
X85731052Y-42577733D01*
X85823299Y-42697951D01*
X85943517Y-42790198D01*
X86083514Y-42848187D01*
X86196030Y-42863000D01*
X86271470Y-42863000D01*
X86383986Y-42848187D01*
X86523983Y-42790198D01*
X86644201Y-42697951D01*
X86736448Y-42577733D01*
X86794437Y-42437736D01*
X86814216Y-42287500D01*
X86794437Y-42137264D01*
X86736448Y-41997267D01*
X86644201Y-41877049D01*
X86523983Y-41784802D01*
X86383986Y-41726813D01*
X86271470Y-41712000D01*
X86196030Y-41712000D01*
X86083514Y-41726813D01*
X85943517Y-41784802D01*
X85823299Y-41877049D01*
X85731052Y-41997267D01*
X85673063Y-42137264D01*
X85653284Y-42287500D01*
X81034216Y-42287500D01*
X81014437Y-42137264D01*
X80956448Y-41997267D01*
X80864201Y-41877049D01*
X80743983Y-41784802D01*
X80603986Y-41726813D01*
X80491470Y-41712000D01*
X80416030Y-41712000D01*
X80303514Y-41726813D01*
X80163517Y-41784802D01*
X80043299Y-41877049D01*
X79951052Y-41997267D01*
X79893063Y-42137264D01*
X79873284Y-42287500D01*
X54987232Y-42287500D01*
X55209455Y-42081893D01*
X55217875Y-42074761D01*
X55538676Y-41826313D01*
X55547688Y-41819945D01*
X55888984Y-41600526D01*
X55898518Y-41594970D01*
X55908684Y-41589629D01*
X56257734Y-41406236D01*
X56267719Y-41401537D01*
X56642038Y-41244970D01*
X56652394Y-41241162D01*
X57038995Y-41117939D01*
X57049626Y-41115057D01*
X57361020Y-41045113D01*
X57445538Y-41026129D01*
X57456380Y-41024188D01*
X57858560Y-40970240D01*
X57869535Y-40969255D01*
X58243990Y-40952116D01*
X58252016Y-40952834D01*
X58252016Y-40952506D01*
X58266206Y-40952503D01*
X58280039Y-40955656D01*
X58293871Y-40952498D01*
X58299107Y-40952497D01*
X58316823Y-40950500D01*
X76462629Y-40950500D01*
X76491082Y-40953755D01*
X76492324Y-40954043D01*
X76492331Y-40954044D01*
X76499282Y-40955655D01*
X76500000Y-40955656D01*
X76506931Y-40954075D01*
X76514013Y-40953282D01*
X76514033Y-40953463D01*
X76518833Y-40952729D01*
X76688380Y-40939386D01*
X76693187Y-40938232D01*
X76693193Y-40938231D01*
X76808915Y-40910448D01*
X76872122Y-40895274D01*
X76882834Y-40890837D01*
X77042127Y-40824856D01*
X77042131Y-40824854D01*
X77046701Y-40822961D01*
X77207818Y-40724228D01*
X77211573Y-40721021D01*
X77211577Y-40721018D01*
X77347750Y-40604714D01*
X77351506Y-40601506D01*
X77359401Y-40592262D01*
X77471018Y-40461577D01*
X77471021Y-40461573D01*
X77474228Y-40457818D01*
X77572961Y-40296701D01*
X77575755Y-40289957D01*
X77643380Y-40126695D01*
X77643381Y-40126693D01*
X77645274Y-40122122D01*
X77689386Y-39938380D01*
X77702647Y-39769895D01*
X77703437Y-39764786D01*
X77703228Y-39764762D01*
X77704045Y-39757667D01*
X77705655Y-39750718D01*
X77705656Y-39750000D01*
X77703654Y-39741225D01*
X77700500Y-39713210D01*
X77700500Y-35856500D01*
X77720502Y-35788379D01*
X77774158Y-35741886D01*
X77826500Y-35730500D01*
X88823500Y-35730500D01*
X88891621Y-35750502D01*
G37*
%TD.AperFunction*%
%TD*%
M02*
